<?xml version="1.0" encoding="UTF-8" standalone="no"?>
<svg
   width="20"
   height="13.311658"
   fill="currentColor"
   viewBox="0 0 20 13.311658"
   version="1.1"
   id="svg6"
   sodipodi:docname="quote.svg"
   inkscape:version="1.1 (ce6663b3b7, 2021-05-25)"
   xmlns:inkscape="http://www.inkscape.org/namespaces/inkscape"
   xmlns:sodipodi="http://sodipodi.sourceforge.net/DTD/sodipodi-0.dtd"
   xmlns="http://www.w3.org/2000/svg"
   xmlns:svg="http://www.w3.org/2000/svg">
  <sodipodi:namedview
     id="namedview5"
     pagecolor="#ffffff"
     bordercolor="#666666"
     borderopacity="1.0"
     inkscape:pageshadow="2"
     inkscape:pageopacity="0.0"
     inkscape:pagecheckerboard="0"
     showgrid="false"
     inkscape:zoom="16.051769"
     inkscape:cx="-6.7905287"
     inkscape:cy="-0.34264135"
     inkscape:window-width="1366"
     inkscape:window-height="704"
     inkscape:window-x="0"
     inkscape:window-y="27"
     inkscape:window-maximized="1"
     inkscape:current-layer="svg6" />
  <defs
     id="defs10" />
  <path
     d="m 8.1517634,2.0348767 a 4.4268079,4.4268079 0 0 0 -8.151707693955,2.4141392 4.4321254,4.4321254 0 0 0 6.809042193955,3.7381933 c -0.3482954,1.0342512 -0.9970288,2.1376298 -2.0658437,3.2436668 a 1.1093685,1.1093685 0 1 0 1.5952461,1.542071 c 3.9508927,-4.0944645 3.4377554,-8.5452011 1.8132631,-10.9327528 z m 10.6349736,0 a 4.4268079,4.4268079 0 0 0 -8.151707,2.4141392 4.4321254,4.4321254 0 0 0 6.809042,3.7381933 c -0.348295,1.0342512 -0.997029,2.1376298 -2.065844,3.2436668 a 1.1093685,1.1093685 0 1 0 1.595246,1.542071 c 3.950893,-4.0944645 3.437756,-8.5452011 1.813263,-10.9327528 z"
     id="path4"
     style="stroke-width:2.65874" />
</svg>
