<?xml version="1.0" encoding="UTF-8" standalone="no"?>
<svg
   xmlns:dc="http://purl.org/dc/elements/1.1/"
   xmlns:cc="http://creativecommons.org/ns#"
   xmlns:rdf="http://www.w3.org/1999/02/22-rdf-syntax-ns#"
   xmlns:svg="http://www.w3.org/2000/svg"
   xmlns="http://www.w3.org/2000/svg"
   id="svg477"
   version="1.1"
   viewBox="0 0 79.375001 23.012145"
   height="86.975037"
   width="300">
  <defs
     id="defs471" />
  <metadata
     id="metadata474">
    <rdf:RDF>
      <cc:Work
         rdf:about="">
        <dc:format>image/svg+xml</dc:format>
        <dc:type
           rdf:resource="http://purl.org/dc/dcmitype/StillImage" />
        <dc:title></dc:title>
      </cc:Work>
    </rdf:RDF>
  </metadata>
  <g
     transform="translate(-69.150737,-39.8244)"
     id="layer1">
    <path
       style="color:black;font-style:normal;font-variant:normal;font-weight:normal;font-stretch:normal;font-size:medium;line-height:normal;font-family:sans-serif;font-variant-ligatures:normal;font-variant-position:normal;font-variant-caps:normal;font-variant-numeric:normal;font-variant-alternates:normal;font-feature-settings:normal;text-indent:0;text-align:start;text-decoration:none;text-decoration-line:none;text-decoration-style:solid;text-decoration-color:black;letter-spacing:normal;word-spacing:normal;text-transform:none;writing-mode:lr-tb;direction:ltr;text-orientation:mixed;dominant-baseline:auto;baseline-shift:baseline;text-anchor:start;white-space:normal;shape-padding:0;clip-rule:nonzero;display:inline;overflow:visible;visibility:visible;opacity:1;isolation:auto;mix-blend-mode:normal;color-interpolation:sRGB;color-interpolation-filters:linearRGB;solid-color:black;solid-opacity:1;vector-effect:none;fill:black;fill-opacity:0.99215686;fill-rule:evenodd;stroke:none;stroke-width:1.74947989;stroke-linecap:butt;stroke-linejoin:round;stroke-miterlimit:4;stroke-dasharray:none;stroke-dashoffset:0;stroke-opacity:1;paint-order:markers stroke fill;color-rendering:auto;image-rendering:auto;shape-rendering:auto;text-rendering:auto;enable-background:accumulate"
       d="m 80.373419,39.8244 c -0.609591,0 -1.164284,0.277138 -1.554712,0.71353 -5.449583,0.764111 -9.66797,5.425395 -9.66797,11.075958 0,6.181684 5.043009,11.222656 11.224694,11.222656 4.508317,0 8.407789,-2.682313 10.189506,-6.53194 h 2.191923 v 1.669261 c 0,0.483165 0.392177,0.874637 0.875342,0.874328 h 0.617062 c 0.211564,-4.12e-4 0.415795,-0.07754 0.574849,-0.21709 0.283261,0.163628 0.60816,0.259335 0.916547,0.259335 0.345497,0 0.71581,-0.114385 1.019057,-0.319589 0.273479,0.195993 0.609544,0.319589 0.919562,0.319589 0.117797,0 0.236643,-0.02007 0.352752,-0.05429 0.04713,0.0077 0.09488,0.01184 0.142706,0.01184 h 0.537667 c 0.174433,0 0.344863,-0.05212 0.489432,-0.149735 0.253778,0.122052 0.531595,0.19198 0.79695,0.19198 0.484454,0 1.023014,-0.215598 1.347684,-0.608047 0.0365,-0.04425 0.0611,-0.09406 0.0925,-0.140679 0.0805,0.410356 0.44008,0.706378 0.85826,0.706481 h 0.59495 c 0.17781,-1.03e-4 0.35133,-0.05449 0.49747,-0.155755 0.25698,0.125963 0.53936,0.198 0.80901,0.198 0.48446,0 1.02302,-0.215598 1.34769,-0.608047 0.0731,-0.08835 0.13277,-0.183644 0.18592,-0.281409 0.0365,0.07595 0.0727,0.15205 0.12161,0.225117 0.002,0 0.004,0.0051 0.005,0.0062 0.18685,0.274 0.50012,0.475499 0.82811,0.578872 v 0.0319 c 0,0.483525 0.39179,0.875614 0.87534,0.875306 h 0.59395 c 0.47351,0 0.86055,-0.377888 0.87333,-0.851225 0.0651,0.0093 0.13175,0.02316 0.19397,0.02316 0.11939,0 0.24126,-0.02161 0.3628,-0.05532 0.0485,0.0082 0.0975,0.01235 0.14672,0.01235 h 0.55676 c 0.17657,-1.03e-4 0.34894,-0.05382 0.49446,-0.153799 0.26761,0.125962 0.56106,0.195993 0.84218,0.195993 0.27234,0 0.55109,-0.05501 0.80499,-0.167847 0.002,0 0.004,1.54e-4 0.006,-0.0051 0.19398,-0.08814 0.38405,-0.216318 0.54269,-0.385915 0.14138,0.312849 0.45263,0.51409 0.79595,0.514553 h 0.59395 c 0.075,-1.03e-4 0.14963,-0.0098 0.2221,-0.02933 0.0725,0.01904 0.14713,0.02882 0.2221,0.02933 h 0.59395 c 0.0868,1.03e-4 0.17322,-0.01286 0.25627,-0.03808 0.0821,0.02521 0.16743,0.03808 0.25326,0.03808 h 0.59495 c 0.15207,-5.14e-4 0.30134,-0.04065 0.43315,-0.116597 0.21964,0.104042 0.45634,0.158791 0.6663,0.158791 0.21085,0 0.42902,-0.0355 0.63415,-0.112585 0.0427,-0.01647 0.084,-0.03653 0.12361,-0.05928 0.25472,0.111195 0.53064,0.171861 0.79495,0.171861 0.24574,0 0.49343,-0.05212 0.7266,-0.143715 0.12543,0.06633 0.26512,0.101213 0.40702,0.101521 h 0.59395 c 0.23992,-2.57e-4 0.46917,-0.09915 0.63415,-0.273382 0.31848,0.211276 0.70562,0.315576 1.0683,0.315576 0.27234,0 0.55108,-0.05501 0.80499,-0.167848 0.003,0 0.005,1.55e-4 0.007,-0.0051 0.0468,-0.0211 0.0896,-0.05665 0.13567,-0.08243 0.0327,0.02007 0.0639,0.04219 0.0975,0.05928 0.003,0 0.005,-1.03e-4 0.007,0.0051 0.2639,0.133372 0.55549,0.19095 0.83413,0.19095 0.31839,0 0.65543,-0.07811 0.94972,-0.249249 0.25442,0.159563 0.56087,0.249249 0.84318,0.249249 0.11299,0 0.22944,-0.02161 0.34571,-0.05429 0.0445,0.0072 0.0895,0.01183 0.13467,0.01235 h 0.59596 c 0.10471,-2.57e-4 0.20854,-0.01955 0.30652,-0.05629 0.14457,0.05233 0.29422,0.0794 0.43014,0.0794 0.27254,0 0.60165,-0.108108 0.8281,-0.310533 h 0.002 c 0.0885,-0.07924 0.15924,-0.1821 0.22009,-0.291443 0.1245,0.347632 0.45383,0.579644 0.82309,0.57985 h 0.61505 c 0.15801,-5.15e-4 0.3129,-0.04425 0.44822,-0.125603 0.1362,0.08212 0.29221,0.125551 0.45124,0.125603 h 0.61505 c 0.14573,-2.58e-4 0.28908,-0.03705 0.41707,-0.106513 0.20764,0.09319 0.43238,0.148706 0.6452,0.148706 0.11291,0 0.22953,-0.02058 0.34572,-0.05326 0.0446,0.0072 0.0896,0.01081 0.13467,0.01132 h 0.59595 c 0.13885,-4.12e-4 0.27561,-0.03396 0.39898,-0.09746 0.19701,0.08439 0.40507,0.139649 0.60199,0.139649 0.11779,0 0.23664,-0.02007 0.35275,-0.05423 0.0472,0.0077 0.0949,0.01184 0.1427,0.01184 h 0.53768 c 0.13962,-4.11e-4 0.2771,-0.03396 0.40098,-0.09849 0.20333,0.08876 0.42266,0.140679 0.63013,0.140679 0.11292,0 0.22951,-0.02161 0.34572,-0.05423 0.0445,0.0072 0.0895,0.01132 0.13467,0.01183 h 0.59695 c 0.2645,-4.11e-4 0.51462,-0.120456 0.68038,-0.326586 0.16574,0.20613 0.41588,0.326175 0.68037,0.326586 h 0.61506 c 0.094,-1.03e-4 0.18727,-0.01544 0.27637,-0.04528 0.0891,0.02984 0.18242,0.04528 0.27637,0.04528 h 0.41808 c 0.094,-1.03e-4 0.18726,-0.01544 0.27637,-0.04528 0.0888,0.02984 0.18176,0.04477 0.27536,0.04528 h 0.61706 c 0.14497,-2.57e-4 0.28759,-0.03653 0.41506,-0.105534 0.20686,0.09241 0.42935,0.147728 0.64118,0.147728 0.11299,0 0.23047,-0.02161 0.34672,-0.05423 0.0445,0.0072 0.0895,0.01132 0.13467,0.01184 h 0.59596 c 0.13614,-2.58e-4 0.27034,-0.03242 0.39194,-0.09344 0.22828,0.09195 0.47036,0.135687 0.7045,0.135636 0.30351,0 0.62513,-0.06864 0.90951,-0.223059 0.20934,0.131726 0.46161,0.203969 0.67937,0.203969 0.27253,0 0.60162,-0.108005 0.82811,-0.310533 0.24266,-0.217398 0.39196,-0.589883 0.39195,-0.887398 0,-0.293295 -0.14459,-0.65765 -0.37989,-0.875357 -0.20062,-0.185908 -0.48611,-0.293655 -0.74268,-0.316553 0.005,-0.03396 0.007,-0.06818 0.008,-0.102499 0,-0.417405 -0.19527,-0.893264 -0.52862,-1.17987 -0.33101,-0.284651 -0.76687,-0.403975 -1.16578,-0.403975 0.9045,-1.562749 0.8951,-1.563109 1.68031,-3.016978 0.1795,-0.352058 0.26732,-0.747697 0.26732,-1.142668 0,-0.338061 -0.0637,-0.679519 -0.2221,-0.992933 -0.15408,-0.325352 -0.40026,-0.592816 -0.68339,-0.789942 -0.0431,-0.03087 -0.0929,-0.053 -0.13768,-0.0814 0.0513,-0.04682 0.0969,-0.09998 0.13567,-0.157762 l 0.59897,-0.904481 c 0.27197,-0.410304 0.15203,-0.964066 -0.26531,-1.225099 -0.41236,-0.257688 -0.85928,-0.459341 -1.33262,-0.603982 -0.48048,-0.156373 -0.97649,-0.237158 -1.47431,-0.237158 -0.40462,0 -0.79815,0.05382 -1.17182,0.168825 h -0.006 c -0.36733,0.11598 -0.71011,0.292781 -1.008,0.5286 -0.29328,0.230726 -0.5347,0.52644 -0.7055,0.858275 -0.097,-0.132189 -0.19925,-0.260518 -0.31356,-0.378866 -0.33833,-0.364972 -0.75536,-0.653327 -1.22206,-0.855238 -0.48864,-0.214671 -1.02749,-0.312591 -1.5919,-0.312591 h -0.002 c -0.5651,0 -1.10629,0.09807 -1.59894,0.310584 -0.30528,0.131674 -0.58749,0.303175 -0.84418,0.504468 -0.0401,-0.380255 -0.3226,-0.690376 -0.69746,-0.765809 -0.0483,-0.0098 -0.0917,-0.0087 -0.13769,-0.01286 -0.14398,-0.02727 -0.22697,-0.02624 -0.32863,-0.02624 -0.4083,0 -0.79517,0.140833 -1.15573,0.334665 -0.16315,-0.158431 -0.3816,-0.24714 -0.60902,-0.247243 h -1.34065 c -0.48317,2.58e-4 -0.87462,0.392193 -0.87434,0.875358 v 0.49747 c -0.0813,-0.105021 -0.16774,-0.206696 -0.26029,-0.302506 -0.33844,-0.365024 -0.75521,-0.653328 -1.22206,-0.855239 -0.48849,-0.214517 -1.02772,-0.31259 -1.5919,-0.31259 -0.5651,0 -1.1073,0.09807 -1.59994,0.310584 -0.46989,0.202682 -0.8908,0.490677 -1.23613,0.855238 -0.16723,0.1768 -0.31518,0.369758 -0.44421,0.575836 -0.10666,-0.191979 -0.22885,-0.373822 -0.36883,-0.54167 -0.29166,-0.35818 -0.65594,-0.651732 -1.0683,-0.863316 -0.43302,-0.225992 -0.92028,-0.33765 -1.41502,-0.33765 -0.3736,0 -0.73144,0.08104 -1.07534,0.200984 v -1.473319 c 0,-0.482754 -0.39156,-0.874071 -0.87433,-0.874328 l -1.45924,0.0051 c -0.48278,2.57e-4 -0.87406,0.391575 -0.87434,0.874328 v 2.744626 c -0.0816,-0.105638 -0.16722,-0.208188 -0.26029,-0.304513 -0.33835,-0.364972 -0.75536,-0.653328 -1.22206,-0.855238 -0.48864,-0.214672 -1.02749,-0.312591 -1.5919,-0.312591 h -0.001 c -0.5651,0 -1.1063,0.09807 -1.59894,0.310584 -0.3053,0.131674 -0.58742,0.303175 -0.84418,0.504468 -0.0401,-0.380255 -0.3226,-0.690324 -0.69747,-0.765809 -0.0483,-0.0098 -0.0917,-0.0087 -0.13768,-0.01286 -0.14393,-0.02727 -0.22598,-0.02624 -0.32763,-0.02624 -0.40829,0 -0.79619,0.140833 -1.15673,0.334665 -0.16316,-0.158482 -0.3816,-0.24714 -0.60903,-0.247243 h -1.33964 c -0.29799,-2.57e-4 -0.57559,0.151279 -0.73665,0.401969 -0.16087,-0.250381 -0.43803,-0.401814 -0.73566,-0.401969 h -1.45924 c -0.48355,-2.57e-4 -0.87563,0.391781 -0.87534,0.875358 h -0.68036 c 0,-0.483166 -0.39118,-0.875049 -0.87433,-0.875306 h -1.46025 c -0.26054,2.57e-4 -0.50738,0.1167 -0.673343,0.31753 -0.166268,-0.30374 -0.358834,-0.591221 -0.584903,-0.853231 -0.393633,-0.456254 -0.875609,-0.826733 -1.421051,-1.100423 -0.57703,-0.296949 -1.22179,-0.445243 -1.889371,-0.445243 -0.648316,0 -1.276889,0.138055 -1.847168,0.413083 -0.547567,0.257019 -1.035939,0.613553 -1.444165,1.057252 -0.0021,0.0051 -0.0041,0.0051 -0.006,0.0072 -0.283498,0.390854 -0.627966,0.955525 -0.933636,1.481758 h -1.370028 c -1.620749,-3.228511 -4.758616,-5.568749 -8.477949,-6.090197 -0.390787,-0.43701 -0.945892,-0.713376 -1.55572,-0.713531 z"
       id="path628" />
    <g
       transform="matrix(1.0885814,0,0,1.0885814,-166.70676,-441.51785)"
       id="g626"
       style="fill:#6c5353;stroke:black;stroke-width:1.70561409;stroke-linejoin:round;stroke-miterlimit:4;stroke-dasharray:none;stroke-opacity:0.99215686;paint-order:markers stroke fill">
      <g
         transform="matrix(0.8443233,0,0,0.8443233,184.7203,426.61448)"
         id="g550"
         style="fill:#6c5353">
        <path
           style="color:black;font-style:normal;font-variant:normal;font-weight:normal;font-stretch:normal;font-size:medium;line-height:normal;font-family:sans-serif;font-variant-ligatures:normal;font-variant-position:normal;font-variant-caps:normal;font-variant-numeric:normal;font-variant-alternates:normal;font-feature-settings:normal;text-indent:0;text-align:start;text-decoration:none;text-decoration-line:none;text-decoration-style:solid;text-decoration-color:black;letter-spacing:normal;word-spacing:normal;text-transform:none;writing-mode:lr-tb;direction:ltr;text-orientation:mixed;dominant-baseline:auto;baseline-shift:baseline;text-anchor:start;white-space:normal;shape-padding:0;clip-rule:nonzero;display:inline;overflow:visible;visibility:visible;opacity:1;isolation:auto;mix-blend-mode:normal;color-interpolation:sRGB;color-interpolation-filters:linearRGB;solid-color:black;solid-opacity:1;vector-effect:none;fill:#6c5353;fill-opacity:1;fill-rule:evenodd;stroke:none;stroke-width:3.64724398;stroke-linecap:butt;stroke-linejoin:miter;stroke-miterlimit:4;stroke-dasharray:none;stroke-dashoffset:0;stroke-opacity:1;color-rendering:auto;image-rendering:auto;shape-rendering:auto;text-rendering:auto;enable-background:accumulate"
           d="m 189.15039,75.384766 a 3.9793338,3.9793338 0 0 0 -3.69141,2.505859 c -21.15487,1.873735 -37.77734,19.659835 -37.77734,41.296875 0,22.88281 18.58984,41.47266 41.47266,41.47266 22.88281,0 41.4707,-18.58985 41.4707,-41.47266 0,-21.6377 -16.6235,-39.424054 -37.7793,-41.296875 a 3.9793338,3.9793338 0 0 0 -3.69531,-2.505859 z m 3.3418,6.132812 c 19.34305,1.687681 34.48632,17.884077 34.48633,37.669922 0,20.9117 -16.91253,37.82617 -37.82422,37.82617 -20.9117,0 -37.82617,-16.91447 -37.82618,-37.82617 0,-19.782676 15.13991,-35.975909 34.47852,-37.667969 a 3.9793338,3.9793338 0 0 0 3.34375,1.824219 3.9793338,3.9793338 0 0 0 3.3418,-1.826172 z"
           transform="scale(0.26458333)"
           id="path546" />
        <path
           style="color:black;clip-rule:nonzero;display:inline;overflow:visible;visibility:visible;opacity:1;isolation:auto;mix-blend-mode:normal;color-interpolation:sRGB;color-interpolation-filters:linearRGB;solid-color:black;solid-opacity:1;fill:#6c5353;fill-opacity:1;fill-rule:evenodd;stroke:none;stroke-width:0.35277775px;stroke-linecap:butt;stroke-linejoin:miter;stroke-miterlimit:4;stroke-dasharray:none;stroke-dashoffset:0;stroke-opacity:1;color-rendering:auto;image-rendering:auto;shape-rendering:auto;text-rendering:auto;enable-background:accumulate"
           d="m 52.718914,31.534542 a 2.6726952,2.6726952 0 0 1 -2.672695,2.672695 2.6726952,2.6726952 0 0 1 -2.672695,-2.672695 2.6726952,2.6726952 0 0 1 2.672695,-2.672695 2.6726952,2.6726952 0 0 1 2.672695,2.672695 z"
           id="path548" />
      </g>
      <g
         transform="matrix(1.4080978,0,0,1.4080978,144.65856,517.97098)"
         aria-label="Ouroboros"
         style="font-style:normal;font-variant:normal;font-weight:normal;font-stretch:normal;font-size:7.10792446px;line-height:100%;font-family:arvo;-inkscape-font-specification:arvo;text-align:start;letter-spacing:0px;word-spacing:0px;writing-mode:lr-tb;text-anchor:start;fill:#6c5353;fill-opacity:1;stroke:none;stroke-width:0.592327px;stroke-linecap:butt;stroke-linejoin:miter;stroke-opacity:1"
         id="g570">
        <path
           d="m 68.63819,-45.452642 q -0.533095,0 -0.973786,-0.213238 -0.440691,-0.220346 -0.760548,-0.575742 -0.312749,-0.362504 -0.483339,-0.824519 -0.17059,-0.462015 -0.17059,-0.945354 0,-0.504663 0.177698,-0.966678 0.184806,-0.462015 0.504663,-0.817411 0.326964,-0.355397 0.767656,-0.561526 0.440691,-0.213238 0.95957,-0.213238 0.533094,0 0.973785,0.227454 0.440691,0.220345 0.75344,0.582849 0.312749,0.362504 0.483339,0.82452 0.17059,0.462015 0.17059,0.938246 0,0.504662 -0.184806,0.966677 -0.177698,0.454907 -0.497555,0.810304 -0.319856,0.348288 -0.760547,0.561526 -0.440692,0.20613 -0.95957,0.20613 z m -1.400261,-2.558853 q 0,0.326964 0.0924,0.632605 0.09951,0.305641 0.277209,0.540202 0.184806,0.234562 0.447799,0.37672 0.262993,0.142159 0.597066,0.142159 0.34118,0 0.597065,-0.142159 0.262993,-0.149266 0.440692,-0.390936 0.177698,-0.241669 0.270101,-0.540202 0.0924,-0.305641 0.0924,-0.618389 0,-0.326965 -0.09951,-0.632606 -0.09951,-0.30564 -0.284317,-0.540202 -0.177698,-0.234561 -0.440692,-0.369612 -0.255885,-0.142158 -0.582849,-0.142158 -0.341181,0 -0.604174,0.149266 -0.255885,0.142159 -0.440691,0.383828 -0.177698,0.234561 -0.270101,0.540202 -0.0924,0.298533 -0.0924,0.611282 z"
           style="font-style:normal;font-variant:normal;font-weight:bold;font-stretch:normal;font-family:Raleway;-inkscape-font-specification:'Raleway Bold';fill:#6c5353;stroke-width:0.592327px"
           id="path552" />
        <path
           d="m 72.812874,-45.417103 q -0.575742,0 -0.874275,-0.369612 -0.298533,-0.369612 -0.298533,-1.09462 v -2.331399 h 0.952462 v 2.125269 q 0,0.860059 0.618389,0.860059 0.284317,0 0.540203,-0.163482 0.262993,-0.170591 0.426475,-0.511771 v -2.310075 h 0.952462 v 2.629932 q 0,0.149266 0.05686,0.213237 0.05686,0.06397 0.199022,0.07108 v 0.810303 q -0.149266,0.02843 -0.262993,0.03554 -0.113727,0.01422 -0.199022,0.01422 -0.255885,0 -0.405151,-0.113726 -0.142159,-0.120835 -0.177699,-0.326965 l -0.02132,-0.305641 q -0.255886,0.383828 -0.646822,0.575742 -0.383827,0.191914 -0.860058,0.191914 z"
           style="font-style:normal;font-variant:normal;font-weight:bold;font-stretch:normal;font-family:Raleway;-inkscape-font-specification:'Raleway Bold';fill:#6c5353;stroke-width:0.592327px"
           id="path554" />
        <path
           d="m 78.307966,-48.388215 q -0.433583,0.0071 -0.774764,0.17059 -0.34118,0.156374 -0.490446,0.476231 v 2.253212 h -0.952462 v -3.724552 h 0.874275 v 0.796087 q 0.191913,-0.383828 0.497554,-0.618389 0.312749,-0.234562 0.653929,-0.234562 0.07819,0 0.113727,0.0071 0.04265,0 0.07819,0.0071 z"
           style="font-style:normal;font-variant:normal;font-weight:bold;font-stretch:normal;font-family:Raleway;-inkscape-font-specification:'Raleway Bold';fill:#6c5353;stroke-width:0.592327px"
           id="path556" />
        <path
           d="m 80.469108,-45.417103 q -0.454907,0 -0.817411,-0.156374 -0.362505,-0.156374 -0.61839,-0.419368 -0.248777,-0.270101 -0.383828,-0.618389 -0.13505,-0.348288 -0.13505,-0.732116 0,-0.390936 0.13505,-0.739224 0.135051,-0.348289 0.383828,-0.611282 0.255885,-0.270101 0.61839,-0.426475 0.362504,-0.156375 0.817411,-0.156375 0.454907,0 0.810303,0.156375 0.362504,0.156374 0.611282,0.426475 0.255885,0.262993 0.390936,0.611282 0.13505,0.348288 0.13505,0.739224 0,0.383828 -0.13505,0.732116 -0.135051,0.348288 -0.383828,0.618389 -0.248778,0.262994 -0.611282,0.419368 -0.362504,0.156374 -0.817411,0.156374 z m -0.973786,-1.926247 q 0,0.248777 0.07108,0.454907 0.07819,0.199022 0.206129,0.348288 0.135051,0.149267 0.312749,0.234562 0.177698,0.07819 0.383828,0.07819 0.20613,0 0.383828,-0.07819 0.177698,-0.08529 0.305641,-0.234562 0.13505,-0.149266 0.206129,-0.355396 0.07819,-0.20613 0.07819,-0.454907 0,-0.24167 -0.07819,-0.4478 -0.07108,-0.206129 -0.206129,-0.355396 -0.127943,-0.149266 -0.305641,-0.227453 -0.177698,-0.0853 -0.383828,-0.0853 -0.20613,0 -0.383828,0.0853 -0.177698,0.0853 -0.312749,0.234561 -0.127942,0.149267 -0.206129,0.355396 -0.07108,0.20613 -0.07108,0.4478 z"
           style="font-style:normal;font-variant:normal;font-weight:bold;font-stretch:normal;font-family:Raleway;-inkscape-font-specification:'Raleway Bold';fill:#6c5353;stroke-width:0.592327px"
           id="path558" />
        <path
           d="m 85.163671,-45.417103 q -0.426476,0 -0.760548,-0.191914 -0.334073,-0.191914 -0.525987,-0.525986 v 0.646821 h -0.831627 v -5.188785 h 0.952462 v 2.118162 q 0.199022,-0.341181 0.518879,-0.525987 0.326964,-0.191914 0.75344,-0.191914 0.362504,0 0.661037,0.156375 0.30564,0.156374 0.518878,0.419367 0.220346,0.262993 0.334073,0.61839 0.120834,0.355396 0.120834,0.746332 0,0.405151 -0.13505,0.75344 -0.127943,0.348288 -0.362504,0.611281 -0.234562,0.255885 -0.554419,0.405152 -0.319856,0.149266 -0.689468,0.149266 z m -0.262993,-0.810303 q 0.227453,0 0.412259,-0.08529 0.191914,-0.0924 0.326965,-0.24167 0.142158,-0.149266 0.213237,-0.348288 0.07819,-0.199022 0.07819,-0.426476 0,-0.227453 -0.07108,-0.433583 -0.07108,-0.20613 -0.206129,-0.362504 -0.127943,-0.156374 -0.305641,-0.248777 -0.177698,-0.0924 -0.390936,-0.0924 -0.319857,0 -0.575742,0.213237 -0.248777,0.20613 -0.383828,0.511771 v 0.88849 q 0.04976,0.142159 0.142159,0.255886 0.09951,0.113727 0.220345,0.199022 0.120835,0.07819 0.262994,0.127942 0.142158,0.04265 0.277209,0.04265 z"
           style="font-style:normal;font-variant:normal;font-weight:bold;font-stretch:normal;font-family:Raleway;-inkscape-font-specification:'Raleway Bold';fill:#6c5353;stroke-width:0.592327px"
           id="path560" />
        <path
           d="m 89.270717,-45.417103 q -0.454907,0 -0.817411,-0.156374 -0.362505,-0.156374 -0.61839,-0.419368 -0.248777,-0.270101 -0.383828,-0.618389 -0.13505,-0.348288 -0.13505,-0.732116 0,-0.390936 0.13505,-0.739224 0.135051,-0.348289 0.383828,-0.611282 0.255885,-0.270101 0.61839,-0.426475 0.362504,-0.156375 0.817411,-0.156375 0.454907,0 0.810303,0.156375 0.362504,0.156374 0.611282,0.426475 0.255885,0.262993 0.390936,0.611282 0.13505,0.348288 0.13505,0.739224 0,0.383828 -0.13505,0.732116 -0.135051,0.348288 -0.383828,0.618389 -0.248778,0.262994 -0.611282,0.419368 -0.362504,0.156374 -0.817411,0.156374 z m -0.973786,-1.926247 q 0,0.248777 0.07108,0.454907 0.07819,0.199022 0.206129,0.348288 0.135051,0.149267 0.312749,0.234562 0.177698,0.07819 0.383828,0.07819 0.20613,0 0.383828,-0.07819 0.177698,-0.08529 0.305641,-0.234562 0.13505,-0.149266 0.206129,-0.355396 0.07819,-0.20613 0.07819,-0.454907 0,-0.24167 -0.07819,-0.4478 -0.07108,-0.206129 -0.206129,-0.355396 -0.127943,-0.149266 -0.305641,-0.227453 -0.177698,-0.0853 -0.383828,-0.0853 -0.20613,0 -0.383828,0.0853 -0.177698,0.0853 -0.312749,0.234561 -0.127942,0.149267 -0.206129,0.355396 -0.07108,0.20613 -0.07108,0.4478 z"
           style="font-style:normal;font-variant:normal;font-weight:bold;font-stretch:normal;font-family:Raleway;-inkscape-font-specification:'Raleway Bold';fill:#6c5353;stroke-width:0.592327px"
           id="path562" />
        <path
           d="m 94.064791,-48.388215 q -0.433584,0.0071 -0.774764,0.17059 -0.34118,0.156374 -0.490447,0.476231 v 2.253212 h -0.952462 v -3.724552 h 0.874275 v 0.796087 q 0.191914,-0.383828 0.497555,-0.618389 0.312748,-0.234562 0.653929,-0.234562 0.07819,0 0.113727,0.0071 0.04265,0 0.07819,0.0071 z"
           style="font-style:normal;font-variant:normal;font-weight:bold;font-stretch:normal;font-family:Raleway;-inkscape-font-specification:'Raleway Bold';fill:#6c5353;stroke-width:0.592327px"
           id="path564" />
        <path
           d="m 96.225932,-45.417103 q -0.454907,0 -0.817411,-0.156374 -0.362504,-0.156374 -0.618389,-0.419368 -0.248778,-0.270101 -0.383828,-0.618389 -0.135051,-0.348288 -0.135051,-0.732116 0,-0.390936 0.135051,-0.739224 0.13505,-0.348289 0.383828,-0.611282 0.255885,-0.270101 0.618389,-0.426475 0.362504,-0.156375 0.817411,-0.156375 0.454908,0 0.810304,0.156375 0.362504,0.156374 0.611281,0.426475 0.255886,0.262993 0.390936,0.611282 0.135051,0.348288 0.135051,0.739224 0,0.383828 -0.135051,0.732116 -0.13505,0.348288 -0.383828,0.618389 -0.248777,0.262994 -0.611281,0.419368 -0.362504,0.156374 -0.817412,0.156374 z m -0.973785,-1.926247 q 0,0.248777 0.07108,0.454907 0.07819,0.199022 0.20613,0.348288 0.13505,0.149267 0.312748,0.234562 0.177699,0.07819 0.383828,0.07819 0.20613,0 0.383828,-0.07819 0.177698,-0.08529 0.305641,-0.234562 0.135051,-0.149266 0.20613,-0.355396 0.07819,-0.20613 0.07819,-0.454907 0,-0.24167 -0.07819,-0.4478 -0.07108,-0.206129 -0.20613,-0.355396 -0.127943,-0.149266 -0.305641,-0.227453 -0.177698,-0.0853 -0.383828,-0.0853 -0.206129,0 -0.383828,0.0853 -0.177698,0.0853 -0.312748,0.234561 -0.127943,0.149267 -0.20613,0.355396 -0.07108,0.20613 -0.07108,0.4478 z"
           style="font-style:normal;font-variant:normal;font-weight:bold;font-stretch:normal;font-family:Raleway;-inkscape-font-specification:'Raleway Bold';fill:#6c5353;stroke-width:0.592327px"
           id="path566" />
        <path
           d="m 100.24591,-45.417103 q -0.22746,0 -0.476234,-0.03554 -0.241669,-0.03554 -0.476231,-0.09951 -0.234561,-0.06397 -0.447799,-0.156375 -0.213238,-0.0924 -0.37672,-0.20613 l 0.383828,-0.646821 q 0.710792,0.462015 1.371826,0.462015 0.29854,0 0.46913,-0.106618 0.17059,-0.106619 0.17059,-0.305641 0,-0.199022 -0.20613,-0.291425 -0.19903,-0.09951 -0.675256,-0.213238 -0.362504,-0.0853 -0.61839,-0.177698 -0.255885,-0.0924 -0.412259,-0.213238 -0.156375,-0.120834 -0.227454,-0.277209 -0.07108,-0.156374 -0.07108,-0.369612 0,-0.284317 0.113727,-0.51177 0.113726,-0.227454 0.312748,-0.383828 0.20613,-0.163483 0.476231,-0.248778 0.277209,-0.0853 0.597063,-0.0853 0.39805,0 0.78898,0.127943 0.39805,0.120835 0.73923,0.334072 l -0.39094,0.589958 q -0.31275,-0.199022 -0.58996,-0.284317 -0.2772,-0.0924 -0.55441,-0.0924 -0.25589,0 -0.433588,0.09951 -0.170591,0.09951 -0.170591,0.319857 0,0.191914 0.163483,0.277209 0.17059,0.08529 0.597066,0.191914 0.39804,0.09951 0.67525,0.199022 0.28432,0.09951 0.46202,0.227453 0.1848,0.127943 0.26299,0.298533 0.0853,0.163482 0.0853,0.398044 0,0.270101 -0.11373,0.490447 -0.10662,0.220345 -0.30564,0.37672 -0.19902,0.149266 -0.49045,0.234561 -0.28431,0.07819 -0.6326,0.07819 z"
           style="font-style:normal;font-variant:normal;font-weight:bold;font-stretch:normal;font-family:Raleway;-inkscape-font-specification:'Raleway Bold';fill:#6c5353;stroke-width:0.592327px"
           id="path568" />
      </g>
      <g
         transform="matrix(1.4080978,0,0,1.4080978,144.65856,517.68736)"
         aria-label="Todo lo que interesa. Nada Más."
         style="font-style:normal;font-variant:normal;font-weight:normal;font-stretch:normal;font-size:2.79458737px;line-height:100%;font-family:arvo;-inkscape-font-specification:arvo;text-align:start;letter-spacing:0px;word-spacing:0px;writing-mode:lr-tb;text-anchor:start;fill:#6c5353;fill-opacity:1;stroke:none;stroke-width:0.48378351px;stroke-linecap:butt;stroke-linejoin:miter;stroke-opacity:1"
         id="g624">
        <path
           d="m 68.002554,-43.462392 h -0.491236 v 1.652463 h -0.40254 v -1.652463 h -0.483049 v -0.334314 h 1.376825 z"
           style="font-style:normal;font-variant:normal;font-weight:bold;font-stretch:normal;font-family:'Roboto Condensed';-inkscape-font-specification:'Roboto Condensed, Bold';fill:#6c5353;fill-opacity:1;stroke-width:0.48378351px"
           id="path572" />
        <path
           d="m 67.885203,-42.595907 q 0,-0.335678 0.158288,-0.526714 0.158287,-0.191036 0.438018,-0.191036 0.282461,0 0.440748,0.191036 0.158288,0.191036 0.158288,0.529443 v 0.09415 q 0,0.337043 -0.156923,0.526714 -0.156923,0.189672 -0.439383,0.189672 -0.283826,0 -0.442113,-0.189672 -0.156923,-0.191036 -0.156923,-0.529443 z m 0.387531,0.09688 q 0,0.395718 0.211505,0.395718 0.195129,0 0.210139,-0.33022 l 0.0014,-0.162381 q 0,-0.201952 -0.05595,-0.298835 -0.05595,-0.09825 -0.158288,-0.09825 -0.09825,0 -0.154193,0.09825 -0.05458,0.09688 -0.05458,0.298835 z"
           style="font-style:normal;font-variant:normal;font-weight:bold;font-stretch:normal;font-family:'Roboto Condensed';-inkscape-font-specification:'Roboto Condensed, Bold';fill:#6c5353;fill-opacity:1;stroke-width:0.48378351px"
           id="path574" />
        <path
           d="m 69.270216,-42.593178 q 0,-0.362968 0.122809,-0.541724 0.122809,-0.178755 0.357511,-0.178755 0.170568,0 0.283825,0.147371 v -0.739583 h 0.388896 v 2.09594 h -0.350688 l -0.01774,-0.1501 q -0.118715,0.177391 -0.305658,0.177391 -0.231972,0 -0.354781,-0.177391 -0.121445,-0.177391 -0.124174,-0.521256 z m 0.387531,0.09688 q 0,0.218327 0.0464,0.305658 0.04639,0.08597 0.156922,0.08597 0.114622,0 0.173297,-0.10234 v -0.674085 q -0.05731,-0.109164 -0.171932,-0.109164 -0.106435,0 -0.155558,0.08597 -0.04912,0.08597 -0.04912,0.305658 z"
           style="font-style:normal;font-variant:normal;font-weight:bold;font-stretch:normal;font-family:'Roboto Condensed';-inkscape-font-specification:'Roboto Condensed, Bold';fill:#6c5353;fill-opacity:1;stroke-width:0.48378351px"
           id="path576" />
        <path
           d="m 70.663416,-42.595907 q 0,-0.335678 0.158288,-0.526714 0.158287,-0.191036 0.438018,-0.191036 0.282461,0 0.440748,0.191036 0.158287,0.191036 0.158287,0.529443 v 0.09415 q 0,0.337043 -0.156922,0.526714 -0.156923,0.189672 -0.439384,0.189672 -0.283825,0 -0.442112,-0.189672 -0.156923,-0.191036 -0.156923,-0.529443 z m 0.387531,0.09688 q 0,0.395718 0.211504,0.395718 0.19513,0 0.21014,-0.33022 l 0.0014,-0.162381 q 0,-0.201952 -0.05595,-0.298835 -0.05595,-0.09825 -0.158288,-0.09825 -0.09825,0 -0.154193,0.09825 -0.05458,0.09688 -0.05458,0.298835 z"
           style="font-style:normal;font-variant:normal;font-weight:bold;font-stretch:normal;font-family:'Roboto Condensed';-inkscape-font-specification:'Roboto Condensed, Bold';fill:#6c5353;fill-opacity:1;stroke-width:0.48378351px"
           id="path578" />
        <path
           d="m 73.149617,-41.809929 h -0.387531 v -2.09594 h 0.387531 z"
           style="font-style:normal;font-variant:normal;font-weight:bold;font-stretch:normal;font-family:'Roboto Condensed';-inkscape-font-specification:'Roboto Condensed, Bold';fill:#6c5353;fill-opacity:1;stroke-width:0.48378351px"
           id="path580" />
        <path
           d="m 73.403422,-42.595907 q 0,-0.335678 0.158287,-0.526714 0.158287,-0.191036 0.438019,-0.191036 0.282461,0 0.440748,0.191036 0.158287,0.191036 0.158287,0.529443 v 0.09415 q 0,0.337043 -0.156923,0.526714 -0.156922,0.189672 -0.439383,0.189672 -0.283825,0 -0.442112,-0.189672 -0.156923,-0.191036 -0.156923,-0.529443 z m 0.387531,0.09688 q 0,0.395718 0.211504,0.395718 0.19513,0 0.21014,-0.33022 l 0.0014,-0.162381 q 0,-0.201952 -0.05595,-0.298835 -0.05595,-0.09825 -0.158287,-0.09825 -0.09825,0 -0.154194,0.09825 -0.05458,0.09688 -0.05458,0.298835 z"
           style="font-style:normal;font-variant:normal;font-weight:bold;font-stretch:normal;font-family:'Roboto Condensed';-inkscape-font-specification:'Roboto Condensed, Bold';fill:#6c5353;fill-opacity:1;stroke-width:0.48378351px"
           id="path582" />
        <path
           d="m 75.4325,-42.595907 q 0,-0.362968 0.121444,-0.540359 0.121445,-0.177391 0.36024,-0.177391 0.193765,0 0.308387,0.174662 l 0.02456,-0.147371 h 0.337042 v 2.044088 h -0.38753 v -0.682273 q -0.107799,0.141913 -0.283826,0.141913 -0.233337,0 -0.356146,-0.18012 -0.121444,-0.181484 -0.124173,-0.521256 z m 0.38753,0.09688 q 0,0.214234 0.0464,0.305658 0.04639,0.09006 0.158287,0.09006 0.117351,0 0.171933,-0.09142 v -0.702741 q -0.05458,-0.09552 -0.170568,-0.09552 -0.110528,0 -0.158288,0.0887 -0.04639,0.0887 -0.04776,0.296107 z"
           style="font-style:normal;font-variant:normal;font-weight:bold;font-stretch:normal;font-family:'Roboto Condensed';-inkscape-font-specification:'Roboto Condensed, Bold';fill:#6c5353;fill-opacity:1;stroke-width:0.48378351px"
           id="path584" />
        <path
           d="m 77.602125,-41.945019 q -0.12008,0.162381 -0.322032,0.162381 -0.203317,0 -0.308387,-0.139184 -0.10507,-0.140548 -0.10507,-0.407998 v -0.956546 h 0.386166 v 0.966097 q 0.0027,0.215598 0.143277,0.215598 0.132361,0 0.191036,-0.114621 v -1.067074 h 0.388896 v 1.476437 h -0.362969 z"
           style="font-style:normal;font-variant:normal;font-weight:bold;font-stretch:normal;font-family:'Roboto Condensed';-inkscape-font-specification:'Roboto Condensed, Bold';fill:#6c5353;fill-opacity:1;stroke-width:0.48378351px"
           id="path586" />
        <path
           d="m 78.847955,-41.782638 q -0.29747,0 -0.463945,-0.177391 -0.166474,-0.177391 -0.166474,-0.50761 v -0.117351 q 0,-0.349324 0.152829,-0.538995 0.152829,-0.189672 0.438018,-0.189672 0.278368,0 0.418916,0.178755 0.140548,0.177391 0.143277,0.526715 v 0.189671 h -0.768239 q 0.0082,0.163746 0.07232,0.24016 0.06413,0.07505 0.197859,0.07505 0.193765,0 0.323397,-0.132361 l 0.151465,0.233337 q -0.07096,0.09825 -0.206047,0.159652 -0.13509,0.06004 -0.293376,0.06004 z m -0.242889,-0.906058 h 0.386166 v -0.03548 q -0.0027,-0.132361 -0.04366,-0.200588 -0.04094,-0.06823 -0.141913,-0.06823 -0.100976,0 -0.14737,0.07232 -0.04503,0.07232 -0.05322,0.231972 z"
           style="font-style:normal;font-variant:normal;font-weight:bold;font-stretch:normal;font-family:'Roboto Condensed';-inkscape-font-specification:'Roboto Condensed, Bold';fill:#6c5353;fill-opacity:1;stroke-width:0.48378351px"
           id="path588" />
        <path
           d="m 80.638237,-41.809929 h -0.38753 v -1.476437 h 0.38753 z m -0.405269,-1.85851 q 0,-0.09006 0.05731,-0.14737 0.05731,-0.05731 0.152829,-0.05731 0.09552,0 0.152829,0.05731 0.05731,0.05731 0.05731,0.14737 0,0.0887 -0.05731,0.147371 -0.05595,0.05868 -0.152829,0.05868 -0.09688,0 -0.154194,-0.05868 -0.05595,-0.05868 -0.05595,-0.147371 z"
           style="font-style:normal;font-variant:normal;font-weight:bold;font-stretch:normal;font-family:'Roboto Condensed';-inkscape-font-specification:'Roboto Condensed, Bold';fill:#6c5353;fill-opacity:1;stroke-width:0.48378351px"
           id="path590" />
        <path
           d="m 81.290489,-43.286366 0.01092,0.146006 q 0.130996,-0.173297 0.3425,-0.173297 0.380708,0 0.391625,0.533537 v 0.970191 H 81.648 v -0.941536 q 0,-0.125538 -0.03821,-0.181484 -0.03684,-0.05731 -0.130997,-0.05731 -0.10507,0 -0.163745,0.107799 v 1.072532 H 80.92752 v -1.476437 z"
           style="font-style:normal;font-variant:normal;font-weight:bold;font-stretch:normal;font-family:'Roboto Condensed';-inkscape-font-specification:'Roboto Condensed, Bold';fill:#6c5353;fill-opacity:1;stroke-width:0.48378351px"
           id="path592" />
        <path
           d="m 82.761469,-43.649335 v 0.362969 h 0.197859 v 0.290648 h -0.197859 v 0.73276 q 0,0.08733 0.0232,0.12008 0.02456,0.03275 0.09279,0.03275 0.05595,0 0.09143,-0.0096 l -0.0027,0.3002 q -0.09825,0.03684 -0.212869,0.03684 -0.373886,0 -0.377979,-0.428467 v -0.784613 h -0.170568 v -0.290648 h 0.170568 v -0.362969 z"
           style="font-style:normal;font-variant:normal;font-weight:bold;font-stretch:normal;font-family:'Roboto Condensed';-inkscape-font-specification:'Roboto Condensed, Bold';fill:#6c5353;fill-opacity:1;stroke-width:0.48378351px"
           id="path594" />
        <path
           d="m 83.765773,-41.782638 q -0.29747,0 -0.463945,-0.177391 -0.166474,-0.177391 -0.166474,-0.50761 v -0.117351 q 0,-0.349324 0.152829,-0.538995 0.152829,-0.189672 0.438019,-0.189672 0.278367,0 0.418915,0.178755 0.140548,0.177391 0.143277,0.526715 v 0.189671 h -0.768239 q 0.0082,0.163746 0.07232,0.24016 0.06413,0.07505 0.197859,0.07505 0.193765,0 0.323397,-0.132361 l 0.151465,0.233337 q -0.07096,0.09825 -0.206047,0.159652 -0.13509,0.06004 -0.293376,0.06004 z m -0.242889,-0.906058 h 0.386166 v -0.03548 q -0.0027,-0.132361 -0.04366,-0.200588 -0.04094,-0.06823 -0.141913,-0.06823 -0.100976,0 -0.14737,0.07232 -0.04503,0.07232 -0.05322,0.231972 z"
           style="font-style:normal;font-variant:normal;font-weight:bold;font-stretch:normal;font-family:'Roboto Condensed';-inkscape-font-specification:'Roboto Condensed, Bold';fill:#6c5353;fill-opacity:1;stroke-width:0.48378351px"
           id="path596" />
        <path
           d="m 85.235388,-42.913845 -0.128267,-0.01092 q -0.158288,0 -0.214234,0.139184 v 0.975649 h -0.387531 v -1.476437 h 0.364334 l 0.01092,0.159652 q 0.09143,-0.186943 0.252441,-0.186943 0.0655,0 0.106434,0.01774 z"
           style="font-style:normal;font-variant:normal;font-weight:bold;font-stretch:normal;font-family:'Roboto Condensed';-inkscape-font-specification:'Roboto Condensed, Bold';fill:#6c5353;fill-opacity:1;stroke-width:0.48378351px"
           id="path598" />
        <path
           d="m 86.003627,-41.782638 q -0.29747,0 -0.463945,-0.177391 -0.166474,-0.177391 -0.166474,-0.50761 v -0.117351 q 0,-0.349324 0.152829,-0.538995 0.152829,-0.189672 0.438019,-0.189672 0.278367,0 0.418915,0.178755 0.140548,0.177391 0.143277,0.526715 v 0.189671 h -0.768239 q 0.0082,0.163746 0.07232,0.24016 0.06413,0.07505 0.197859,0.07505 0.193765,0 0.323397,-0.132361 l 0.151465,0.233337 q -0.07096,0.09825 -0.206047,0.159652 -0.13509,0.06004 -0.293376,0.06004 z m -0.242889,-0.906058 h 0.386167 v -0.03548 q -0.0027,-0.132361 -0.04367,-0.200588 -0.04094,-0.06823 -0.141913,-0.06823 -0.100976,0 -0.14737,0.07232 -0.04503,0.07232 -0.05322,0.231972 z"
           style="font-style:normal;font-variant:normal;font-weight:bold;font-stretch:normal;font-family:'Roboto Condensed';-inkscape-font-specification:'Roboto Condensed, Bold';fill:#6c5353;fill-opacity:1;stroke-width:0.48378351px"
           id="path600" />
        <path
           d="m 87.398192,-42.205647 q 0,-0.04912 -0.04776,-0.09006 -0.04639,-0.0423 -0.208776,-0.113257 -0.238795,-0.09688 -0.328855,-0.200588 -0.0887,-0.103705 -0.0887,-0.257899 0,-0.193765 0.139183,-0.319303 0.140548,-0.126903 0.371156,-0.126903 0.242889,0 0.388896,0.125538 0.146006,0.125538 0.146006,0.337043 h -0.386166 q 0,-0.18012 -0.1501,-0.18012 -0.0614,0 -0.100976,0.03821 -0.03957,0.03821 -0.03957,0.106434 0,0.04912 0.04367,0.08733 0.04367,0.03684 0.206046,0.106435 0.236067,0.08733 0.332949,0.19513 0.09825,0.106434 0.09825,0.277002 0,0.197859 -0.148736,0.317939 -0.148735,0.12008 -0.39026,0.12008 -0.16238,0 -0.286554,-0.06277 -0.124174,-0.06413 -0.19513,-0.177391 -0.06959,-0.113257 -0.06959,-0.244253 h 0.367063 q 0.0027,0.100976 0.04639,0.151464 0.04503,0.05049 0.146007,0.05049 0.155558,0 0.155558,-0.140548 z"
           style="font-style:normal;font-variant:normal;font-weight:bold;font-stretch:normal;font-family:'Roboto Condensed';-inkscape-font-specification:'Roboto Condensed, Bold';fill:#6c5353;fill-opacity:1;stroke-width:0.48378351px"
           id="path602" />
        <path
           d="m 88.717706,-41.809929 q -0.01637,-0.03411 -0.03275,-0.114622 -0.103705,0.141913 -0.281096,0.141913 -0.185578,0 -0.308387,-0.122809 -0.121445,-0.122809 -0.121445,-0.317939 0,-0.231972 0.147371,-0.358875 0.148735,-0.126903 0.427103,-0.129632 h 0.11735 v -0.118715 q 0,-0.09961 -0.03411,-0.140548 -0.03411,-0.04094 -0.09961,-0.04094 -0.144642,0 -0.144642,0.169204 h -0.38617 q 0,-0.204682 0.152829,-0.337043 0.154194,-0.133725 0.388895,-0.133725 0.242889,0 0.37525,0.126903 0.133725,0.125538 0.133725,0.360239 v 0.694554 q 0.0027,0.191036 0.05458,0.298835 v 0.0232 z m -0.227879,-0.275638 q 0.06413,0 0.109164,-0.02593 0.04503,-0.02593 0.06686,-0.06141 v -0.307022 h -0.09279 q -0.09825,0 -0.155558,0.06277 -0.05595,0.06277 -0.05595,0.167839 0,0.163745 0.128267,0.163745 z"
           style="font-style:normal;font-variant:normal;font-weight:bold;font-stretch:normal;font-family:'Roboto Condensed';-inkscape-font-specification:'Roboto Condensed, Bold';fill:#6c5353;fill-opacity:1;stroke-width:0.48378351px"
           id="path604" />
        <path
           d="m 89.363135,-42.006423 q 0,-0.09279 0.0614,-0.152829 0.06277,-0.06004 0.162381,-0.06004 0.09688,0 0.161016,0.06004 0.06413,0.05868 0.06413,0.152829 0,0.09552 -0.0655,0.154193 -0.06413,0.05731 -0.159652,0.05731 -0.09688,0 -0.161016,-0.05868 -0.06277,-0.05868 -0.06277,-0.152829 z"
           style="font-style:normal;font-variant:normal;font-weight:bold;font-stretch:normal;font-family:'Roboto Condensed';-inkscape-font-specification:'Roboto Condensed, Bold';fill:#6c5353;fill-opacity:1;stroke-width:0.48378351px"
           id="path606" />
        <path
           d="m 92.197295,-41.809929 h -0.401176 l -0.586754,-1.30314 v 1.30314 h -0.401177 v -1.986777 h 0.401177 l 0.588118,1.304505 v -1.304505 h 0.399812 z"
           style="font-style:normal;font-variant:normal;font-weight:bold;font-stretch:normal;font-family:'Roboto Condensed';-inkscape-font-specification:'Roboto Condensed, Bold';fill:#6c5353;fill-opacity:1;stroke-width:0.48378351px"
           id="path608" />
        <path
           d="m 93.204328,-41.809929 q -0.01638,-0.03411 -0.03275,-0.114622 -0.103706,0.141913 -0.281096,0.141913 -0.185578,0 -0.308387,-0.122809 -0.121445,-0.122809 -0.121445,-0.317939 0,-0.231972 0.147371,-0.358875 0.148735,-0.126903 0.427102,-0.129632 h 0.117351 v -0.118715 q 0,-0.09961 -0.03411,-0.140548 -0.03411,-0.04094 -0.09961,-0.04094 -0.144642,0 -0.144642,0.169204 h -0.386166 q 0,-0.204682 0.152829,-0.337043 0.154194,-0.133725 0.388895,-0.133725 0.242889,0 0.37525,0.126903 0.133725,0.125538 0.133725,0.360239 v 0.694554 q 0.0027,0.191036 0.05458,0.298835 v 0.0232 z m -0.227879,-0.275638 q 0.06413,0 0.109164,-0.02593 0.04503,-0.02593 0.06686,-0.06141 v -0.307022 h -0.09279 q -0.09825,0 -0.155558,0.06277 -0.05595,0.06277 -0.05595,0.167839 0,0.163745 0.128267,0.163745 z"
           style="font-style:normal;font-variant:normal;font-weight:bold;font-stretch:normal;font-family:'Roboto Condensed';-inkscape-font-specification:'Roboto Condensed, Bold';fill:#6c5353;fill-opacity:1;stroke-width:0.48378351px"
           id="path610" />
        <path
           d="m 93.766521,-42.593178 q 0,-0.362968 0.122809,-0.541724 0.122809,-0.178755 0.357511,-0.178755 0.170568,0 0.283825,0.147371 v -0.739583 h 0.388896 v 2.09594 h -0.350688 l -0.01774,-0.1501 q -0.118715,0.177391 -0.305658,0.177391 -0.231972,0 -0.354781,-0.177391 -0.121445,-0.177391 -0.124174,-0.521256 z m 0.387531,0.09688 q 0,0.218327 0.0464,0.305658 0.04639,0.08597 0.156922,0.08597 0.114622,0 0.173297,-0.10234 v -0.674085 q -0.05731,-0.109164 -0.171932,-0.109164 -0.106435,0 -0.155558,0.08597 -0.04912,0.08597 -0.04912,0.305658 z"
           style="font-style:normal;font-variant:normal;font-weight:bold;font-stretch:normal;font-family:'Roboto Condensed';-inkscape-font-specification:'Roboto Condensed, Bold';fill:#6c5353;fill-opacity:1;stroke-width:0.48378351px"
           id="path612" />
        <path
           d="m 95.906127,-41.809929 q -0.01637,-0.03411 -0.03275,-0.114622 -0.103705,0.141913 -0.281096,0.141913 -0.185578,0 -0.308387,-0.122809 -0.121445,-0.122809 -0.121445,-0.317939 0,-0.231972 0.147371,-0.358875 0.148736,-0.126903 0.427103,-0.129632 h 0.117351 v -0.118715 q 0,-0.09961 -0.03411,-0.140548 -0.03411,-0.04094 -0.09961,-0.04094 -0.144642,0 -0.144642,0.169204 h -0.386166 q 0,-0.204682 0.152829,-0.337043 0.154194,-0.133725 0.388896,-0.133725 0.242889,0 0.375249,0.126903 0.133726,0.125538 0.133726,0.360239 v 0.694554 q 0.0027,0.191036 0.05458,0.298835 v 0.0232 z m -0.227879,-0.275638 q 0.06413,0 0.109164,-0.02593 0.04503,-0.02593 0.06686,-0.06141 v -0.307022 h -0.09279 q -0.09825,0 -0.155559,0.06277 -0.05595,0.06277 -0.05595,0.167839 0,0.163745 0.128267,0.163745 z"
           style="font-style:normal;font-variant:normal;font-weight:bold;font-stretch:normal;font-family:'Roboto Condensed';-inkscape-font-specification:'Roboto Condensed, Bold';fill:#6c5353;fill-opacity:1;stroke-width:0.48378351px"
           id="path614" />
        <path
           d="m 97.707326,-43.796706 0.37525,1.436866 0.373885,-1.436866 h 0.523985 v 1.986777 h -0.40254 v -0.53763 l 0.03684,-0.828279 -0.397082,1.365909 h -0.272909 l -0.397083,-1.365909 0.03684,0.828279 v 0.53763 h -0.401176 v -1.986777 z"
           style="font-style:normal;font-variant:normal;font-weight:bold;font-stretch:normal;font-family:'Roboto Condensed';-inkscape-font-specification:'Roboto Condensed, Bold';fill:#6c5353;fill-opacity:1;stroke-width:0.48378351px"
           id="path616" />
        <path
           d="m 99.983384,-41.809929 q -0.01637,-0.03411 -0.03275,-0.114622 -0.103705,0.141913 -0.281096,0.141913 -0.185578,0 -0.308387,-0.122809 -0.121444,-0.122809 -0.121444,-0.317939 0,-0.231972 0.14737,-0.358875 0.148736,-0.126903 0.427103,-0.129632 h 0.117351 v -0.118715 q 0,-0.09961 -0.03411,-0.140548 -0.03411,-0.04094 -0.09961,-0.04094 -0.144641,0 -0.144641,0.169204 h -0.386166 q 0,-0.204682 0.152829,-0.337043 0.154193,-0.133725 0.388895,-0.133725 0.242892,0 0.375252,0.126903 0.13373,0.125538 0.13373,0.360239 v 0.694554 q 0.003,0.191036 0.0546,0.298835 v 0.0232 z m -0.227879,-0.275638 q 0.06413,0 0.109164,-0.02593 0.04503,-0.02593 0.06686,-0.06141 v -0.307022 h -0.09279 q -0.09825,0 -0.155558,0.06277 -0.05595,0.06277 -0.05595,0.167839 0,0.163745 0.128267,0.163745 z m 0.115987,-1.820302 h 0.433928 l -0.379346,0.423008 h -0.322033 z"
           style="font-style:normal;font-variant:normal;font-weight:bold;font-stretch:normal;font-family:'Roboto Condensed';-inkscape-font-specification:'Roboto Condensed, Bold';fill:#6c5353;fill-opacity:1;stroke-width:0.48378351px"
           id="path618" />
        <path
           d="m 101.25105,-42.205647 q 0,-0.04912 -0.0478,-0.09006 -0.0464,-0.0423 -0.20878,-0.113257 -0.23879,-0.09688 -0.32885,-0.200588 -0.0887,-0.103705 -0.0887,-0.257899 0,-0.193765 0.13919,-0.319303 0.14054,-0.126903 0.37115,-0.126903 0.24289,0 0.3889,0.125538 0.146,0.125538 0.146,0.337043 H 101.236 q 0,-0.18012 -0.1501,-0.18012 -0.0614,0 -0.10098,0.03821 -0.0396,0.03821 -0.0396,0.106434 0,0.04912 0.0437,0.08733 0.0437,0.03684 0.20605,0.106435 0.23607,0.08733 0.33295,0.19513 0.0983,0.106434 0.0983,0.277002 0,0.197859 -0.14874,0.317939 -0.14873,0.12008 -0.39026,0.12008 -0.16238,0 -0.28655,-0.06277 -0.12418,-0.06413 -0.19513,-0.177391 -0.0696,-0.113257 -0.0696,-0.244253 h 0.36706 q 0.003,0.100976 0.0464,0.151464 0.045,0.05049 0.14601,0.05049 0.15556,0 0.15556,-0.140548 z"
           style="font-style:normal;font-variant:normal;font-weight:bold;font-stretch:normal;font-family:'Roboto Condensed';-inkscape-font-specification:'Roboto Condensed, Bold';fill:#6c5353;fill-opacity:1;stroke-width:0.48378351px"
           id="path620" />
        <path
           d="m 101.90057,-42.006423 q 0,-0.09279 0.0614,-0.152829 0.0628,-0.06004 0.16239,-0.06004 0.0969,0 0.16101,0.06004 0.0641,0.05868 0.0641,0.152829 0,0.09552 -0.0655,0.154193 -0.0641,0.05731 -0.15965,0.05731 -0.0969,0 -0.16102,-0.05868 -0.0628,-0.05868 -0.0628,-0.152829 z"
           style="font-style:normal;font-variant:normal;font-weight:bold;font-stretch:normal;font-family:'Roboto Condensed';-inkscape-font-specification:'Roboto Condensed, Bold';fill:#6c5353;fill-opacity:1;stroke-width:0.48378351px"
           id="path622" />
      </g>
    </g>
    <g
       style="fill:white;stroke:black;stroke-width:1.70561409;stroke-linejoin:round;stroke-miterlimit:4;stroke-dasharray:none;stroke-opacity:0.99215686;paint-order:markers stroke fill"
       id="g7507"
       transform="matrix(1.0885814,0,0,1.0885814,-166.70686,-442.03231)">
      <g
         style="fill:white"
         id="g7431"
         transform="matrix(0.8443233,0,0,0.8443233,184.7203,426.61448)">
        <path
           id="path7427"
           transform="scale(0.26458333)"
           d="m 189.15039,75.384766 a 3.9793338,3.9793338 0 0 0 -3.69141,2.505859 c -21.15487,1.873735 -37.77734,19.659835 -37.77734,41.296875 0,22.88281 18.58984,41.47266 41.47266,41.47266 22.88281,0 41.4707,-18.58985 41.4707,-41.47266 0,-21.6377 -16.6235,-39.424054 -37.7793,-41.296875 a 3.9793338,3.9793338 0 0 0 -3.69531,-2.505859 z m 3.3418,6.132812 c 19.34305,1.687681 34.48632,17.884077 34.48633,37.669922 0,20.9117 -16.91253,37.82617 -37.82422,37.82617 -20.9117,0 -37.82617,-16.91447 -37.82618,-37.82617 0,-19.782676 15.13991,-35.975909 34.47852,-37.667969 a 3.9793338,3.9793338 0 0 0 3.34375,1.824219 3.9793338,3.9793338 0 0 0 3.3418,-1.826172 z"
           style="color:black;font-style:normal;font-variant:normal;font-weight:normal;font-stretch:normal;font-size:medium;line-height:normal;font-family:sans-serif;font-variant-ligatures:normal;font-variant-position:normal;font-variant-caps:normal;font-variant-numeric:normal;font-variant-alternates:normal;font-feature-settings:normal;text-indent:0;text-align:start;text-decoration:none;text-decoration-line:none;text-decoration-style:solid;text-decoration-color:black;letter-spacing:normal;word-spacing:normal;text-transform:none;writing-mode:lr-tb;direction:ltr;text-orientation:mixed;dominant-baseline:auto;baseline-shift:baseline;text-anchor:start;white-space:normal;shape-padding:0;clip-rule:nonzero;display:inline;overflow:visible;visibility:visible;opacity:1;isolation:auto;mix-blend-mode:normal;color-interpolation:sRGB;color-interpolation-filters:linearRGB;solid-color:black;solid-opacity:1;vector-effect:none;fill:white;fill-opacity:1;fill-rule:evenodd;stroke:none;stroke-width:3.64724398;stroke-linecap:butt;stroke-linejoin:miter;stroke-miterlimit:4;stroke-dasharray:none;stroke-dashoffset:0;stroke-opacity:1;color-rendering:auto;image-rendering:auto;shape-rendering:auto;text-rendering:auto;enable-background:accumulate" />
        <path
           id="path7429"
           d="m 52.718914,31.534542 a 2.6726952,2.6726952 0 0 1 -2.672695,2.672695 2.6726952,2.6726952 0 0 1 -2.672695,-2.672695 2.6726952,2.6726952 0 0 1 2.672695,-2.672695 2.6726952,2.6726952 0 0 1 2.672695,2.672695 z"
           style="color:black;clip-rule:nonzero;display:inline;overflow:visible;visibility:visible;opacity:1;isolation:auto;mix-blend-mode:normal;color-interpolation:sRGB;color-interpolation-filters:linearRGB;solid-color:black;solid-opacity:1;fill:white;fill-opacity:1;fill-rule:evenodd;stroke:none;stroke-width:0.35277775px;stroke-linecap:butt;stroke-linejoin:miter;stroke-miterlimit:4;stroke-dasharray:none;stroke-dashoffset:0;stroke-opacity:1;color-rendering:auto;image-rendering:auto;shape-rendering:auto;text-rendering:auto;enable-background:accumulate" />
      </g>
      <g
         id="g7451"
         style="font-style:normal;font-variant:normal;font-weight:normal;font-stretch:normal;font-size:7.10792446px;line-height:100%;font-family:arvo;-inkscape-font-specification:arvo;text-align:start;letter-spacing:0px;word-spacing:0px;writing-mode:lr-tb;text-anchor:start;fill:white;fill-opacity:1;stroke:none;stroke-width:0.592327px;stroke-linecap:butt;stroke-linejoin:miter;stroke-opacity:1"
         aria-label="Ouroboros"
         transform="matrix(1.4080978,0,0,1.4080978,144.65856,517.97098)">
        <path
           id="path7433"
           style="font-style:normal;font-variant:normal;font-weight:bold;font-stretch:normal;font-family:Raleway;-inkscape-font-specification:'Raleway Bold';fill:white;stroke-width:0.592327px"
           d="m 68.63819,-45.452642 q -0.533095,0 -0.973786,-0.213238 -0.440691,-0.220346 -0.760548,-0.575742 -0.312749,-0.362504 -0.483339,-0.824519 -0.17059,-0.462015 -0.17059,-0.945354 0,-0.504663 0.177698,-0.966678 0.184806,-0.462015 0.504663,-0.817411 0.326964,-0.355397 0.767656,-0.561526 0.440691,-0.213238 0.95957,-0.213238 0.533094,0 0.973785,0.227454 0.440691,0.220345 0.75344,0.582849 0.312749,0.362504 0.483339,0.82452 0.17059,0.462015 0.17059,0.938246 0,0.504662 -0.184806,0.966677 -0.177698,0.454907 -0.497555,0.810304 -0.319856,0.348288 -0.760547,0.561526 -0.440692,0.20613 -0.95957,0.20613 z m -1.400261,-2.558853 q 0,0.326964 0.0924,0.632605 0.09951,0.305641 0.277209,0.540202 0.184806,0.234562 0.447799,0.37672 0.262993,0.142159 0.597066,0.142159 0.34118,0 0.597065,-0.142159 0.262993,-0.149266 0.440692,-0.390936 0.177698,-0.241669 0.270101,-0.540202 0.0924,-0.305641 0.0924,-0.618389 0,-0.326965 -0.09951,-0.632606 -0.09951,-0.30564 -0.284317,-0.540202 -0.177698,-0.234561 -0.440692,-0.369612 -0.255885,-0.142158 -0.582849,-0.142158 -0.341181,0 -0.604174,0.149266 -0.255885,0.142159 -0.440691,0.383828 -0.177698,0.234561 -0.270101,0.540202 -0.0924,0.298533 -0.0924,0.611282 z" />
        <path
           id="path7435"
           style="font-style:normal;font-variant:normal;font-weight:bold;font-stretch:normal;font-family:Raleway;-inkscape-font-specification:'Raleway Bold';fill:white;stroke-width:0.592327px"
           d="m 72.812874,-45.417103 q -0.575742,0 -0.874275,-0.369612 -0.298533,-0.369612 -0.298533,-1.09462 v -2.331399 h 0.952462 v 2.125269 q 0,0.860059 0.618389,0.860059 0.284317,0 0.540203,-0.163482 0.262993,-0.170591 0.426475,-0.511771 v -2.310075 h 0.952462 v 2.629932 q 0,0.149266 0.05686,0.213237 0.05686,0.06397 0.199022,0.07108 v 0.810303 q -0.149266,0.02843 -0.262993,0.03554 -0.113727,0.01422 -0.199022,0.01422 -0.255885,0 -0.405151,-0.113726 -0.142159,-0.120835 -0.177699,-0.326965 l -0.02132,-0.305641 q -0.255886,0.383828 -0.646822,0.575742 -0.383827,0.191914 -0.860058,0.191914 z" />
        <path
           id="path7437"
           style="font-style:normal;font-variant:normal;font-weight:bold;font-stretch:normal;font-family:Raleway;-inkscape-font-specification:'Raleway Bold';fill:white;stroke-width:0.592327px"
           d="m 78.307966,-48.388215 q -0.433583,0.0071 -0.774764,0.17059 -0.34118,0.156374 -0.490446,0.476231 v 2.253212 h -0.952462 v -3.724552 h 0.874275 v 0.796087 q 0.191913,-0.383828 0.497554,-0.618389 0.312749,-0.234562 0.653929,-0.234562 0.07819,0 0.113727,0.0071 0.04265,0 0.07819,0.0071 z" />
        <path
           id="path7439"
           style="font-style:normal;font-variant:normal;font-weight:bold;font-stretch:normal;font-family:Raleway;-inkscape-font-specification:'Raleway Bold';fill:white;stroke-width:0.592327px"
           d="m 80.469108,-45.417103 q -0.454907,0 -0.817411,-0.156374 -0.362505,-0.156374 -0.61839,-0.419368 -0.248777,-0.270101 -0.383828,-0.618389 -0.13505,-0.348288 -0.13505,-0.732116 0,-0.390936 0.13505,-0.739224 0.135051,-0.348289 0.383828,-0.611282 0.255885,-0.270101 0.61839,-0.426475 0.362504,-0.156375 0.817411,-0.156375 0.454907,0 0.810303,0.156375 0.362504,0.156374 0.611282,0.426475 0.255885,0.262993 0.390936,0.611282 0.13505,0.348288 0.13505,0.739224 0,0.383828 -0.13505,0.732116 -0.135051,0.348288 -0.383828,0.618389 -0.248778,0.262994 -0.611282,0.419368 -0.362504,0.156374 -0.817411,0.156374 z m -0.973786,-1.926247 q 0,0.248777 0.07108,0.454907 0.07819,0.199022 0.206129,0.348288 0.135051,0.149267 0.312749,0.234562 0.177698,0.07819 0.383828,0.07819 0.20613,0 0.383828,-0.07819 0.177698,-0.08529 0.305641,-0.234562 0.13505,-0.149266 0.206129,-0.355396 0.07819,-0.20613 0.07819,-0.454907 0,-0.24167 -0.07819,-0.4478 -0.07108,-0.206129 -0.206129,-0.355396 -0.127943,-0.149266 -0.305641,-0.227453 -0.177698,-0.0853 -0.383828,-0.0853 -0.20613,0 -0.383828,0.0853 -0.177698,0.0853 -0.312749,0.234561 -0.127942,0.149267 -0.206129,0.355396 -0.07108,0.20613 -0.07108,0.4478 z" />
        <path
           id="path7441"
           style="font-style:normal;font-variant:normal;font-weight:bold;font-stretch:normal;font-family:Raleway;-inkscape-font-specification:'Raleway Bold';fill:white;stroke-width:0.592327px"
           d="m 85.163671,-45.417103 q -0.426476,0 -0.760548,-0.191914 -0.334073,-0.191914 -0.525987,-0.525986 v 0.646821 h -0.831627 v -5.188785 h 0.952462 v 2.118162 q 0.199022,-0.341181 0.518879,-0.525987 0.326964,-0.191914 0.75344,-0.191914 0.362504,0 0.661037,0.156375 0.30564,0.156374 0.518878,0.419367 0.220346,0.262993 0.334073,0.61839 0.120834,0.355396 0.120834,0.746332 0,0.405151 -0.13505,0.75344 -0.127943,0.348288 -0.362504,0.611281 -0.234562,0.255885 -0.554419,0.405152 -0.319856,0.149266 -0.689468,0.149266 z m -0.262993,-0.810303 q 0.227453,0 0.412259,-0.08529 0.191914,-0.0924 0.326965,-0.24167 0.142158,-0.149266 0.213237,-0.348288 0.07819,-0.199022 0.07819,-0.426476 0,-0.227453 -0.07108,-0.433583 -0.07108,-0.20613 -0.206129,-0.362504 -0.127943,-0.156374 -0.305641,-0.248777 -0.177698,-0.0924 -0.390936,-0.0924 -0.319857,0 -0.575742,0.213237 -0.248777,0.20613 -0.383828,0.511771 v 0.88849 q 0.04976,0.142159 0.142159,0.255886 0.09951,0.113727 0.220345,0.199022 0.120835,0.07819 0.262994,0.127942 0.142158,0.04265 0.277209,0.04265 z" />
        <path
           id="path7443"
           style="font-style:normal;font-variant:normal;font-weight:bold;font-stretch:normal;font-family:Raleway;-inkscape-font-specification:'Raleway Bold';fill:white;stroke-width:0.592327px"
           d="m 89.270717,-45.417103 q -0.454907,0 -0.817411,-0.156374 -0.362505,-0.156374 -0.61839,-0.419368 -0.248777,-0.270101 -0.383828,-0.618389 -0.13505,-0.348288 -0.13505,-0.732116 0,-0.390936 0.13505,-0.739224 0.135051,-0.348289 0.383828,-0.611282 0.255885,-0.270101 0.61839,-0.426475 0.362504,-0.156375 0.817411,-0.156375 0.454907,0 0.810303,0.156375 0.362504,0.156374 0.611282,0.426475 0.255885,0.262993 0.390936,0.611282 0.13505,0.348288 0.13505,0.739224 0,0.383828 -0.13505,0.732116 -0.135051,0.348288 -0.383828,0.618389 -0.248778,0.262994 -0.611282,0.419368 -0.362504,0.156374 -0.817411,0.156374 z m -0.973786,-1.926247 q 0,0.248777 0.07108,0.454907 0.07819,0.199022 0.206129,0.348288 0.135051,0.149267 0.312749,0.234562 0.177698,0.07819 0.383828,0.07819 0.20613,0 0.383828,-0.07819 0.177698,-0.08529 0.305641,-0.234562 0.13505,-0.149266 0.206129,-0.355396 0.07819,-0.20613 0.07819,-0.454907 0,-0.24167 -0.07819,-0.4478 -0.07108,-0.206129 -0.206129,-0.355396 -0.127943,-0.149266 -0.305641,-0.227453 -0.177698,-0.0853 -0.383828,-0.0853 -0.20613,0 -0.383828,0.0853 -0.177698,0.0853 -0.312749,0.234561 -0.127942,0.149267 -0.206129,0.355396 -0.07108,0.20613 -0.07108,0.4478 z" />
        <path
           id="path7445"
           style="font-style:normal;font-variant:normal;font-weight:bold;font-stretch:normal;font-family:Raleway;-inkscape-font-specification:'Raleway Bold';fill:white;stroke-width:0.592327px"
           d="m 94.064791,-48.388215 q -0.433584,0.0071 -0.774764,0.17059 -0.34118,0.156374 -0.490447,0.476231 v 2.253212 h -0.952462 v -3.724552 h 0.874275 v 0.796087 q 0.191914,-0.383828 0.497555,-0.618389 0.312748,-0.234562 0.653929,-0.234562 0.07819,0 0.113727,0.0071 0.04265,0 0.07819,0.0071 z" />
        <path
           id="path7447"
           style="font-style:normal;font-variant:normal;font-weight:bold;font-stretch:normal;font-family:Raleway;-inkscape-font-specification:'Raleway Bold';fill:white;stroke-width:0.592327px"
           d="m 96.225932,-45.417103 q -0.454907,0 -0.817411,-0.156374 -0.362504,-0.156374 -0.618389,-0.419368 -0.248778,-0.270101 -0.383828,-0.618389 -0.135051,-0.348288 -0.135051,-0.732116 0,-0.390936 0.135051,-0.739224 0.13505,-0.348289 0.383828,-0.611282 0.255885,-0.270101 0.618389,-0.426475 0.362504,-0.156375 0.817411,-0.156375 0.454908,0 0.810304,0.156375 0.362504,0.156374 0.611281,0.426475 0.255886,0.262993 0.390936,0.611282 0.135051,0.348288 0.135051,0.739224 0,0.383828 -0.135051,0.732116 -0.13505,0.348288 -0.383828,0.618389 -0.248777,0.262994 -0.611281,0.419368 -0.362504,0.156374 -0.817412,0.156374 z m -0.973785,-1.926247 q 0,0.248777 0.07108,0.454907 0.07819,0.199022 0.20613,0.348288 0.13505,0.149267 0.312748,0.234562 0.177699,0.07819 0.383828,0.07819 0.20613,0 0.383828,-0.07819 0.177698,-0.08529 0.305641,-0.234562 0.135051,-0.149266 0.20613,-0.355396 0.07819,-0.20613 0.07819,-0.454907 0,-0.24167 -0.07819,-0.4478 -0.07108,-0.206129 -0.20613,-0.355396 -0.127943,-0.149266 -0.305641,-0.227453 -0.177698,-0.0853 -0.383828,-0.0853 -0.206129,0 -0.383828,0.0853 -0.177698,0.0853 -0.312748,0.234561 -0.127943,0.149267 -0.20613,0.355396 -0.07108,0.20613 -0.07108,0.4478 z" />
        <path
           id="path7449"
           style="font-style:normal;font-variant:normal;font-weight:bold;font-stretch:normal;font-family:Raleway;-inkscape-font-specification:'Raleway Bold';fill:white;stroke-width:0.592327px"
           d="m 100.24591,-45.417103 q -0.22746,0 -0.476234,-0.03554 -0.241669,-0.03554 -0.476231,-0.09951 -0.234561,-0.06397 -0.447799,-0.156375 -0.213238,-0.0924 -0.37672,-0.20613 l 0.383828,-0.646821 q 0.710792,0.462015 1.371826,0.462015 0.29854,0 0.46913,-0.106618 0.17059,-0.106619 0.17059,-0.305641 0,-0.199022 -0.20613,-0.291425 -0.19903,-0.09951 -0.675256,-0.213238 -0.362504,-0.0853 -0.61839,-0.177698 -0.255885,-0.0924 -0.412259,-0.213238 -0.156375,-0.120834 -0.227454,-0.277209 -0.07108,-0.156374 -0.07108,-0.369612 0,-0.284317 0.113727,-0.51177 0.113726,-0.227454 0.312748,-0.383828 0.20613,-0.163483 0.476231,-0.248778 0.277209,-0.0853 0.597063,-0.0853 0.39805,0 0.78898,0.127943 0.39805,0.120835 0.73923,0.334072 l -0.39094,0.589958 q -0.31275,-0.199022 -0.58996,-0.284317 -0.2772,-0.0924 -0.55441,-0.0924 -0.25589,0 -0.433588,0.09951 -0.170591,0.09951 -0.170591,0.319857 0,0.191914 0.163483,0.277209 0.17059,0.08529 0.597066,0.191914 0.39804,0.09951 0.67525,0.199022 0.28432,0.09951 0.46202,0.227453 0.1848,0.127943 0.26299,0.298533 0.0853,0.163482 0.0853,0.398044 0,0.270101 -0.11373,0.490447 -0.10662,0.220345 -0.30564,0.37672 -0.19902,0.149266 -0.49045,0.234561 -0.28431,0.07819 -0.6326,0.07819 z" />
      </g>
      <g
         id="g7505"
         style="font-style:normal;font-variant:normal;font-weight:normal;font-stretch:normal;font-size:2.79458737px;line-height:100%;font-family:arvo;-inkscape-font-specification:arvo;text-align:start;letter-spacing:0px;word-spacing:0px;writing-mode:lr-tb;text-anchor:start;fill:#d21446;fill-opacity:1;stroke:none;stroke-width:0.48378351px;stroke-linecap:butt;stroke-linejoin:miter;stroke-opacity:1"
         aria-label="Todo lo que interesa. Nada Más."
         transform="matrix(1.4080978,0,0,1.4080978,144.65856,517.97098)">
        <path
           id="path7453"
           style="font-style:normal;font-variant:normal;font-weight:bold;font-stretch:normal;font-family:'Roboto Condensed';-inkscape-font-specification:'Roboto Condensed, Bold';fill:#d21446;fill-opacity:1;stroke-width:0.48378351px"
           d="m 68.002554,-43.462392 h -0.491236 v 1.652463 h -0.40254 v -1.652463 h -0.483049 v -0.334314 h 1.376825 z" />
        <path
           id="path7455"
           style="font-style:normal;font-variant:normal;font-weight:bold;font-stretch:normal;font-family:'Roboto Condensed';-inkscape-font-specification:'Roboto Condensed, Bold';fill:#d21446;fill-opacity:1;stroke-width:0.48378351px"
           d="m 67.885203,-42.595907 q 0,-0.335678 0.158288,-0.526714 0.158287,-0.191036 0.438018,-0.191036 0.282461,0 0.440748,0.191036 0.158288,0.191036 0.158288,0.529443 v 0.09415 q 0,0.337043 -0.156923,0.526714 -0.156923,0.189672 -0.439383,0.189672 -0.283826,0 -0.442113,-0.189672 -0.156923,-0.191036 -0.156923,-0.529443 z m 0.387531,0.09688 q 0,0.395718 0.211505,0.395718 0.195129,0 0.210139,-0.33022 l 0.0014,-0.162381 q 0,-0.201952 -0.05595,-0.298835 -0.05595,-0.09825 -0.158288,-0.09825 -0.09825,0 -0.154193,0.09825 -0.05458,0.09688 -0.05458,0.298835 z" />
        <path
           id="path7457"
           style="font-style:normal;font-variant:normal;font-weight:bold;font-stretch:normal;font-family:'Roboto Condensed';-inkscape-font-specification:'Roboto Condensed, Bold';fill:#d21446;fill-opacity:1;stroke-width:0.48378351px"
           d="m 69.270216,-42.593178 q 0,-0.362968 0.122809,-0.541724 0.122809,-0.178755 0.357511,-0.178755 0.170568,0 0.283825,0.147371 v -0.739583 h 0.388896 v 2.09594 h -0.350688 l -0.01774,-0.1501 q -0.118715,0.177391 -0.305658,0.177391 -0.231972,0 -0.354781,-0.177391 -0.121445,-0.177391 -0.124174,-0.521256 z m 0.387531,0.09688 q 0,0.218327 0.0464,0.305658 0.04639,0.08597 0.156922,0.08597 0.114622,0 0.173297,-0.10234 v -0.674085 q -0.05731,-0.109164 -0.171932,-0.109164 -0.106435,0 -0.155558,0.08597 -0.04912,0.08597 -0.04912,0.305658 z" />
        <path
           id="path7459"
           style="font-style:normal;font-variant:normal;font-weight:bold;font-stretch:normal;font-family:'Roboto Condensed';-inkscape-font-specification:'Roboto Condensed, Bold';fill:#d21446;fill-opacity:1;stroke-width:0.48378351px"
           d="m 70.663416,-42.595907 q 0,-0.335678 0.158288,-0.526714 0.158287,-0.191036 0.438018,-0.191036 0.282461,0 0.440748,0.191036 0.158287,0.191036 0.158287,0.529443 v 0.09415 q 0,0.337043 -0.156922,0.526714 -0.156923,0.189672 -0.439384,0.189672 -0.283825,0 -0.442112,-0.189672 -0.156923,-0.191036 -0.156923,-0.529443 z m 0.387531,0.09688 q 0,0.395718 0.211504,0.395718 0.19513,0 0.21014,-0.33022 l 0.0014,-0.162381 q 0,-0.201952 -0.05595,-0.298835 -0.05595,-0.09825 -0.158288,-0.09825 -0.09825,0 -0.154193,0.09825 -0.05458,0.09688 -0.05458,0.298835 z" />
        <path
           id="path7461"
           style="font-style:normal;font-variant:normal;font-weight:bold;font-stretch:normal;font-family:'Roboto Condensed';-inkscape-font-specification:'Roboto Condensed, Bold';fill:#d21446;fill-opacity:1;stroke-width:0.48378351px"
           d="m 73.149617,-41.809929 h -0.387531 v -2.09594 h 0.387531 z" />
        <path
           id="path7463"
           style="font-style:normal;font-variant:normal;font-weight:bold;font-stretch:normal;font-family:'Roboto Condensed';-inkscape-font-specification:'Roboto Condensed, Bold';fill:#d21446;fill-opacity:1;stroke-width:0.48378351px"
           d="m 73.403422,-42.595907 q 0,-0.335678 0.158287,-0.526714 0.158287,-0.191036 0.438019,-0.191036 0.282461,0 0.440748,0.191036 0.158287,0.191036 0.158287,0.529443 v 0.09415 q 0,0.337043 -0.156923,0.526714 -0.156922,0.189672 -0.439383,0.189672 -0.283825,0 -0.442112,-0.189672 -0.156923,-0.191036 -0.156923,-0.529443 z m 0.387531,0.09688 q 0,0.395718 0.211504,0.395718 0.19513,0 0.21014,-0.33022 l 0.0014,-0.162381 q 0,-0.201952 -0.05595,-0.298835 -0.05595,-0.09825 -0.158287,-0.09825 -0.09825,0 -0.154194,0.09825 -0.05458,0.09688 -0.05458,0.298835 z" />
        <path
           id="path7465"
           style="font-style:normal;font-variant:normal;font-weight:bold;font-stretch:normal;font-family:'Roboto Condensed';-inkscape-font-specification:'Roboto Condensed, Bold';fill:#d21446;fill-opacity:1;stroke-width:0.48378351px"
           d="m 75.4325,-42.595907 q 0,-0.362968 0.121444,-0.540359 0.121445,-0.177391 0.36024,-0.177391 0.193765,0 0.308387,0.174662 l 0.02456,-0.147371 h 0.337042 v 2.044088 h -0.38753 v -0.682273 q -0.107799,0.141913 -0.283826,0.141913 -0.233337,0 -0.356146,-0.18012 -0.121444,-0.181484 -0.124173,-0.521256 z m 0.38753,0.09688 q 0,0.214234 0.0464,0.305658 0.04639,0.09006 0.158287,0.09006 0.117351,0 0.171933,-0.09142 v -0.702741 q -0.05458,-0.09552 -0.170568,-0.09552 -0.110528,0 -0.158288,0.0887 -0.04639,0.0887 -0.04776,0.296107 z" />
        <path
           id="path7467"
           style="font-style:normal;font-variant:normal;font-weight:bold;font-stretch:normal;font-family:'Roboto Condensed';-inkscape-font-specification:'Roboto Condensed, Bold';fill:#d21446;fill-opacity:1;stroke-width:0.48378351px"
           d="m 77.602125,-41.945019 q -0.12008,0.162381 -0.322032,0.162381 -0.203317,0 -0.308387,-0.139184 -0.10507,-0.140548 -0.10507,-0.407998 v -0.956546 h 0.386166 v 0.966097 q 0.0027,0.215598 0.143277,0.215598 0.132361,0 0.191036,-0.114621 v -1.067074 h 0.388896 v 1.476437 h -0.362969 z" />
        <path
           id="path7469"
           style="font-style:normal;font-variant:normal;font-weight:bold;font-stretch:normal;font-family:'Roboto Condensed';-inkscape-font-specification:'Roboto Condensed, Bold';fill:#d21446;fill-opacity:1;stroke-width:0.48378351px"
           d="m 78.847955,-41.782638 q -0.29747,0 -0.463945,-0.177391 -0.166474,-0.177391 -0.166474,-0.50761 v -0.117351 q 0,-0.349324 0.152829,-0.538995 0.152829,-0.189672 0.438018,-0.189672 0.278368,0 0.418916,0.178755 0.140548,0.177391 0.143277,0.526715 v 0.189671 h -0.768239 q 0.0082,0.163746 0.07232,0.24016 0.06413,0.07505 0.197859,0.07505 0.193765,0 0.323397,-0.132361 l 0.151465,0.233337 q -0.07096,0.09825 -0.206047,0.159652 -0.13509,0.06004 -0.293376,0.06004 z m -0.242889,-0.906058 h 0.386166 v -0.03548 q -0.0027,-0.132361 -0.04366,-0.200588 -0.04094,-0.06823 -0.141913,-0.06823 -0.100976,0 -0.14737,0.07232 -0.04503,0.07232 -0.05322,0.231972 z" />
        <path
           id="path7471"
           style="font-style:normal;font-variant:normal;font-weight:bold;font-stretch:normal;font-family:'Roboto Condensed';-inkscape-font-specification:'Roboto Condensed, Bold';fill:#d21446;fill-opacity:1;stroke-width:0.48378351px"
           d="m 80.638237,-41.809929 h -0.38753 v -1.476437 h 0.38753 z m -0.405269,-1.85851 q 0,-0.09006 0.05731,-0.14737 0.05731,-0.05731 0.152829,-0.05731 0.09552,0 0.152829,0.05731 0.05731,0.05731 0.05731,0.14737 0,0.0887 -0.05731,0.147371 -0.05595,0.05868 -0.152829,0.05868 -0.09688,0 -0.154194,-0.05868 -0.05595,-0.05868 -0.05595,-0.147371 z" />
        <path
           id="path7473"
           style="font-style:normal;font-variant:normal;font-weight:bold;font-stretch:normal;font-family:'Roboto Condensed';-inkscape-font-specification:'Roboto Condensed, Bold';fill:#d21446;fill-opacity:1;stroke-width:0.48378351px"
           d="m 81.290489,-43.286366 0.01092,0.146006 q 0.130996,-0.173297 0.3425,-0.173297 0.380708,0 0.391625,0.533537 v 0.970191 H 81.648 v -0.941536 q 0,-0.125538 -0.03821,-0.181484 -0.03684,-0.05731 -0.130997,-0.05731 -0.10507,0 -0.163745,0.107799 v 1.072532 H 80.92752 v -1.476437 z" />
        <path
           id="path7475"
           style="font-style:normal;font-variant:normal;font-weight:bold;font-stretch:normal;font-family:'Roboto Condensed';-inkscape-font-specification:'Roboto Condensed, Bold';fill:#d21446;fill-opacity:1;stroke-width:0.48378351px"
           d="m 82.761469,-43.649335 v 0.362969 h 0.197859 v 0.290648 h -0.197859 v 0.73276 q 0,0.08733 0.0232,0.12008 0.02456,0.03275 0.09279,0.03275 0.05595,0 0.09143,-0.0096 l -0.0027,0.3002 q -0.09825,0.03684 -0.212869,0.03684 -0.373886,0 -0.377979,-0.428467 v -0.784613 h -0.170568 v -0.290648 h 0.170568 v -0.362969 z" />
        <path
           id="path7477"
           style="font-style:normal;font-variant:normal;font-weight:bold;font-stretch:normal;font-family:'Roboto Condensed';-inkscape-font-specification:'Roboto Condensed, Bold';fill:#d21446;fill-opacity:1;stroke-width:0.48378351px"
           d="m 83.765773,-41.782638 q -0.29747,0 -0.463945,-0.177391 -0.166474,-0.177391 -0.166474,-0.50761 v -0.117351 q 0,-0.349324 0.152829,-0.538995 0.152829,-0.189672 0.438019,-0.189672 0.278367,0 0.418915,0.178755 0.140548,0.177391 0.143277,0.526715 v 0.189671 h -0.768239 q 0.0082,0.163746 0.07232,0.24016 0.06413,0.07505 0.197859,0.07505 0.193765,0 0.323397,-0.132361 l 0.151465,0.233337 q -0.07096,0.09825 -0.206047,0.159652 -0.13509,0.06004 -0.293376,0.06004 z m -0.242889,-0.906058 h 0.386166 v -0.03548 q -0.0027,-0.132361 -0.04366,-0.200588 -0.04094,-0.06823 -0.141913,-0.06823 -0.100976,0 -0.14737,0.07232 -0.04503,0.07232 -0.05322,0.231972 z" />
        <path
           id="path7479"
           style="font-style:normal;font-variant:normal;font-weight:bold;font-stretch:normal;font-family:'Roboto Condensed';-inkscape-font-specification:'Roboto Condensed, Bold';fill:#d21446;fill-opacity:1;stroke-width:0.48378351px"
           d="m 85.235388,-42.913845 -0.128267,-0.01092 q -0.158288,0 -0.214234,0.139184 v 0.975649 h -0.387531 v -1.476437 h 0.364334 l 0.01092,0.159652 q 0.09143,-0.186943 0.252441,-0.186943 0.0655,0 0.106434,0.01774 z" />
        <path
           id="path7481"
           style="font-style:normal;font-variant:normal;font-weight:bold;font-stretch:normal;font-family:'Roboto Condensed';-inkscape-font-specification:'Roboto Condensed, Bold';fill:#d21446;fill-opacity:1;stroke-width:0.48378351px"
           d="m 86.003627,-41.782638 q -0.29747,0 -0.463945,-0.177391 -0.166474,-0.177391 -0.166474,-0.50761 v -0.117351 q 0,-0.349324 0.152829,-0.538995 0.152829,-0.189672 0.438019,-0.189672 0.278367,0 0.418915,0.178755 0.140548,0.177391 0.143277,0.526715 v 0.189671 h -0.768239 q 0.0082,0.163746 0.07232,0.24016 0.06413,0.07505 0.197859,0.07505 0.193765,0 0.323397,-0.132361 l 0.151465,0.233337 q -0.07096,0.09825 -0.206047,0.159652 -0.13509,0.06004 -0.293376,0.06004 z m -0.242889,-0.906058 h 0.386167 v -0.03548 q -0.0027,-0.132361 -0.04367,-0.200588 -0.04094,-0.06823 -0.141913,-0.06823 -0.100976,0 -0.14737,0.07232 -0.04503,0.07232 -0.05322,0.231972 z" />
        <path
           id="path7483"
           style="font-style:normal;font-variant:normal;font-weight:bold;font-stretch:normal;font-family:'Roboto Condensed';-inkscape-font-specification:'Roboto Condensed, Bold';fill:#d21446;fill-opacity:1;stroke-width:0.48378351px"
           d="m 87.398192,-42.205647 q 0,-0.04912 -0.04776,-0.09006 -0.04639,-0.0423 -0.208776,-0.113257 -0.238795,-0.09688 -0.328855,-0.200588 -0.0887,-0.103705 -0.0887,-0.257899 0,-0.193765 0.139183,-0.319303 0.140548,-0.126903 0.371156,-0.126903 0.242889,0 0.388896,0.125538 0.146006,0.125538 0.146006,0.337043 h -0.386166 q 0,-0.18012 -0.1501,-0.18012 -0.0614,0 -0.100976,0.03821 -0.03957,0.03821 -0.03957,0.106434 0,0.04912 0.04367,0.08733 0.04367,0.03684 0.206046,0.106435 0.236067,0.08733 0.332949,0.19513 0.09825,0.106434 0.09825,0.277002 0,0.197859 -0.148736,0.317939 -0.148735,0.12008 -0.39026,0.12008 -0.16238,0 -0.286554,-0.06277 -0.124174,-0.06413 -0.19513,-0.177391 -0.06959,-0.113257 -0.06959,-0.244253 h 0.367063 q 0.0027,0.100976 0.04639,0.151464 0.04503,0.05049 0.146007,0.05049 0.155558,0 0.155558,-0.140548 z" />
        <path
           id="path7485"
           style="font-style:normal;font-variant:normal;font-weight:bold;font-stretch:normal;font-family:'Roboto Condensed';-inkscape-font-specification:'Roboto Condensed, Bold';fill:#d21446;fill-opacity:1;stroke-width:0.48378351px"
           d="m 88.717706,-41.809929 q -0.01637,-0.03411 -0.03275,-0.114622 -0.103705,0.141913 -0.281096,0.141913 -0.185578,0 -0.308387,-0.122809 -0.121445,-0.122809 -0.121445,-0.317939 0,-0.231972 0.147371,-0.358875 0.148735,-0.126903 0.427103,-0.129632 h 0.11735 v -0.118715 q 0,-0.09961 -0.03411,-0.140548 -0.03411,-0.04094 -0.09961,-0.04094 -0.144642,0 -0.144642,0.169204 h -0.38617 q 0,-0.204682 0.152829,-0.337043 0.154194,-0.133725 0.388895,-0.133725 0.242889,0 0.37525,0.126903 0.133725,0.125538 0.133725,0.360239 v 0.694554 q 0.0027,0.191036 0.05458,0.298835 v 0.0232 z m -0.227879,-0.275638 q 0.06413,0 0.109164,-0.02593 0.04503,-0.02593 0.06686,-0.06141 v -0.307022 h -0.09279 q -0.09825,0 -0.155558,0.06277 -0.05595,0.06277 -0.05595,0.167839 0,0.163745 0.128267,0.163745 z" />
        <path
           id="path7487"
           style="font-style:normal;font-variant:normal;font-weight:bold;font-stretch:normal;font-family:'Roboto Condensed';-inkscape-font-specification:'Roboto Condensed, Bold';fill:#d21446;fill-opacity:1;stroke-width:0.48378351px"
           d="m 89.363135,-42.006423 q 0,-0.09279 0.0614,-0.152829 0.06277,-0.06004 0.162381,-0.06004 0.09688,0 0.161016,0.06004 0.06413,0.05868 0.06413,0.152829 0,0.09552 -0.0655,0.154193 -0.06413,0.05731 -0.159652,0.05731 -0.09688,0 -0.161016,-0.05868 -0.06277,-0.05868 -0.06277,-0.152829 z" />
        <path
           id="path7489"
           style="font-style:normal;font-variant:normal;font-weight:bold;font-stretch:normal;font-family:'Roboto Condensed';-inkscape-font-specification:'Roboto Condensed, Bold';fill:#d21446;fill-opacity:1;stroke-width:0.48378351px"
           d="m 92.197295,-41.809929 h -0.401176 l -0.586754,-1.30314 v 1.30314 h -0.401177 v -1.986777 h 0.401177 l 0.588118,1.304505 v -1.304505 h 0.399812 z" />
        <path
           id="path7491"
           style="font-style:normal;font-variant:normal;font-weight:bold;font-stretch:normal;font-family:'Roboto Condensed';-inkscape-font-specification:'Roboto Condensed, Bold';fill:#d21446;fill-opacity:1;stroke-width:0.48378351px"
           d="m 93.204328,-41.809929 q -0.01638,-0.03411 -0.03275,-0.114622 -0.103706,0.141913 -0.281096,0.141913 -0.185578,0 -0.308387,-0.122809 -0.121445,-0.122809 -0.121445,-0.317939 0,-0.231972 0.147371,-0.358875 0.148735,-0.126903 0.427102,-0.129632 h 0.117351 v -0.118715 q 0,-0.09961 -0.03411,-0.140548 -0.03411,-0.04094 -0.09961,-0.04094 -0.144642,0 -0.144642,0.169204 h -0.386166 q 0,-0.204682 0.152829,-0.337043 0.154194,-0.133725 0.388895,-0.133725 0.242889,0 0.37525,0.126903 0.133725,0.125538 0.133725,0.360239 v 0.694554 q 0.0027,0.191036 0.05458,0.298835 v 0.0232 z m -0.227879,-0.275638 q 0.06413,0 0.109164,-0.02593 0.04503,-0.02593 0.06686,-0.06141 v -0.307022 h -0.09279 q -0.09825,0 -0.155558,0.06277 -0.05595,0.06277 -0.05595,0.167839 0,0.163745 0.128267,0.163745 z" />
        <path
           id="path7493"
           style="font-style:normal;font-variant:normal;font-weight:bold;font-stretch:normal;font-family:'Roboto Condensed';-inkscape-font-specification:'Roboto Condensed, Bold';fill:#d21446;fill-opacity:1;stroke-width:0.48378351px"
           d="m 93.766521,-42.593178 q 0,-0.362968 0.122809,-0.541724 0.122809,-0.178755 0.357511,-0.178755 0.170568,0 0.283825,0.147371 v -0.739583 h 0.388896 v 2.09594 h -0.350688 l -0.01774,-0.1501 q -0.118715,0.177391 -0.305658,0.177391 -0.231972,0 -0.354781,-0.177391 -0.121445,-0.177391 -0.124174,-0.521256 z m 0.387531,0.09688 q 0,0.218327 0.0464,0.305658 0.04639,0.08597 0.156922,0.08597 0.114622,0 0.173297,-0.10234 v -0.674085 q -0.05731,-0.109164 -0.171932,-0.109164 -0.106435,0 -0.155558,0.08597 -0.04912,0.08597 -0.04912,0.305658 z" />
        <path
           id="path7495"
           style="font-style:normal;font-variant:normal;font-weight:bold;font-stretch:normal;font-family:'Roboto Condensed';-inkscape-font-specification:'Roboto Condensed, Bold';fill:#d21446;fill-opacity:1;stroke-width:0.48378351px"
           d="m 95.906127,-41.809929 q -0.01637,-0.03411 -0.03275,-0.114622 -0.103705,0.141913 -0.281096,0.141913 -0.185578,0 -0.308387,-0.122809 -0.121445,-0.122809 -0.121445,-0.317939 0,-0.231972 0.147371,-0.358875 0.148736,-0.126903 0.427103,-0.129632 h 0.117351 v -0.118715 q 0,-0.09961 -0.03411,-0.140548 -0.03411,-0.04094 -0.09961,-0.04094 -0.144642,0 -0.144642,0.169204 h -0.386166 q 0,-0.204682 0.152829,-0.337043 0.154194,-0.133725 0.388896,-0.133725 0.242889,0 0.375249,0.126903 0.133726,0.125538 0.133726,0.360239 v 0.694554 q 0.0027,0.191036 0.05458,0.298835 v 0.0232 z m -0.227879,-0.275638 q 0.06413,0 0.109164,-0.02593 0.04503,-0.02593 0.06686,-0.06141 v -0.307022 h -0.09279 q -0.09825,0 -0.155559,0.06277 -0.05595,0.06277 -0.05595,0.167839 0,0.163745 0.128267,0.163745 z" />
        <path
           id="path7497"
           style="font-style:normal;font-variant:normal;font-weight:bold;font-stretch:normal;font-family:'Roboto Condensed';-inkscape-font-specification:'Roboto Condensed, Bold';fill:#d21446;fill-opacity:1;stroke-width:0.48378351px"
           d="m 97.707326,-43.796706 0.37525,1.436866 0.373885,-1.436866 h 0.523985 v 1.986777 h -0.40254 v -0.53763 l 0.03684,-0.828279 -0.397082,1.365909 h -0.272909 l -0.397083,-1.365909 0.03684,0.828279 v 0.53763 h -0.401176 v -1.986777 z" />
        <path
           id="path7499"
           style="font-style:normal;font-variant:normal;font-weight:bold;font-stretch:normal;font-family:'Roboto Condensed';-inkscape-font-specification:'Roboto Condensed, Bold';fill:#d21446;fill-opacity:1;stroke-width:0.48378351px"
           d="m 99.983384,-41.809929 q -0.01637,-0.03411 -0.03275,-0.114622 -0.103705,0.141913 -0.281096,0.141913 -0.185578,0 -0.308387,-0.122809 -0.121444,-0.122809 -0.121444,-0.317939 0,-0.231972 0.14737,-0.358875 0.148736,-0.126903 0.427103,-0.129632 h 0.117351 v -0.118715 q 0,-0.09961 -0.03411,-0.140548 -0.03411,-0.04094 -0.09961,-0.04094 -0.144641,0 -0.144641,0.169204 h -0.386166 q 0,-0.204682 0.152829,-0.337043 0.154193,-0.133725 0.388895,-0.133725 0.242892,0 0.375252,0.126903 0.13373,0.125538 0.13373,0.360239 v 0.694554 q 0.003,0.191036 0.0546,0.298835 v 0.0232 z m -0.227879,-0.275638 q 0.06413,0 0.109164,-0.02593 0.04503,-0.02593 0.06686,-0.06141 v -0.307022 h -0.09279 q -0.09825,0 -0.155558,0.06277 -0.05595,0.06277 -0.05595,0.167839 0,0.163745 0.128267,0.163745 z m 0.115987,-1.820302 h 0.433928 l -0.379346,0.423008 h -0.322033 z" />
        <path
           id="path7501"
           style="font-style:normal;font-variant:normal;font-weight:bold;font-stretch:normal;font-family:'Roboto Condensed';-inkscape-font-specification:'Roboto Condensed, Bold';fill:#d21446;fill-opacity:1;stroke-width:0.48378351px"
           d="m 101.25105,-42.205647 q 0,-0.04912 -0.0478,-0.09006 -0.0464,-0.0423 -0.20878,-0.113257 -0.23879,-0.09688 -0.32885,-0.200588 -0.0887,-0.103705 -0.0887,-0.257899 0,-0.193765 0.13919,-0.319303 0.14054,-0.126903 0.37115,-0.126903 0.24289,0 0.3889,0.125538 0.146,0.125538 0.146,0.337043 H 101.236 q 0,-0.18012 -0.1501,-0.18012 -0.0614,0 -0.10098,0.03821 -0.0396,0.03821 -0.0396,0.106434 0,0.04912 0.0437,0.08733 0.0437,0.03684 0.20605,0.106435 0.23607,0.08733 0.33295,0.19513 0.0983,0.106434 0.0983,0.277002 0,0.197859 -0.14874,0.317939 -0.14873,0.12008 -0.39026,0.12008 -0.16238,0 -0.28655,-0.06277 -0.12418,-0.06413 -0.19513,-0.177391 -0.0696,-0.113257 -0.0696,-0.244253 h 0.36706 q 0.003,0.100976 0.0464,0.151464 0.045,0.05049 0.14601,0.05049 0.15556,0 0.15556,-0.140548 z" />
        <path
           id="path7503"
           style="font-style:normal;font-variant:normal;font-weight:bold;font-stretch:normal;font-family:'Roboto Condensed';-inkscape-font-specification:'Roboto Condensed, Bold';fill:#d21446;fill-opacity:1;stroke-width:0.48378351px"
           d="m 101.90057,-42.006423 q 0,-0.09279 0.0614,-0.152829 0.0628,-0.06004 0.16239,-0.06004 0.0969,0 0.16101,0.06004 0.0641,0.05868 0.0641,0.152829 0,0.09552 -0.0655,0.154193 -0.0641,0.05731 -0.15965,0.05731 -0.0969,0 -0.16102,-0.05868 -0.0628,-0.05868 -0.0628,-0.152829 z" />
      </g>
    </g>
  </g>
</svg>
