<?xml version="1.0" encoding="UTF-8" standalone="no"?>
<svg
   xmlns:dc="http://purl.org/dc/elements/1.1/"
   xmlns:cc="http://creativecommons.org/ns#"
   xmlns:rdf="http://www.w3.org/1999/02/22-rdf-syntax-ns#"
   xmlns:svg="http://www.w3.org/2000/svg"
   xmlns="http://www.w3.org/2000/svg"
   xmlns:sodipodi="http://sodipodi.sourceforge.net/DTD/sodipodi-0.dtd"
   xmlns:inkscape="http://www.inkscape.org/namespaces/inkscape"
   width="178.24236"
   height="35"
   viewBox="0 0 47.159956 9.2604159"
   version="1.1"
   id="svg6829"
   inkscape:version="1.0.1 (3bc2e813f5, 2020-09-07)"
   sodipodi:docname="aniversarios.svg">
  <defs
     id="defs6823" />
  <sodipodi:namedview
     id="base"
     pagecolor="#ffffff"
     bordercolor="#666666"
     borderopacity="1.0"
     inkscape:pageopacity="0.0"
     inkscape:pageshadow="2"
     inkscape:zoom="1.7252476"
     inkscape:cx="176.29435"
     inkscape:cy="83.473076"
     inkscape:document-units="px"
     inkscape:current-layer="layer1"
     inkscape:document-rotation="0"
     showgrid="false"
     units="px"
     inkscape:window-width="1366"
     inkscape:window-height="704"
     inkscape:window-x="0"
     inkscape:window-y="27"
     inkscape:window-maximized="1" />
  <metadata
     id="metadata6826">
    <rdf:RDF>
      <cc:Work
         rdf:about="">
        <dc:format>image/svg+xml</dc:format>
        <dc:type
           rdf:resource="http://purl.org/dc/dcmitype/StillImage" />
        <dc:title />
      </cc:Work>
    </rdf:RDF>
  </metadata>
  <g
     inkscape:label="Layer 1"
     inkscape:groupmode="layer"
     id="layer1"
     transform="translate(260.07917,-16.03527)">
    <g
       id="g984"
       transform="matrix(0.5186884,0,0,0.5186884,-263.85844,-95.465713)">
      <path
         id="path1411"
         style="color:#000000;font-style:normal;font-variant:normal;font-weight:bold;font-stretch:normal;font-size:14.1111px;line-height:1.25;font-family:Raleway;-inkscape-font-specification:'Raleway Bold';font-variant-ligatures:normal;font-variant-position:normal;font-variant-caps:normal;font-variant-numeric:normal;font-variant-alternates:normal;font-variant-east-asian:normal;font-feature-settings:normal;font-variation-settings:normal;text-indent:0;text-align:start;text-decoration:none;text-decoration-line:none;text-decoration-style:solid;text-decoration-color:#000000;letter-spacing:normal;word-spacing:normal;text-transform:none;writing-mode:lr-tb;direction:ltr;text-orientation:mixed;dominant-baseline:auto;baseline-shift:baseline;text-anchor:start;white-space:normal;shape-padding:0;shape-margin:0;inline-size:0;clip-rule:nonzero;display:inline;overflow:visible;visibility:visible;isolation:auto;mix-blend-mode:normal;color-interpolation:sRGB;color-interpolation-filters:linearRGB;solid-color:#000000;solid-opacity:1;vector-effect:none;fill:#000000;fill-opacity:1;fill-rule:nonzero;stroke:none;stroke-width:2.11667;stroke-linecap:butt;stroke-linejoin:miter;stroke-miterlimit:4;stroke-dasharray:none;stroke-dashoffset:0;stroke-opacity:1;color-rendering:auto;image-rendering:auto;shape-rendering:auto;text-rendering:auto;enable-background:accumulate;stop-color:#000000"
         d="m 31.912097,214.96752 v 4.36304 c -0.654865,-0.95271 -1.837359,-1.56154 -2.793107,-1.58388 -0.666753,0 -1.285983,0.18737 -1.876888,0.42995 v -0.30283 h -3.824056 l -1.478121,1.32885 -1.553218,-3.95401 h -3.023589 l -5.29167,5.29167 -4.7852378,12.13672 H 11.63995 l 2.953308,-2.49804 0.917773,2.49804 20.484506,-5.2e-4 2.765138,-1.30795 c 1.004987,0.98335 2.234325,1.43991 3.594193,1.4488 1.64255,-0.0822 2.980349,-0.5653 3.964682,-1.83547 v 1.69447 h 4.008024 l 1.273414,-1.0369 c 1.250558,0.79059 2.680149,1.17287 4.131028,1.17715 1.329748,-0.0507 2.588904,-0.36495 3.393051,-1.34968 0.646887,0.82589 1.964745,1.37791 2.886207,1.35104 0.887846,-0.0259 1.718581,-0.17654 2.312521,-0.72451 0.294134,0.48291 1.096276,0.65978 1.583888,0.68183 l 10.638623,-0.0985 v -1.8805 c 0.947737,1.34841 2.546485,2.01198 4.050879,2.02208 1.36527,-0.027 2.626519,-0.50758 3.528983,-1.40405 1.481135,1.0003 2.78974,1.2793 4.457693,1.40348 1.061776,0.036 2.055026,-0.26351 2.882569,-0.8479 1.766663,-1.75528 3.511625,-3.53276 5.282007,-5.28413 0.76656,-0.69187 1.238244,-1.60172 1.246418,-2.56082 -0.03251,-0.97606 -0.55376,-1.96048 -1.363226,-2.35748 l 1.576133,-2.38073 -0.921909,-0.57619 c -0.527531,-0.3297 -1.099362,-0.58764 -1.705321,-0.77308 -0.616477,-0.20109 -1.250082,-0.30489 -1.888257,-0.30489 l -5.16e-4,5.1e-4 c -1.459346,0.001 -3.06894,0.94816 -3.735637,2.09587 -0.919545,-1.27781 -2.706851,-2.0543 -4.066937,-2.08256 -1.404753,0.0245 -2.712895,0.54726 -3.618899,1.48828 h -0.0021 c -0.158078,0.16712 -0.298664,0.34875 -0.429948,0.53692 v -4.80436 h -4.007506 v 2.8205 c -0.155848,-0.0266 -0.260294,-0.0279 -0.380854,-0.0279 v 5.2e-4 c -0.440267,0 -0.825223,0.24656 -1.226799,0.42943 v -0.31626 h -3.853511 l -0.937411,0.9307 c -0.819829,-0.73573 -1.934187,-1.05627 -3.167765,-1.05627 v -0.002 c -1.387882,0.1199 -2.722986,0.5125 -3.697969,1.14518 -0.59935,-0.36297 -1.264614,-0.67647 -1.835547,-0.85418 -0.616477,-0.20109 -1.252147,-0.30489 -1.890323,-0.30489 v 5.1e-4 c -1.016339,0.03 -1.904858,0.24047 -2.709345,0.83806 v -0.59272 c -0.474412,-0.1105 -0.98986,-0.20537 -1.439188,-0.2186 v 5.2e-4 c -0.440267,0 -0.825223,0.24656 -1.226799,0.42943 v -0.31626 H 51.61171 v 1.77715 c -0.933916,-1.17045 -2.666768,-1.87707 -3.95118,-1.90375 v -5.2e-4 c -0.732675,0.0458 -1.475973,0.15837 -2.054653,0.39681 l -0.816487,-0.26924 h -4.064351 l -1.117245,3.45871 -1.108976,-3.45871 h -2.578137 v -2.90628 z"
         sodipodi:nodetypes="cccccccccccccccccccccccsccccccccccccsccccccccccccccccccccccccccccccccccccccccc" />
      <text
         xml:space="preserve"
         style="font-style:normal;font-variant:normal;font-weight:bold;font-stretch:normal;font-size:14.1111px;line-height:1.25;font-family:Raleway;-inkscape-font-specification:'Raleway Bold';fill:#362a2a;fill-opacity:1;stroke-width:0.264583"
         x="13.575579"
         y="226.85558"
         id="text978"><tspan
           sodipodi:role="line"
           id="tspan976"
           x="13.575579"
           y="226.85558"
           style="font-style:normal;font-variant:normal;font-weight:bold;font-stretch:normal;font-size:14.1111px;font-family:Raleway;-inkscape-font-specification:'Raleway Bold';fill:#362a2a;fill-opacity:1;stroke-width:0.264583">Aniversarios</tspan></text>
      <g
         aria-label="Aniversarios"
         id="text982"
         style="font-style:normal;font-variant:normal;font-weight:bold;font-stretch:normal;font-size:14.1111px;line-height:1.25;font-family:Raleway;-inkscape-font-specification:'Raleway Bold';fill:#ffffff;fill-opacity:1;stroke-width:0.264583">
        <path
           d="m 14.132967,226.32642 3.951108,-10.01889 h 1.580443 l 3.936997,10.01889 h -2.06022 l -0.917222,-2.49767 h -3.513664 l -0.917221,2.49767 z m 4.74133,-7.91633 -1.439332,4.04988 h 2.836331 z"
           style="font-style:normal;font-variant:normal;font-weight:bold;font-stretch:normal;font-size:14.1111px;font-family:Raleway;-inkscape-font-specification:'Raleway Bold';fill:#ffffff;fill-opacity:1;stroke-width:0.264583"
           id="path1510" />
        <path
           d="m 31.348498,226.32642 h -1.890887 v -4.14867 q 0,-0.889 -0.310444,-1.29822 -0.310445,-0.40922 -0.860778,-0.40922 -0.282222,0 -0.578555,0.11289 -0.296333,0.11289 -0.564444,0.32455 -0.253999,0.19756 -0.465666,0.47978 -0.211666,0.28222 -0.310444,0.62089 v 4.318 h -1.890888 v -7.39422 h 1.707444 v 1.36878 q 0.409221,-0.70556 1.185332,-1.10067 0.77611,-0.39511 1.749776,-0.39511 0.691444,0 1.128888,0.254 0.437445,0.254 0.677333,0.66322 0.239889,0.40922 0.324556,0.93133 0.09878,0.52211 0.09878,1.05834 z"
           style="font-style:normal;font-variant:normal;font-weight:bold;font-stretch:normal;font-size:14.1111px;font-family:Raleway;-inkscape-font-specification:'Raleway Bold';fill:#ffffff;fill-opacity:1;stroke-width:0.264583"
           id="path1512" />
        <path
           d="m 32.971265,226.32642 v -7.39422 h 1.890887 v 7.39422 z m 0,-8.42433 v -1.87678 h 1.890887 v 1.87678 z"
           style="font-style:normal;font-variant:normal;font-weight:bold;font-stretch:normal;font-size:14.1111px;font-family:Raleway;-inkscape-font-specification:'Raleway Bold';fill:#ffffff;fill-opacity:1;stroke-width:0.264583"
           id="path1514" />
        <path
           d="m 38.502793,226.32642 -2.723442,-7.39422 h 1.947331 l 1.876777,5.85611 1.890887,-5.85611 h 1.777999 l -2.723443,7.39422 z"
           style="font-style:normal;font-variant:normal;font-weight:bold;font-stretch:normal;font-size:14.1111px;font-family:Raleway;-inkscape-font-specification:'Raleway Bold';fill:#ffffff;fill-opacity:1;stroke-width:0.264583"
           id="path1516" />
        <path
           d="m 47.646776,226.46753 q -0.889,0 -1.608666,-0.29634 -0.719666,-0.31044 -1.227665,-0.83255 -0.508,-0.52211 -0.790222,-1.21356 -0.268111,-0.69144 -0.268111,-1.45344 0,-0.79022 0.268111,-1.48166 0.268111,-0.70556 0.776111,-1.22767 0.507999,-0.53622 1.227665,-0.84667 0.733777,-0.31044 1.636888,-0.31044 0.90311,0 1.608665,0.31044 0.719666,0.31045 1.213555,0.83256 0.508,0.52211 0.761999,1.21355 0.268111,0.69145 0.268111,1.43934 0,0.18344 -0.01411,0.35277 0,0.16934 -0.02822,0.28223 h -5.714996 q 0.04233,0.43744 0.211667,0.77611 0.169333,0.33866 0.437444,0.57855 0.268111,0.23989 0.606777,0.36689 0.338667,0.127 0.705555,0.127 0.564444,0 1.058333,-0.26811 0.507999,-0.28222 0.691444,-0.73378 l 1.622776,0.45156 q -0.409222,0.84666 -1.312332,1.397 -0.888999,0.53622 -2.130776,0.53622 z m 1.919109,-4.45911 q -0.07055,-0.83256 -0.620888,-1.32644 -0.536222,-0.508 -1.312332,-0.508 -0.381,0 -0.719666,0.14111 -0.324556,0.127 -0.578556,0.36689 -0.253999,0.23988 -0.423333,0.57855 -0.155222,0.33867 -0.183444,0.74789 z"
           style="font-style:normal;font-variant:normal;font-weight:bold;font-stretch:normal;font-size:14.1111px;font-family:Raleway;-inkscape-font-specification:'Raleway Bold';fill:#ffffff;fill-opacity:1;stroke-width:0.264583"
           id="path1518" />
        <path
           d="m 57.072969,220.56909 q -0.860777,0.0141 -1.53811,0.33866 -0.677333,0.31045 -0.973666,0.94545 v 4.47322 h -1.890887 v -7.39422 h 1.735665 v 1.58044 q 0.381,-0.762 0.987777,-1.22766 0.620889,-0.46567 1.298221,-0.46567 0.155223,0 0.225778,0.0141 0.08467,0 0.155222,0.0141 z"
           style="font-style:normal;font-variant:normal;font-weight:bold;font-stretch:normal;font-size:14.1111px;font-family:Raleway;-inkscape-font-specification:'Raleway Bold';fill:#ffffff;fill-opacity:1;stroke-width:0.264583"
           id="path1520" />
        <path
           d="m 61.024054,226.46753 q -0.451555,0 -0.945443,-0.0706 -0.479778,-0.0705 -0.945444,-0.19755 -0.465666,-0.127 -0.888999,-0.31045 -0.423333,-0.18344 -0.747889,-0.40922 l 0.762,-1.28411 q 1.41111,0.91722 2.723442,0.91722 0.592666,0 0.931333,-0.21167 0.338666,-0.21166 0.338666,-0.60677 0,-0.39511 -0.409222,-0.57856 -0.395111,-0.19755 -1.340554,-0.42333 -0.719666,-0.16933 -1.227666,-0.35278 -0.508,-0.18344 -0.818444,-0.42333 -0.310444,-0.23989 -0.451555,-0.55033 -0.141111,-0.31045 -0.141111,-0.73378 0,-0.56445 0.225777,-1.016 0.225778,-0.45156 0.620889,-0.762 0.409222,-0.32456 0.945444,-0.49389 0.550333,-0.16933 1.185332,-0.16933 0.790222,0 1.566332,0.254 0.790222,0.23989 1.467555,0.66322 l -0.776111,1.17122 q -0.620888,-0.39511 -1.171221,-0.56444 -0.550333,-0.18345 -1.100666,-0.18345 -0.508,0 -0.860777,0.19756 -0.338667,0.19755 -0.338667,0.635 0,0.381 0.324556,0.55033 0.338666,0.16933 1.185332,0.381 0.790222,0.19756 1.340555,0.39511 0.564444,0.19756 0.917221,0.45156 0.366889,0.254 0.522111,0.59266 0.169333,0.32456 0.169333,0.79022 0,0.53623 -0.225778,0.97367 -0.211666,0.43744 -0.606777,0.74789 -0.395111,0.29633 -0.973666,0.46566 -0.564444,0.15523 -1.255888,0.15523 z"
           style="font-style:normal;font-variant:normal;font-weight:bold;font-stretch:normal;font-size:14.1111px;font-family:Raleway;-inkscape-font-specification:'Raleway Bold';fill:#ffffff;fill-opacity:1;stroke-width:0.264583"
           id="path1522" />
        <path
           d="m 67.303485,226.46753 q -0.536221,0 -1.001888,-0.16934 -0.465666,-0.18344 -0.804332,-0.49388 -0.338667,-0.32456 -0.536222,-0.74789 -0.183445,-0.42334 -0.183445,-0.93134 0,-0.52211 0.225778,-0.95955 0.239889,-0.45156 0.649111,-0.762 0.423333,-0.31044 1.001888,-0.47978 0.578555,-0.18344 1.269999,-0.18344 0.493888,0 0.959555,0.0847 0.479777,0.0847 0.846666,0.23988 v -0.42333 q 0,-0.73378 -0.423333,-1.12889 -0.409222,-0.39511 -1.227666,-0.39511 -0.592666,0 -1.15711,0.21167 -0.564444,0.21166 -1.157111,0.62089 l -0.578555,-1.19945 q 1.425221,-0.94544 3.07622,-0.94544 1.594554,0 2.469443,0.79022 0.888999,0.77611 0.888999,2.25778 v 2.30011 q 0,0.29633 0.112889,0.42333 0.112889,0.127 0.395111,0.14111 v 1.60867 q -0.268111,0.0564 -0.508,0.0705 -0.225778,0.0282 -0.395111,0.0282 -0.536222,-0.0141 -0.818444,-0.23988 -0.282222,-0.23989 -0.352777,-0.635 l -0.04233,-0.40923 q -0.493889,0.64911 -1.199444,0.98778 -0.705555,0.33867 -1.509888,0.33867 z m 0.536222,-1.38289 q 0.479778,0 0.903111,-0.16933 0.437444,-0.16934 0.677332,-0.45156 0.310445,-0.23989 0.310445,-0.53622 v -0.84667 q -0.338667,-0.127 -0.733778,-0.19755 -0.39511,-0.0847 -0.761999,-0.0847 -0.733777,0 -1.199444,0.33867 -0.465666,0.32455 -0.465666,0.83255 0,0.47978 0.366889,0.80433 0.366888,0.31045 0.90311,0.31045 z"
           style="font-style:normal;font-variant:normal;font-weight:bold;font-stretch:normal;font-size:14.1111px;font-family:Raleway;-inkscape-font-specification:'Raleway Bold';fill:#ffffff;fill-opacity:1;stroke-width:0.264583"
           id="path1524" />
        <path
           d="m 77.830354,220.56909 q -0.860777,0.0141 -1.53811,0.33866 -0.677332,0.31045 -0.973665,0.94545 v 4.47322 h -1.890888 v -7.39422 h 1.735665 v 1.58044 q 0.381,-0.762 0.987777,-1.22766 0.620889,-0.46567 1.298222,-0.46567 0.155222,0 0.225777,0.0141 0.08467,0 0.155222,0.0141 z"
           style="font-style:normal;font-variant:normal;font-weight:bold;font-stretch:normal;font-size:14.1111px;font-family:Raleway;-inkscape-font-specification:'Raleway Bold';fill:#ffffff;fill-opacity:1;stroke-width:0.264583"
           id="path1526" />
        <path
           d="m 78.888674,226.32642 v -7.39422 h 1.890888 v 7.39422 z m 0,-8.42433 v -1.87678 h 1.890888 v 1.87678 z"
           style="font-style:normal;font-variant:normal;font-weight:bold;font-stretch:normal;font-size:14.1111px;font-family:Raleway;-inkscape-font-specification:'Raleway Bold';fill:#ffffff;fill-opacity:1;stroke-width:0.264583"
           id="path1528" />
        <path
           d="m 85.887755,226.46753 q -0.90311,0 -1.622776,-0.31045 -0.719666,-0.31044 -1.227666,-0.83255 -0.493888,-0.53622 -0.761999,-1.22767 -0.268111,-0.69144 -0.268111,-1.45344 0,-0.77611 0.268111,-1.46756 0.268111,-0.69144 0.761999,-1.21355 0.508,-0.53622 1.227666,-0.84667 0.719666,-0.31044 1.622776,-0.31044 0.903111,0 1.608666,0.31044 0.719666,0.31045 1.213554,0.84667 0.508,0.52211 0.776111,1.21355 0.268111,0.69145 0.268111,1.46756 0,0.762 -0.268111,1.45344 -0.268111,0.69145 -0.761999,1.22767 -0.493889,0.52211 -1.213555,0.83255 -0.719666,0.31045 -1.622777,0.31045 z m -1.93322,-3.82411 q 0,0.49389 0.141111,0.90311 0.155222,0.39511 0.409222,0.69144 0.26811,0.29634 0.620888,0.46567 0.352777,0.15522 0.761999,0.15522 0.409222,0 0.762,-0.15522 0.352777,-0.16933 0.606777,-0.46567 0.268111,-0.29633 0.409222,-0.70555 0.155222,-0.40922 0.155222,-0.90311 0,-0.47978 -0.155222,-0.889 -0.141111,-0.40922 -0.409222,-0.70556 -0.254,-0.29633 -0.606777,-0.45155 -0.352778,-0.16933 -0.762,-0.16933 -0.409222,0 -0.761999,0.16933 -0.352778,0.16933 -0.620888,0.46566 -0.254,0.29634 -0.409222,0.70556 -0.141111,0.40922 -0.141111,0.889 z"
           style="font-style:normal;font-variant:normal;font-weight:bold;font-stretch:normal;font-size:14.1111px;font-family:Raleway;-inkscape-font-specification:'Raleway Bold';fill:#ffffff;fill-opacity:1;stroke-width:0.264583"
           id="path1530" />
        <path
           d="m 93.874629,226.46753 q -0.451555,0 -0.945444,-0.0706 -0.479777,-0.0705 -0.945444,-0.19755 -0.465666,-0.127 -0.888999,-0.31045 -0.423333,-0.18344 -0.747888,-0.40922 l 0.761999,-1.28411 q 1.41111,0.91722 2.723443,0.91722 0.592666,0 0.931332,-0.21167 0.338667,-0.21166 0.338667,-0.60677 0,-0.39511 -0.409222,-0.57856 -0.395111,-0.19755 -1.340555,-0.42333 -0.719666,-0.16933 -1.227666,-0.35278 -0.507999,-0.18344 -0.818443,-0.42333 -0.310445,-0.23989 -0.451556,-0.55033 -0.141111,-0.31045 -0.141111,-0.73378 0,-0.56445 0.225778,-1.016 0.225778,-0.45156 0.620888,-0.762 0.409222,-0.32456 0.945444,-0.49389 0.550333,-0.16933 1.185333,-0.16933 0.790221,0 1.566332,0.254 0.790221,0.23989 1.467554,0.66322 l -0.77611,1.17122 q -0.620889,-0.39511 -1.171222,-0.56444 -0.550333,-0.18345 -1.100666,-0.18345 -0.507999,0 -0.860777,0.19756 -0.338666,0.19755 -0.338666,0.635 0,0.381 0.324555,0.55033 0.338667,0.16933 1.185333,0.381 0.790221,0.19756 1.340554,0.39511 0.564444,0.19756 0.917222,0.45156 0.366888,0.254 0.52211,0.59266 0.169334,0.32456 0.169334,0.79022 0,0.53623 -0.225778,0.97367 -0.211667,0.43744 -0.606777,0.74789 -0.395111,0.29633 -0.973666,0.46566 -0.564444,0.15523 -1.255888,0.15523 z"
           style="font-style:normal;font-variant:normal;font-weight:bold;font-stretch:normal;font-size:14.1111px;font-family:Raleway;-inkscape-font-specification:'Raleway Bold';fill:#ffffff;fill-opacity:1;stroke-width:0.264583"
           id="path1532" />
      </g>
    </g>
  </g>
</svg>
