<?xml version="1.0" encoding="UTF-8" standalone="no"?>
<svg
   xmlns:dc="http://purl.org/dc/elements/1.1/"
   xmlns:cc="http://creativecommons.org/ns#"
   xmlns:rdf="http://www.w3.org/1999/02/22-rdf-syntax-ns#"
   xmlns:svg="http://www.w3.org/2000/svg"
   xmlns="http://www.w3.org/2000/svg"
   xmlns:sodipodi="http://sodipodi.sourceforge.net/DTD/sodipodi-0.dtd"
   xmlns:inkscape="http://www.inkscape.org/namespaces/inkscape"
   width="259.60538"
   height="35"
   viewBox="0 0 68.687256 9.2604159"
   version="1.1"
   id="svg6829"
   inkscape:version="1.0.1 (3bc2e813f5, 2020-09-07)"
   sodipodi:docname="aniversarios.svg">
  <defs
     id="defs6823" />
  <sodipodi:namedview
     id="base"
     pagecolor="#ffffff"
     bordercolor="#666666"
     borderopacity="1.0"
     inkscape:pageopacity="0.0"
     inkscape:pageshadow="2"
     inkscape:zoom="1.7335458"
     inkscape:cx="169.59601"
     inkscape:cy="-40.094362"
     inkscape:document-units="px"
     inkscape:current-layer="layer1"
     inkscape:document-rotation="0"
     showgrid="false"
     units="px"
     inkscape:window-width="1366"
     inkscape:window-height="704"
     inkscape:window-x="0"
     inkscape:window-y="27"
     inkscape:window-maximized="1" />
  <metadata
     id="metadata6826">
    <rdf:RDF>
      <cc:Work
         rdf:about="">
        <dc:format>image/svg+xml</dc:format>
        <dc:type
           rdf:resource="http://purl.org/dc/dcmitype/StillImage" />
        <dc:title />
      </cc:Work>
    </rdf:RDF>
  </metadata>
  <g
     inkscape:label="Layer 1"
     inkscape:groupmode="layer"
     id="layer1"
     transform="translate(223.59871,-61.760482)">
    <g
       id="g3234"
       transform="matrix(0.25210273,0,0,0.25210273,-193.03428,22.418086)">
      <g
         id="g4312"
         transform="matrix(1.9737817,0,0,1.9737817,-140.49572,-267.71229)">
        <path
           id="path4165"
           style="color:#000000;font-style:normal;font-variant:normal;font-weight:bold;font-stretch:normal;font-size:14.1111px;line-height:1.25;font-family:Raleway;-inkscape-font-specification:'Raleway Bold';font-variant-ligatures:normal;font-variant-position:normal;font-variant-caps:normal;font-variant-numeric:normal;font-variant-alternates:normal;font-variant-east-asian:normal;font-feature-settings:normal;font-variation-settings:normal;text-indent:0;text-align:start;text-decoration:none;text-decoration-line:none;text-decoration-style:solid;text-decoration-color:#000000;letter-spacing:normal;word-spacing:normal;text-transform:none;writing-mode:lr-tb;direction:ltr;text-orientation:mixed;dominant-baseline:auto;baseline-shift:baseline;text-anchor:start;white-space:normal;shape-padding:0;shape-margin:0;inline-size:0;clip-rule:nonzero;display:inline;overflow:visible;visibility:visible;isolation:auto;mix-blend-mode:normal;color-interpolation:sRGB;color-interpolation-filters:linearRGB;solid-color:#000000;solid-opacity:1;vector-effect:none;fill:#000000;fill-opacity:1;fill-rule:nonzero;stroke:none;stroke-width:2.64999;stroke-linecap:butt;stroke-linejoin:miter;stroke-miterlimit:4;stroke-dasharray:none;stroke-dashoffset:0;stroke-opacity:1;color-rendering:auto;image-rendering:auto;shape-rendering:auto;text-rendering:auto;enable-background:accumulate;stop-color:#000000"
           d="m 17.181897,214.9817 -3.382916,4.33729 -4.0422183,10.76128 h 4.9319983 l 1.627379,-2.49804 1.872666,2.49804 h 14.619867 l 1.908752,-1.90394 1.404049,1.90394 h 2.940476 l 1.312061,-2.09246 c 0.903851,0.59215 1.643741,1.35248 2.728466,1.82941 l 0.0098,0.004 0.0098,0.004 c 0.657392,0.27069 1.373677,0.39636 2.113566,0.39636 1.595429,-0.0759 2.601621,-0.46211 3.693331,-1.40133 v 1.26039 h 4.540808 l 0.849561,-1.08418 c 1.393587,0.86427 2.718899,1.22474 4.285009,1.22474 1.285543,-0.0106 2.471068,-0.37047 3.382692,-1.21021 0.818049,0.81876 2.115403,1.20532 2.89284,1.21148 0.874031,-0.0319 1.603078,-0.24558 2.244307,-0.60152 0.0011,0.001 7.94e-4,0.003 0.0021,0.004 l 0.0155,0.0134 0.01551,0.0119 c 0.918523,0.61197 1.692864,0.56435 2.662889,0.43047 l 9.858815,-5.3e-4 v -1.39888 c 0.464483,0.47627 1.025945,0.85304 1.647962,1.12137 0.664866,0.2868 1.394815,0.41807 2.148705,0.41807 0.753899,0 1.48332,-0.13127 2.148192,-0.41807 0.521118,-0.2248 0.998066,-0.52774 1.408697,-0.90278 1.428877,0.81857 3.082359,1.30851 4.423536,1.32084 0.560115,0 1.097986,-0.063 1.607656,-0.20309 l 0.0098,-0.002 0.01138,-0.004 c 0.507643,-0.14858 0.98198,-0.36429 1.396815,-0.67541 l 0.01138,-0.0103 0.01188,-0.0103 3.128488,-2.30011 c 0.971482,2.081 2.380284,3.04313 4.492364,3.20533 0.81627,-0.0488 1.54178,-0.23428 2.14521,-0.56446 l 0.002,0.002 c 0.50305,0.31679 1.08657,0.50196 1.59985,0.52005 0.40375,-0.004 0.81654,-0.067 1.17777,-0.11938 2.39652,-1.0331 2.12947,0.099 4.60643,0.16199 3.56116,-0.0109 4.80232,-1.94164 7.05467,-4.59605 v 4.4546 l 9.5219,-3e-5 v -1.32602 -0.004 c 0.45015,0.44236 0.98373,0.79748 1.57406,1.05213 0.66486,0.2868 1.39275,0.41807 2.14664,0.41807 0.7539,0 1.48332,-0.13127 2.14819,-0.41807 0.55674,-0.24016 1.06363,-0.56899 1.49242,-0.9803 v 1.37098 2.61896 l 0.93947,0.28525 c 0.45343,0.13855 0.92049,0.21291 1.38855,0.21291 0.80858,0 1.61333,-0.24167 2.26963,-0.709 l 2.42854,-2.42807 c 0.67039,-0.46842 1.16331,-1.16245 1.43557,-1.93942 v -0.002 l 3.73827,-10.62468 h -4.62504 l -0.88108,2.84944 -0.99788,-2.84944 h -4.83794 l 0.12867,0.32453 c -0.0192,-0.009 -0.037,-0.0195 -0.0563,-0.0279 -0.001,-5.3e-4 -0.003,5.3e-4 -0.004,0 -0.66019,-0.28983 -1.38632,-0.42375 -2.13889,-0.42375 -0.75389,0 -1.48178,0.13332 -2.14664,0.42013 -0.63043,0.27195 -1.20034,0.65874 -1.66605,1.15032 v 0.002 c -0.11754,0.12427 -0.22741,0.25514 -0.33124,0.39067 -0.0675,-0.14886 -0.1411,-0.29455 -0.22738,-0.43356 -0.29123,-0.4692 -0.7186,-0.85139 -1.19941,-1.10949 -0.55888,-0.30976 -1.17294,-0.42013 -1.80247,-0.42013 -0.46542,0 -0.88798,0.20477 -1.32809,0.3421 v -3.12106 h -4.54132 l -3.26492,4.33256 c -0.45753,-0.48126 -1.01721,-0.86253 -1.63866,-1.1312 -0.65964,-0.28919 -1.38504,-0.42168 -2.13682,-0.42168 l -5.3e-4,-5.3e-4 c -0.75389,0 -1.48349,0.13304 -2.15232,0.416 l -0.006,0.002 -0.004,0.002 c -0.62738,0.27064 -1.19178,0.65641 -1.65623,1.14464 -0.0791,0.0815 -0.15081,0.16947 -0.22376,0.25631 v -4.59972 l -4.54184,-5.3e-4 v 3.09749 c -0.38819,-0.1149 -0.75087,-0.31833 -1.15807,-0.31833 -0.66164,0 -1.31828,0.14331 -1.90841,0.4315 -0.56742,0.27712 -1.07239,0.67393 -1.47846,1.15858 l -2.950714,3.8256 c -0.02013,-0.0462 -0.036,-0.0935 -0.05891,-0.13901 -0.213741,-0.44941 -0.552566,-0.81661 -0.935341,-1.08572 l 0.0021,-0.004 h -5.29e-4 l 1.564762,-2.36161 -1.154451,-0.72037 c -0.547135,-0.34196 -1.140788,-0.60907 -1.767335,-0.80098 -0.640771,-0.20863 -1.303414,-0.31833 -1.968873,-0.31833 v 10e-4 c -0.541107,0 -1.070266,0.0734 -1.574062,0.22841 h -0.0062 l -0.0036,0.002 c -0.495588,0.15649 -0.960414,0.39636 -1.365292,0.71675 -0.324416,0.25489 -0.601573,0.56908 -0.820105,0.91932 -0.07956,-0.0959 -0.159772,-0.19136 -0.246497,-0.28112 -0.456877,-0.49175 -1.018733,-0.87983 -1.644343,-1.15032 -0.659638,-0.28918 -1.385041,-0.42168 -2.136822,-0.42168 -0.753894,0 -1.483839,0.13332 -2.148705,0.42013 -0.623383,0.26892 -1.185201,0.65052 -1.647963,1.1343 v -1.4273 -2.90628 h -4.54039 v 2.79414 c -0.03564,-2.7e-4 -0.07181,-0.002 -0.109038,-0.002 v 5.3e-4 c -0.346577,0 -0.63338,0.22834 -0.961181,0.3359 v -0.22273 h -4.386812 v 1.53531 c -0.145685,-0.19337 -0.309706,-0.37337 -0.494025,-0.53537 -0.879459,-0.78884 -2.068391,-1.12706 -3.345535,-1.12706 -1.310216,0 -2.576673,0.38347 -3.696414,1.0976 -0.543764,-0.33831 -1.133033,-0.60326 -1.754931,-0.79375 -0.64077,-0.20863 -1.303414,-0.31832 -1.968873,-0.31832 v 10e-4 c -0.541107,0 -1.072335,0.0734 -1.576131,0.22841 h -0.0036 l -0.0041,0.002 c -0.298765,0.0944 -0.584856,0.22311 -0.855244,0.37776 v -0.31368 l -1.066602,-0.21291 c -0.05472,-0.0109 -0.102224,-0.008 -0.154511,-0.0139 -0.230138,-0.046 -0.342675,-0.0408 -0.486275,-0.0408 v 5.3e-4 c -0.346866,0 -0.632619,0.22816 -0.960665,0.33589 v -0.22272 H 51.35764 v 1.33561 c -0.43851,-0.43598 -0.958599,-0.78791 -1.537372,-1.03869 -0.0013,-5.3e-4 -0.0024,5.3e-4 -0.0036,0 -0.660191,-0.28982 -1.386314,-0.42375 -2.138887,-0.42375 v -5.3e-4 c -0.753893,0 -1.483492,0.13304 -2.152324,0.416 l -0.0041,0.002 -0.0057,0.002 c -0.551032,0.27971 -0.552859,0.32247 -0.326078,-0.293 H 40.54697 l -0.921909,2.85357 -0.914157,-2.85357 h -2.519225 v -2.90636 h -4.541324 v 2.90628 0.88057 c -0.214878,-0.22507 -0.461047,-0.41996 -0.726572,-0.57413 -0.553791,-0.32156 -1.169448,-0.43357 -1.792655,-0.43357 -0.567571,0 -1.086244,0.20003 -1.61127,0.36897 v -0.24184 h -4.357871 v 3.97805 l -2.593641,-6.60321 z m 79.827684,6.67091 0.01654,0.0134 c -0.0033,-0.002 -0.0072,-0.003 -0.01035,-0.005 -0.0026,-0.002 -0.0035,-0.006 -0.0062,-0.008 z"
           sodipodi:nodetypes="cccccccccccccccccccccccccccccsssccccccccccccccccccccsssccccsccccccccccccsscccscscccccccccccccccssccccccccccccccccccssccccccccccccscccccccccccccccccscccccccccccccccssccccccccccc" />
        <g
           aria-label="Aniversarios de hoy"
           id="text3247"
           style="font-style:normal;font-variant:normal;font-weight:bold;font-stretch:normal;font-size:14.1111px;line-height:1.25;font-family:Raleway;-inkscape-font-specification:'Raleway Bold';fill:#362a2a;fill-opacity:1;stroke-width:0.264583">
          <path
             d="m 13.603801,226.85558 3.951108,-10.01889 h 1.580443 l 3.936997,10.01889 h -2.060221 l -0.917221,-2.49767 h -3.513664 l -0.917221,2.49767 z m 4.74133,-7.91633 -1.439333,4.04988 h 2.836331 z"
             style="font-style:normal;font-variant:normal;font-weight:bold;font-stretch:normal;font-size:14.1111px;font-family:Raleway;-inkscape-font-specification:'Raleway Bold';fill:#362a2a;fill-opacity:1;stroke-width:0.264583"
             id="path919" />
          <path
             d="M 30.830367,226.85558 H 28.93948 v -4.14867 q 0,-0.889 -0.310445,-1.29822 -0.310444,-0.40922 -0.860777,-0.40922 -0.282222,0 -0.578555,0.11289 -0.296333,0.11289 -0.564444,0.32455 -0.254,0.19756 -0.465666,0.47978 -0.211667,0.28222 -0.310444,0.62089 v 4.318 h -1.890888 v -7.39422 h 1.707443 v 1.36878 q 0.409222,-0.70556 1.185333,-1.10067 0.77611,-0.39511 1.749776,-0.39511 0.691444,0 1.128888,0.254 0.437444,0.254 0.677333,0.66322 0.239889,0.40922 0.324555,0.93133 0.09878,0.52211 0.09878,1.05834 z"
             style="font-style:normal;font-variant:normal;font-weight:bold;font-stretch:normal;font-size:14.1111px;font-family:Raleway;-inkscape-font-specification:'Raleway Bold';fill:#362a2a;fill-opacity:1;stroke-width:0.264583"
             id="path921" />
          <path
             d="m 32.44697,226.85558 v -7.39422 h 1.890887 v 7.39422 z m 0,-8.42433 v -1.87678 h 1.890887 v 1.87678 z"
             style="font-style:normal;font-variant:normal;font-weight:bold;font-stretch:normal;font-size:14.1111px;font-family:Raleway;-inkscape-font-specification:'Raleway Bold';fill:#362a2a;fill-opacity:1;stroke-width:0.264583"
             id="path923" />
          <path
             d="m 37.99131,226.85558 -2.723443,-7.39422 h 1.947332 l 1.876777,5.85611 1.890887,-5.85611 h 1.777999 l -2.723443,7.39422 z"
             style="font-style:normal;font-variant:normal;font-weight:bold;font-stretch:normal;font-size:14.1111px;font-family:Raleway;-inkscape-font-specification:'Raleway Bold';fill:#362a2a;fill-opacity:1;stroke-width:0.264583"
             id="path925" />
          <path
             d="m 47.134862,226.99669 q -0.889,0 -1.608666,-0.29634 -0.719666,-0.31044 -1.227666,-0.83255 -0.507999,-0.52211 -0.790221,-1.21356 -0.268111,-0.69144 -0.268111,-1.45344 0,-0.79022 0.268111,-1.48166 0.268111,-0.70556 0.77611,-1.22767 0.508,-0.53622 1.227666,-0.84667 0.733777,-0.31044 1.636888,-0.31044 0.90311,0 1.608665,0.31044 0.719666,0.31045 1.213555,0.83256 0.507999,0.52211 0.761999,1.21355 0.268111,0.69145 0.268111,1.43934 0,0.18344 -0.01411,0.35277 0,0.16934 -0.02822,0.28222 h -5.714996 q 0.04233,0.43745 0.211667,0.77612 0.169333,0.33866 0.437444,0.57855 0.268111,0.23989 0.606777,0.36689 0.338666,0.127 0.705555,0.127 0.564444,0 1.058333,-0.26811 0.507999,-0.28222 0.691443,-0.73378 l 1.622777,0.45156 q -0.409222,0.84666 -1.312332,1.39699 -0.889,0.53623 -2.130776,0.53623 z m 1.919109,-4.45911 q -0.07055,-0.83256 -0.620888,-1.32644 -0.536222,-0.508 -1.312333,-0.508 -0.380999,0 -0.719666,0.14111 -0.324555,0.127 -0.578555,0.36689 -0.254,0.23988 -0.423333,0.57855 -0.155222,0.33867 -0.183444,0.74789 z"
             style="font-style:normal;font-variant:normal;font-weight:bold;font-stretch:normal;font-size:14.1111px;font-family:Raleway;-inkscape-font-specification:'Raleway Bold';fill:#362a2a;fill-opacity:1;stroke-width:0.264583"
             id="path927" />
          <path
             d="m 56.555564,221.09825 q -0.860777,0.0141 -1.53811,0.33866 -0.677333,0.31045 -0.973666,0.94545 v 4.47322 H 52.1529 v -7.39422 h 1.735666 v 1.58044 q 0.380999,-0.762 0.987777,-1.22766 0.620888,-0.46567 1.298221,-0.46567 0.155222,0 0.225778,0.0141 0.08467,0 0.155222,0.0141 z"
             style="font-style:normal;font-variant:normal;font-weight:bold;font-stretch:normal;font-size:14.1111px;font-family:Raleway;-inkscape-font-specification:'Raleway Bold';fill:#362a2a;fill-opacity:1;stroke-width:0.264583"
             id="path929" />
          <path
             d="m 60.503364,226.99669 q -0.451555,0 -0.945443,-0.0706 -0.479778,-0.0705 -0.945444,-0.19755 -0.465666,-0.127 -0.888999,-0.31045 -0.423333,-0.18344 -0.747889,-0.40922 l 0.762,-1.28411 q 1.41111,0.91722 2.723442,0.91722 0.592666,0 0.931333,-0.21167 0.338666,-0.21166 0.338666,-0.60677 0,-0.39511 -0.409222,-0.57856 -0.395111,-0.19755 -1.340554,-0.42333 -0.719666,-0.16933 -1.227666,-0.35278 -0.508,-0.18344 -0.818444,-0.42333 -0.310444,-0.23989 -0.451555,-0.55033 -0.141111,-0.31045 -0.141111,-0.73378 0,-0.56445 0.225778,-1.016 0.225777,-0.45156 0.620888,-0.762 0.409222,-0.32456 0.945444,-0.49389 0.550333,-0.16933 1.185332,-0.16933 0.790222,0 1.566332,0.254 0.790222,0.23989 1.467555,0.66322 l -0.776111,1.17122 q -0.620888,-0.39511 -1.171221,-0.56444 -0.550333,-0.18345 -1.100666,-0.18345 -0.508,0 -0.860777,0.19756 -0.338667,0.19755 -0.338667,0.635 0,0.381 0.324556,0.55033 0.338666,0.16933 1.185332,0.381 0.790222,0.19756 1.340555,0.39511 0.564444,0.19756 0.917221,0.45156 0.366889,0.254 0.522111,0.59266 0.169333,0.32456 0.169333,0.79022 0,0.53623 -0.225778,0.97367 -0.211666,0.43744 -0.606777,0.74789 -0.395111,0.29633 -0.973666,0.46566 -0.564444,0.15523 -1.255888,0.15523 z"
             style="font-style:normal;font-variant:normal;font-weight:bold;font-stretch:normal;font-size:14.1111px;font-family:Raleway;-inkscape-font-specification:'Raleway Bold';fill:#362a2a;fill-opacity:1;stroke-width:0.264583"
             id="path931" />
          <path
             d="m 66.780159,226.99669 q -0.536221,0 -1.001888,-0.16934 -0.465666,-0.18344 -0.804332,-0.49389 -0.338667,-0.32455 -0.536222,-0.74788 -0.183445,-0.42334 -0.183445,-0.93134 0,-0.52211 0.225778,-0.95955 0.239889,-0.45156 0.649111,-0.762 0.423333,-0.31044 1.001888,-0.47978 0.578555,-0.18344 1.269999,-0.18344 0.493888,0 0.959555,0.0847 0.479777,0.0847 0.846666,0.23989 v -0.42333 q 0,-0.73378 -0.423333,-1.12889 -0.409222,-0.39511 -1.227666,-0.39511 -0.592666,0 -1.15711,0.21167 -0.564444,0.21166 -1.157111,0.62089 l -0.578555,-1.19945 q 1.425222,-0.94544 3.07622,-0.94544 1.594555,0 2.469443,0.79022 0.888999,0.77611 0.888999,2.25778 v 2.30011 q 0,0.29633 0.112889,0.42333 0.112889,0.127 0.395111,0.14111 v 1.60867 q -0.268111,0.0564 -0.508,0.0705 -0.225778,0.0282 -0.395111,0.0282 -0.536222,-0.0141 -0.818444,-0.23989 -0.282222,-0.23988 -0.352777,-0.63499 l -0.04233,-0.40923 q -0.493889,0.64911 -1.199444,0.98778 -0.705555,0.33867 -1.509888,0.33867 z m 0.536222,-1.38289 q 0.479778,0 0.903111,-0.16933 0.437444,-0.16934 0.677332,-0.45156 0.310445,-0.23989 0.310445,-0.53622 v -0.84667 q -0.338667,-0.127 -0.733778,-0.19755 -0.39511,-0.0847 -0.761999,-0.0847 -0.733777,0 -1.199443,0.33867 -0.465667,0.32455 -0.465667,0.83255 0,0.47978 0.366889,0.80433 0.366888,0.31045 0.90311,0.31045 z"
             style="font-style:normal;font-variant:normal;font-weight:bold;font-stretch:normal;font-size:14.1111px;font-family:Raleway;-inkscape-font-specification:'Raleway Bold';fill:#362a2a;fill-opacity:1;stroke-width:0.264583"
             id="path933" />
          <path
             d="m 77.308802,221.09825 q -0.860777,0.0141 -1.53811,0.33866 -0.677332,0.31045 -0.973666,0.94545 v 4.47322 h -1.890887 v -7.39422 h 1.735665 v 1.58044 q 0.381,-0.762 0.987777,-1.22766 0.620889,-0.46567 1.298222,-0.46567 0.155222,0 0.225777,0.0141 0.08467,0 0.155222,0.0141 z"
             style="font-style:normal;font-variant:normal;font-weight:bold;font-stretch:normal;font-size:14.1111px;font-family:Raleway;-inkscape-font-specification:'Raleway Bold';fill:#362a2a;fill-opacity:1;stroke-width:0.264583"
             id="path935" />
          <path
             d="m 78.363166,226.85558 v -7.39422 h 1.890888 v 7.39422 z m 0,-8.42433 v -1.87678 h 1.890888 v 1.87678 z"
             style="font-style:normal;font-variant:normal;font-weight:bold;font-stretch:normal;font-size:14.1111px;font-family:Raleway;-inkscape-font-specification:'Raleway Bold';fill:#362a2a;fill-opacity:1;stroke-width:0.264583"
             id="path937" />
          <path
             d="m 85.375061,226.99669 q -0.90311,0 -1.622777,-0.31045 -0.719666,-0.31044 -1.227665,-0.83255 -0.493889,-0.53622 -0.762,-1.22767 -0.268111,-0.69144 -0.268111,-1.45344 0,-0.77611 0.268111,-1.46756 0.268111,-0.69144 0.762,-1.21355 0.507999,-0.53622 1.227665,-0.84667 0.719667,-0.31044 1.622777,-0.31044 0.90311,0 1.608665,0.31044 0.719667,0.31045 1.213555,0.84667 0.508,0.52211 0.776111,1.21355 0.26811,0.69145 0.26811,1.46756 0,0.762 -0.26811,1.45344 -0.268111,0.69145 -0.762,1.22767 -0.493888,0.52211 -1.213554,0.83255 -0.719667,0.31045 -1.622777,0.31045 z m -1.933221,-3.82411 q 0,0.49389 0.141111,0.90311 0.155222,0.39511 0.409222,0.69144 0.268111,0.29634 0.620889,0.46567 0.352777,0.15522 0.761999,0.15522 0.409222,0 0.761999,-0.15522 0.352778,-0.16933 0.606778,-0.46567 0.268111,-0.29633 0.409222,-0.70555 0.155222,-0.40922 0.155222,-0.90311 0,-0.47978 -0.155222,-0.889 -0.141111,-0.40922 -0.409222,-0.70556 -0.254,-0.29633 -0.606778,-0.45155 -0.352777,-0.16934 -0.761999,-0.16934 -0.409222,0 -0.761999,0.16934 -0.352778,0.16933 -0.620889,0.46566 -0.254,0.29634 -0.409222,0.70556 -0.141111,0.40922 -0.141111,0.889 z"
             style="font-style:normal;font-variant:normal;font-weight:bold;font-stretch:normal;font-size:14.1111px;font-family:Raleway;-inkscape-font-specification:'Raleway Bold';fill:#362a2a;fill-opacity:1;stroke-width:0.264583"
             id="path939" />
          <path
             d="m 93.35577,226.99669 q -0.451555,0 -0.945444,-0.0706 -0.479777,-0.0705 -0.945444,-0.19755 -0.465666,-0.127 -0.888999,-0.31045 -0.423333,-0.18344 -0.747888,-0.40922 l 0.761999,-1.28411 q 1.41111,0.91722 2.723443,0.91722 0.592666,0 0.931332,-0.21167 0.338667,-0.21166 0.338667,-0.60677 0,-0.39511 -0.409222,-0.57856 -0.395111,-0.19755 -1.340555,-0.42333 -0.719666,-0.16933 -1.227666,-0.35278 -0.507999,-0.18344 -0.818443,-0.42333 -0.310445,-0.23989 -0.451556,-0.55033 -0.141111,-0.31045 -0.141111,-0.73378 0,-0.56445 0.225778,-1.016 0.225778,-0.45156 0.620888,-0.762 0.409222,-0.32456 0.945444,-0.49389 0.550333,-0.16933 1.185333,-0.16933 0.790221,0 1.566332,0.254 0.790221,0.23989 1.467554,0.66322 l -0.77611,1.17122 q -0.620889,-0.39511 -1.171222,-0.56444 -0.550333,-0.18345 -1.100665,-0.18345 -0.508,0 -0.860778,0.19756 -0.338666,0.19755 -0.338666,0.635 0,0.381 0.324555,0.55033 0.338667,0.16933 1.185333,0.381 0.790221,0.19756 1.340554,0.39511 0.564444,0.19756 0.917222,0.45156 0.366888,0.254 0.52211,0.59266 0.169334,0.32456 0.169334,0.79022 0,0.53623 -0.225778,0.97367 -0.211666,0.43744 -0.606777,0.74789 -0.395111,0.29633 -0.973666,0.46566 -0.564444,0.15523 -1.255888,0.15523 z"
             style="font-style:normal;font-variant:normal;font-weight:bold;font-stretch:normal;font-size:14.1111px;font-family:Raleway;-inkscape-font-specification:'Raleway Bold';fill:#362a2a;fill-opacity:1;stroke-width:0.264583"
             id="path941" />
          <path
             d="m 104.02509,226.99669 q -0.762,0 -1.41111,-0.29634 -0.635,-0.29633 -1.10067,-0.81844 -0.46567,-0.52211 -0.73378,-1.21355 -0.254,-0.70556 -0.254,-1.50989 0,-0.80434 0.23989,-1.49578 0.254,-0.69144 0.69145,-1.21355 0.43744,-0.52211 1.04422,-0.81845 0.60678,-0.29633 1.32644,-0.29633 0.80433,0 1.45344,0.39511 0.66323,0.39511 1.03012,1.03011 v -4.20511 h 1.89088 v 8.128 q 0,0.29633 0.11289,0.42333 0.11289,0.127 0.39511,0.14111 v 1.60867 q -0.53622,0.0988 -0.90311,0.0988 -0.52211,-0.0141 -0.81844,-0.23989 -0.28222,-0.22577 -0.35278,-0.63499 l -0.0423,-0.508 q -0.40922,0.70555 -1.10067,1.07244 -0.69144,0.35278 -1.46755,0.35278 z m 0.49389,-1.60867 q 0.26811,0 0.55033,-0.0847 0.28222,-0.0988 0.52211,-0.26811 0.23989,-0.16933 0.43744,-0.39511 0.19756,-0.22577 0.29634,-0.49389 v -1.76388 q -0.23989,-0.62089 -0.79023,-1.03011 -0.53622,-0.40923 -1.12888,-0.40923 -0.42334,0 -0.79023,0.18345 -0.35277,0.18344 -0.60677,0.508 -0.254,0.31044 -0.39511,0.71966 -0.14111,0.40923 -0.14111,0.84667 0,0.46567 0.15522,0.86078 0.15522,0.39511 0.42333,0.69144 0.28222,0.29633 0.64911,0.46567 0.381,0.16933 0.81845,0.16933 z"
             style="font-style:normal;font-variant:normal;font-weight:bold;font-stretch:normal;font-size:14.1111px;font-family:Raleway;-inkscape-font-specification:'Raleway Bold';fill:#362a2a;fill-opacity:1;stroke-width:0.264583"
             id="path943" />
          <path
             d="m 113.55625,226.99669 q -0.889,0 -1.60867,-0.29634 -0.71966,-0.31044 -1.22766,-0.83255 -0.508,-0.52211 -0.79022,-1.21356 -0.26812,-0.69144 -0.26812,-1.45344 0,-0.79022 0.26812,-1.48166 0.26811,-0.70556 0.77611,-1.22767 0.508,-0.53622 1.22766,-0.84667 0.73378,-0.31044 1.63689,-0.31044 0.90311,0 1.60866,0.31044 0.71967,0.31045 1.21356,0.83256 0.508,0.52211 0.762,1.21355 0.26811,0.69145 0.26811,1.43934 0,0.18344 -0.0141,0.35277 0,0.16934 -0.0282,0.28222 h -5.715 q 0.0423,0.43745 0.21167,0.77612 0.16933,0.33866 0.43744,0.57855 0.26811,0.23989 0.60678,0.36689 0.33867,0.127 0.70555,0.127 0.56445,0 1.05834,-0.26811 0.508,-0.28222 0.69144,-0.73378 l 1.62278,0.45156 q -0.40923,0.84666 -1.31234,1.39699 -0.88899,0.53623 -2.13077,0.53623 z m 1.91911,-4.45911 q -0.0706,-0.83256 -0.62089,-1.32644 -0.53622,-0.508 -1.31233,-0.508 -0.381,0 -0.71967,0.14111 -0.32455,0.127 -0.57855,0.36689 -0.254,0.23988 -0.42334,0.57855 -0.15522,0.33867 -0.18344,0.74789 z"
             style="font-style:normal;font-variant:normal;font-weight:bold;font-stretch:normal;font-size:14.1111px;font-family:Raleway;-inkscape-font-specification:'Raleway Bold';fill:#362a2a;fill-opacity:1;stroke-width:0.264583"
             id="path945" />
          <path
             d="m 128.80881,226.85558 h -1.89089 v -4.14867 q 0,-0.87489 -0.32455,-1.28411 -0.32456,-0.42333 -0.91723,-0.42333 -0.254,0 -0.53622,0.11289 -0.28222,0.11289 -0.53622,0.32455 -0.254,0.19756 -0.46567,0.47978 -0.21166,0.28222 -0.31044,0.62089 v 4.318 h -1.89089 v -10.30111 h 1.89089 v 4.27567 q 0.40922,-0.71967 1.10067,-1.10067 0.70555,-0.39511 1.55222,-0.39511 0.71966,0 1.17122,0.254 0.45155,0.23989 0.70555,0.64911 0.254,0.40922 0.35278,0.93133 0.0988,0.52211 0.0988,1.07245 z"
             style="font-style:normal;font-variant:normal;font-weight:bold;font-stretch:normal;font-size:14.1111px;font-family:Raleway;-inkscape-font-specification:'Raleway Bold';fill:#362a2a;fill-opacity:1;stroke-width:0.264583"
             id="path947" />
          <path
             d="m 133.85441,226.99669 q -0.90311,0 -1.62278,-0.31045 -0.71966,-0.31044 -1.22766,-0.83255 -0.49389,-0.53622 -0.762,-1.22767 -0.26811,-0.69144 -0.26811,-1.45344 0,-0.77611 0.26811,-1.46756 0.26811,-0.69144 0.762,-1.21355 0.508,-0.53622 1.22766,-0.84667 0.71967,-0.31044 1.62278,-0.31044 0.90311,0 1.60866,0.31044 0.71967,0.31045 1.21356,0.84667 0.508,0.52211 0.77611,1.21355 0.26811,0.69145 0.26811,1.46756 0,0.762 -0.26811,1.45344 -0.26811,0.69145 -0.762,1.22767 -0.49389,0.52211 -1.21356,0.83255 -0.71966,0.31045 -1.62277,0.31045 z m -1.93322,-3.82411 q 0,0.49389 0.14111,0.90311 0.15522,0.39511 0.40922,0.69144 0.26811,0.29634 0.62089,0.46567 0.35278,0.15522 0.762,0.15522 0.40922,0 0.762,-0.15522 0.35278,-0.16933 0.60677,-0.46567 0.26812,-0.29633 0.40923,-0.70555 0.15522,-0.40922 0.15522,-0.90311 0,-0.47978 -0.15522,-0.889 -0.14111,-0.40922 -0.40923,-0.70556 -0.25399,-0.29633 -0.60677,-0.45155 -0.35278,-0.16934 -0.762,-0.16934 -0.40922,0 -0.762,0.16934 -0.35278,0.16933 -0.62089,0.46566 -0.254,0.29634 -0.40922,0.70556 -0.14111,0.40922 -0.14111,0.889 z"
             style="font-style:normal;font-variant:normal;font-weight:bold;font-stretch:normal;font-size:14.1111px;font-family:Raleway;-inkscape-font-specification:'Raleway Bold';fill:#362a2a;fill-opacity:1;stroke-width:0.264583"
             id="path949" />
          <path
             d="m 138.81997,228.29491 q 0.254,0.0706 0.46567,0.0988 0.21167,0.0282 0.36689,0.0282 0.18344,0 0.32455,-0.0706 0.14111,-0.0564 0.26811,-0.22578 0.14111,-0.16933 0.26811,-0.47977 0.14112,-0.29634 0.29634,-0.79022 l -2.93511,-7.39422 h 1.94733 l 2.01789,5.75733 1.778,-5.75733 h 1.778 l -3.11856,8.86177 q -0.29633,0.84667 -0.94544,1.29822 -0.64911,0.46567 -1.50989,0.46567 -0.49389,0 -1.00189,-0.15522 z"
             style="font-style:normal;font-variant:normal;font-weight:bold;font-stretch:normal;font-size:14.1111px;font-family:Raleway;-inkscape-font-specification:'Raleway Bold';fill:#362a2a;fill-opacity:1;stroke-width:0.264583"
             id="path951" />
        </g>
        <g
           aria-label="Aniversarios de hoy"
           id="text2639"
           style="font-style:normal;font-variant:normal;font-weight:bold;font-stretch:normal;font-size:14.1111px;line-height:1.25;font-family:Raleway;-inkscape-font-specification:'Raleway Bold';fill:#ffffff;fill-opacity:1;stroke-width:0.264583">
          <path
             d="m 14.132967,226.32642 3.951108,-10.01889 h 1.580443 l 3.936997,10.01889 h -2.06022 l -0.917222,-2.49767 h -3.513664 l -0.917221,2.49767 z m 4.74133,-7.91633 -1.439332,4.04988 h 2.836331 z"
             style="font-style:normal;font-variant:normal;font-weight:bold;font-stretch:normal;font-size:14.1111px;font-family:Raleway;-inkscape-font-specification:'Raleway Bold';fill:#ffffff;fill-opacity:1;stroke-width:0.264583"
             id="path884" />
          <path
             d="m 31.359533,226.32642 h -1.890887 v -4.14867 q 0,-0.889 -0.310444,-1.29822 -0.310445,-0.40922 -0.860778,-0.40922 -0.282222,0 -0.578555,0.11289 -0.296333,0.11289 -0.564444,0.32455 -0.253999,0.19756 -0.465666,0.47978 -0.211666,0.28222 -0.310444,0.62089 v 4.318 h -1.890888 v -7.39422 h 1.707444 v 1.36878 q 0.409221,-0.70556 1.185332,-1.10067 0.77611,-0.39511 1.749776,-0.39511 0.691444,0 1.128888,0.254 0.437444,0.254 0.677333,0.66322 0.239889,0.40922 0.324555,0.93133 0.09878,0.52211 0.09878,1.05834 z"
             style="font-style:normal;font-variant:normal;font-weight:bold;font-stretch:normal;font-size:14.1111px;font-family:Raleway;-inkscape-font-specification:'Raleway Bold';fill:#ffffff;fill-opacity:1;stroke-width:0.264583"
             id="path886" />
          <path
             d="m 32.976136,226.32642 v -7.39422 h 1.890887 v 7.39422 z m 0,-8.42433 v -1.87678 h 1.890887 v 1.87678 z"
             style="font-style:normal;font-variant:normal;font-weight:bold;font-stretch:normal;font-size:14.1111px;font-family:Raleway;-inkscape-font-specification:'Raleway Bold';fill:#ffffff;fill-opacity:1;stroke-width:0.264583"
             id="path888" />
          <path
             d="m 38.520476,226.32642 -2.723442,-7.39422 h 1.947331 l 1.876777,5.85611 1.890887,-5.85611 h 1.777999 l -2.723442,7.39422 z"
             style="font-style:normal;font-variant:normal;font-weight:bold;font-stretch:normal;font-size:14.1111px;font-family:Raleway;-inkscape-font-specification:'Raleway Bold';fill:#ffffff;fill-opacity:1;stroke-width:0.264583"
             id="path890" />
          <path
             d="m 47.664028,226.46753 q -0.889,0 -1.608666,-0.29634 -0.719666,-0.31044 -1.227665,-0.83255 -0.508,-0.52211 -0.790222,-1.21356 -0.268111,-0.69144 -0.268111,-1.45344 0,-0.79022 0.268111,-1.48166 0.268111,-0.70556 0.77611,-1.22767 0.508,-0.53622 1.227666,-0.84667 0.733777,-0.31044 1.636888,-0.31044 0.90311,0 1.608665,0.31044 0.719666,0.31045 1.213555,0.83256 0.507999,0.52211 0.761999,1.21355 0.268111,0.69145 0.268111,1.43934 0,0.18344 -0.01411,0.35277 0,0.16934 -0.02822,0.28223 H 45.77314 q 0.04233,0.43744 0.211667,0.77611 0.169333,0.33866 0.437444,0.57855 0.268111,0.23989 0.606777,0.36689 0.338667,0.127 0.705555,0.127 0.564444,0 1.058333,-0.26811 0.507999,-0.28222 0.691444,-0.73378 l 1.622776,0.45156 q -0.409222,0.84666 -1.312332,1.397 -0.888999,0.53622 -2.130776,0.53622 z m 1.919109,-4.45911 q -0.07055,-0.83256 -0.620888,-1.32644 -0.536222,-0.508 -1.312332,-0.508 -0.381,0 -0.719666,0.14111 -0.324556,0.127 -0.578556,0.36689 -0.253999,0.23988 -0.423333,0.57855 -0.155222,0.33867 -0.183444,0.74789 z"
             style="font-style:normal;font-variant:normal;font-weight:bold;font-stretch:normal;font-size:14.1111px;font-family:Raleway;-inkscape-font-specification:'Raleway Bold';fill:#ffffff;fill-opacity:1;stroke-width:0.264583"
             id="path892" />
          <path
             d="m 57.08473,220.56909 q -0.860777,0.0141 -1.53811,0.33866 -0.677333,0.31045 -0.973666,0.94545 v 4.47322 h -1.890887 v -7.39422 h 1.735665 v 1.58044 q 0.381,-0.762 0.987777,-1.22766 0.620888,-0.46567 1.298221,-0.46567 0.155222,0 0.225778,0.0141 0.08467,0 0.155222,0.0141 z"
             style="font-style:normal;font-variant:normal;font-weight:bold;font-stretch:normal;font-size:14.1111px;font-family:Raleway;-inkscape-font-specification:'Raleway Bold';fill:#ffffff;fill-opacity:1;stroke-width:0.264583"
             id="path894" />
          <path
             d="m 61.032531,226.46753 q -0.451556,0 -0.945444,-0.0706 -0.479778,-0.0705 -0.945444,-0.19755 -0.465666,-0.127 -0.888999,-0.31045 -0.423333,-0.18344 -0.747888,-0.40922 l 0.761999,-1.28411 q 1.41111,0.91722 2.723442,0.91722 0.592666,0 0.931333,-0.21167 0.338666,-0.21166 0.338666,-0.60677 0,-0.39511 -0.409222,-0.57856 -0.39511,-0.19755 -1.340554,-0.42333 -0.719666,-0.16933 -1.227666,-0.35278 -0.507999,-0.18344 -0.818444,-0.42333 -0.310444,-0.23989 -0.451555,-0.55033 -0.141111,-0.31045 -0.141111,-0.73378 0,-0.56445 0.225778,-1.016 0.225777,-0.45156 0.620888,-0.762 0.409222,-0.32456 0.945444,-0.49389 0.550333,-0.16933 1.185332,-0.16933 0.790222,0 1.566332,0.254 0.790222,0.23989 1.467555,0.66322 l -0.776111,1.17122 q -0.620888,-0.39511 -1.171221,-0.56444 -0.550333,-0.18345 -1.100666,-0.18345 -0.507999,0 -0.860777,0.19756 -0.338666,0.19755 -0.338666,0.635 0,0.381 0.324555,0.55033 0.338666,0.16933 1.185332,0.381 0.790222,0.19756 1.340555,0.39511 0.564444,0.19756 0.917221,0.45156 0.366889,0.254 0.522111,0.59266 0.169333,0.32456 0.169333,0.79022 0,0.53623 -0.225777,0.97367 -0.211667,0.43744 -0.606778,0.74789 -0.39511,0.29633 -0.973666,0.46566 -0.564444,0.15523 -1.255887,0.15523 z"
             style="font-style:normal;font-variant:normal;font-weight:bold;font-stretch:normal;font-size:14.1111px;font-family:Raleway;-inkscape-font-specification:'Raleway Bold';fill:#ffffff;fill-opacity:1;stroke-width:0.264583"
             id="path896" />
          <path
             d="m 67.309326,226.46753 q -0.536222,0 -1.001888,-0.16934 -0.465667,-0.18344 -0.804333,-0.49388 -0.338667,-0.32456 -0.536222,-0.74789 -0.183444,-0.42334 -0.183444,-0.93134 0,-0.52211 0.225777,-0.95955 0.239889,-0.45156 0.649111,-0.762 0.423333,-0.31044 1.001888,-0.47978 0.578555,-0.18344 1.269999,-0.18344 0.493889,0 0.959555,0.0847 0.479777,0.0847 0.846666,0.23988 v -0.42333 q 0,-0.73378 -0.423333,-1.12889 -0.409222,-0.39511 -1.227666,-0.39511 -0.592666,0 -1.15711,0.21167 -0.564444,0.21166 -1.15711,0.62089 l -0.578555,-1.19945 q 1.425221,-0.94544 3.076219,-0.94544 1.594555,0 2.469443,0.79022 0.888999,0.77611 0.888999,2.25778 v 2.30011 q 0,0.29633 0.112889,0.42333 0.112889,0.127 0.395111,0.14111 v 1.60867 q -0.268111,0.0564 -0.508,0.0705 -0.225777,0.0282 -0.395111,0.0282 -0.536221,-0.0141 -0.818443,-0.23988 -0.282222,-0.23989 -0.352778,-0.635 l -0.04233,-0.40923 q -0.493889,0.64911 -1.199444,0.98778 -0.705555,0.33867 -1.509887,0.33867 z m 0.536221,-1.38289 q 0.479778,0 0.903111,-0.16933 0.437444,-0.16934 0.677333,-0.45156 0.310444,-0.23989 0.310444,-0.53622 v -0.84667 q -0.338667,-0.127 -0.733777,-0.19755 -0.395111,-0.0847 -0.762,-0.0847 -0.733777,0 -1.199443,0.33867 -0.465667,0.32455 -0.465667,0.83255 0,0.47978 0.366889,0.80433 0.366889,0.31045 0.90311,0.31045 z"
             style="font-style:normal;font-variant:normal;font-weight:bold;font-stretch:normal;font-size:14.1111px;font-family:Raleway;-inkscape-font-specification:'Raleway Bold';fill:#ffffff;fill-opacity:1;stroke-width:0.264583"
             id="path898" />
          <path
             d="m 77.837969,220.56909 q -0.860778,0.0141 -1.53811,0.33866 -0.677333,0.31045 -0.973666,0.94545 v 4.47322 h -1.890888 v -7.39422 h 1.735666 v 1.58044 q 0.380999,-0.762 0.987777,-1.22766 0.620888,-0.46567 1.298221,-0.46567 0.155222,0 0.225777,0.0141 0.08467,0 0.155223,0.0141 z"
             style="font-style:normal;font-variant:normal;font-weight:bold;font-stretch:normal;font-size:14.1111px;font-family:Raleway;-inkscape-font-specification:'Raleway Bold';fill:#ffffff;fill-opacity:1;stroke-width:0.264583"
             id="path900" />
          <path
             d="m 78.892333,226.32642 v -7.39422 h 1.890887 v 7.39422 z m 0,-8.42433 v -1.87678 h 1.890887 v 1.87678 z"
             style="font-style:normal;font-variant:normal;font-weight:bold;font-stretch:normal;font-size:14.1111px;font-family:Raleway;-inkscape-font-specification:'Raleway Bold';fill:#ffffff;fill-opacity:1;stroke-width:0.264583"
             id="path902" />
          <path
             d="m 85.904227,226.46753 q -0.90311,0 -1.622776,-0.31045 -0.719666,-0.31044 -1.227666,-0.83255 -0.493889,-0.53622 -0.761999,-1.22767 -0.268111,-0.69144 -0.268111,-1.45344 0,-0.77611 0.268111,-1.46756 0.26811,-0.69144 0.761999,-1.21355 0.508,-0.53622 1.227666,-0.84667 0.719666,-0.31044 1.622776,-0.31044 0.903111,0 1.608666,0.31044 0.719666,0.31045 1.213554,0.84667 0.508,0.52211 0.776111,1.21355 0.268111,0.69145 0.268111,1.46756 0,0.762 -0.268111,1.45344 -0.268111,0.69145 -0.762,1.22767 -0.493888,0.52211 -1.213554,0.83255 -0.719666,0.31045 -1.622777,0.31045 z m -1.93322,-3.82411 q 0,0.49389 0.141111,0.90311 0.155222,0.39511 0.409221,0.69144 0.268111,0.29634 0.620889,0.46567 0.352777,0.15522 0.761999,0.15522 0.409222,0 0.762,-0.15522 0.352777,-0.16933 0.606777,-0.46567 0.268111,-0.29633 0.409222,-0.70555 0.155222,-0.40922 0.155222,-0.90311 0,-0.47978 -0.155222,-0.889 -0.141111,-0.40922 -0.409222,-0.70556 -0.254,-0.29633 -0.606777,-0.45155 -0.352778,-0.16933 -0.762,-0.16933 -0.409222,0 -0.761999,0.16933 -0.352778,0.16933 -0.620889,0.46566 -0.253999,0.29634 -0.409221,0.70556 -0.141111,0.40922 -0.141111,0.889 z"
             style="font-style:normal;font-variant:normal;font-weight:bold;font-stretch:normal;font-size:14.1111px;font-family:Raleway;-inkscape-font-specification:'Raleway Bold';fill:#ffffff;fill-opacity:1;stroke-width:0.264583"
             id="path904" />
          <path
             d="m 93.884936,226.46753 q -0.451555,0 -0.945444,-0.0706 -0.479777,-0.0705 -0.945443,-0.19755 -0.465667,-0.127 -0.889,-0.31045 -0.423333,-0.18344 -0.747888,-0.40922 l 0.761999,-1.28411 q 1.411111,0.91722 2.723443,0.91722 0.592666,0 0.931332,-0.21167 0.338667,-0.21166 0.338667,-0.60677 0,-0.39511 -0.409222,-0.57856 -0.395111,-0.19755 -1.340555,-0.42333 -0.719666,-0.16933 -1.227665,-0.35278 -0.508,-0.18344 -0.818444,-0.42333 -0.310444,-0.23989 -0.451555,-0.55033 -0.141111,-0.31045 -0.141111,-0.73378 0,-0.56445 0.225777,-1.016 0.225778,-0.45156 0.620889,-0.762 0.409222,-0.32456 0.945443,-0.49389 0.550333,-0.16933 1.185333,-0.16933 0.790221,0 1.566332,0.254 0.790222,0.23989 1.467554,0.66322 l -0.77611,1.17122 q -0.620889,-0.39511 -1.171221,-0.56444 -0.550333,-0.18345 -1.100666,-0.18345 -0.508,0 -0.860777,0.19756 -0.338667,0.19755 -0.338667,0.635 0,0.381 0.324556,0.55033 0.338666,0.16933 1.185332,0.381 0.790222,0.19756 1.340554,0.39511 0.564444,0.19756 0.917222,0.45156 0.366889,0.254 0.522111,0.59266 0.169333,0.32456 0.169333,0.79022 0,0.53623 -0.225778,0.97367 -0.211666,0.43744 -0.606777,0.74789 -0.395111,0.29633 -0.973666,0.46566 -0.564444,0.15523 -1.255888,0.15523 z"
             style="font-style:normal;font-variant:normal;font-weight:bold;font-stretch:normal;font-size:14.1111px;font-family:Raleway;-inkscape-font-specification:'Raleway Bold';fill:#ffffff;fill-opacity:1;stroke-width:0.264583"
             id="path906" />
          <path
             d="m 104.55425,226.46753 q -0.762,0 -1.41111,-0.29634 -0.635,-0.29633 -1.10066,-0.81844 -0.46567,-0.52211 -0.73378,-1.21355 -0.254,-0.70556 -0.254,-1.50989 0,-0.80433 0.23989,-1.49578 0.254,-0.69144 0.69144,-1.21355 0.43745,-0.52211 1.04422,-0.81845 0.60678,-0.29633 1.32645,-0.29633 0.80433,0 1.45344,0.39511 0.66322,0.39511 1.03011,1.03011 v -4.20511 h 1.89089 v 8.128 q 0,0.29633 0.11289,0.42333 0.11289,0.127 0.39511,0.14111 v 1.60867 q -0.53622,0.0988 -0.90311,0.0988 -0.52211,-0.0141 -0.81845,-0.23988 -0.28222,-0.22578 -0.35277,-0.635 l -0.0423,-0.508 q -0.40922,0.70555 -1.10066,1.07244 -0.69145,0.35278 -1.46756,0.35278 z m 0.49389,-1.60867 q 0.26811,0 0.55033,-0.0847 0.28223,-0.0988 0.52212,-0.26811 0.23988,-0.16933 0.43744,-0.39511 0.19755,-0.22577 0.29633,-0.49389 v -1.76388 q -0.23989,-0.62089 -0.79022,-1.03011 -0.53622,-0.40922 -1.12889,-0.40922 -0.42333,0 -0.79022,0.18344 -0.35278,0.18344 -0.60678,0.508 -0.254,0.31044 -0.39511,0.71967 -0.14111,0.40922 -0.14111,0.84666 0,0.46567 0.15522,0.86078 0.15523,0.39511 0.42334,0.69144 0.28222,0.29634 0.64911,0.46567 0.381,0.16933 0.81844,0.16933 z"
             style="font-style:normal;font-variant:normal;font-weight:bold;font-stretch:normal;font-size:14.1111px;font-family:Raleway;-inkscape-font-specification:'Raleway Bold';fill:#ffffff;fill-opacity:1;stroke-width:0.264583"
             id="path908" />
          <path
             d="m 114.08541,226.46753 q -0.88899,0 -1.60866,-0.29634 -0.71967,-0.31044 -1.22767,-0.83255 -0.508,-0.52211 -0.79022,-1.21356 -0.26811,-0.69144 -0.26811,-1.45344 0,-0.79022 0.26811,-1.48166 0.26811,-0.70556 0.77611,-1.22767 0.508,-0.53622 1.22767,-0.84667 0.73378,-0.31044 1.63689,-0.31044 0.90311,0 1.60866,0.31044 0.71967,0.31045 1.21356,0.83256 0.508,0.52211 0.762,1.21355 0.26811,0.69145 0.26811,1.43934 0,0.18344 -0.0141,0.35277 0,0.16934 -0.0282,0.28223 h -5.71499 q 0.0423,0.43744 0.21166,0.77611 0.16934,0.33866 0.43745,0.57855 0.26811,0.23989 0.60677,0.36689 0.33867,0.127 0.70556,0.127 0.56444,0 1.05833,-0.26811 0.508,-0.28222 0.69145,-0.73378 l 1.62277,0.45156 q -0.40922,0.84666 -1.31233,1.397 -0.889,0.53622 -2.13078,0.53622 z m 1.91911,-4.45911 q -0.0705,-0.83256 -0.62088,-1.32644 -0.53623,-0.508 -1.31234,-0.508 -0.381,0 -0.71966,0.14111 -0.32456,0.127 -0.57856,0.36689 -0.254,0.23988 -0.42333,0.57855 -0.15522,0.33867 -0.18345,0.74789 z"
             style="font-style:normal;font-variant:normal;font-weight:bold;font-stretch:normal;font-size:14.1111px;font-family:Raleway;-inkscape-font-specification:'Raleway Bold';fill:#ffffff;fill-opacity:1;stroke-width:0.264583"
             id="path910" />
          <path
             d="m 129.33797,226.32642 h -1.89088 v -4.14867 q 0,-0.87489 -0.32456,-1.28411 -0.32455,-0.42333 -0.91722,-0.42333 -0.254,0 -0.53622,0.11289 -0.28222,0.11289 -0.53622,0.32455 -0.254,0.19756 -0.46567,0.47978 -0.21167,0.28222 -0.31044,0.62089 v 4.318 h -1.89089 v -10.30111 h 1.89089 v 4.27567 q 0.40922,-0.71967 1.10066,-1.10067 0.70556,-0.39511 1.55222,-0.39511 0.71967,0 1.17122,0.254 0.45156,0.23989 0.70556,0.64911 0.254,0.40922 0.35278,0.93133 0.0988,0.52211 0.0988,1.07245 z"
             style="font-style:normal;font-variant:normal;font-weight:bold;font-stretch:normal;font-size:14.1111px;font-family:Raleway;-inkscape-font-specification:'Raleway Bold';fill:#ffffff;fill-opacity:1;stroke-width:0.264583"
             id="path912" />
          <path
             d="m 134.38357,226.46753 q -0.90311,0 -1.62277,-0.31045 -0.71967,-0.31044 -1.22767,-0.83255 -0.49389,-0.53622 -0.762,-1.22767 -0.26811,-0.69144 -0.26811,-1.45344 0,-0.77611 0.26811,-1.46756 0.26811,-0.69144 0.762,-1.21355 0.508,-0.53622 1.22767,-0.84667 0.71966,-0.31044 1.62277,-0.31044 0.90311,0 1.60867,0.31044 0.71967,0.31045 1.21355,0.84667 0.508,0.52211 0.77612,1.21355 0.26811,0.69145 0.26811,1.46756 0,0.762 -0.26811,1.45344 -0.26812,0.69145 -0.762,1.22767 -0.49389,0.52211 -1.21356,0.83255 -0.71967,0.31045 -1.62278,0.31045 z m -1.93322,-3.82411 q 0,0.49389 0.14111,0.90311 0.15523,0.39511 0.40923,0.69144 0.26811,0.29634 0.62089,0.46567 0.35277,0.15522 0.76199,0.15522 0.40923,0 0.762,-0.15522 0.35278,-0.16933 0.60678,-0.46567 0.26811,-0.29633 0.40922,-0.70555 0.15523,-0.40922 0.15523,-0.90311 0,-0.47978 -0.15523,-0.889 -0.14111,-0.40922 -0.40922,-0.70556 -0.254,-0.29633 -0.60678,-0.45155 -0.35277,-0.16933 -0.762,-0.16933 -0.40922,0 -0.76199,0.16933 -0.35278,0.16933 -0.62089,0.46566 -0.254,0.29634 -0.40923,0.70556 -0.14111,0.40922 -0.14111,0.889 z"
             style="font-style:normal;font-variant:normal;font-weight:bold;font-stretch:normal;font-size:14.1111px;font-family:Raleway;-inkscape-font-specification:'Raleway Bold';fill:#ffffff;fill-opacity:1;stroke-width:0.264583"
             id="path914" />
          <path
             d="m 139.34914,227.76575 q 0.254,0.0705 0.46567,0.0988 0.21166,0.0282 0.36688,0.0282 0.18345,0 0.32456,-0.0706 0.14111,-0.0564 0.26811,-0.22577 0.14111,-0.16934 0.26811,-0.47978 0.14111,-0.29634 0.29633,-0.79022 l -2.9351,-7.39422 h 1.94733 l 2.01788,5.75733 1.778,-5.75733 h 1.778 l -3.11855,8.86177 q -0.29633,0.84667 -0.94545,1.29822 -0.64911,0.46567 -1.50988,0.46567 -0.49389,0 -1.00189,-0.15522 z"
             style="font-style:normal;font-variant:normal;font-weight:bold;font-stretch:normal;font-size:14.1111px;font-family:Raleway;-inkscape-font-specification:'Raleway Bold';fill:#ffffff;fill-opacity:1;stroke-width:0.264583"
             id="path916" />
        </g>
      </g>
    </g>
  </g>
</svg>
