<?xml version="1.0" encoding="UTF-8" standalone="no"?>
<svg
   xmlns:dc="http://purl.org/dc/elements/1.1/"
   xmlns:cc="http://creativecommons.org/ns#"
   xmlns:rdf="http://www.w3.org/1999/02/22-rdf-syntax-ns#"
   xmlns:svg="http://www.w3.org/2000/svg"
   xmlns="http://www.w3.org/2000/svg"
   xmlns:sodipodi="http://sodipodi.sourceforge.net/DTD/sodipodi-0.dtd"
   xmlns:inkscape="http://www.inkscape.org/namespaces/inkscape"
   width="254.42"
   height="42.074001"
   viewBox="0 0 67.31529 11.13208"
   version="1.1"
   id="svg3176"
   inkscape:version="1.0.1 (3bc2e813f5, 2020-09-07)"
   sodipodi:docname="comentaygana.svg">
  <defs
     id="defs3170" />
  <sodipodi:namedview
     id="base"
     pagecolor="#ffffff"
     bordercolor="#666666"
     borderopacity="1.0"
     inkscape:pageopacity="0.0"
     inkscape:pageshadow="2"
     inkscape:zoom="2.6761292"
     inkscape:cx="174.12771"
     inkscape:cy="79.051576"
     inkscape:document-units="px"
     inkscape:current-layer="layer1"
     inkscape:document-rotation="0"
     showgrid="false"
     inkscape:window-width="1366"
     inkscape:window-height="704"
     inkscape:window-x="0"
     inkscape:window-y="27"
     inkscape:window-maximized="1"
     units="px"
     showguides="true"
     inkscape:guide-bbox="true">
    <sodipodi:guide
       position="82.350874,11.132083"
       orientation="0,-1"
       id="guide3832" />
    <sodipodi:guide
       position="94.301173,-0.39895709"
       orientation="0,-1"
       id="guide3834" />
  </sodipodi:namedview>
  <metadata
     id="metadata3173">
    <rdf:RDF>
      <cc:Work
         rdf:about="">
        <dc:format>image/svg+xml</dc:format>
        <dc:type
           rdf:resource="http://purl.org/dc/dcmitype/StillImage" />
        <dc:title />
      </cc:Work>
    </rdf:RDF>
  </metadata>
  <g
     inkscape:label="Layer 1"
     inkscape:groupmode="layer"
     id="layer1"
     transform="translate(-32.690468,-78.463225)">
    <g
       id="g3132"
       transform="matrix(0.58753232,0,0,0.58753232,-22.611295,-86.241528)">
      <path
         id="path2965"
         style="color:#000000;font-style:normal;font-variant:normal;font-weight:bold;font-stretch:normal;font-size:14.1111px;line-height:1.25;font-family:Raleway;-inkscape-font-specification:'Raleway Bold';font-variant-ligatures:normal;font-variant-position:normal;font-variant-caps:normal;font-variant-numeric:normal;font-variant-alternates:normal;font-variant-east-asian:normal;font-feature-settings:normal;font-variation-settings:normal;text-indent:0;text-align:start;text-decoration:none;text-decoration-line:none;text-decoration-style:solid;text-decoration-color:#000000;letter-spacing:normal;word-spacing:normal;text-transform:none;writing-mode:lr-tb;direction:ltr;text-orientation:mixed;dominant-baseline:auto;baseline-shift:baseline;text-anchor:start;white-space:normal;shape-padding:0;shape-margin:0;inline-size:0;clip-rule:nonzero;display:inline;overflow:visible;visibility:visible;isolation:auto;mix-blend-mode:normal;color-interpolation:sRGB;color-interpolation-filters:linearRGB;solid-color:#000000;solid-opacity:1;vector-effect:none;fill:#000006;fill-opacity:1;fill-rule:nonzero;stroke:none;stroke-width:10.0157;stroke-linecap:butt;stroke-linejoin:miter;stroke-miterlimit:4;stroke-dasharray:none;stroke-dashoffset:0;stroke-opacity:1;color-rendering:auto;image-rendering:auto;shape-rendering:auto;text-rendering:auto;enable-background:accumulate;stop-color:#000000"
         d="m 1360.8242,933.44922 -19.0664,0.004 -5.5137,12.1504 c -2.0084,0.72045 -3.9921,1.55155 -5.8164,2.76171 l -0.9179,0.60743 c -0.9994,-1.375 -2.2965,-2.53408 -3.7481,-3.37696 -2.093,-1.2153 -4.4277,-1.63867 -6.7832,-1.63867 -2.1443,0 -4.1002,0.75843 -6.084,1.39649 v -0.91602 h -16.4687 v 5.80664 c -0.5485,-0.72896 -1.1652,-1.40838 -1.8594,-2.01953 -3.3251,-2.98942 -7.8272,-4.26758 -12.6602,-4.26758 -4.4619,0 -8.7935,1.16792 -12.7031,3.37305 l -0.9902,-2.00977 c -1.6483,-3.34378 -4.2309,-6.14231 -7.4336,-8.09179 -3.3436,-2.0352 -7.2854,-2.97461 -11.457,-2.97461 v -0.004 c -3.2245,0 -6.3774,0.6759 -9.25,2.01562 -2.7357,1.2581 -5.1939,3.02224 -7.2559,5.21876 v 0.008 l -8.1504,2.94531 h -17.4805 l -3.3281,10.76953 -3.7734,-10.76953 h -18.291 l -5.8789,5.87891 c -0.5647,-0.76047 -1.2027,-1.46774 -1.9239,-2.10157 -1.2991,-1.16526 -2.886,-1.87937 -4.4941,-2.54687 l 7.8398,-12.2168 -19.0605,0.002 -5.5078,12.1504 c -1.1764,0.42175 -2.3376,0.89253 -3.4688,1.44336 v -2.60743 h -5.9199 v -9.0664 h -17.1641 v 9.06445 h -3.6308 v 1.56836 c -0.2049,-0.13606 -0.4016,-0.28725 -0.6133,-0.41016 -2.0931,-1.21534 -4.4278,-1.63867 -6.7832,-1.63867 -2.1444,0 -4.1003,0.75843 -6.084,1.39649 v -0.91602 h -16.4687 v 5.02344 c -1.6552,-1.6413 -3.6268,-2.95498 -5.8086,-3.90039 0,-0.002 -0.01,0.002 -0.014,0 -2.4952,-1.09535 -5.2377,-1.60157 -8.082,-1.60157 v -0.002 c -2.8494,0 -5.6089,0.50476 -8.1367,1.57422 l -0.016,0.006 -0.016,0.008 c -2.3712,1.02289 -4.5102,2.48093 -6.2656,4.32617 -0.4742,0.48877 -0.9136,1.00811 -1.3281,1.54688 -0.2234,-0.51893 -0.4672,-1.02843 -0.754,-1.51758 -1.0474,-1.78685 -2.6026,-3.27591 -4.371,-4.30273 -2.0729,-1.20359 -4.392,-1.64063 -6.7247,-1.64063 -2.9955,0 -5.9438,0.74106 -8.4882,2.23828 -0.3663,0.21052 -0.5397,0.65337 -0.8868,0.89258 -0.039,-0.034 -0.041,-0.0977 -0.08,-0.13281 -2.3978,-2.17308 -5.5928,-2.99805 -8.7344,-2.99805 -1.9002,0 -3.6133,0.76974 -5.3887,1.32227 v -0.8418 h -16.4687 v 5.49609 c -0.011,-0.0113 -0.018,-0.0219 -0.029,-0.0332 -1.7231,-1.85458 -3.8428,-3.31974 -6.2012,-4.3418 0,-0.002 -0.01,0.002 -0.016,0 -2.4953,-1.09538 -5.23184,-1.60156 -8.0762,-1.60156 -2.84939,0 -5.6082,0.50385 -8.12109,1.58789 -1.34589,0.58058 -2.60339,1.31521 -3.77149,2.16602 l -1.09375,-2.28906 c -1.59175,-3.32822 -4.17733,-6.09825 -7.38086,-8.06836 -3.3247,-2.06612 -7.24979,-3.04102 -11.375,-3.04102 v -0.002 c -3.51885,0 -6.8897,0.68454 -9.89258,2.16211 -2.78259,1.36921 -5.23961,3.2255 -7.24804,5.50781 l -0.0234,0.0234 -0.0215,0.0215 -10.39445,10.38468 -0.0137,0.0234 -0.0234,0.0215 c -1.92844,2.24236 -3.42227,4.82915 -4.43555,7.64649 -7.3e-4,0.002 7.3e-4,0.004 0,0.008 -1.00114,2.75237 -1.52148,5.62789 -1.52148,8.51953 0,3.00696 0.53798,5.99164 1.58008,8.85742 l 0.0156,0.0449 0.0215,0.0391 c 1.08162,2.81227 2.60624,5.40042 4.5332,7.67773 l 0.0293,0.043 0.0371,0.0391 c 1.99895,2.26549 4.38865,4.13993 7.07813,5.55081 l 0.0156,0.01 0.0137,0.01 c 2.92602,1.5103 6.19975,2.2657 9.55273,2.2657 1.93054,0 3.86528,-0.2578 5.77344,-0.7461 1.91801,-0.4907 3.7641,-1.2106 5.50586,-2.14846 1.79119,-0.9645 3.42881,-2.16514 4.84961,-3.58594 0.14437,-0.14437 0.27137,-0.30537 0.41015,-0.45507 0.3224,0.4117 0.65269,0.81753 1.00782,1.20312 l 0.0449,0.0527 0.0508,0.0508 c 1.75827,1.80714 3.88873,3.23505 6.24609,4.25195 2.5129,1.084 5.26198,1.5801 8.11133,1.5801 20.43935,-6.5566 31.47465,-0.5313 61.75195,-0.5313 l 6,-5.00583 v -0.11914 c 1.7334,1.7461 3.8104,3.13637 6.1113,4.12887 l 0.045,0.016 0.037,0.023 c 2.4846,1.0231 5.1898,1.4902 7.9863,1.4902 17.6999,-5.03158 22.47,-0.5351 45.9472,-0.5351 l 4,-3.86135 c 0.4195,0.54852 0.8814,1.0681 1.4024,1.53125 l 0.1094,0.1035 0.1191,0.09 c 1.183,0.9337 2.559,1.6321 3.9941,2.0507 l 0.024,0.01 0.029,0.01 c 1.3564,0.3799 2.7589,0.5547 4.1719,0.5547 1.9845,0 3.944,-0.277 5.8164,-0.8496 l 0.031,-0.01 c 1.5519,-0.4666 2.9107,-0.9462 4.1348,-1.4903 l 0.5508,-0.2441 c 0.9643,0.6675 2.0027,1.2316 3.0957,1.6621 l 0.059,0.024 0.059,0.023 c 0.2331,0.085 0.4936,0.052 0.7304,0.125 l 0.053,0.8125 h 4.7168 c 2.7295,0 5.4298,-0.5969 7.8769,-1.7715 0.237,-0.1138 0.3723,-0.3715 0.6035,-0.4961 l 0.01,0.01 0.061,0.051 0.059,0.045 c 1.8795,1.5037 4.0597,1.9545 6.0899,2.0078 h 0.066 0.066 c 0.6307,0 1.2505,-0.057 1.8906,-0.1308 0.8504,-0.056 1.7001,-0.1681 2.5527,-0.3477 l 3.9786,-0.8418 11.1093,-11.1074 0.4649,1.17187 -4.8086,4.72461 v 6.58402 9.90039 l 3.5429,1.0781 c 1.7138,0.5236 3.4868,0.8047 5.2559,0.8047 3.0561,0 6.0976,-0.9134 8.5781,-2.6797 l 20,-20.00196 c 1.3308,-0.92984 2.4712,-2.09972 3.4082,-3.42187 1.0641,2.39327 2.422,4.60753 4.1035,6.55664 l 0.037,0.0391 0.031,0.0449 c 2.0072,2.23019 4.4071,4.05412 7.0879,5.3945 2.8102,1.4051 5.9102,2.127 9.0645,2.127 1.7606,0 3.409,-0.5964 5.0722,-1.0996 v 0.8339 h 16.0918 v -1.8203 c 2.9197,1.7014 4.8027,2.4293 8.2754,2.3516 2.7295,0 5.4299,-0.5969 7.877,-1.7715 0.2384,-0.1145 0.373,-0.3764 0.6054,-0.5019 0,0 0,0.01 0.01,0.014 l 0.059,0.053 0.059,0.043 c 1.8795,1.5037 4.0597,1.9486 6.0899,2.002 h 0.066 0.059 c 0.6334,0 1.2632,-0.053 1.9062,-0.127 0.6471,-0.043 1.2932,-0.1335 1.9414,-0.248 h 35.4629 v -2.1641 c 0.9814,0.6895 2.0407,1.268 3.1602,1.709 l 0.066,0.031 0.059,0.023 c 0.2426,0.088 0.513,0.056 0.7597,0.1309 l 0.053,0.8046 h 4.6875 c 2.7295,0 5.4298,-0.5969 7.8769,-1.7714 0.2385,-0.1146 0.373,-0.3765 0.6055,-0.502 0,0 4e-4,0.01 0.012,0.014 l 0.061,0.053 0.059,0.043 c 1.8795,1.5037 4.0596,1.9485 6.0898,2.0019 h 0.066 0.066 c 0.6332,0 1.2537,-0.053 1.8965,-0.1269 0.848,-0.056 1.6967,-0.1748 2.5469,-0.3535 l 3.9726,-0.834 10.4374,-10.43352 v -14.9082 l -1.9199,-0.0977 v -5.9707 c 0,-4.71609 -1.6394,-9.26723 -5.041,-12.26172 -1.3021,-1.17067 -2.8985,-1.88507 -4.5117,-2.55468 z"
         sodipodi:nodetypes="cccccsscccccsccscccccccccccccccccccccccccscccccccccccccccscccscccccccscccccccccccccccscccccccccsccsccccsccccccccccccccccscccccccccssccccccscccccccccsccccccsscccccsccccccscccccccccscccccccsccccccsccc"
         transform="matrix(0.26458333,0,0,0.26458333,-152.31606,33.357991)" />
      <g
         id="g3103">
        <path
           d="m 162.73538,293.9285 q 0.254,0.0706 0.46566,0.0988 0.21167,0.0282 0.36689,0.0282 0.18345,0 0.32456,-0.0706 0.14111,-0.0564 0.26811,-0.22577 0.14111,-0.16934 0.26811,-0.47978 0.14111,-0.29634 0.29633,-0.79022 l -2.93511,-7.39422 h 1.94733 l 2.01789,5.75733 1.778,-5.75733 h 1.778 l -3.11855,8.86177 q -0.29634,0.84667 -0.94545,1.29822 -0.64911,0.46567 -1.50989,0.46567 -0.49388,0 -1.00188,-0.15522 z"
           style="font-style:normal;font-variant:normal;font-weight:bold;font-stretch:normal;font-size:14.1111px;line-height:1.25;font-family:Raleway;-inkscape-font-specification:'Raleway Bold';fill:#251d1d;fill-opacity:1;stroke-width:0.264583"
           id="path3042" />
        <path
           d="m 180.24461,291.36028 q -1.15711,1.19944 -2.667,1.19944 -0.95956,0 -1.80622,-0.42333 -0.84667,-0.42333 -1.48167,-1.12889 -0.62089,-0.71967 -0.98778,-1.651 -0.35277,-0.93133 -0.35277,-1.93322 0,-1.03011 0.35277,-1.93322 0.36689,-0.91722 1.00189,-1.59455 0.64911,-0.69145 1.50989,-1.08656 0.87489,-0.40922 1.89089,-0.40922 1.36877,0 2.34244,0.59267 0.97367,0.59266 1.46755,1.59455 l -1.45344,1.07244 q -0.36689,-0.74788 -1.016,-1.143 -0.635,-0.39511 -1.41111,-0.39511 -0.62089,0 -1.12889,0.26811 -0.49388,0.26812 -0.84666,0.73378 -0.35278,0.46567 -0.55033,1.07245 -0.19756,0.60677 -0.19756,1.28411 0,0.70555 0.21167,1.32644 0.21166,0.60678 0.59266,1.05833 0.381,0.45156 0.889,0.71967 0.52211,0.254 1.143,0.254 1.38289,0 2.49767,-1.36878 v -0.70555 h -2.01789 v -1.42523 h 3.62655 v 5.15056 h -1.60866 z"
           style="font-style:normal;font-variant:normal;font-weight:bold;font-stretch:normal;font-size:14.1111px;line-height:1.25;font-family:Raleway;-inkscape-font-specification:'Raleway Bold';fill:#251d1d;fill-opacity:1;stroke-width:0.264583"
           id="path3044" />
        <path
           d="m 185.36671,292.63028 q -0.53622,0 -1.00188,-0.16934 -0.46567,-0.18344 -0.80434,-0.49388 -0.33866,-0.32456 -0.53622,-0.74789 -0.18344,-0.42334 -0.18344,-0.93134 0,-0.52211 0.22578,-0.95955 0.23988,-0.45156 0.64911,-0.762 0.42333,-0.31044 1.00188,-0.47978 0.57856,-0.18344 1.27,-0.18344 0.49389,0 0.95956,0.0847 0.47978,0.0847 0.84666,0.23988 v -0.42333 q 0,-0.73378 -0.42333,-1.12889 -0.40922,-0.39511 -1.22766,-0.39511 -0.59267,0 -1.15711,0.21167 -0.56445,0.21167 -1.15712,0.62089 l -0.57855,-1.19945 q 1.42522,-0.94544 3.07622,-0.94544 1.59455,0 2.46944,0.79022 0.889,0.77611 0.889,2.25778 v 2.30011 q 0,0.29633 0.11289,0.42333 0.11289,0.127 0.39511,0.14111 v 1.60867 q -0.26811,0.0564 -0.508,0.0706 -0.22578,0.0282 -0.39511,0.0282 -0.53622,-0.0141 -0.81844,-0.23988 -0.28223,-0.23989 -0.35278,-0.635 l -0.0423,-0.40923 q -0.49389,0.64911 -1.19945,0.98778 -0.70555,0.33867 -1.50989,0.33867 z m 0.53623,-1.38289 q 0.47977,0 0.90311,-0.16933 0.43744,-0.16934 0.67733,-0.45156 0.31044,-0.23989 0.31044,-0.53622 v -0.84667 q -0.33866,-0.127 -0.73377,-0.19755 -0.39511,-0.0847 -0.762,-0.0847 -0.73378,0 -1.19945,0.33867 -0.46566,0.32455 -0.46566,0.83255 0,0.47978 0.36689,0.80434 0.36688,0.31044 0.90311,0.31044 z"
           style="font-style:normal;font-variant:normal;font-weight:bold;font-stretch:normal;font-size:14.1111px;line-height:1.25;font-family:Raleway;-inkscape-font-specification:'Raleway Bold';fill:#251d1d;fill-opacity:1;stroke-width:0.264583"
           id="path3046" />
        <path
           d="m 198.3648,292.48917 h -1.89089 v -4.14867 q 0,-0.889 -0.31044,-1.29822 -0.31044,-0.40922 -0.86078,-0.40922 -0.28222,0 -0.57855,0.11289 -0.29633,0.11289 -0.56445,0.32455 -0.254,0.19756 -0.46566,0.47978 -0.21167,0.28222 -0.31045,0.62089 v 4.318 h -1.89088 v -7.39422 h 1.70744 v 1.36878 q 0.40922,-0.70556 1.18533,-1.10067 0.77611,-0.39511 1.74978,-0.39511 0.69144,0 1.12889,0.254 0.43744,0.254 0.67733,0.66322 0.23989,0.40922 0.32455,0.93133 0.0988,0.52211 0.0988,1.05834 z"
           style="font-style:normal;font-variant:normal;font-weight:bold;font-stretch:normal;font-size:14.1111px;line-height:1.25;font-family:Raleway;-inkscape-font-specification:'Raleway Bold';fill:#251d1d;fill-opacity:1;stroke-width:0.264583"
           id="path3048" />
        <path
           d="m 202.0134,292.63028 q -0.53622,0 -1.00188,-0.16934 -0.46567,-0.18344 -0.80434,-0.49388 -0.33866,-0.32456 -0.53622,-0.74789 -0.18344,-0.42334 -0.18344,-0.93134 0,-0.52211 0.22577,-0.95955 0.23989,-0.45156 0.64911,-0.762 0.42334,-0.31044 1.00189,-0.47978 0.57856,-0.18344 1.27,-0.18344 0.49389,0 0.95956,0.0847 0.47977,0.0847 0.84666,0.23988 v -0.42333 q 0,-0.73378 -0.42333,-1.12889 -0.40922,-0.39511 -1.22767,-0.39511 -0.59266,0 -1.15711,0.21167 -0.56444,0.21167 -1.15711,0.62089 l -0.57855,-1.19945 q 1.42522,-0.94544 3.07622,-0.94544 1.59455,0 2.46944,0.79022 0.889,0.77611 0.889,2.25778 v 2.30011 q 0,0.29633 0.11289,0.42333 0.11289,0.127 0.39511,0.14111 v 1.60867 q -0.26811,0.0564 -0.508,0.0706 -0.22578,0.0282 -0.39511,0.0282 -0.53622,-0.0141 -0.81844,-0.23988 -0.28223,-0.23989 -0.35278,-0.635 l -0.0423,-0.40923 q -0.49388,0.64911 -1.19944,0.98778 -0.70555,0.33867 -1.50989,0.33867 z m 0.53623,-1.38289 q 0.47977,0 0.90311,-0.16933 0.43744,-0.16934 0.67733,-0.45156 0.31044,-0.23989 0.31044,-0.53622 v -0.84667 q -0.33866,-0.127 -0.73377,-0.19755 -0.39512,-0.0847 -0.762,-0.0847 -0.73378,0 -1.19945,0.33867 -0.46566,0.32455 -0.46566,0.83255 0,0.47978 0.36688,0.80434 0.36689,0.31044 0.90312,0.31044 z m 0.91722,-7.01322 -1.21356,-0.36689 0.762,-1.67922 h 1.76389 z"
           style="font-style:normal;font-variant:normal;font-weight:bold;font-stretch:normal;font-size:14.1111px;line-height:1.25;font-family:Raleway;-inkscape-font-specification:'Raleway Bold';fill:#251d1d;fill-opacity:1;stroke-width:0.264583"
           id="path3050" />
        <path
           d="m 97.683153,287.40917 q 0,-0.91722 0.324555,-1.80622 0.324556,-0.90311 0.931333,-1.60867 0.620888,-0.70555 1.509889,-1.143 0.889,-0.43744 2.032,-0.43744 1.34055,0 2.31422,0.60678 0.98777,0.60678 1.45344,1.58044 l -1.49578,1.03011 q -0.16933,-0.42333 -0.43744,-0.70555 -0.26811,-0.29634 -0.59267,-0.46567 -0.31044,-0.16933 -0.64911,-0.23989 -0.33866,-0.0847 -0.64911,-0.0847 -0.69144,0 -1.21355,0.29634 -0.52211,0.29633 -0.87489,0.77611 -0.338666,0.46566 -0.522111,1.07244 -0.169333,0.59267 -0.169333,1.18533 0,0.66323 0.197555,1.28411 0.211669,0.60678 0.578559,1.07245 0.381,0.46566 0.90311,0.74789 0.52211,0.28222 1.143,0.28222 0.32455,0 0.66322,-0.0847 0.33866,-0.0847 0.64911,-0.26811 0.32455,-0.18344 0.59266,-0.46567 0.26812,-0.29633 0.43745,-0.70555 l 1.59455,0.91722 q -0.22577,0.56445 -0.66322,1.00189 -0.42333,0.42333 -0.97366,0.71967 -0.55034,0.29633 -1.15711,0.45155 -0.60678,0.15522 -1.19945,0.15522 -1.04422,0 -1.91911,-0.45155 -0.860775,-0.45156 -1.495775,-1.17122 -0.620888,-0.73378 -0.973665,-1.651 -0.338667,-0.93133 -0.338667,-1.89089 z"
           style="font-style:normal;font-variant:normal;font-weight:bold;font-stretch:normal;font-size:14.1111px;line-height:1.25;font-family:Raleway;-inkscape-font-specification:'Raleway Bold';fill:#251d1d;fill-opacity:1;stroke-width:0.264583"
           id="path3027" />
        <path
           d="m 110.87791,292.63028 q -0.90311,0 -1.62277,-0.31045 -0.71967,-0.31044 -1.22767,-0.83255 -0.49389,-0.53622 -0.762,-1.22767 -0.26811,-0.69144 -0.26811,-1.45344 0,-0.77611 0.26811,-1.46756 0.26811,-0.69144 0.762,-1.21355 0.508,-0.53622 1.22767,-0.84667 0.71966,-0.31044 1.62277,-0.31044 0.90311,0 1.60867,0.31044 0.71966,0.31045 1.21355,0.84667 0.508,0.52211 0.77611,1.21355 0.26811,0.69145 0.26811,1.46756 0,0.762 -0.26811,1.45344 -0.26811,0.69145 -0.762,1.22767 -0.49388,0.52211 -1.21355,0.83255 -0.71967,0.31045 -1.62278,0.31045 z m -1.93322,-3.82411 q 0,0.49389 0.14111,0.90311 0.15523,0.39511 0.40923,0.69144 0.26811,0.29634 0.62088,0.46567 0.35278,0.15522 0.762,0.15522 0.40923,0 0.762,-0.15522 0.35278,-0.16933 0.60678,-0.46567 0.26811,-0.29633 0.40922,-0.70555 0.15522,-0.40922 0.15522,-0.90311 0,-0.47978 -0.15522,-0.889 -0.14111,-0.40922 -0.40922,-0.70556 -0.254,-0.29633 -0.60678,-0.45155 -0.35277,-0.16933 -0.762,-0.16933 -0.40922,0 -0.762,0.16933 -0.35277,0.16933 -0.62088,0.46566 -0.254,0.29634 -0.40923,0.70556 -0.14111,0.40922 -0.14111,0.889 z"
           style="font-style:normal;font-variant:normal;font-weight:bold;font-stretch:normal;font-size:14.1111px;line-height:1.25;font-family:Raleway;-inkscape-font-specification:'Raleway Bold';fill:#251d1d;fill-opacity:1;stroke-width:0.264583"
           id="path3029" />
        <path
           d="m 127.47918,292.48917 h -1.89089 v -4.14867 q 0,-0.889 -0.31044,-1.29822 -0.31044,-0.40922 -0.84667,-0.40922 -0.55033,0 -1.04422,0.43744 -0.49389,0.42334 -0.70555,1.11478 v 4.30389 h -1.89089 v -4.14867 q 0,-0.889 -0.31044,-1.29822 -0.29634,-0.40922 -0.83256,-0.40922 -0.55033,0 -1.05833,0.42333 -0.49389,0.42334 -0.70556,1.11478 v 4.318 h -1.89088 v -7.39422 h 1.70744 v 1.36878 q 0.40922,-0.71967 1.11478,-1.10067 0.71966,-0.39511 1.63688,-0.39511 0.93134,0 1.42522,0.45156 0.508,0.45155 0.66323,1.11477 0.45155,-0.762 1.143,-1.15711 0.69144,-0.40922 1.58044,-0.40922 0.67733,0 1.11478,0.254 0.43744,0.254 0.67733,0.66322 0.23989,0.40922 0.32455,0.93133 0.0988,0.52211 0.0988,1.05834 z"
           style="font-style:normal;font-variant:normal;font-weight:bold;font-stretch:normal;font-size:14.1111px;line-height:1.25;font-family:Raleway;-inkscape-font-specification:'Raleway Bold';fill:#251d1d;fill-opacity:1;stroke-width:0.264583"
           id="path3031" />
        <path
           d="m 132.55477,292.63028 q -0.889,0 -1.60867,-0.29634 -0.71966,-0.31044 -1.22766,-0.83255 -0.508,-0.52211 -0.79022,-1.21356 -0.26812,-0.69144 -0.26812,-1.45344 0,-0.79022 0.26812,-1.48166 0.26811,-0.70556 0.77611,-1.22767 0.508,-0.53622 1.22766,-0.84667 0.73378,-0.31044 1.63689,-0.31044 0.90311,0 1.60866,0.31044 0.71967,0.31045 1.21356,0.83256 0.508,0.52211 0.762,1.21355 0.26811,0.69145 0.26811,1.43934 0,0.18344 -0.0141,0.35277 0,0.16934 -0.0282,0.28223 h -5.715 q 0.0423,0.43744 0.21167,0.77611 0.16933,0.33866 0.43744,0.57855 0.26811,0.23989 0.60678,0.36689 0.33867,0.127 0.70555,0.127 0.56445,0 1.05834,-0.26811 0.508,-0.28222 0.69144,-0.73378 l 1.62278,0.45156 q -0.40923,0.84666 -1.31234,1.397 -0.889,0.53622 -2.13077,0.53622 z m 1.91911,-4.45911 q -0.0706,-0.83256 -0.62089,-1.32644 -0.53622,-0.508 -1.31233,-0.508 -0.381,0 -0.71967,0.14111 -0.32455,0.127 -0.57855,0.36689 -0.254,0.23988 -0.42334,0.57855 -0.15522,0.33867 -0.18344,0.74789 z"
           style="font-style:normal;font-variant:normal;font-weight:bold;font-stretch:normal;font-size:14.1111px;line-height:1.25;font-family:Raleway;-inkscape-font-specification:'Raleway Bold';fill:#251d1d;fill-opacity:1;stroke-width:0.264583"
           id="path3033" />
        <path
           d="m 144.44491,292.48917 h -1.89088 v -4.14867 q 0,-0.889 -0.31045,-1.29822 -0.31044,-0.40922 -0.86077,-0.40922 -0.28223,0 -0.57856,0.11289 -0.29633,0.11289 -0.56444,0.32455 -0.254,0.19756 -0.46567,0.47978 -0.21167,0.28222 -0.31044,0.62089 v 4.318 h -1.89089 v -7.39422 h 1.70744 v 1.36878 q 0.40922,-0.70556 1.18533,-1.10067 0.77611,-0.39511 1.74978,-0.39511 0.69144,0 1.12889,0.254 0.43744,0.254 0.67733,0.66322 0.23989,0.40922 0.32456,0.93133 0.0988,0.52211 0.0988,1.05834 z"
           style="font-style:normal;font-variant:normal;font-weight:bold;font-stretch:normal;font-size:14.1111px;line-height:1.25;font-family:Raleway;-inkscape-font-specification:'Raleway Bold';fill:#251d1d;fill-opacity:1;stroke-width:0.264583"
           id="path3035" />
        <path
           d="m 150.47895,292.10817 q -0.381,0.16933 -0.94544,0.33866 -0.55033,0.16934 -1.15711,0.16934 -0.39511,0 -0.74789,-0.0988 -0.33867,-0.0988 -0.60678,-0.31045 -0.254,-0.22577 -0.40922,-0.56444 -0.15522,-0.35278 -0.15522,-0.84667 v -4.24744 h -0.95956 v -1.45344 h 0.95956 v -2.39889 h 1.89089 v 2.39889 h 1.56633 v 1.45344 h -1.56633 v 3.61244 q 0,0.39512 0.21166,0.56445 0.21167,0.15522 0.508,0.15522 0.29634,0 0.57856,-0.0988 0.28222,-0.0988 0.45155,-0.16933 z"
           style="font-style:normal;font-variant:normal;font-weight:bold;font-stretch:normal;font-size:14.1111px;line-height:1.25;font-family:Raleway;-inkscape-font-specification:'Raleway Bold';fill:#251d1d;fill-opacity:1;stroke-width:0.264583"
           id="path3037" />
        <path
           d="m 153.46786,292.63028 q -0.53622,0 -1.00189,-0.16934 -0.46566,-0.18344 -0.80433,-0.49388 -0.33867,-0.32456 -0.53622,-0.74789 -0.18345,-0.42334 -0.18345,-0.93134 0,-0.52211 0.22578,-0.95955 0.23989,-0.45156 0.64911,-0.762 0.42333,-0.31044 1.00189,-0.47978 0.57855,-0.18344 1.27,-0.18344 0.49389,0 0.95955,0.0847 0.47978,0.0847 0.84667,0.23988 v -0.42333 q 0,-0.73378 -0.42333,-1.12889 -0.40923,-0.39511 -1.22767,-0.39511 -0.59267,0 -1.15711,0.21167 -0.56444,0.21167 -1.15711,0.62089 l -0.57856,-1.19945 q 1.42523,-0.94544 3.07622,-0.94544 1.59456,0 2.46945,0.79022 0.889,0.77611 0.889,2.25778 v 2.30011 q 0,0.29633 0.11289,0.42333 0.11288,0.127 0.39511,0.14111 v 1.60867 q -0.26811,0.0564 -0.508,0.0706 -0.22578,0.0282 -0.39511,0.0282 -0.53623,-0.0141 -0.81845,-0.23988 -0.28222,-0.23989 -0.35278,-0.635 l -0.0423,-0.40923 q -0.49389,0.64911 -1.19944,0.98778 -0.70556,0.33867 -1.50989,0.33867 z m 0.53622,-1.38289 q 0.47978,0 0.90311,-0.16933 0.43745,-0.16934 0.67733,-0.45156 0.31045,-0.23989 0.31045,-0.53622 v -0.84667 q -0.33867,-0.127 -0.73378,-0.19755 -0.39511,-0.0847 -0.762,-0.0847 -0.73377,0 -1.19944,0.33867 -0.46567,0.32455 -0.46567,0.83255 0,0.47978 0.36689,0.80434 0.36689,0.31044 0.90311,0.31044 z m 0.91722,-7.01322 -1.21355,-0.36689 0.762,-1.67922 h 1.76389 z"
           style="font-style:normal;font-variant:normal;font-weight:bold;font-stretch:normal;font-size:14.1111px;line-height:1.25;font-family:Raleway;-inkscape-font-specification:'Raleway Bold';fill:#251d1d;fill-opacity:1;stroke-width:0.264583"
           id="path3039" />
      </g>
      <g
         id="g3077"
         transform="translate(0,5.2916667)">
        <path
           d="m 163.26454,288.10765 q 0.254,0.0706 0.46566,0.0988 0.21167,0.0282 0.36689,0.0282 0.18344,0 0.32456,-0.0706 0.14111,-0.0564 0.26811,-0.22578 0.14111,-0.16933 0.26811,-0.47978 0.14111,-0.29633 0.29633,-0.79022 l -2.93511,-7.39422 h 1.94733 l 2.01789,5.75733 1.778,-5.75733 h 1.778 l -3.11855,8.86178 q -0.29634,0.84666 -0.94545,1.29822 -0.64911,0.46566 -1.50989,0.46566 -0.49388,0 -1.00188,-0.15522 z"
           style="font-style:normal;font-variant:normal;font-weight:bold;font-stretch:normal;font-size:14.1111px;line-height:1.25;font-family:Raleway;-inkscape-font-specification:'Raleway Bold';fill:#ffffff;fill-opacity:1;stroke-width:0.264583"
           id="path3016" />
        <path
           d="m 180.77377,285.53943 q -1.15712,1.19945 -2.667,1.19945 -0.95956,0 -1.80622,-0.42334 -0.84667,-0.42333 -1.48167,-1.12888 -0.62089,-0.71967 -0.98778,-1.651 -0.35277,-0.93134 -0.35277,-1.93322 0,-1.03011 0.35277,-1.93322 0.36689,-0.91723 1.00189,-1.59456 0.64911,-0.69144 1.50989,-1.08655 0.87489,-0.40923 1.89089,-0.40923 1.36877,0 2.34244,0.59267 0.97367,0.59267 1.46755,1.59456 l -1.45344,1.07244 q -0.36689,-0.74789 -1.016,-1.143 -0.635,-0.39511 -1.41111,-0.39511 -0.62089,0 -1.12889,0.26811 -0.49388,0.26811 -0.84666,0.73378 -0.35278,0.46566 -0.55034,1.07244 -0.19755,0.60678 -0.19755,1.28411 0,0.70556 0.21167,1.32644 0.21166,0.60678 0.59266,1.05834 0.381,0.45155 0.889,0.71966 0.52211,0.254 1.143,0.254 1.38289,0 2.49767,-1.36877 v -0.70556 h -2.01789 v -1.42522 h 3.62655 v 5.15055 h -1.60866 z"
           style="font-style:normal;font-variant:normal;font-weight:bold;font-stretch:normal;font-size:14.1111px;line-height:1.25;font-family:Raleway;-inkscape-font-specification:'Raleway Bold';fill:#ffffff;fill-opacity:1;stroke-width:0.264583"
           id="path3018" />
        <path
           d="m 185.89587,286.80943 q -0.53622,0 -1.00188,-0.16933 -0.46567,-0.18345 -0.80434,-0.49389 -0.33866,-0.32455 -0.53622,-0.74789 -0.18344,-0.42333 -0.18344,-0.93133 0,-0.52211 0.22578,-0.95955 0.23988,-0.45156 0.64911,-0.762 0.42333,-0.31045 1.00188,-0.47978 0.57856,-0.18345 1.27,-0.18345 0.49389,0 0.95956,0.0847 0.47978,0.0847 0.84666,0.23989 v -0.42333 q 0,-0.73378 -0.42333,-1.12889 -0.40922,-0.39511 -1.22767,-0.39511 -0.59266,0 -1.15711,0.21166 -0.56444,0.21167 -1.15711,0.62089 l -0.57855,-1.19944 q 1.42522,-0.94544 3.07622,-0.94544 1.59455,0 2.46944,0.79022 0.889,0.77611 0.889,2.25777 v 2.30011 q 0,0.29634 0.11289,0.42334 0.11289,0.12699 0.39511,0.14111 v 1.60866 q -0.26811,0.0564 -0.508,0.0706 -0.22578,0.0282 -0.39511,0.0282 -0.53622,-0.0141 -0.81844,-0.23989 -0.28223,-0.23989 -0.35278,-0.635 l -0.0423,-0.40922 q -0.49389,0.64911 -1.19945,0.98778 -0.70555,0.33866 -1.50989,0.33866 z m 0.53623,-1.38289 q 0.47977,0 0.90311,-0.16933 0.43744,-0.16933 0.67733,-0.45155 0.31044,-0.23989 0.31044,-0.53623 v -0.84666 q -0.33866,-0.127 -0.73377,-0.19756 -0.39511,-0.0847 -0.762,-0.0847 -0.73378,0 -1.19945,0.33866 -0.46566,0.32456 -0.46566,0.83256 0,0.47978 0.36689,0.80433 0.36688,0.31044 0.90311,0.31044 z"
           style="font-style:normal;font-variant:normal;font-weight:bold;font-stretch:normal;font-size:14.1111px;line-height:1.25;font-family:Raleway;-inkscape-font-specification:'Raleway Bold';fill:#ffffff;fill-opacity:1;stroke-width:0.264583"
           id="path3020" />
        <path
           d="m 198.89396,286.66832 h -1.89089 v -4.14866 q 0,-0.889 -0.31044,-1.29822 -0.31044,-0.40923 -0.86078,-0.40923 -0.28222,0 -0.57855,0.11289 -0.29634,0.11289 -0.56445,0.32456 -0.254,0.19755 -0.46566,0.47978 -0.21167,0.28222 -0.31045,0.62088 v 4.318 h -1.89088 v -7.39422 h 1.70744 v 1.36878 q 0.40922,-0.70555 1.18533,-1.10066 0.77611,-0.39511 1.74978,-0.39511 0.69144,0 1.12889,0.25399 0.43744,0.254 0.67733,0.66323 0.23989,0.40922 0.32455,0.93133 0.0988,0.52211 0.0988,1.05833 z"
           style="font-style:normal;font-variant:normal;font-weight:bold;font-stretch:normal;font-size:14.1111px;line-height:1.25;font-family:Raleway;-inkscape-font-specification:'Raleway Bold';fill:#ffffff;fill-opacity:1;stroke-width:0.264583"
           id="path3022" />
        <path
           d="m 202.54256,286.80943 q -0.53622,0 -1.00189,-0.16933 -0.46566,-0.18345 -0.80433,-0.49389 -0.33866,-0.32455 -0.53622,-0.74789 -0.18344,-0.42333 -0.18344,-0.93133 0,-0.52211 0.22577,-0.95955 0.23989,-0.45156 0.64911,-0.762 0.42334,-0.31045 1.00189,-0.47978 0.57856,-0.18345 1.27,-0.18345 0.49389,0 0.95956,0.0847 0.47977,0.0847 0.84666,0.23989 v -0.42333 q 0,-0.73378 -0.42333,-1.12889 -0.40922,-0.39511 -1.22767,-0.39511 -0.59266,0 -1.15711,0.21166 -0.56444,0.21167 -1.15711,0.62089 l -0.57855,-1.19944 q 1.42522,-0.94544 3.07622,-0.94544 1.59455,0 2.46944,0.79022 0.889,0.77611 0.889,2.25777 v 2.30011 q 0,0.29634 0.11289,0.42334 0.11289,0.12699 0.39511,0.14111 v 1.60866 q -0.26811,0.0564 -0.508,0.0706 -0.22578,0.0282 -0.39511,0.0282 -0.53622,-0.0141 -0.81845,-0.23989 -0.28222,-0.23989 -0.35277,-0.635 l -0.0423,-0.40922 q -0.49388,0.64911 -1.19944,0.98778 -0.70555,0.33866 -1.50989,0.33866 z m 0.53622,-1.38289 q 0.47978,0 0.90312,-0.16933 0.43744,-0.16933 0.67733,-0.45155 0.31044,-0.23989 0.31044,-0.53623 v -0.84666 q -0.33866,-0.127 -0.73378,-0.19756 -0.39511,-0.0847 -0.76199,-0.0847 -0.73378,0 -1.19945,0.33866 -0.46566,0.32456 -0.46566,0.83256 0,0.47978 0.36688,0.80433 0.36689,0.31044 0.90311,0.31044 z m 0.91723,-7.01321 -1.21356,-0.36689 0.762,-1.67922 h 1.76389 z"
           style="font-style:normal;font-variant:normal;font-weight:bold;font-stretch:normal;font-size:14.1111px;line-height:1.25;font-family:Raleway;-inkscape-font-specification:'Raleway Bold';fill:#ffffff;fill-opacity:1;stroke-width:0.264583"
           id="path3024" />
        <path
           d="m 98.21232,281.58833 q 0,-0.91723 0.324556,-1.80623 0.324555,-0.90311 0.931332,-1.60866 0.620892,-0.70556 1.509892,-1.143 0.889,-0.43744 2.03199,-0.43744 1.34056,0 2.31422,0.60677 0.98778,0.60678 1.45345,1.58045 l -1.49578,1.03011 q -0.16933,-0.42334 -0.43744,-0.70556 -0.26811,-0.29633 -0.59267,-0.46566 -0.31044,-0.16934 -0.64911,-0.23989 -0.33867,-0.0847 -0.64911,-0.0847 -0.69144,0 -1.21355,0.29633 -0.52212,0.29634 -0.87489,0.77611 -0.33867,0.46567 -0.52211,1.07245 -0.16934,0.59266 -0.16934,1.18533 0,0.66322 0.19756,1.28411 0.21167,0.60678 0.57855,1.07244 0.381,0.46567 0.90311,0.74789 0.52211,0.28222 1.143,0.28222 0.32456,0 0.66322,-0.0847 0.33867,-0.0847 0.64912,-0.26811 0.32455,-0.18345 0.59266,-0.46567 0.26811,-0.29633 0.43745,-0.70555 l 1.59455,0.91722 q -0.22578,0.56444 -0.66322,1.00188 -0.42333,0.42334 -0.97367,0.71967 -0.55033,0.29633 -1.15711,0.45156 -0.60677,0.15522 -1.19944,0.15522 -1.04422,0 -1.91911,-0.45156 -0.86078,-0.45155 -1.495777,-1.17122 -0.620889,-0.73378 -0.973666,-1.651 -0.338667,-0.93126 -0.338667,-1.89081 z"
           style="font-style:normal;font-variant:normal;font-weight:bold;font-stretch:normal;font-size:14.1111px;line-height:1.25;font-family:Raleway;-inkscape-font-specification:'Raleway Bold';fill:#ffffff;fill-opacity:1;stroke-width:0.264583"
           id="path3001" />
        <path
           d="m 111.40708,286.80943 q -0.90311,0 -1.62278,-0.31044 -0.71966,-0.31045 -1.22766,-0.83256 -0.49389,-0.53622 -0.762,-1.22766 -0.26811,-0.69145 -0.26811,-1.45345 0,-0.77611 0.26811,-1.46755 0.26811,-0.69144 0.762,-1.21355 0.508,-0.53623 1.22766,-0.84667 0.71967,-0.31044 1.62278,-0.31044 0.90311,0 1.60867,0.31044 0.71966,0.31044 1.21355,0.84667 0.508,0.52211 0.77611,1.21355 0.26811,0.69144 0.26811,1.46755 0,0.762 -0.26811,1.45345 -0.26811,0.69144 -0.762,1.22766 -0.49389,0.52211 -1.21355,0.83256 -0.71967,0.31044 -1.62278,0.31044 z m -1.93322,-3.82411 q 0,0.49389 0.14111,0.90311 0.15522,0.39512 0.40922,0.69145 0.26811,0.29633 0.62089,0.46566 0.35278,0.15523 0.762,0.15523 0.40922,0 0.762,-0.15523 0.35278,-0.16933 0.60678,-0.46566 0.26811,-0.29633 0.40922,-0.70556 0.15522,-0.40922 0.15522,-0.90311 0,-0.47977 -0.15522,-0.889 -0.14111,-0.40922 -0.40922,-0.70555 -0.254,-0.29633 -0.60678,-0.45156 -0.35278,-0.16933 -0.762,-0.16933 -0.40922,0 -0.762,0.16933 -0.35278,0.16934 -0.62089,0.46567 -0.254,0.29633 -0.40922,0.70555 -0.14111,0.40923 -0.14111,0.889 z"
           style="font-style:normal;font-variant:normal;font-weight:bold;font-stretch:normal;font-size:14.1111px;line-height:1.25;font-family:Raleway;-inkscape-font-specification:'Raleway Bold';fill:#ffffff;fill-opacity:1;stroke-width:0.264583"
           id="path3003" />
        <path
           d="m 128.00835,286.66832 h -1.89089 v -4.14866 q 0,-0.889 -0.31044,-1.29822 -0.31045,-0.40923 -0.84667,-0.40923 -0.55033,0 -1.04422,0.43745 -0.49389,0.42333 -0.70556,1.11478 v 4.30388 h -1.89088 v -4.14866 q 0,-0.889 -0.31045,-1.29822 -0.29633,-0.40923 -0.83255,-0.40923 -0.55033,0 -1.05833,0.42334 -0.49389,0.42333 -0.70556,1.11477 v 4.318 h -1.89089 v -7.39422 h 1.70745 v 1.36878 q 0.40922,-0.71966 1.11477,-1.10066 0.71967,-0.39511 1.63689,-0.39511 0.93133,0 1.42522,0.45155 0.508,0.45156 0.66322,1.11478 0.45156,-0.762 1.143,-1.15711 0.69145,-0.40922 1.58045,-0.40922 0.67733,0 1.11477,0.25399 0.43745,0.254 0.67734,0.66323 0.23988,0.40922 0.32455,0.93133 0.0988,0.52211 0.0988,1.05833 z"
           style="font-style:normal;font-variant:normal;font-weight:bold;font-stretch:normal;font-size:14.1111px;line-height:1.25;font-family:Raleway;-inkscape-font-specification:'Raleway Bold';fill:#ffffff;fill-opacity:1;stroke-width:0.264583"
           id="path3005" />
        <path
           d="m 133.08394,286.80943 q -0.889,0 -1.60867,-0.29633 -0.71967,-0.31044 -1.22767,-0.83256 -0.508,-0.52211 -0.79022,-1.21355 -0.26811,-0.69144 -0.26811,-1.45344 0,-0.79023 0.26811,-1.48167 0.26811,-0.70555 0.77611,-1.22766 0.508,-0.53623 1.22767,-0.84667 0.73378,-0.31044 1.63689,-0.31044 0.90311,0 1.60866,0.31044 0.71967,0.31044 1.21356,0.83255 0.508,0.52211 0.762,1.21356 0.26811,0.69144 0.26811,1.43933 0,0.18345 -0.0141,0.35278 0,0.16933 -0.0282,0.28222 h -5.71499 q 0.0423,0.43744 0.21166,0.77611 0.16934,0.33867 0.43745,0.57856 0.26811,0.23988 0.60678,0.36688 0.33866,0.127 0.70555,0.127 0.56444,0 1.05833,-0.26811 0.508,-0.28222 0.69145,-0.73377 l 1.62277,0.45155 q -0.40922,0.84667 -1.31233,1.397 -0.889,0.53622 -2.13077,0.53622 z m 1.9191,-4.45911 q -0.0705,-0.83255 -0.62088,-1.32644 -0.53623,-0.508 -1.31234,-0.508 -0.381,0 -0.71966,0.14111 -0.32456,0.127 -0.57856,0.36689 -0.254,0.23989 -0.42333,0.57856 -0.15522,0.33866 -0.18344,0.74788 z"
           style="font-style:normal;font-variant:normal;font-weight:bold;font-stretch:normal;font-size:14.1111px;line-height:1.25;font-family:Raleway;-inkscape-font-specification:'Raleway Bold';fill:#ffffff;fill-opacity:1;stroke-width:0.264583"
           id="path3007" />
        <path
           d="m 144.97408,286.66832 h -1.89089 v -4.14866 q 0,-0.889 -0.31044,-1.29822 -0.31044,-0.40923 -0.86078,-0.40923 -0.28222,0 -0.57855,0.11289 -0.29634,0.11289 -0.56445,0.32456 -0.254,0.19755 -0.46566,0.47978 -0.21167,0.28222 -0.31045,0.62088 v 4.318 h -1.89088 v -7.39422 h 1.70744 v 1.36878 q 0.40922,-0.70555 1.18533,-1.10066 0.77611,-0.39511 1.74978,-0.39511 0.69144,0 1.12889,0.25399 0.43744,0.254 0.67733,0.66323 0.23989,0.40922 0.32455,0.93133 0.0988,0.52211 0.0988,1.05833 z"
           style="font-style:normal;font-variant:normal;font-weight:bold;font-stretch:normal;font-size:14.1111px;line-height:1.25;font-family:Raleway;-inkscape-font-specification:'Raleway Bold';fill:#ffffff;fill-opacity:1;stroke-width:0.264583"
           id="path3009" />
        <path
           d="m 151.00812,286.28732 q -0.381,0.16933 -0.94544,0.33867 -0.55034,0.16933 -1.15711,0.16933 -0.39511,0 -0.74789,-0.0988 -0.33867,-0.0988 -0.60678,-0.31044 -0.254,-0.22578 -0.40922,-0.56444 -0.15522,-0.35278 -0.15522,-0.84667 v -4.24744 h -0.95956 v -1.45345 h 0.95956 v -2.39888 h 1.89088 v 2.39888 h 1.56634 v 1.45345 h -1.56634 v 3.61244 q 0,0.39511 0.21167,0.56444 0.21167,0.15523 0.508,0.15523 0.29633,0 0.57856,-0.0988 0.28222,-0.0988 0.45155,-0.16933 z"
           style="font-style:normal;font-variant:normal;font-weight:bold;font-stretch:normal;font-size:14.1111px;line-height:1.25;font-family:Raleway;-inkscape-font-specification:'Raleway Bold';fill:#ffffff;fill-opacity:1;stroke-width:0.264583"
           id="path3011" />
        <path
           d="m 153.99703,286.80943 q -0.53622,0 -1.00189,-0.16933 -0.46567,-0.18345 -0.80433,-0.49389 -0.33867,-0.32455 -0.53623,-0.74789 -0.18344,-0.42333 -0.18344,-0.93133 0,-0.52211 0.22578,-0.95955 0.23989,-0.45156 0.64911,-0.762 0.42333,-0.31045 1.00189,-0.47978 0.57855,-0.18345 1.27,-0.18345 0.49388,0 0.95955,0.0847 0.47978,0.0847 0.84667,0.23989 v -0.42333 q 0,-0.73378 -0.42334,-1.12889 -0.40922,-0.39511 -1.22766,-0.39511 -0.59267,0 -1.15711,0.21166 -0.56445,0.21167 -1.15711,0.62089 l -0.57856,-1.19944 q 1.42522,-0.94544 3.07622,-0.94544 1.59456,0 2.46944,0.79022 0.889,0.77611 0.889,2.25777 v 2.30011 q 0,0.29634 0.11289,0.42334 0.11289,0.12699 0.39511,0.14111 v 1.60866 q -0.26811,0.0564 -0.508,0.0706 -0.22577,0.0282 -0.39511,0.0282 -0.53622,-0.0141 -0.81844,-0.23989 -0.28222,-0.23989 -0.35278,-0.635 l -0.0423,-0.40922 q -0.49389,0.64911 -1.19945,0.98778 -0.70555,0.33866 -1.50988,0.33866 z m 0.53622,-1.38289 q 0.47978,0 0.90311,-0.16933 0.43744,-0.16933 0.67733,-0.45155 0.31045,-0.23989 0.31045,-0.53623 v -0.84666 q -0.33867,-0.127 -0.73378,-0.19756 -0.39511,-0.0847 -0.762,-0.0847 -0.73378,0 -1.19944,0.33866 -0.46567,0.32456 -0.46567,0.83256 0,0.47978 0.36689,0.80433 0.36689,0.31044 0.90311,0.31044 z m 0.91722,-7.01321 -1.21355,-0.36689 0.76199,-1.67922 h 1.76389 z"
           style="font-style:normal;font-variant:normal;font-weight:bold;font-stretch:normal;font-size:14.1111px;line-height:1.25;font-family:Raleway;-inkscape-font-specification:'Raleway Bold';fill:#ffffff;fill-opacity:1;stroke-width:0.264583"
           id="path3013" />
      </g>
    </g>
  </g>
</svg>
