<?xml version="1.0" encoding="UTF-8" standalone="no"?>
<svg
   xmlns:dc="http://purl.org/dc/elements/1.1/"
   xmlns:cc="http://creativecommons.org/ns#"
   xmlns:rdf="http://www.w3.org/1999/02/22-rdf-syntax-ns#"
   xmlns:svg="http://www.w3.org/2000/svg"
   xmlns="http://www.w3.org/2000/svg"
   xmlns:sodipodi="http://sodipodi.sourceforge.net/DTD/sodipodi-0.dtd"
   xmlns:inkscape="http://www.inkscape.org/namespaces/inkscape"
   width="151.1644"
   height="35"
   viewBox="0 0 39.99558 9.2604167"
   version="1.1"
   id="svg1155"
   inkscape:version="1.0.1 (3bc2e813f5, 2020-09-07)"
   sodipodi:docname="comenta.svg">
  <defs
     id="defs1149" />
  <sodipodi:namedview
     id="base"
     pagecolor="#ffffff"
     bordercolor="#666666"
     borderopacity="1.0"
     inkscape:pageopacity="0.0"
     inkscape:pageshadow="2"
     inkscape:zoom="2.4549579"
     inkscape:cx="94.892022"
     inkscape:cy="24.469567"
     inkscape:document-units="px"
     inkscape:current-layer="layer1"
     inkscape:document-rotation="0"
     showgrid="false"
     units="px"
     inkscape:window-width="1366"
     inkscape:window-height="704"
     inkscape:window-x="0"
     inkscape:window-y="27"
     inkscape:window-maximized="1" />
  <metadata
     id="metadata1152">
    <rdf:RDF>
      <cc:Work
         rdf:about="">
        <dc:format>image/svg+xml</dc:format>
        <dc:type
           rdf:resource="http://purl.org/dc/dcmitype/StillImage" />
        <dc:title />
      </cc:Work>
    </rdf:RDF>
  </metadata>
  <g
     inkscape:label="Layer 1"
     inkscape:groupmode="layer"
     id="layer1"
     transform="translate(-5.0330061,-117.80797)">
    <g
       id="g1133"
       transform="matrix(0.6126327,0,0,0.6126327,-1.8331009,-36.417456)">
      <path
         id="path971"
         style="color:#000000;font-style:normal;font-variant:normal;font-weight:bold;font-stretch:normal;font-size:14.1111px;line-height:1.25;font-family:Raleway;-inkscape-font-specification:'Raleway Bold';font-variant-ligatures:normal;font-variant-position:normal;font-variant-caps:normal;font-variant-numeric:normal;font-variant-alternates:normal;font-variant-east-asian:normal;font-feature-settings:normal;font-variation-settings:normal;text-indent:0;text-align:start;text-decoration:none;text-decoration-line:none;text-decoration-style:solid;text-decoration-color:#000000;letter-spacing:normal;word-spacing:normal;text-transform:none;writing-mode:lr-tb;direction:ltr;text-orientation:mixed;dominant-baseline:auto;baseline-shift:baseline;text-anchor:start;white-space:normal;shape-padding:0;shape-margin:0;inline-size:0;clip-rule:nonzero;display:inline;overflow:visible;visibility:visible;isolation:auto;mix-blend-mode:normal;color-interpolation:sRGB;color-interpolation-filters:linearRGB;solid-color:#000000;solid-opacity:1;vector-effect:none;fill:#000000;fill-opacity:1;fill-rule:nonzero;stroke:none;stroke-width:10.0157;stroke-linecap:butt;stroke-linejoin:miter;stroke-miterlimit:4;stroke-dasharray:none;stroke-dashoffset:0;stroke-opacity:1;color-rendering:auto;image-rendering:auto;shape-rendering:auto;text-rendering:auto;enable-background:accumulate;stop-color:#000000"
         d="m 842.0957,825.38867 -5.50781,12.15039 c -1.17643,0.42174 -2.33761,0.89252 -3.46875,1.44336 V 836.375 h -5.91992 v -9.06641 h -17.16406 v 9.06446 h -3.63086 v 1.56836 c -0.2049,-0.13593 -0.40156,-0.28722 -0.61328,-0.41016 -2.09307,-1.21534 -4.42778,-1.63867 -6.78321,-1.63867 -2.14437,0 -4.10026,0.75842 -6.08398,1.39648 v -0.91601 h -16.46875 v 5.02343 c -1.65512,-1.64129 -3.62675,-2.95501 -5.8086,-3.90039 -0.005,-0.002 -0.0111,0.002 -0.0156,0 -2.49521,-1.09538 -5.23767,-1.60156 -8.08203,-1.60156 v -0.002 c -2.84937,0 -5.60885,0.50476 -8.13672,1.57422 l -0.0137,0.006 -0.0156,0.008 c -2.37121,1.02289 -4.51022,2.48093 -6.26562,4.32617 -0.47414,0.48878 -0.91361,1.00813 -1.32813,1.54688 -0.22355,-0.51893 -0.46717,-1.02845 -0.7539,-1.51758 -1.04747,-1.78685 -2.6027,-3.27591 -4.3711,-4.30274 -2.07285,-1.20359 -4.39196,-1.64062 -6.72461,-1.64062 -2.99557,0 -5.94389,0.74106 -8.48828,2.23828 -0.36616,0.21052 -0.53971,0.65337 -0.88672,0.89258 -0.0388,-0.034 -0.0409,-0.0977 -0.0801,-0.13282 -2.39775,-2.17307 -5.59276,-2.99804 -8.73438,-2.99804 -1.90016,0 -3.61326,0.7697 -5.38867,1.32226 v -0.84179 h -16.46875 v 5.49609 c -0.0102,-0.0107 -0.019,-0.0226 -0.0293,-0.0332 -1.72306,-1.85458 -3.84275,-3.31974 -6.20117,-4.3418 -0.005,-0.002 -0.009,0.002 -0.0137,0 -2.49522,-1.09538 -5.23181,-1.60156 -8.07617,-1.60156 -2.84937,0 -5.60821,0.50388 -8.1211,1.58789 -1.34588,0.58058 -2.60338,1.31523 -3.77148,2.16601 l -1.09375,-2.28906 c -1.59176,-3.32821 -4.17732,-6.09824 -7.38086,-8.06836 -3.32467,-2.06611 -7.24981,-3.04101 -11.375,-3.04101 v -0.002 c -3.51886,0 -6.88972,0.68451 -9.89258,2.16211 -2.78259,1.36921 -5.23961,3.22551 -7.24805,5.50782 l -0.0234,0.0215 -0.0215,0.0234 -7.60841,7.59864 -0.0137,0.0234 -0.0234,0.0234 c -1.92844,2.24236 -3.42226,4.82915 -4.43554,7.64649 -7.3e-4,0.002 7.3e-4,0.004 0,0.008 -1.00114,2.75237 -1.52149,5.62789 -1.52149,8.51953 0,3.00696 0.53798,5.99164 1.58008,8.85742 l 0.0156,0.0449 0.0215,0.0371 c 1.08163,2.81227 2.60624,5.40041 4.5332,7.67773 l 0.0293,0.043 0.0371,0.0391 c 1.99895,2.26549 4.38865,4.13992 7.07813,5.55078 l 0.0156,0.008 0.0137,0.008 c 2.92602,1.51022 6.19976,2.26562 9.55274,2.26562 1.93054,0 3.86527,-0.25793 5.77343,-0.74609 1.91801,-0.49066 3.76412,-1.21059 5.50586,-2.14844 1.79121,-0.9645 3.42883,-2.16514 4.84961,-3.58594 0.14451,-0.1445 0.27133,-0.30538 0.41016,-0.45507 0.32224,0.41168 0.65268,0.81755 1.00781,1.20312 l 0.0449,0.0527 0.0508,0.0508 c 1.7583,1.80714 3.88873,3.23503 6.2461,4.25195 2.51288,1.08397 5.26196,1.58008 8.11133,1.58008 20.4393,-6.55659 31.47461,-0.53125 61.75195,-0.53125 l 6,-5.00586 v -0.11914 c 1.73345,1.74609 3.81045,3.13635 6.11133,4.1289 l 0.0449,0.0156 0.0371,0.0234 c 2.48463,1.02308 5.1899,1.49023 7.98633,1.49023 17.69992,-5.03161 22.47024,-0.53338 45.94748,-0.53338 l 4,-3.86133 c 0.41948,0.5485 0.88135,1.06812 1.40235,1.53125 l 0.10937,0.10156 0.11914,0.0898 c 1.183,0.9338 2.559,1.63208 3.99414,2.05078 l 0.0215,0.008 0.0293,0.008 c 1.35643,0.37992 2.75891,0.55469 4.17188,0.55469 1.9845,0 3.94403,-0.27697 5.81641,-0.84961 l 0.0293,-0.008 c 1.55186,-0.46659 2.91066,-0.94617 4.13477,-1.49024 l 0.55078,-0.24414 c 0.96434,0.66755 2.00271,1.23153 3.0957,1.66211 l 0.0586,0.0215 0.0586,0.0234 c 0.23305,0.0847 0.49366,0.0521 0.73047,0.125 l 0.0527,0.8125 h 4.7168 c 2.72953,0 5.42989,-0.59688 7.87695,-1.77148 0.23717,-0.11376 0.37226,-0.37152 0.60352,-0.49609 0.003,0.002 0.005,0.004 0.008,0.008 l 0.0606,0.0527 0.0586,0.043 c 1.87951,1.50372 4.05964,1.95445 6.08985,2.00781 h 0.0664 0.0664 c 0.63076,0 1.25052,-0.0571 1.89062,-0.13086 0.8504,-0.0559 1.70013,-0.16812 2.55274,-0.34765 l 3.97851,-0.8418 7.64552,-7.64356 v -14.90821 l -1.91992,-0.0977 v -5.9707 c 0,-4.71973 -1.64968,-9.27517 -5.05664,-12.26954 -1.29914,-1.16526 -2.88604,-1.87937 -4.49414,-2.54687 l 7.83984,-12.2168 z"
         transform="matrix(0.26458333,0,0,0.26458333,-152.31606,33.357991)"
         sodipodi:nodetypes="ccccccccccssccccscccsccccssscccscccccscsscccccsccccccscscccccccccssssccccsccccccccccccccccscccccccccssccccccsccccccscccc" />
      <g
         aria-label="Comentá"
         id="text1126"
         style="font-style:normal;font-variant:normal;font-weight:bold;font-stretch:normal;font-size:14.1111px;line-height:1.25;font-family:Raleway;-inkscape-font-specification:'Raleway Bold';fill:#251d1d;fill-opacity:1;stroke-width:0.264583">
        <path
           d="m 14.027132,258.81731 q 0,-0.91722 0.324555,-1.80622 0.324556,-0.90311 0.931333,-1.60866 0.620888,-0.70556 1.509888,-1.143 0.888999,-0.43745 2.031998,-0.43745 1.340555,0 2.31422,0.60678 0.987778,0.60678 1.453444,1.58044 l -1.495777,1.03011 q -0.169333,-0.42333 -0.437444,-0.70555 -0.268111,-0.29633 -0.592666,-0.46567 -0.310444,-0.16933 -0.649111,-0.23989 -0.338666,-0.0847 -0.64911,-0.0847 -0.691444,0 -1.213555,0.29633 -0.522111,0.29633 -0.874888,0.77611 -0.338667,0.46567 -0.522111,1.07244 -0.169333,0.59267 -0.169333,1.18534 0,0.66322 0.197555,1.28411 0.211667,0.60677 0.578555,1.07244 0.381,0.46567 0.903111,0.74789 0.522111,0.28222 1.142999,0.28222 0.324555,0 0.663222,-0.0847 0.338666,-0.0847 0.64911,-0.26811 0.324556,-0.18344 0.592666,-0.46566 0.268111,-0.29634 0.437445,-0.70556 l 1.594554,0.91722 q -0.225778,0.56445 -0.663222,1.00189 -0.423333,0.42333 -0.973666,0.71967 -0.550333,0.29633 -1.15711,0.45155 -0.606777,0.15522 -1.199443,0.15522 -1.044222,0 -1.91911,-0.45155 -0.860777,-0.45156 -1.495777,-1.17122 -0.620888,-0.73378 -0.973666,-1.651 -0.338666,-0.93133 -0.338666,-1.89089 z"
           style="font-style:normal;font-variant:normal;font-weight:bold;font-stretch:normal;font-size:14.1111px;font-family:Raleway;-inkscape-font-specification:'Raleway Bold';fill:#251d1d;fill-opacity:1;stroke-width:0.264583"
           id="path1734" />
        <path
           d="m 27.221892,264.03842 q -0.90311,0 -1.622776,-0.31044 -0.719666,-0.31045 -1.227666,-0.83256 -0.493888,-0.53622 -0.761999,-1.22767 -0.268111,-0.69144 -0.268111,-1.45344 0,-0.77611 0.268111,-1.46755 0.268111,-0.69145 0.761999,-1.21356 0.508,-0.53622 1.227666,-0.84666 0.719666,-0.31045 1.622776,-0.31045 0.903111,0 1.608666,0.31045 0.719666,0.31044 1.213554,0.84666 0.508,0.52211 0.776111,1.21356 0.268111,0.69144 0.268111,1.46755 0,0.762 -0.268111,1.45344 -0.268111,0.69145 -0.762,1.22767 -0.493888,0.52211 -1.213554,0.83256 -0.719666,0.31044 -1.622777,0.31044 z m -1.93322,-3.82411 q 0,0.49389 0.141111,0.90311 0.155222,0.39511 0.409222,0.69145 0.26811,0.29633 0.620888,0.46566 0.352777,0.15522 0.761999,0.15522 0.409222,0 0.762,-0.15522 0.352777,-0.16933 0.606777,-0.46566 0.268111,-0.29634 0.409222,-0.70556 0.155222,-0.40922 0.155222,-0.90311 0,-0.47978 -0.155222,-0.889 -0.141111,-0.40922 -0.409222,-0.70555 -0.254,-0.29634 -0.606777,-0.45156 -0.352778,-0.16933 -0.762,-0.16933 -0.409222,0 -0.761999,0.16933 -0.352778,0.16933 -0.620888,0.46567 -0.254,0.29633 -0.409222,0.70555 -0.141111,0.40922 -0.141111,0.889 z"
           style="font-style:normal;font-variant:normal;font-weight:bold;font-stretch:normal;font-size:14.1111px;font-family:Raleway;-inkscape-font-specification:'Raleway Bold';fill:#251d1d;fill-opacity:1;stroke-width:0.264583"
           id="path1736" />
        <path
           d="m 43.82316,263.89731 h -1.890887 v -4.14867 q 0,-0.88899 -0.310444,-1.29822 -0.310444,-0.40922 -0.846666,-0.40922 -0.550333,0 -1.044222,0.43745 -0.493888,0.42333 -0.705555,1.11477 v 4.30389 h -1.890887 v -4.14867 q 0,-0.88899 -0.310444,-1.29822 -0.296333,-0.40922 -0.832555,-0.40922 -0.550333,0 -1.058333,0.42333 -0.493888,0.42334 -0.705555,1.11478 v 4.318 h -1.890887 v -7.39422 h 1.707443 v 1.36878 q 0.409222,-0.71967 1.114777,-1.10067 0.719666,-0.39511 1.636888,-0.39511 0.931332,0 1.425221,0.45156 0.507999,0.45155 0.663221,1.11477 0.451556,-0.762 1.143,-1.15711 0.691443,-0.40922 1.580443,-0.40922 0.677333,0 1.114777,0.254 0.437444,0.254 0.677332,0.66322 0.239889,0.40923 0.324556,0.93134 0.09878,0.52211 0.09878,1.05833 z"
           style="font-style:normal;font-variant:normal;font-weight:bold;font-stretch:normal;font-size:14.1111px;font-family:Raleway;-inkscape-font-specification:'Raleway Bold';fill:#251d1d;fill-opacity:1;stroke-width:0.264583"
           id="path1738" />
        <path
           d="m 48.898747,264.03842 q -0.888999,0 -1.608665,-0.29633 -0.719667,-0.31045 -1.227666,-0.83256 -0.508,-0.52211 -0.790222,-1.21355 -0.268111,-0.69145 -0.268111,-1.45345 0,-0.79022 0.268111,-1.48166 0.268111,-0.70556 0.776111,-1.22767 0.507999,-0.53622 1.227665,-0.84666 0.733778,-0.31045 1.636888,-0.31045 0.903111,0 1.608666,0.31045 0.719666,0.31044 1.213554,0.83255 0.508,0.52211 0.762,1.21356 0.26811,0.69144 0.26811,1.43933 0,0.18344 -0.01411,0.35278 0,0.16933 -0.02822,0.28222 H 47.00786 q 0.04233,0.43744 0.211666,0.77611 0.169333,0.33866 0.437444,0.57855 0.268111,0.23989 0.606778,0.36689 0.338666,0.127 0.705555,0.127 0.564444,0 1.058332,-0.26811 0.508,-0.28222 0.691444,-0.73378 l 1.622776,0.45156 q -0.409221,0.84666 -1.312332,1.397 -0.888999,0.53622 -2.130776,0.53622 z m 1.91911,-4.45911 q -0.07056,-0.83255 -0.620889,-1.32644 -0.536222,-0.508 -1.312332,-0.508 -0.381,0 -0.719666,0.14111 -0.324556,0.127 -0.578555,0.36689 -0.254,0.23989 -0.423333,0.57855 -0.155222,0.33867 -0.183445,0.74789 z"
           style="font-style:normal;font-variant:normal;font-weight:bold;font-stretch:normal;font-size:14.1111px;font-family:Raleway;-inkscape-font-specification:'Raleway Bold';fill:#251d1d;fill-opacity:1;stroke-width:0.264583"
           id="path1740" />
        <path
           d="m 60.788894,263.89731 h -1.890888 v -4.14867 q 0,-0.88899 -0.310444,-1.29822 -0.310444,-0.40922 -0.860777,-0.40922 -0.282222,0 -0.578555,0.11289 -0.296333,0.11289 -0.564444,0.32456 -0.254,0.19755 -0.465667,0.47977 -0.211666,0.28223 -0.310444,0.62089 v 4.318 h -1.890887 v -7.39422 h 1.707443 v 1.36878 q 0.409222,-0.70556 1.185332,-1.10067 0.776111,-0.39511 1.749777,-0.39511 0.691444,0 1.128888,0.254 0.437444,0.254 0.677333,0.66322 0.239888,0.40923 0.324555,0.93134 0.09878,0.52211 0.09878,1.05833 z"
           style="font-style:normal;font-variant:normal;font-weight:bold;font-stretch:normal;font-size:14.1111px;font-family:Raleway;-inkscape-font-specification:'Raleway Bold';fill:#251d1d;fill-opacity:1;stroke-width:0.264583"
           id="path1742" />
        <path
           d="m 66.822932,263.51631 q -0.381,0.16933 -0.945444,0.33867 -0.550333,0.16933 -1.15711,0.16933 -0.395111,0 -0.747889,-0.0988 -0.338666,-0.0988 -0.606777,-0.31044 -0.254,-0.22578 -0.409222,-0.56445 -0.155222,-0.35278 -0.155222,-0.84666 v -4.24744 h -0.959555 v -1.45345 h 0.959555 v -2.39889 h 1.890888 v 2.39889 h 1.566332 v 1.45345 h -1.566332 v 3.61244 q 0,0.39511 0.211666,0.56444 0.211667,0.15522 0.508,0.15522 0.296333,0 0.578555,-0.0988 0.282222,-0.0988 0.451555,-0.16934 z"
           style="font-style:normal;font-variant:normal;font-weight:bold;font-stretch:normal;font-size:14.1111px;font-family:Raleway;-inkscape-font-specification:'Raleway Bold';fill:#251d1d;fill-opacity:1;stroke-width:0.264583"
           id="path1744" />
        <path
           d="m 69.811839,264.03842 q -0.536222,0 -1.001889,-0.16933 -0.465666,-0.18345 -0.804332,-0.49389 -0.338667,-0.32456 -0.536222,-0.74789 -0.183444,-0.42333 -0.183444,-0.93133 0,-0.52211 0.225777,-0.95956 0.239889,-0.45155 0.649111,-0.762 0.423333,-0.31044 1.001888,-0.47977 0.578555,-0.18345 1.269999,-0.18345 0.493888,0 0.959555,0.0847 0.479777,0.0847 0.846666,0.23989 v -0.42334 q 0,-0.73377 -0.423333,-1.12888 -0.409222,-0.39512 -1.227666,-0.39512 -0.592666,0 -1.15711,0.21167 -0.564444,0.21167 -1.15711,0.62089 l -0.578555,-1.19944 q 1.425221,-0.94545 3.076219,-0.94545 1.594555,0 2.469443,0.79022 0.888999,0.77611 0.888999,2.25778 v 2.30011 q 0,0.29633 0.112889,0.42333 0.112889,0.127 0.395111,0.14111 v 1.60867 q -0.268111,0.0564 -0.508,0.0705 -0.225777,0.0282 -0.395111,0.0282 -0.536221,-0.0141 -0.818443,-0.23989 -0.282222,-0.23989 -0.352778,-0.635 l -0.04233,-0.40922 q -0.493889,0.64911 -1.199444,0.98777 -0.705555,0.33867 -1.509887,0.33867 z m 0.536221,-1.38289 q 0.479778,0 0.903111,-0.16933 0.437444,-0.16933 0.677333,-0.45156 0.310444,-0.23989 0.310444,-0.53622 v -0.84666 q -0.338667,-0.127 -0.733777,-0.19756 -0.395111,-0.0847 -0.762,-0.0847 -0.733777,0 -1.199443,0.33867 -0.465667,0.32456 -0.465667,0.83255 0,0.47978 0.366889,0.80434 0.366889,0.31044 0.90311,0.31044 z m 0.917222,-7.01322 -1.213555,-0.36688 0.762,-1.67922 h 1.763887 z"
           style="font-style:normal;font-variant:normal;font-weight:bold;font-stretch:normal;font-size:14.1111px;font-family:Raleway;-inkscape-font-specification:'Raleway Bold';fill:#251d1d;fill-opacity:1;stroke-width:0.264583"
           id="path1746" />
      </g>
      <g
         aria-label="Comentá"
         id="text936"
         style="font-style:normal;font-variant:normal;font-weight:bold;font-stretch:normal;font-size:14.1111px;line-height:1.25;font-family:Raleway;-inkscape-font-specification:'Raleway Bold';fill:#ffffff;fill-opacity:1;stroke-width:0.264583">
        <path
           d="m 14.556298,258.28814 q 0,-0.91722 0.324556,-1.80622 0.324555,-0.90311 0.931332,-1.60867 0.620889,-0.70555 1.509888,-1.143 0.888999,-0.43744 2.031998,-0.43744 1.340555,0 2.314221,0.60678 0.987777,0.60677 1.453443,1.58044 l -1.495777,1.03011 q -0.169333,-0.42333 -0.437444,-0.70556 -0.268111,-0.29633 -0.592666,-0.46566 -0.310444,-0.16934 -0.649111,-0.23989 -0.338666,-0.0847 -0.64911,-0.0847 -0.691444,0 -1.213555,0.29634 -0.52211,0.29633 -0.874888,0.77611 -0.338666,0.46566 -0.522111,1.07244 -0.169333,0.59267 -0.169333,1.18533 0,0.66322 0.197556,1.28411 0.211666,0.60678 0.578555,1.07245 0.380999,0.46566 0.90311,0.74788 0.522111,0.28223 1.142999,0.28223 0.324555,0 0.663222,-0.0847 0.338666,-0.0847 0.64911,-0.26811 0.324556,-0.18345 0.592667,-0.46567 0.268111,-0.29633 0.437444,-0.70555 l 1.594554,0.91722 q -0.225777,0.56444 -0.663222,1.00189 -0.423333,0.42333 -0.973665,0.71966 -0.550333,0.29634 -1.157111,0.45156 -0.606777,0.15522 -1.199443,0.15522 -1.044222,0 -1.91911,-0.45156 -0.860777,-0.45155 -1.495776,-1.17122 -0.620889,-0.73377 -0.973666,-1.651 -0.338667,-0.93133 -0.338667,-1.89088 z"
           style="font-style:normal;font-variant:normal;font-weight:bold;font-stretch:normal;font-size:14.1111px;font-family:Raleway;-inkscape-font-specification:'Raleway Bold';fill:#ffffff;fill-opacity:1;stroke-width:0.264583"
           id="path1749" />
        <path
           d="m 27.751059,263.50924 q -0.903111,0 -1.622777,-0.31044 -0.719666,-0.31044 -1.227666,-0.83255 -0.493888,-0.53623 -0.761999,-1.22767 -0.268111,-0.69144 -0.268111,-1.45344 0,-0.77611 0.268111,-1.46756 0.268111,-0.69144 0.761999,-1.21355 0.508,-0.53622 1.227666,-0.84667 0.719666,-0.31044 1.622777,-0.31044 0.90311,0 1.608665,0.31044 0.719666,0.31045 1.213555,0.84667 0.507999,0.52211 0.77611,1.21355 0.268111,0.69145 0.268111,1.46756 0,0.762 -0.268111,1.45344 -0.268111,0.69144 -0.761999,1.22767 -0.493889,0.52211 -1.213555,0.83255 -0.719666,0.31044 -1.622776,0.31044 z m -1.933221,-3.8241 q 0,0.49388 0.141111,0.90311 0.155222,0.39511 0.409222,0.69144 0.268111,0.29633 0.620888,0.46567 0.352778,0.15522 0.762,0.15522 0.409221,0 0.761999,-0.15522 0.352777,-0.16934 0.606777,-0.46567 0.268111,-0.29633 0.409222,-0.70555 0.155222,-0.40923 0.155222,-0.90311 0,-0.47978 -0.155222,-0.889 -0.141111,-0.40923 -0.409222,-0.70556 -0.254,-0.29633 -0.606777,-0.45155 -0.352778,-0.16934 -0.761999,-0.16934 -0.409222,0 -0.762,0.16934 -0.352777,0.16933 -0.620888,0.46566 -0.254,0.29634 -0.409222,0.70556 -0.141111,0.40922 -0.141111,0.889 z"
           style="font-style:normal;font-variant:normal;font-weight:bold;font-stretch:normal;font-size:14.1111px;font-family:Raleway;-inkscape-font-specification:'Raleway Bold';fill:#ffffff;fill-opacity:1;stroke-width:0.264583"
           id="path1751" />
        <path
           d="m 44.352327,263.36813 h -1.890888 v -4.14866 q 0,-0.889 -0.310444,-1.29822 -0.310444,-0.40922 -0.846666,-0.40922 -0.550333,0 -1.044221,0.43744 -0.493889,0.42333 -0.705555,1.11478 v 4.30388 h -1.890888 v -4.14866 q 0,-0.889 -0.310444,-1.29822 -0.296333,-0.40922 -0.832555,-0.40922 -0.550333,0 -1.058332,0.42333 -0.493889,0.42333 -0.705555,1.11478 v 4.31799 h -1.890888 v -7.39421 h 1.707443 v 1.36877 q 0.409222,-0.71966 1.114777,-1.10066 0.719666,-0.39511 1.636888,-0.39511 0.931332,0 1.425221,0.45155 0.508,0.45156 0.663222,1.11478 0.451555,-0.762 1.142999,-1.15711 0.691444,-0.40922 1.580443,-0.40922 0.677333,0 1.114777,0.254 0.437444,0.254 0.677333,0.66322 0.239888,0.40922 0.324555,0.93133 0.09878,0.52211 0.09878,1.05833 z"
           style="font-style:normal;font-variant:normal;font-weight:bold;font-stretch:normal;font-size:14.1111px;font-family:Raleway;-inkscape-font-specification:'Raleway Bold';fill:#ffffff;fill-opacity:1;stroke-width:0.264583"
           id="path1753" />
        <path
           d="m 49.427913,263.50924 q -0.888999,0 -1.608665,-0.29633 -0.719666,-0.31044 -1.227666,-0.83255 -0.508,-0.52211 -0.790222,-1.21356 -0.26811,-0.69144 -0.26811,-1.45344 0,-0.79022 0.26811,-1.48167 0.268111,-0.70555 0.776111,-1.22766 0.508,-0.53622 1.227666,-0.84667 0.733777,-0.31044 1.636887,-0.31044 0.903111,0 1.608666,0.31044 0.719666,0.31045 1.213554,0.83256 0.508,0.52211 0.762,1.21355 0.268111,0.69144 0.268111,1.43933 0,0.18345 -0.01411,0.35278 0,0.16933 -0.02822,0.28222 H 47.53703 q 0.04233,0.43745 0.211666,0.77611 0.169334,0.33867 0.437444,0.57856 0.268111,0.23989 0.606778,0.36689 0.338666,0.127 0.705555,0.127 0.564444,0 1.058332,-0.26811 0.508,-0.28223 0.691444,-0.73378 l 1.622777,0.45155 q -0.409222,0.84667 -1.312333,1.397 -0.888999,0.53622 -2.130776,0.53622 z m 1.91911,-4.4591 q -0.07056,-0.83256 -0.620889,-1.32645 -0.536221,-0.508 -1.312332,-0.508 -0.381,0 -0.719666,0.14111 -0.324555,0.127 -0.578555,0.36689 -0.254,0.23989 -0.423333,0.57856 -0.155222,0.33866 -0.183444,0.74789 z"
           style="font-style:normal;font-variant:normal;font-weight:bold;font-stretch:normal;font-size:14.1111px;font-family:Raleway;-inkscape-font-specification:'Raleway Bold';fill:#ffffff;fill-opacity:1;stroke-width:0.264583"
           id="path1755" />
        <path
           d="m 61.31806,263.36813 h -1.890888 v -4.14866 q 0,-0.889 -0.310444,-1.29822 -0.310444,-0.40922 -0.860777,-0.40922 -0.282222,0 -0.578555,0.11289 -0.296333,0.11288 -0.564444,0.32455 -0.254,0.19756 -0.465666,0.47978 -0.211667,0.28222 -0.310445,0.62089 v 4.31799 h -1.890887 v -7.39421 h 1.707443 v 1.36877 q 0.409222,-0.70555 1.185333,-1.10066 0.77611,-0.39511 1.749776,-0.39511 0.691444,0 1.128888,0.254 0.437444,0.254 0.677333,0.66322 0.239888,0.40922 0.324555,0.93133 0.09878,0.52211 0.09878,1.05833 z"
           style="font-style:normal;font-variant:normal;font-weight:bold;font-stretch:normal;font-size:14.1111px;font-family:Raleway;-inkscape-font-specification:'Raleway Bold';fill:#ffffff;fill-opacity:1;stroke-width:0.264583"
           id="path1757" />
        <path
           d="m 67.352098,262.98713 q -0.381,0.16934 -0.945444,0.33867 -0.550333,0.16933 -1.15711,0.16933 -0.395111,0 -0.747888,-0.0988 -0.338667,-0.0988 -0.606778,-0.31045 -0.253999,-0.22578 -0.409222,-0.56444 -0.155222,-0.35278 -0.155222,-0.84667 v -4.24744 h -0.959555 v -1.45344 h 0.959555 V 253.575 h 1.890888 v 2.39889 h 1.566332 v 1.45344 h -1.566332 v 3.61244 q 0,0.39511 0.211666,0.56445 0.211667,0.15522 0.508,0.15522 0.296333,0 0.578555,-0.0988 0.282222,-0.0988 0.451555,-0.16933 z"
           style="font-style:normal;font-variant:normal;font-weight:bold;font-stretch:normal;font-size:14.1111px;font-family:Raleway;-inkscape-font-specification:'Raleway Bold';fill:#ffffff;fill-opacity:1;stroke-width:0.264583"
           id="path1759" />
        <path
           d="m 70.341005,263.50924 q -0.536222,0 -1.001888,-0.16933 -0.465667,-0.18344 -0.804333,-0.49389 -0.338666,-0.32455 -0.536222,-0.74789 -0.183444,-0.42333 -0.183444,-0.93133 0,-0.52211 0.225777,-0.95955 0.239889,-0.45156 0.649111,-0.762 0.423333,-0.31045 1.001888,-0.47978 0.578555,-0.18344 1.269999,-0.18344 0.493889,0 0.959555,0.0847 0.479777,0.0847 0.846666,0.23989 v -0.42333 q 0,-0.73378 -0.423333,-1.12889 -0.409222,-0.39511 -1.227666,-0.39511 -0.592666,0 -1.15711,0.21167 -0.564444,0.21166 -1.15711,0.62088 L 68.22434,256.7924 q 1.425221,-0.94544 3.07622,-0.94544 1.594554,0 2.469442,0.79022 0.888999,0.77611 0.888999,2.25777 v 2.30011 q 0,0.29634 0.112889,0.42334 0.112889,0.127 0.395111,0.14111 v 1.60866 q -0.268111,0.0564 -0.508,0.0706 -0.225777,0.0282 -0.39511,0.0282 -0.536222,-0.0141 -0.818444,-0.23989 -0.282222,-0.23989 -0.352778,-0.635 l -0.04233,-0.40922 q -0.493888,0.64911 -1.199443,0.98778 -0.705555,0.33866 -1.509888,0.33866 z m 0.536222,-1.38288 q 0.479777,0 0.90311,-0.16934 0.437444,-0.16933 0.677333,-0.45155 0.310444,-0.23989 0.310444,-0.53622 v -0.84667 q -0.338666,-0.127 -0.733777,-0.19755 -0.395111,-0.0847 -0.762,-0.0847 -0.733777,0 -1.199443,0.33866 -0.465666,0.32456 -0.465666,0.83256 0,0.47978 0.366888,0.80433 0.366889,0.31045 0.903111,0.31045 z m 0.917221,-7.01322 -1.213555,-0.36689 0.762,-1.67922 h 1.763887 z"
           style="font-style:normal;font-variant:normal;font-weight:bold;font-stretch:normal;font-size:14.1111px;font-family:Raleway;-inkscape-font-specification:'Raleway Bold';fill:#ffffff;fill-opacity:1;stroke-width:0.264583"
           id="path1761" />
      </g>
    </g>
  </g>
</svg>
