<?xml version="1.0" encoding="UTF-8" standalone="no"?>
<svg
   xmlns:dc="http://purl.org/dc/elements/1.1/"
   xmlns:cc="http://creativecommons.org/ns#"
   xmlns:rdf="http://www.w3.org/1999/02/22-rdf-syntax-ns#"
   xmlns:svg="http://www.w3.org/2000/svg"
   xmlns="http://www.w3.org/2000/svg"
   xmlns:sodipodi="http://sodipodi.sourceforge.net/DTD/sodipodi-0.dtd"
   xmlns:inkscape="http://www.inkscape.org/namespaces/inkscape"
   width="157.561"
   height="43.195"
   viewBox="0 0 41.688015 11.428677"
   version="1.1"
   id="svg2081"
   inkscape:version="1.0.1 (3bc2e813f5, 2020-09-07)"
   sodipodi:docname="etiquetas.svg">
  <defs
     id="defs2075" />
  <sodipodi:namedview
     id="base"
     pagecolor="#ffffff"
     bordercolor="#666666"
     borderopacity="1.0"
     inkscape:pageopacity="0.0"
     inkscape:pageshadow="2"
     inkscape:zoom="4.4024372"
     inkscape:cx="74.640681"
     inkscape:cy="47.327358"
     inkscape:document-units="px"
     inkscape:current-layer="layer1"
     inkscape:document-rotation="0"
     showgrid="false"
     units="px"
     showguides="true"
     inkscape:guide-bbox="true"
     inkscape:window-width="1366"
     inkscape:window-height="704"
     inkscape:window-x="0"
     inkscape:window-y="27"
     inkscape:window-maximized="1">
    <sodipodi:guide
       position="89.356532,11.421341"
       orientation="0,-1"
       id="guide2749" />
    <sodipodi:guide
       position="72.605737,-0.51266836"
       orientation="0,-1"
       id="guide2751" />
  </sodipodi:namedview>
  <metadata
     id="metadata2078">
    <rdf:RDF>
      <cc:Work
         rdf:about="">
        <dc:format>image/svg+xml</dc:format>
        <dc:type
           rdf:resource="http://purl.org/dc/dcmitype/StillImage" />
        <dc:title />
      </cc:Work>
    </rdf:RDF>
  </metadata>
  <g
     inkscape:label="Layer 1"
     inkscape:groupmode="layer"
     id="layer1"
     transform="translate(1.9112219,-55.149397)">
    <g
       id="g2717"
       transform="matrix(0.60753721,0,0,0.60753721,12.684783,21.644086)">
      <path
         id="path1861"
         style="color:#000000;font-style:normal;font-variant:normal;font-weight:bold;font-stretch:normal;font-size:14.1111px;line-height:1.25;font-family:Raleway;-inkscape-font-specification:'Raleway Bold';font-variant-ligatures:normal;font-variant-position:normal;font-variant-caps:normal;font-variant-numeric:normal;font-variant-alternates:normal;font-variant-east-asian:normal;font-feature-settings:normal;font-variation-settings:normal;text-indent:0;text-align:start;text-decoration:none;text-decoration-line:none;text-decoration-style:solid;text-decoration-color:#000000;letter-spacing:normal;word-spacing:normal;text-transform:none;writing-mode:lr-tb;direction:ltr;text-orientation:mixed;dominant-baseline:auto;baseline-shift:baseline;text-anchor:start;white-space:normal;shape-padding:0;shape-margin:0;inline-size:0;clip-rule:nonzero;display:inline;overflow:visible;visibility:visible;isolation:auto;mix-blend-mode:normal;color-interpolation:sRGB;color-interpolation-filters:linearRGB;solid-color:#000000;solid-opacity:1;vector-effect:none;fill:#000000;fill-opacity:1;fill-rule:nonzero;stroke:none;stroke-width:2.64999;stroke-linecap:butt;stroke-linejoin:miter;stroke-miterlimit:4;stroke-dasharray:none;stroke-dashoffset:0;stroke-opacity:1;color-rendering:auto;image-rendering:auto;shape-rendering:auto;text-rendering:auto;enable-background:accumulate;stop-color:#000000"
         d="m -7.5754904,55.149398 v 2.908351 5.29e-4 h -0.437184 v -2.400372 l -3.6664426,-5.29e-4 v -0.224792 h -9.478492 l -2.867265,2.865717 V 70.96833 h 9.607163 v -0.623226 c 0.0021,0.0026 0.004,0.0042 0.0062,0.0064 l 0.02894,0.0254 0.03152,0.02328 c 0.313002,0.247068 0.677056,0.432329 1.056783,0.54311 l 0.0057,0.0026 0.0078,0.0026 c 0.358886,0.100515 0.73151,0.148326 1.105358,0.148326 0.524423,0 1.042527,-0.0752 1.537375,-0.226351 5.29e-4,-1.86e-4 0.0013,2.11e-4 0.0021,0 0.069,-0.02064 0.128585,-0.0426 0.194821,-0.06355 v 0.162771 h 1.3244669 3.2168566 v -1.263994 c 0.3615,0.385207 0.780791,0.713343 1.247987,0.958057 l 0.0098,0.0058 0.01188,0.0042 c 0.583226,0.291597 1.23445,0.4377 1.890323,0.4377 h 1.214914 v 0.239765 c 0,0.68117 0.312671,1.425417 0.83198997,1.894973 0.493364,0.452358 1.189509,0.714692 1.84795103,0.714692 0.180192,0 0.36884,-0.01164 0.569989,-0.02945 0.0041,-2.12e-4 0.0078,-0.0026 0.01188,-0.0026 0.239001,-0.01191 0.46822,-0.03294 0.69143,-0.07234 l 1.095539,-0.193278 2.129071,-2.553335 c 0.927343,-0.09035 1.896178,-0.137292 2.47633,-0.680059 0.352309,0.474398 1.213461,0.63209 1.715141,0.636667 0.1708355,0 0.3399965,-0.01482 0.5136635,-0.03514 0.212858,-0.01508 0.434322,-0.06084 0.652156,-0.08578 0.818132,-0.09367 1.645014,-0.365974 2.458766,-0.239792 0.0035,5.45e-4 0.0098,0.0042 0.0098,0.0042 l 0.01188,0.0037 c 0.657399,0.270696 1.373674,0.396875 2.113565,0.396875 1.018572,0 1.987995,-0.228176 2.814299,-0.726572 l 0.0021,-0.0026 c 0,0 -0.348573,0.114644 0.0036,-0.0026 1.889868,-0.552 1.997548,0.162666 3.337779,0.56433 l 0.0062,0.0026 0.0078,0.0026 c 0.358886,0.100515 0.731509,0.148325 1.105358,0.148325 0.524422,0 1.042008,-0.07519 1.536856,-0.226351 5.29e-4,-1.85e-4 0.0013,2.12e-4 0.0021,0 0.413325,-0.124063 0.776132,-0.252174 1.101741,-0.396875 l 0.144693,-0.06408 c 0.254751,0.176821 0.528598,0.325755 0.818039,0.439764 l 0.0155,0.0058 0.01757,0.0061 c 0.463957,0.168725 0.958249,0.250137 1.455208,0.250137 0.855438,-0.04458 1.701908,-0.137742 2.244312,-0.60153 0.0011,0 7.94e-4,0.0026 0.0021,0.0037 l 0.0155,0.01191 0.01344,0.01402 c 0.49729,0.397854 1.07464,0.515064 1.611789,0.529166 h 0.01757 0.01757 c 0.165666,0 0.329615,-0.01588 0.497644,-0.03514 0.938898,-0.08737 1.58877,-0.477759 2.386933,-0.237702 0.361884,0.09869 0.72911,0.173725 1.101225,0.228415 l 0.0021,0.0026 h 0.0041 c 0.385257,0.05509 0.762659,0.08422 1.132748,0.08422 1.100328,0.01376 2.07799,-0.191029 3.023595,-0.88847 l 0.01188,-0.0077 0.01138,-0.0098 2.844046,-2.848321 0.01188,-0.0098 0.01188,-0.0082 c 0.405622,-0.318717 0.740103,-0.732631 0.968414,-1.197345 0.247261,-0.484532 0.369488,-1.027615 0.369488,-1.566307 0,-0.45928 -0.09041,-0.931458 -0.310575,-1.368917 -0.213686,-0.449203 -0.553033,-0.816932 -0.935806,-1.086042 l 0.0021,-0.0041 c -0.0035,-0.003 -0.0079,-0.0027 -0.01138,-0.0057 -0.0026,-0.0021 -0.0035,-0.0063 -0.0062,-0.0083 l 0.01757,0.01394 1.564762,-2.361613 -1.154452,-0.720367 c -0.54883,-0.343031 -1.144774,-0.608945 -1.773506,-0.800977 -0.639041,-0.20745 -1.299144,-0.318326 -1.962672,-0.318326 l -5.29e-4,0.0011 c -0.541112,0 -1.070261,0.0734 -1.574062,0.22841 l -0.0057,0.0021 h -0.0041 c -0.496445,0.156755 -0.962014,0.399164 -1.367374,0.720362 -0.364681,0.287269 -0.668317,0.649952 -0.896586,1.054201 -0.192275,-0.320011 -0.424381,-0.61405 -0.708485,-0.863513 -0.879581,-0.789659 -2.069841,-1.124997 -3.347599,-1.124997 v -0.0011 c -1.115554,0 -2.199039,0.279405 -3.187919,0.802018 V 58.058175 H 27.043868 V 55.657803 H 22.50306 v 2.400372 h -0.959114 v 0.811318 c -0.285436,-0.201105 -0.592021,-0.375105 -0.917774,-0.516247 -0.0013,-5.29e-4 -0.0029,5.29e-4 -0.0041,0 -0.660221,-0.28983 -1.385822,-0.42168 -2.138398,-0.42168 v -5.29e-4 c -0.753898,0 -1.483487,0.130948 -2.152322,0.413927 l -0.0041,0.0021 -0.0057,0.0021 c -0.628234,0.271 -1.193493,0.659091 -1.658297,1.14825 -0.07716,0.07969 -0.147264,0.165883 -0.218591,0.250629 V 58.058266 H 4.8664376 v 0.0011 h -3.285382 v 0.20308 c -0.410101,-0.12369 -0.794885,-0.330213 -1.228349,-0.330213 l -5.29e-4,-0.0011 c -0.667554,0 -1.329031,0.139848 -1.929598,0.420129 -0.550307,0.256805 -1.043348,0.621586 -1.456759,1.065567 v -1.35857 -2.90835 z m 10.095508,3.358452 0.01603,0.01085 c -0.0024,-0.0011 -0.0054,-5.29e-4 -0.0078,-0.0021 -0.0034,-0.0016 -0.0054,-0.0058 -0.0083,-0.0088 z"
         sodipodi:nodetypes="ccccccccccccccccccsscccccccccscscsccccccccaaccsccccccsscccccccccccccscccccccccccccscccccccccccccccccccccccccccscccccccccccccccsccccccccc" />
      <g
         aria-label="Etiquetas"
         id="text2060"
         style="font-style:normal;font-variant:normal;font-weight:bold;font-stretch:normal;font-size:14.1111px;line-height:1.25;font-family:Raleway;-inkscape-font-specification:'Raleway Bold';fill:#251d1d;fill-opacity:1;stroke-width:0.264583">
        <path
           d="m -13.405741,65.597687 v 1.707443 h -6.956772 V 57.286249 h 6.829772 v 1.707443 h -4.88244 v 2.412998 h 4.219219 v 1.580443 h -4.219219 v 2.610554 z"
           style="font-style:normal;font-variant:normal;font-weight:bold;font-stretch:normal;font-size:14.1111px;font-family:Raleway;-inkscape-font-specification:'Raleway Bold';fill:#251d1d;fill-opacity:1;stroke-width:0.264583"
           id="path2677" />
        <path
           d="m -7.7366062,66.92413 q -0.3809997,0.169334 -0.9454438,0.338667 -0.5503329,0.169333 -1.1571102,0.169333 -0.3951108,0 -0.7478878,-0.09878 -0.338667,-0.09878 -0.606778,-0.310444 -0.254,-0.225778 -0.409222,-0.564444 -0.155222,-0.352778 -0.155222,-0.846666 v -4.247441 h -0.959555 v -1.453443 h 0.959555 v -2.398888 h 1.8908876 v 2.398888 h 1.5663322 v 1.453443 h -1.5663322 v 3.612441 q 0,0.395111 0.2116665,0.564444 0.2116665,0.155223 0.5079996,0.155223 0.2963331,0 0.5785551,-0.09878 0.2822221,-0.09878 0.4515553,-0.169333 z"
           style="font-style:normal;font-variant:normal;font-weight:bold;font-stretch:normal;font-size:14.1111px;font-family:Raleway;-inkscape-font-specification:'Raleway Bold';fill:#251d1d;fill-opacity:1;stroke-width:0.264583"
           id="path2679" />
        <path
           d="m -6.7796977,67.30513 v -7.394216 h 1.8908874 v 7.394216 z m 0,-8.424327 v -1.876776 h 1.8908874 v 1.876776 z"
           style="font-style:normal;font-variant:normal;font-weight:bold;font-stretch:normal;font-size:14.1111px;font-family:Raleway;-inkscape-font-specification:'Raleway Bold';fill:#251d1d;fill-opacity:1;stroke-width:0.264583"
           id="path2681" />
        <path
           d="m -0.40280272,67.446241 q -0.70555498,0 -1.29822118,-0.296333 -0.5926662,-0.310444 -1.0301103,-0.832555 -0.4233331,-0.522111 -0.6632218,-1.213555 -0.2398887,-0.705555 -0.2398887,-1.509887 0,-0.804333 0.2539998,-1.495777 0.2681109,-0.691444 0.7337773,-1.199443 0.4656663,-0.522111 1.1006658,-0.818444 0.63499948,-0.296333 1.36877669,-0.296333 0.84666601,0 1.49577661,0.39511 0.6491106,0.381 1.0583325,1.016 v -1.28411 h 1.6509987 v 8.127993 q 0,0.310444 0.1128888,0.423333 0.1128888,0.127 0.3951109,0.141111 v 1.608666 q -0.2398888,0.04233 -0.5362219,0.05644 -0.2963331,0.02822 -0.5079996,0.02822 -0.564444,0 -0.9595548,-0.366888 -0.3951108,-0.352778 -0.3951108,-0.917222 v -3.005664 q -0.4092219,0.719666 -1.0583325,1.086555 -0.64911061,0.352777 -1.48166552,0.352777 z m 0.70555501,-1.608665 q 0.60677731,0 1.05833251,-0.338667 Q 1.81264,65.160243 2.1371953,64.624021 V 62.874245 Q 2.0525287,62.5638 1.8549733,62.295689 1.671529,62.027579 1.4175292,61.830023 1.1635294,61.618357 0.8671963,61.505468 0.5708632,61.392579 0.27453009,61.392579 q -0.4374441,0 -0.80433271,0.183444 -0.3527775,0.183445 -0.62088838,0.508 -0.2539998,0.310444 -0.4092219,0.719666 -0.141111,0.409222 -0.141111,0.846666 0,0.465666 0.141111,0.860777 0.1552221,0.395111 0.4092219,0.691444 0.26811088,0.296333 0.63499948,0.465666 0.36688861,0.169334 0.81844381,0.169334 z"
           style="font-style:normal;font-variant:normal;font-weight:bold;font-stretch:normal;font-size:14.1111px;font-family:Raleway;-inkscape-font-specification:'Raleway Bold';fill:#251d1d;fill-opacity:1;stroke-width:0.264583"
           id="path2683" />
        <path
           d="m 7.9906553,67.446241 q -1.1429991,0 -1.7356653,-0.733777 -0.5926662,-0.733777 -0.5926662,-2.17311 v -4.62844 h 1.8908874 v 4.219218 q 0,1.707444 1.2276658,1.707444 0.564444,0 1.0724436,-0.324556 0.5221104,-0.338666 0.8466664,-1.015999 v -4.586107 h 1.890887 v 5.221107 q 0,0.296333 0.112889,0.423333 0.112889,0.126999 0.395111,0.141111 v 1.608665 q -0.296333,0.05644 -0.522111,0.07056 -0.225778,0.02822 -0.395111,0.02822 -0.508,0 -0.804333,-0.225778 -0.282222,-0.239889 -0.352777,-0.649111 l -0.04233,-0.606777 q -0.508,0.762 -1.2841105,1.142999 -0.7619994,0.381 -1.7074432,0.381 z"
           style="font-style:normal;font-variant:normal;font-weight:bold;font-stretch:normal;font-size:14.1111px;font-family:Raleway;-inkscape-font-specification:'Raleway Bold';fill:#251d1d;fill-opacity:1;stroke-width:0.264583"
           id="path2685" />
        <path
           d="m 17.940306,67.446241 q -0.888999,0 -1.608665,-0.296333 -0.719666,-0.310444 -1.227666,-0.832555 -0.508,-0.522111 -0.790222,-1.213555 -0.26811,-0.691444 -0.26811,-1.453443 0,-0.790222 0.26811,-1.481665 0.268111,-0.705555 0.776111,-1.227666 0.508,-0.536222 1.227666,-0.846666 0.733777,-0.310444 1.636887,-0.310444 0.903111,0 1.608666,0.310444 0.719666,0.310444 1.213554,0.832555 0.508,0.52211 0.762,1.213554 0.268111,0.691444 0.268111,1.439333 0,0.183444 -0.01411,0.352777 0,0.169333 -0.02822,0.282222 h -5.714995 q 0.04233,0.437444 0.211666,0.776111 0.169334,0.338666 0.437444,0.578555 0.268111,0.239888 0.606778,0.366888 0.338666,0.127 0.705555,0.127 0.564444,0 1.058332,-0.268111 0.508,-0.282222 0.691444,-0.733777 l 1.622777,0.451555 q -0.409222,0.846666 -1.312333,1.396999 -0.888999,0.536222 -2.130776,0.536222 z m 1.91911,-4.459108 q -0.07056,-0.832555 -0.620889,-1.326443 -0.536221,-0.508 -1.312332,-0.508 -0.381,0 -0.719666,0.141111 -0.324555,0.127 -0.578555,0.366889 -0.254,0.239889 -0.423333,0.578555 -0.155222,0.338666 -0.183444,0.747888 z"
           style="font-style:normal;font-variant:normal;font-weight:bold;font-stretch:normal;font-size:14.1111px;font-family:Raleway;-inkscape-font-specification:'Raleway Bold';fill:#251d1d;fill-opacity:1;stroke-width:0.264583"
           id="path2687" />
        <path
           d="m 27.320658,66.92413 q -0.381,0.169334 -0.945444,0.338667 -0.550333,0.169333 -1.15711,0.169333 -0.395111,0 -0.747888,-0.09878 -0.338667,-0.09878 -0.606777,-0.310444 -0.254,-0.225778 -0.409222,-0.564444 -0.155222,-0.352778 -0.155222,-0.846666 V 61.364357 H 22.33944 v -1.453443 h 0.959555 v -2.398888 h 1.890887 v 2.398888 h 1.566332 v 1.453443 h -1.566332 v 3.612441 q 0,0.395111 0.211666,0.564444 0.211667,0.155223 0.508,0.155223 0.296333,0 0.578555,-0.09878 0.282222,-0.09878 0.451555,-0.169333 z"
           style="font-style:normal;font-variant:normal;font-weight:bold;font-stretch:normal;font-size:14.1111px;font-family:Raleway;-inkscape-font-specification:'Raleway Bold';fill:#251d1d;fill-opacity:1;stroke-width:0.264583"
           id="path2689" />
        <path
           d="m 30.309565,67.446241 q -0.536222,0 -1.001888,-0.169333 -0.465666,-0.183444 -0.804333,-0.493889 -0.338666,-0.324555 -0.536222,-0.747888 -0.183444,-0.423333 -0.183444,-0.931333 0,-0.52211 0.225778,-0.959554 0.239888,-0.451556 0.64911,-0.762 0.423333,-0.310444 1.001888,-0.479777 0.578556,-0.183445 1.269999,-0.183445 0.493889,0 0.959555,0.08467 0.479778,0.08467 0.846666,0.239889 v -0.423333 q 0,-0.733777 -0.423333,-1.128888 -0.409222,-0.395111 -1.227665,-0.395111 -0.592667,0 -1.157111,0.211666 -0.564444,0.211667 -1.15711,0.620889 L 28.1929,60.729357 q 1.425221,-0.945443 3.07622,-0.945443 1.594554,0 2.469442,0.790221 0.889,0.776111 0.889,2.257776 v 2.30011 q 0,0.296333 0.112888,0.423333 0.112889,0.126999 0.395111,0.141111 v 1.608665 q -0.268111,0.05644 -0.507999,0.07056 -0.225778,0.02822 -0.395111,0.02822 -0.536222,-0.01411 -0.818444,-0.239889 -0.282222,-0.239889 -0.352777,-0.635 L 33.0189,66.1198 q -0.493888,0.64911 -1.199443,0.987777 -0.705555,0.338666 -1.509888,0.338666 z m 0.536222,-1.382888 q 0.479777,0 0.90311,-0.169333 0.437444,-0.169333 0.677333,-0.451555 0.310444,-0.239889 0.310444,-0.536222 v -0.846666 q -0.338666,-0.127 -0.733777,-0.197555 -0.395111,-0.08467 -0.761999,-0.08467 -0.733778,0 -1.199444,0.338666 -0.465666,0.324556 -0.465666,0.832555 0,0.479778 0.366888,0.804333 0.366889,0.310444 0.903111,0.310444 z"
           style="font-style:normal;font-variant:normal;font-weight:bold;font-stretch:normal;font-size:14.1111px;font-family:Raleway;-inkscape-font-specification:'Raleway Bold';fill:#251d1d;fill-opacity:1;stroke-width:0.264583"
           id="path2691" />
        <path
           d="m 39.356546,67.446241 q -0.451555,0 -0.945444,-0.07055 -0.479777,-0.07056 -0.945443,-0.197556 -0.465667,-0.127 -0.889,-0.310444 -0.423333,-0.183444 -0.747888,-0.409222 l 0.762,-1.28411 q 1.41111,0.917221 2.723442,0.917221 0.592666,0 0.931333,-0.211666 0.338666,-0.211667 0.338666,-0.606777 0,-0.395111 -0.409222,-0.578556 -0.395111,-0.197555 -1.340555,-0.423333 -0.719666,-0.169333 -1.227665,-0.352777 -0.508,-0.183444 -0.818444,-0.423333 -0.310444,-0.239889 -0.451555,-0.550333 -0.141111,-0.310444 -0.141111,-0.733777 0,-0.564444 0.225777,-1.015999 0.225778,-0.451556 0.620889,-0.762 0.409222,-0.324555 0.945443,-0.493888 0.550333,-0.169334 1.185333,-0.169334 0.790222,0 1.566332,0.254 0.790222,0.239889 1.467554,0.663222 l -0.77611,1.171221 q -0.620888,-0.39511 -1.171221,-0.564444 -0.550333,-0.183444 -1.100666,-0.183444 -0.508,0 -0.860777,0.197555 -0.338667,0.197556 -0.338667,0.635 0,0.381 0.324556,0.550333 0.338666,0.169333 1.185332,0.381 0.790222,0.197555 1.340555,0.39511 0.564444,0.197556 0.917221,0.451556 0.366889,0.253999 0.522111,0.592666 0.169333,0.324555 0.169333,0.790221 0,0.536222 -0.225778,0.973666 -0.211666,0.437444 -0.606777,0.747889 -0.395111,0.296333 -0.973666,0.465666 -0.564444,0.155222 -1.255888,0.155222 z"
           style="font-style:normal;font-variant:normal;font-weight:bold;font-stretch:normal;font-size:14.1111px;font-family:Raleway;-inkscape-font-specification:'Raleway Bold';fill:#251d1d;fill-opacity:1;stroke-width:0.264583"
           id="path2693" />
      </g>
      <g
         aria-label="Etiquetas"
         id="text1804"
         style="font-style:normal;font-variant:normal;font-weight:bold;font-stretch:normal;font-size:14.1111px;line-height:1.25;font-family:Raleway;-inkscape-font-specification:'Raleway Bold';fill:#ffffff;fill-opacity:1;stroke-width:0.264583">
        <path
           d="m -12.876575,65.068512 v 1.707443 h -6.956773 V 56.757074 h 6.829773 v 1.707443 h -4.882441 v 2.412998 h 4.219219 v 1.580444 h -4.219219 v 2.610553 z"
           style="font-style:normal;font-variant:normal;font-weight:bold;font-stretch:normal;font-size:14.1111px;font-family:Raleway;-inkscape-font-specification:'Raleway Bold';fill:#ffffff;fill-opacity:1;stroke-width:0.264583"
           id="path2658" />
        <path
           d="m -7.207441,66.394955 q -0.3809997,0.169334 -0.9454437,0.338667 -0.5503329,0.169333 -1.1571102,0.169333 -0.3951108,0 -0.7478881,-0.09878 -0.338667,-0.09878 -0.606778,-0.310444 -0.253999,-0.225777 -0.409221,-0.564444 -0.155223,-0.352777 -0.155223,-0.846666 V 60.83518 h -0.959554 v -1.453443 h 0.959554 V 56.98285 h 1.8908879 v 2.398887 h 1.5663321 v 1.453443 h -1.5663321 v 3.612442 q 0,0.39511 0.2116665,0.564444 0.2116665,0.155222 0.5079996,0.155222 0.2963331,0 0.5785551,-0.09878 0.282222,-0.09878 0.4515552,-0.169333 z"
           style="font-style:normal;font-variant:normal;font-weight:bold;font-stretch:normal;font-size:14.1111px;font-family:Raleway;-inkscape-font-specification:'Raleway Bold';fill:#ffffff;fill-opacity:1;stroke-width:0.264583"
           id="path2660" />
        <path
           d="m -6.2505325,66.775955 v -7.394216 h 1.8908875 v 7.394216 z m 0,-8.424327 v -1.876776 h 1.8908875 v 1.876776 z"
           style="font-style:normal;font-variant:normal;font-weight:bold;font-stretch:normal;font-size:14.1111px;font-family:Raleway;-inkscape-font-specification:'Raleway Bold';fill:#ffffff;fill-opacity:1;stroke-width:0.264583"
           id="path2662" />
        <path
           d="m 0.12636255,66.917066 q -0.70555501,0 -1.29822125,-0.296333 -0.5926662,-0.310444 -1.0301103,-0.832555 -0.423333,-0.522111 -0.6632217,-1.213554 -0.2398887,-0.705555 -0.2398887,-1.509888 0,-0.804333 0.2539998,-1.495777 0.2681109,-0.691444 0.7337772,-1.199443 0.4656663,-0.522111 1.1006658,-0.818444 0.63499954,-0.296333 1.36877675,-0.296333 0.84666605,0 1.49577665,0.395111 0.6491106,0.380999 1.0583325,1.015999 v -1.28411 H 4.557248 v 8.127993 q 0,0.310445 0.1128888,0.423333 0.1128888,0.127 0.3951108,0.141111 v 1.608666 q -0.2398887,0.04233 -0.5362218,0.05644 -0.2963331,0.02822 -0.5079996,0.02822 -0.564444,0 -0.9595548,-0.366888 Q 2.6663606,69.047842 2.6663606,68.483398 V 65.477734 Q 2.2571387,66.1974 1.6080281,66.564289 0.95891746,66.917066 0.12636255,66.917066 Z m 0.70555501,-1.608665 q 0.60677734,0 1.05833254,-0.338667 0.4515552,-0.338666 0.7761105,-0.874888 V 62.34507 Q 2.581694,62.034626 2.3841386,61.766515 2.2006943,61.498404 1.9466945,61.300848 1.6926947,61.089182 1.3963616,60.976293 1.1000285,60.863404 0.80369536,60.863404 q -0.43744411,0 -0.80433271104,0.183445 -0.35277750896,0.183444 -0.62088840896,0.507999 -0.2539998,0.310444 -0.40922194,0.719666 -0.141111,0.409222 -0.141111,0.846666 0,0.465667 0.141111,0.860777 0.15522214,0.395111 0.40922194,0.691444 0.2681109,0.296333 0.63499951,0.465667 0.3668886,0.169333 0.81844381,0.169333 z"
           style="font-style:normal;font-variant:normal;font-weight:bold;font-stretch:normal;font-size:14.1111px;font-family:Raleway;-inkscape-font-specification:'Raleway Bold';fill:#ffffff;fill-opacity:1;stroke-width:0.264583"
           id="path2664" />
        <path
           d="m 8.5198206,66.917066 q -1.1429991,0 -1.7356653,-0.733777 Q 6.1914891,65.449512 6.1914891,64.01018 v -4.628441 h 1.8908874 v 4.219219 q 0,1.707443 1.2276657,1.707443 0.564444,0 1.0724438,-0.324556 0.522111,-0.338666 0.846666,-1.015999 v -4.586107 h 1.890887 v 5.221107 q 0,0.296333 0.112889,0.423333 0.112889,0.127 0.395111,0.141111 v 1.608665 q -0.296333,0.05645 -0.522111,0.07056 -0.225777,0.02822 -0.395111,0.02822 -0.507999,0 -0.804332,-0.225778 -0.282222,-0.239888 -0.352778,-0.64911 l -0.04233,-0.606778 q -0.508,0.762 -1.28411,1.142999 -0.7619997,0.381 -1.7074434,0.381 z"
           style="font-style:normal;font-variant:normal;font-weight:bold;font-stretch:normal;font-size:14.1111px;font-family:Raleway;-inkscape-font-specification:'Raleway Bold';fill:#ffffff;fill-opacity:1;stroke-width:0.264583"
           id="path2666" />
        <path
           d="m 18.469471,66.917066 q -0.888999,0 -1.608665,-0.296333 -0.719666,-0.310444 -1.227666,-0.832555 -0.507999,-0.522111 -0.790221,-1.213554 -0.268111,-0.691444 -0.268111,-1.453444 0,-0.790221 0.268111,-1.481665 0.268111,-0.705555 0.77611,-1.227666 0.508,-0.536222 1.227666,-0.846666 0.733777,-0.310444 1.636888,-0.310444 0.90311,0 1.608665,0.310444 0.719666,0.310444 1.213555,0.832555 0.507999,0.522111 0.761999,1.213555 0.268111,0.691443 0.268111,1.439332 0,0.183444 -0.01411,0.352777 0,0.169333 -0.02822,0.282222 h -5.714996 q 0.04233,0.437444 0.211667,0.776111 0.169333,0.338666 0.437444,0.578555 0.268111,0.239889 0.606777,0.366888 0.338666,0.127 0.705555,0.127 0.564444,0 1.058333,-0.268111 0.507999,-0.282222 0.691443,-0.733777 l 1.622777,0.451555 q -0.409222,0.846666 -1.312332,1.396999 -0.889,0.536222 -2.130777,0.536222 z m 1.91911,-4.459107 q -0.07055,-0.832555 -0.620888,-1.326444 -0.536222,-0.507999 -1.312333,-0.507999 -0.380999,0 -0.719666,0.141111 -0.324555,0.126999 -0.578555,0.366888 -0.254,0.239889 -0.423333,0.578555 -0.155222,0.338667 -0.183444,0.747889 z"
           style="font-style:normal;font-variant:normal;font-weight:bold;font-stretch:normal;font-size:14.1111px;font-family:Raleway;-inkscape-font-specification:'Raleway Bold';fill:#ffffff;fill-opacity:1;stroke-width:0.264583"
           id="path2668" />
        <path
           d="m 27.849823,66.394955 q -0.380999,0.169334 -0.945443,0.338667 -0.550333,0.169333 -1.157111,0.169333 -0.39511,0 -0.747888,-0.09878 -0.338666,-0.09878 -0.606777,-0.310444 -0.254,-0.225777 -0.409222,-0.564444 Q 23.82816,65.57651 23.82816,65.082621 V 60.83518 H 22.868605 V 59.381737 H 23.82816 V 56.98285 h 1.890887 v 2.398887 h 1.566332 v 1.453443 h -1.566332 v 3.612442 q 0,0.39511 0.211667,0.564444 0.211666,0.155222 0.507999,0.155222 0.296333,0 0.578555,-0.09878 0.282222,-0.09878 0.451556,-0.169333 z"
           style="font-style:normal;font-variant:normal;font-weight:bold;font-stretch:normal;font-size:14.1111px;font-family:Raleway;-inkscape-font-specification:'Raleway Bold';fill:#ffffff;fill-opacity:1;stroke-width:0.264583"
           id="path2670" />
        <path
           d="m 30.83873,66.917066 q -0.536222,0 -1.001888,-0.169333 -0.465666,-0.183444 -0.804333,-0.493889 -0.338666,-0.324555 -0.536221,-0.747888 -0.183445,-0.423333 -0.183445,-0.931332 0,-0.522111 0.225778,-0.959555 0.239889,-0.451555 0.649111,-0.762 0.423333,-0.310444 1.001888,-0.479777 0.578555,-0.183444 1.269999,-0.183444 0.493888,0 0.959555,0.08467 0.479777,0.08467 0.846666,0.239889 V 62.09107 q 0,-0.733777 -0.423333,-1.128888 -0.409222,-0.395111 -1.227666,-0.395111 -0.592666,0 -1.15711,0.211667 -0.564444,0.211666 -1.157111,0.620888 l -0.578555,-1.199443 q 1.425221,-0.945444 3.07622,-0.945444 1.594554,0 2.469443,0.790221 0.888999,0.776111 0.888999,2.257776 v 2.30011 q 0,0.296333 0.112889,0.423333 0.112889,0.127 0.395111,0.141111 v 1.608665 q -0.268111,0.05645 -0.508,0.07056 -0.225778,0.02822 -0.395111,0.02822 -0.536222,-0.01411 -0.818444,-0.239889 -0.282222,-0.239889 -0.352777,-0.634999 l -0.04233,-0.409222 q -0.493889,0.64911 -1.199444,0.987777 -0.705555,0.338666 -1.509888,0.338666 z m 0.536222,-1.382888 q 0.479777,0 0.903111,-0.169333 0.437444,-0.169333 0.677332,-0.451555 0.310445,-0.239889 0.310445,-0.536222 v -0.846666 q -0.338667,-0.127 -0.733778,-0.197555 -0.395111,-0.08467 -0.761999,-0.08467 -0.733777,0 -1.199444,0.338667 -0.465666,0.324555 -0.465666,0.832554 0,0.479778 0.366889,0.804333 0.366888,0.310444 0.90311,0.310444 z"
           style="font-style:normal;font-variant:normal;font-weight:bold;font-stretch:normal;font-size:14.1111px;font-family:Raleway;-inkscape-font-specification:'Raleway Bold';fill:#ffffff;fill-opacity:1;stroke-width:0.264583"
           id="path2672" />
        <path
           d="m 39.885711,66.917066 q -0.451555,0 -0.945443,-0.07055 -0.479778,-0.07056 -0.945444,-0.197556 -0.465666,-0.127 -0.888999,-0.310444 -0.423333,-0.183444 -0.747889,-0.409222 l 0.762,-1.28411 q 1.41111,0.917222 2.723442,0.917222 0.592666,0 0.931333,-0.211667 0.338666,-0.211666 0.338666,-0.606777 0,-0.395111 -0.409222,-0.578555 -0.395111,-0.197556 -1.340554,-0.423333 -0.719666,-0.169334 -1.227666,-0.352778 -0.508,-0.183444 -0.818444,-0.423333 -0.310444,-0.239889 -0.451555,-0.550333 -0.141111,-0.310444 -0.141111,-0.733777 0,-0.564444 0.225778,-1.015999 0.225777,-0.451555 0.620888,-0.762 0.409222,-0.324555 0.945444,-0.493888 0.550333,-0.169333 1.185332,-0.169333 0.790222,0 1.566332,0.253999 0.790222,0.239889 1.467555,0.663222 l -0.776111,1.171222 q -0.620888,-0.395111 -1.171221,-0.564444 -0.550333,-0.183445 -1.100666,-0.183445 -0.508,0 -0.860777,0.197556 -0.338666,0.197555 -0.338666,0.634999 0,0.381 0.324555,0.550333 0.338666,0.169333 1.185332,0.381 0.790222,0.197555 1.340555,0.395111 0.564444,0.197555 0.917221,0.451555 0.366889,0.254 0.522111,0.592666 0.169333,0.324555 0.169333,0.790222 0,0.536221 -0.225777,0.973665 -0.211667,0.437445 -0.606778,0.747889 -0.395111,0.296333 -0.973666,0.465666 -0.564444,0.155222 -1.255888,0.155222 z"
           style="font-style:normal;font-variant:normal;font-weight:bold;font-stretch:normal;font-size:14.1111px;font-family:Raleway;-inkscape-font-specification:'Raleway Bold';fill:#ffffff;fill-opacity:1;stroke-width:0.264583"
           id="path2674" />
      </g>
    </g>
  </g>
</svg>
