<?xml version="1.0" encoding="UTF-8" standalone="no"?>
<svg
   xmlns:dc="http://purl.org/dc/elements/1.1/"
   xmlns:cc="http://creativecommons.org/ns#"
   xmlns:rdf="http://www.w3.org/1999/02/22-rdf-syntax-ns#"
   xmlns:svg="http://www.w3.org/2000/svg"
   xmlns="http://www.w3.org/2000/svg"
   xmlns:sodipodi="http://sodipodi.sourceforge.net/DTD/sodipodi-0.dtd"
   xmlns:inkscape="http://www.inkscape.org/namespaces/inkscape"
   width="52.27462mm"
   height="9.260417mm"
   viewBox="0 0 52.27462 9.260417"
   version="1.1"
   id="svg4982"
   inkscape:version="1.0.1 (3bc2e813f5, 2020-09-07)"
   sodipodi:docname="leetambien.svg">
  <defs
     id="defs4976" />
  <sodipodi:namedview
     id="base"
     pagecolor="#ffffff"
     bordercolor="#666666"
     borderopacity="1.0"
     inkscape:pageopacity="0.0"
     inkscape:pageshadow="2"
     inkscape:zoom="1.7648891"
     inkscape:cx="130.23354"
     inkscape:cy="34.540347"
     inkscape:document-units="mm"
     inkscape:current-layer="layer1"
     inkscape:document-rotation="0"
     showgrid="false"
     inkscape:window-width="1366"
     inkscape:window-height="704"
     inkscape:window-x="0"
     inkscape:window-y="27"
     inkscape:window-maximized="1" />
  <metadata
     id="metadata4979">
    <rdf:RDF>
      <cc:Work
         rdf:about="">
        <dc:format>image/svg+xml</dc:format>
        <dc:type
           rdf:resource="http://purl.org/dc/dcmitype/StillImage" />
        <dc:title />
      </cc:Work>
    </rdf:RDF>
  </metadata>
  <g
     inkscape:label="Layer 1"
     inkscape:groupmode="layer"
     id="layer1"
     transform="translate(-43.684311,-89.080907)">
    <g
       id="g876"
       transform="matrix(0.57923426,0,0,0.57923426,17.880442,37.482194)">
      <path
         id="path4744"
         style="color:#000000;font-style:normal;font-variant:normal;font-weight:bold;font-stretch:normal;font-size:14.1111px;line-height:1.25;font-family:Raleway;-inkscape-font-specification:'Raleway Bold';font-variant-ligatures:normal;font-variant-position:normal;font-variant-caps:normal;font-variant-numeric:normal;font-variant-alternates:normal;font-variant-east-asian:normal;font-feature-settings:normal;font-variation-settings:normal;text-indent:0;text-align:start;text-decoration:none;text-decoration-line:none;text-decoration-style:solid;text-decoration-color:#000000;letter-spacing:normal;word-spacing:normal;text-transform:none;writing-mode:lr-tb;direction:ltr;text-orientation:mixed;dominant-baseline:auto;baseline-shift:baseline;text-anchor:start;white-space:normal;shape-padding:0;shape-margin:0;inline-size:0;clip-rule:nonzero;display:inline;overflow:visible;visibility:visible;isolation:auto;mix-blend-mode:normal;color-interpolation:sRGB;color-interpolation-filters:linearRGB;solid-color:#000000;solid-opacity:1;vector-effect:none;fill:#000000;fill-opacity:1;fill-rule:nonzero;stroke:none;stroke-width:2.64999;stroke-linecap:butt;stroke-linejoin:miter;stroke-miterlimit:4;stroke-dasharray:none;stroke-dashoffset:0;stroke-opacity:1;color-rendering:auto;image-rendering:auto;shape-rendering:auto;text-rendering:auto;enable-background:accumulate;stop-color:#000000"
         d="m 108.83719,89.080906 -4.54133,5.3e-4 v 3.804937 c -0.21825,-0.23281 -0.46995,-0.43391 -0.74258,-0.59222 -0.54843,-0.31844 -1.16411,-0.43149 -1.78128,-0.43149 -0.79325,0 -1.57435,0.19489 -2.24793,0.59169 -0.096,0.0553 -0.1415,0.17135 -0.23254,0.2341 -0.01029,-0.009 -0.0109,-0.0259 -0.02119,-0.0351 -0.634392,-0.57496 -1.477672,-0.79065 -2.308911,-0.79065 -0.502999,0 -0.957341,0.20298 -1.427289,0.34933 v -0.22272 h -4.357365 v 1.5353 c -0.145119,-0.19297 -0.308298,-0.37265 -0.491958,-0.53433 -0.879772,-0.79096 -2.070931,-1.12706 -3.34967,-1.12706 l -5.3e-4,-5.29e-4 c -0.537008,0 -1.06631,0.0662 -1.581819,0.19068 v -2.688718 h -10.99054 l -3.8685,2.918167 c -0.65964,-0.2892 -1.38504,-0.41962 -2.13682,-0.41962 l -5.29e-4,-5.29e-4 c -0.753899,0 -1.485549,0.13094 -2.154389,0.41393 l -0.004,0.002 -0.004,0.002 c -0.62824,0.271 -1.19349,0.65908 -1.65829,1.14825 -0.15606,0.16117 -0.29585,0.33631 -0.42788,0.51728 -0.13413,-0.18656 -0.27636,-0.36689 -0.43667,-0.53227 -0.45753,-0.481258 -1.01721,-0.862529 -1.638661,-1.131188 -0.659639,-0.289201 -1.38503,-0.419621 -2.13682,-0.419621 l -5.29e-4,-5.29e-4 c -0.7539,0 -1.48503,0.13094 -2.15387,0.41393 l -0.004,0.002 -0.004,0.002 c -0.62823,0.271 -1.1935,0.65908 -1.6583,1.14825 l -3.62459,4.13873 -0.004,0.002 -0.004,0.002 c -0.0725,0.0313 -0.14109,0.0695 -0.21188,0.10387 h -0.64492 v -8.31064 h -4.59817 l -2.839197,2.839194 v 12.67003 h 1.32395 7.254905 l 1.125975,-0.87592 c 0.3251,0.24144 0.67696,0.44993 1.05472,0.61289 l 0.0103,0.004 0.01,0.004 c 0.657399,0.2707 1.37316,0.39636 2.113049,0.39636 1.018581,0 1.99006,-0.22816 2.816371,-0.72657 l 0.002,-0.002 c 2.023687,-0.11244 3.765337,0.70011 5.64273,0.72844 1.01857,0 1.99006,-0.22816 2.81636,-0.72657 l 0.002,-0.002 0.002,-0.002 3.952357,-2.16952 v 2.75858 h 7.049085 l 1.088279,-0.89034 0.0114,0.0103 0.01029,0.01 c 0.352938,0.32354 0.76871,0.57426 1.2144,0.74983 l 0.01601,0.006 0.0176,0.006 c 0.463949,0.16872 0.957728,0.24959 1.454689,0.24959 0.741313,-0.0548 1.660495,-0.29083 2.24431,-0.60151 0.0011,0.001 7.94e-4,0.003 0.0021,0.004 l 0.01339,0.0119 0.01601,0.0134 c 0.497279,0.39786 1.074118,0.51556 1.61127,0.52968 h 0.0176 0.0176 c 0.165679,0 0.330117,-0.0163 0.498168,-0.0356 0.17195,-0.0111 0.343619,-0.0337 0.515731,-0.0636 h 14.001208 3.283 v -0.17363 c 0.40936,0.11863 0.79685,0.31419 1.22886,0.31419 0.66757,0 1.62932,-0.28154 1.9296,-0.42168 0.30029,-0.14013 1.33889,0.89198 2.79467,0.28112 1.45578,-0.61086 3.21791,0.11622 7.02643,0.14107 1.01859,0 1.99006,-0.22817 2.81638,-0.72657 l 0.003,-0.002 0.003,-0.002 c 0.31683,-0.19306 0.60904,-0.41821 0.8723,-0.66972 v 1.25935 l 9.52264,-4e-5 2.84207,-2.84183 v -1.32399 -4.615217 c 0,-0.43033 -0.0433,-0.85809 -0.12145,-1.27951 -0.0799,-0.48555 -0.23613,-0.95761 -0.4842,-1.38079 -0.27715,-0.47277 -0.68657,-0.86675 -1.15446,-1.13844 -0.5538,-0.32156 -1.17152,-0.43201 -1.79472,-0.43201 v 5.29e-4 c -0.56758,0 -1.08625,0.20002 -1.61128,0.36897 v -0.24236 h -4.35735 v 1.32653 c -0.43877,-0.43474 -0.96226,-0.78304 -1.54048,-1.03301 0,-2.2e-4 0,2.1e-4 -0.003,0 v -0.002 l 2.05298,-3.199276 h -5.04153 l -1.51776,3.343467 c -0.53501,0.26217 -1.04274,0.57652 -1.44899,1.00407 -0.003,0.002 -0.003,0.003 -0.004,0.005 v -1.44436 -2.907827 H 113.229 v 2.907827 1.30586 c -0.3616,-0.39434 -0.78792,-0.72658 -1.26555,-0.97203 -0.58952,-0.30806 -1.25283,-0.46095 -1.92183,-0.46095 -0.42293,0 -0.79997,0.19792 -1.20097,0.31264 z"
         sodipodi:nodetypes="cccsscccscccccccccccccccccccccccccccccccccccccccccsccccccccccccccccccccccscccccszzcccccccccscssccccccscccccscccccccscc" />
      <g
         aria-label="Lee También"
         id="text4332"
         style="font-style:normal;font-variant:normal;font-weight:bold;font-stretch:normal;font-size:14.1111px;line-height:1.25;font-family:Raleway;-inkscape-font-specification:'Raleway Bold';fill:#362a2a;fill-opacity:1;stroke-width:0.264583"
         transform="translate(-172.81176,-9.201978)">
        <path
           d="m 220.99484,110.4389 v -10.01888 h 1.94734 v 8.31144 h 5.10821 v 1.70744 z"
           style="font-style:normal;font-variant:normal;font-weight:bold;font-stretch:normal;font-size:14.1111px;font-family:Raleway;-inkscape-font-specification:'Raleway Bold';fill:#362a2a;fill-opacity:1;stroke-width:0.264583"
           id="path4903" />
        <path
           d="m 232.56374,110.58001 q -0.889,0 -1.60866,-0.29633 -0.71967,-0.31044 -1.22767,-0.83255 -0.508,-0.52211 -0.79022,-1.21356 -0.26811,-0.69144 -0.26811,-1.45344 0,-0.79022 0.26811,-1.48167 0.26811,-0.70555 0.77611,-1.22766 0.508,-0.53622 1.22766,-0.84667 0.73378,-0.31044 1.63689,-0.31044 0.90311,0 1.60867,0.31044 0.71966,0.31045 1.21355,0.83256 0.508,0.52211 0.762,1.21355 0.26811,0.69145 0.26811,1.43933 0,0.18345 -0.0141,0.35278 0,0.16933 -0.0282,0.28222 h -5.715 q 0.0423,0.43745 0.21167,0.77611 0.16933,0.33867 0.43744,0.57856 0.26812,0.23989 0.60678,0.36689 0.33867,0.127 0.70556,0.127 0.56444,0 1.05833,-0.26811 0.508,-0.28223 0.69144,-0.73378 l 1.62278,0.45155 q -0.40922,0.84667 -1.31233,1.397 -0.889,0.53622 -2.13078,0.53622 z m 1.91911,-4.4591 q -0.0706,-0.83256 -0.62089,-1.32645 -0.53622,-0.508 -1.31233,-0.508 -0.381,0 -0.71967,0.14112 -0.32455,0.127 -0.57855,0.36688 -0.254,0.23989 -0.42333,0.57856 -0.15523,0.33867 -0.18345,0.74789 z"
           style="font-style:normal;font-variant:normal;font-weight:bold;font-stretch:normal;font-size:14.1111px;font-family:Raleway;-inkscape-font-specification:'Raleway Bold';fill:#362a2a;fill-opacity:1;stroke-width:0.264583"
           id="path4905" />
        <path
           d="m 241.02489,110.58001 q -0.889,0 -1.60867,-0.29633 -0.71966,-0.31044 -1.22766,-0.83255 -0.508,-0.52211 -0.79022,-1.21356 -0.26811,-0.69144 -0.26811,-1.45344 0,-0.79022 0.26811,-1.48167 0.26811,-0.70555 0.77611,-1.22766 0.508,-0.53622 1.22766,-0.84667 0.73378,-0.31044 1.63689,-0.31044 0.90311,0 1.60867,0.31044 0.71966,0.31045 1.21355,0.83256 0.508,0.52211 0.762,1.21355 0.26811,0.69145 0.26811,1.43933 0,0.18345 -0.0141,0.35278 0,0.16933 -0.0282,0.28222 h -5.715 q 0.0423,0.43745 0.21167,0.77611 0.16933,0.33867 0.43744,0.57856 0.26811,0.23989 0.60678,0.36689 0.33867,0.127 0.70556,0.127 0.56444,0 1.05833,-0.26811 0.508,-0.28223 0.69144,-0.73378 l 1.62278,0.45155 q -0.40922,0.84667 -1.31233,1.397 -0.889,0.53622 -2.13078,0.53622 z m 1.91911,-4.4591 q -0.0706,-0.83256 -0.62089,-1.32645 -0.53622,-0.508 -1.31233,-0.508 -0.381,0 -0.71967,0.14112 -0.32455,0.127 -0.57855,0.36688 -0.254,0.23989 -0.42334,0.57856 -0.15522,0.33867 -0.18344,0.74789 z"
           style="font-style:normal;font-variant:normal;font-weight:bold;font-stretch:normal;font-size:14.1111px;font-family:Raleway;-inkscape-font-specification:'Raleway Bold';fill:#362a2a;fill-opacity:1;stroke-width:0.264583"
           id="path4907" />
        <path
           d="m 256.71004,102.12747 h -3.18911 v 8.31143 h -1.94733 v -8.31143 h -3.20322 v -1.70745 h 8.33966 z"
           style="font-style:normal;font-variant:normal;font-weight:bold;font-stretch:normal;font-size:14.1111px;font-family:Raleway;-inkscape-font-specification:'Raleway Bold';fill:#362a2a;fill-opacity:1;stroke-width:0.264583"
           id="path4909" />
        <path
           d="m 258.65825,110.58001 q -0.53622,0 -1.00189,-0.16933 -0.46566,-0.18344 -0.80433,-0.49389 -0.33867,-0.32455 -0.53622,-0.74789 -0.18345,-0.42333 -0.18345,-0.93133 0,-0.52211 0.22578,-0.95955 0.23989,-0.45156 0.64911,-0.762 0.42334,-0.31045 1.00189,-0.47978 0.57856,-0.18344 1.27,-0.18344 0.49389,0 0.95955,0.0847 0.47978,0.0847 0.84667,0.23989 v -0.42333 q 0,-0.73378 -0.42333,-1.12889 -0.40922,-0.39511 -1.22767,-0.39511 -0.59266,0 -1.15711,0.21167 -0.56444,0.21166 -1.15711,0.62088 l -0.57855,-1.19944 q 1.42522,-0.94544 3.07622,-0.94544 1.59455,0 2.46944,0.79022 0.889,0.77611 0.889,2.25778 v 2.3001 q 0,0.29634 0.11289,0.42334 0.11289,0.127 0.39511,0.14111 v 1.60866 q -0.26811,0.0564 -0.508,0.0706 -0.22578,0.0282 -0.39511,0.0282 -0.53622,-0.0141 -0.81845,-0.23989 -0.28222,-0.23989 -0.35277,-0.635 l -0.0423,-0.40922 q -0.49389,0.64911 -1.19944,0.98778 -0.70556,0.33866 -1.50989,0.33866 z m 0.53622,-1.38288 q 0.47978,0 0.90311,-0.16934 0.43745,-0.16933 0.67734,-0.45155 0.31044,-0.23989 0.31044,-0.53622 v -0.84667 q -0.33867,-0.127 -0.73378,-0.19755 -0.39511,-0.0847 -0.762,-0.0847 -0.73377,0 -1.19944,0.33867 -0.46567,0.32455 -0.46567,0.83255 0,0.47978 0.36689,0.80433 0.36689,0.31045 0.90311,0.31045 z"
           style="font-style:normal;font-variant:normal;font-weight:bold;font-stretch:normal;font-size:14.1111px;font-family:Raleway;-inkscape-font-specification:'Raleway Bold';fill:#362a2a;fill-opacity:1;stroke-width:0.264583"
           id="path4911" />
        <path
           d="m 276.27067,110.4389 h -1.89089 v -4.14866 q 0,-0.889 -0.31044,-1.29822 -0.31045,-0.40922 -0.84667,-0.40922 -0.55033,0 -1.04422,0.43744 -0.49389,0.42333 -0.70555,1.11478 v 4.30388 h -1.89089 v -4.14866 q 0,-0.889 -0.31045,-1.29822 -0.29633,-0.40922 -0.83255,-0.40922 -0.55033,0 -1.05833,0.42333 -0.49389,0.42333 -0.70556,1.11478 v 4.31799 h -1.89089 v -7.39421 h 1.70745 v 1.36877 q 0.40922,-0.71966 1.11477,-1.10066 0.71967,-0.39511 1.63689,-0.39511 0.93133,0 1.42522,0.45155 0.508,0.45156 0.66323,1.11478 0.45155,-0.762 1.14299,-1.15711 0.69145,-0.40922 1.58045,-0.40922 0.67733,0 1.11477,0.254 0.43745,0.254 0.67734,0.66322 0.23989,0.40922 0.32455,0.93133 0.0988,0.52211 0.0988,1.05833 z"
           style="font-style:normal;font-variant:normal;font-weight:bold;font-stretch:normal;font-size:14.1111px;font-family:Raleway;-inkscape-font-specification:'Raleway Bold';fill:#362a2a;fill-opacity:1;stroke-width:0.264583"
           id="path4913" />
        <path
           d="m 282.10825,110.58001 q -0.84666,0 -1.50988,-0.38099 -0.66323,-0.381 -1.04422,-1.04423 v 1.28411 h -1.651 v -10.3011 h 1.89088 v 4.20511 q 0.39511,-0.67733 1.03011,-1.04422 0.64911,-0.381 1.49578,-0.381 0.71967,0 1.31233,0.31044 0.60678,0.31045 1.03011,0.83256 0.43745,0.52211 0.66323,1.22766 0.23988,0.70556 0.23988,1.48167 0,0.80433 -0.26811,1.49577 -0.254,0.69145 -0.71966,1.21356 -0.46567,0.508 -1.10067,0.80433 -0.635,0.29633 -1.36878,0.29633 z m -0.52211,-1.60866 q 0.45156,0 0.81845,-0.16933 0.381,-0.18345 0.64911,-0.47978 0.28222,-0.29633 0.42333,-0.69145 0.15522,-0.39511 0.15522,-0.84666 0,-0.45156 -0.14111,-0.86078 -0.14111,-0.40922 -0.40922,-0.71966 -0.254,-0.31045 -0.60678,-0.49389 -0.35277,-0.18345 -0.77611,-0.18345 -0.635,0 -1.143,0.42334 -0.49389,0.40922 -0.762,1.016 v 1.76388 q 0.0988,0.28222 0.28223,0.508 0.19755,0.22578 0.43744,0.39511 0.23989,0.15523 0.52211,0.254 0.28222,0.0847 0.55033,0.0847 z"
           style="font-style:normal;font-variant:normal;font-weight:bold;font-stretch:normal;font-size:14.1111px;font-family:Raleway;-inkscape-font-specification:'Raleway Bold';fill:#362a2a;fill-opacity:1;stroke-width:0.264583"
           id="path4915" />
        <path
           d="m 286.83283,110.4389 v -7.39421 h 1.89088 v 7.39421 z m 0,-8.42432 v -1.87678 h 1.89088 v 1.87678 z"
           style="font-style:normal;font-variant:normal;font-weight:bold;font-stretch:normal;font-size:14.1111px;font-family:Raleway;-inkscape-font-specification:'Raleway Bold';fill:#362a2a;fill-opacity:1;stroke-width:0.264583"
           id="path4917" />
        <path
           d="m 294.3245,102.18391 -1.21355,-0.36689 0.762,-1.67922 h 1.76388 z m -0.46566,8.3961 q -0.889,0 -1.60867,-0.29633 -0.71967,-0.31044 -1.22767,-0.83255 -0.508,-0.52211 -0.79022,-1.21356 -0.26811,-0.69144 -0.26811,-1.45344 0,-0.79022 0.26811,-1.48167 0.26811,-0.70555 0.77611,-1.22766 0.508,-0.53622 1.22767,-0.84667 0.73378,-0.31044 1.63689,-0.31044 0.90311,0 1.60866,0.31044 0.71967,0.31045 1.21356,0.83256 0.508,0.52211 0.762,1.21355 0.26811,0.69145 0.26811,1.43933 0,0.18345 -0.0141,0.35278 0,0.16933 -0.0282,0.28222 h -5.71499 q 0.0423,0.43745 0.21166,0.77611 0.16934,0.33867 0.43745,0.57856 0.26811,0.23989 0.60678,0.36689 0.33866,0.127 0.70555,0.127 0.56445,0 1.05833,-0.26811 0.508,-0.28223 0.69145,-0.73378 l 1.62277,0.45155 q -0.40922,0.84667 -1.31233,1.397 -0.889,0.53622 -2.13077,0.53622 z m 1.91911,-4.4591 q -0.0706,-0.83256 -0.62089,-1.32645 -0.53622,-0.508 -1.31234,-0.508 -0.381,0 -0.71966,0.14112 -0.32456,0.127 -0.57856,0.36688 -0.254,0.23989 -0.42333,0.57856 -0.15522,0.33867 -0.18344,0.74789 z"
           style="font-style:normal;font-variant:normal;font-weight:bold;font-stretch:normal;font-size:14.1111px;font-family:Raleway;-inkscape-font-specification:'Raleway Bold';fill:#362a2a;fill-opacity:1;stroke-width:0.264583"
           id="path4919" />
        <path
           d="m 305.74898,110.4389 h -1.89089 v -4.14866 q 0,-0.889 -0.31045,-1.29822 -0.31044,-0.40922 -0.86077,-0.40922 -0.28222,0 -0.57856,0.11289 -0.29633,0.11288 -0.56444,0.32455 -0.254,0.19756 -0.46567,0.47978 -0.21166,0.28222 -0.31044,0.62089 v 4.31799 h -1.89089 v -7.39421 h 1.70744 v 1.36877 q 0.40923,-0.70555 1.18534,-1.10066 0.77611,-0.39511 1.74977,-0.39511 0.69145,0 1.12889,0.254 0.43744,0.254 0.67733,0.66322 0.23989,0.40922 0.32456,0.93133 0.0988,0.52211 0.0988,1.05833 z"
           style="font-style:normal;font-variant:normal;font-weight:bold;font-stretch:normal;font-size:14.1111px;font-family:Raleway;-inkscape-font-specification:'Raleway Bold';fill:#362a2a;fill-opacity:1;stroke-width:0.264583"
           id="path4921" />
      </g>
      <g
         aria-label="Lee También"
         id="text4336"
         style="font-style:normal;font-variant:normal;font-weight:bold;font-stretch:normal;font-size:14.1111px;line-height:1.25;font-family:Raleway;-inkscape-font-specification:'Raleway Bold';fill:#ffffff;stroke-width:0.264583"
         transform="translate(-172.81176,-9.201978)">
        <path
           d="M 221.524,109.90974 V 99.890855 h 1.94734 v 8.311435 h 5.10821 v 1.70745 z"
           style="font-style:normal;font-variant:normal;font-weight:bold;font-stretch:normal;font-size:14.1111px;font-family:Raleway;-inkscape-font-specification:'Raleway Bold';fill:#ffffff;stroke-width:0.264583"
           id="path4924" />
        <path
           d="m 233.0929,110.05085 q -0.889,0 -1.60866,-0.29634 -0.71967,-0.31044 -1.22767,-0.83255 -0.508,-0.52211 -0.79022,-1.21355 -0.26811,-0.69145 -0.26811,-1.45345 0,-0.79022 0.26811,-1.48166 0.26811,-0.70556 0.77611,-1.22767 0.508,-0.53622 1.22766,-0.84667 0.73378,-0.31044 1.63689,-0.31044 0.90311,0 1.60867,0.31044 0.71966,0.31045 1.21355,0.83256 0.508,0.52211 0.762,1.21355 0.26811,0.69145 0.26811,1.43934 0,0.18344 -0.0141,0.35277 0,0.16934 -0.0282,0.28223 h -5.715 q 0.0423,0.43744 0.21167,0.77611 0.16933,0.33866 0.43744,0.57855 0.26811,0.23989 0.60678,0.36689 0.33867,0.127 0.70556,0.127 0.56444,0 1.05833,-0.26811 0.508,-0.28222 0.69144,-0.73378 l 1.62278,0.45156 q -0.40922,0.84666 -1.31233,1.397 -0.889,0.53622 -2.13078,0.53622 z m 1.91911,-4.45911 q -0.0706,-0.83255 -0.62089,-1.32644 -0.53622,-0.508 -1.31233,-0.508 -0.381,0 -0.71967,0.14111 -0.32455,0.127 -0.57855,0.36689 -0.254,0.23989 -0.42333,0.57855 -0.15523,0.33867 -0.18345,0.74789 z"
           style="font-style:normal;font-variant:normal;font-weight:bold;font-stretch:normal;font-size:14.1111px;font-family:Raleway;-inkscape-font-specification:'Raleway Bold';fill:#ffffff;stroke-width:0.264583"
           id="path4926" />
        <path
           d="m 241.55405,110.05085 q -0.889,0 -1.60867,-0.29634 -0.71966,-0.31044 -1.22766,-0.83255 -0.508,-0.52211 -0.79022,-1.21355 -0.26811,-0.69145 -0.26811,-1.45345 0,-0.79022 0.26811,-1.48166 0.26811,-0.70556 0.77611,-1.22767 0.508,-0.53622 1.22766,-0.84667 0.73378,-0.31044 1.63689,-0.31044 0.90311,0 1.60867,0.31044 0.71966,0.31045 1.21355,0.83256 0.508,0.52211 0.762,1.21355 0.26811,0.69145 0.26811,1.43934 0,0.18344 -0.0141,0.35277 0,0.16934 -0.0282,0.28223 h -5.715 q 0.0423,0.43744 0.21167,0.77611 0.16933,0.33866 0.43744,0.57855 0.26811,0.23989 0.60678,0.36689 0.33867,0.127 0.70555,0.127 0.56445,0 1.05834,-0.26811 0.508,-0.28222 0.69144,-0.73378 l 1.62278,0.45156 q -0.40922,0.84666 -1.31233,1.397 -0.889,0.53622 -2.13078,0.53622 z m 1.91911,-4.45911 q -0.0706,-0.83255 -0.62089,-1.32644 -0.53622,-0.508 -1.31233,-0.508 -0.381,0 -0.71967,0.14111 -0.32455,0.127 -0.57855,0.36689 -0.254,0.23989 -0.42334,0.57855 -0.15522,0.33867 -0.18344,0.74789 z"
           style="font-style:normal;font-variant:normal;font-weight:bold;font-stretch:normal;font-size:14.1111px;font-family:Raleway;-inkscape-font-specification:'Raleway Bold';fill:#ffffff;stroke-width:0.264583"
           id="path4928" />
        <path
           d="m 257.2392,101.5983 h -3.18911 v 8.31144 h -1.94733 v -8.31144 h -3.20322 v -1.707445 h 8.33966 z"
           style="font-style:normal;font-variant:normal;font-weight:bold;font-stretch:normal;font-size:14.1111px;font-family:Raleway;-inkscape-font-specification:'Raleway Bold';fill:#ffffff;stroke-width:0.264583"
           id="path4930" />
        <path
           d="m 259.18741,110.05085 q -0.53622,0 -1.00189,-0.16934 -0.46566,-0.18344 -0.80433,-0.49388 -0.33867,-0.32456 -0.53622,-0.74789 -0.18345,-0.42334 -0.18345,-0.93133 0,-0.52212 0.22578,-0.95956 0.23989,-0.45156 0.64911,-0.762 0.42334,-0.31044 1.00189,-0.47978 0.57856,-0.18344 1.27,-0.18344 0.49389,0 0.95955,0.0847 0.47978,0.0847 0.84667,0.23988 v -0.42333 q 0,-0.73378 -0.42333,-1.12889 -0.40922,-0.39511 -1.22767,-0.39511 -0.59266,0 -1.15711,0.21167 -0.56444,0.21167 -1.15711,0.62089 l -0.57855,-1.19945 q 1.42522,-0.94544 3.07622,-0.94544 1.59455,0 2.46944,0.79022 0.889,0.77611 0.889,2.25778 v 2.30011 q 0,0.29633 0.11289,0.42333 0.11289,0.127 0.39511,0.14111 v 1.60867 q -0.26811,0.0564 -0.508,0.0705 -0.22578,0.0282 -0.39511,0.0282 -0.53623,-0.0141 -0.81845,-0.23988 -0.28222,-0.23989 -0.35277,-0.635 l -0.0423,-0.40923 q -0.49389,0.64911 -1.19944,0.98778 -0.70556,0.33867 -1.50989,0.33867 z m 0.53622,-1.38289 q 0.47978,0 0.90311,-0.16933 0.43745,-0.16934 0.67734,-0.45156 0.31044,-0.23989 0.31044,-0.53622 v -0.84667 q -0.33867,-0.127 -0.73378,-0.19755 -0.39511,-0.0847 -0.762,-0.0847 -0.73377,0 -1.19944,0.33867 -0.46567,0.32455 -0.46567,0.83255 0,0.47978 0.36689,0.80434 0.36689,0.31044 0.90311,0.31044 z"
           style="font-style:normal;font-variant:normal;font-weight:bold;font-stretch:normal;font-size:14.1111px;font-family:Raleway;-inkscape-font-specification:'Raleway Bold';fill:#ffffff;stroke-width:0.264583"
           id="path4932" />
        <path
           d="m 276.79983,109.90974 h -1.89089 v -4.14867 q 0,-0.889 -0.31044,-1.29822 -0.31045,-0.40922 -0.84667,-0.40922 -0.55033,0 -1.04422,0.43744 -0.49389,0.42334 -0.70555,1.11478 v 4.30389 h -1.89089 v -4.14867 q 0,-0.889 -0.31045,-1.29822 -0.29633,-0.40922 -0.83255,-0.40922 -0.55033,0 -1.05833,0.42333 -0.49389,0.42334 -0.70556,1.11478 v 4.318 h -1.89089 v -7.39422 h 1.70745 v 1.36878 q 0.40922,-0.71967 1.11477,-1.10067 0.71967,-0.39511 1.63689,-0.39511 0.93133,0 1.42522,0.45156 0.508,0.45155 0.66322,1.11477 0.45156,-0.762 1.143,-1.15711 0.69145,-0.40922 1.58045,-0.40922 0.67733,0 1.11477,0.254 0.43745,0.254 0.67734,0.66322 0.23989,0.40922 0.32455,0.93133 0.0988,0.52212 0.0988,1.05834 z"
           style="font-style:normal;font-variant:normal;font-weight:bold;font-stretch:normal;font-size:14.1111px;font-family:Raleway;-inkscape-font-specification:'Raleway Bold';fill:#ffffff;stroke-width:0.264583"
           id="path4934" />
        <path
           d="m 282.63741,110.05085 q -0.84666,0 -1.50988,-0.381 -0.66323,-0.381 -1.04423,-1.04422 v 1.28411 h -1.65099 V 99.608633 h 1.89088 v 4.205107 q 0.39511,-0.67733 1.03011,-1.04422 0.64911,-0.381 1.49578,-0.381 0.71967,0 1.31233,0.31044 0.60678,0.31045 1.03011,0.83256 0.43745,0.52211 0.66322,1.22767 0.23989,0.70555 0.23989,1.48166 0,0.80433 -0.26811,1.49578 -0.254,0.69144 -0.71966,1.21355 -0.46567,0.508 -1.10067,0.80433 -0.635,0.29634 -1.36878,0.29634 z m -0.52211,-1.60867 q 0.45156,0 0.81845,-0.16933 0.381,-0.18345 0.64911,-0.47978 0.28222,-0.29633 0.42333,-0.69144 0.15522,-0.39511 0.15522,-0.84667 0,-0.45155 -0.14111,-0.86078 -0.14111,-0.40922 -0.40922,-0.71966 -0.254,-0.31045 -0.60678,-0.49389 -0.35278,-0.18344 -0.77611,-0.18344 -0.635,0 -1.143,0.42333 -0.49389,0.40922 -0.762,1.016 v 1.76389 q 0.0988,0.28222 0.28223,0.508 0.19755,0.22577 0.43744,0.39511 0.23989,0.15522 0.52211,0.254 0.28222,0.0847 0.55033,0.0847 z"
           style="font-style:normal;font-variant:normal;font-weight:bold;font-stretch:normal;font-size:14.1111px;font-family:Raleway;-inkscape-font-specification:'Raleway Bold';fill:#ffffff;stroke-width:0.264583"
           id="path4936" />
        <path
           d="m 287.36199,109.90974 v -7.39422 h 1.89088 v 7.39422 z m 0,-8.42433 v -1.876777 h 1.89088 v 1.876777 z"
           style="font-style:normal;font-variant:normal;font-weight:bold;font-stretch:normal;font-size:14.1111px;font-family:Raleway;-inkscape-font-specification:'Raleway Bold';fill:#ffffff;stroke-width:0.264583"
           id="path4938" />
        <path
           d="m 294.85366,101.65474 -1.21355,-0.36689 0.762,-1.679217 h 1.76388 z m -0.46566,8.39611 q -0.889,0 -1.60867,-0.29634 -0.71967,-0.31044 -1.22767,-0.83255 -0.508,-0.52211 -0.79022,-1.21355 -0.26811,-0.69145 -0.26811,-1.45345 0,-0.79022 0.26811,-1.48166 0.26811,-0.70556 0.77611,-1.22767 0.508,-0.53622 1.22767,-0.84667 0.73378,-0.31044 1.63689,-0.31044 0.90311,0 1.60866,0.31044 0.71967,0.31045 1.21356,0.83256 0.508,0.52211 0.762,1.21355 0.26811,0.69145 0.26811,1.43934 0,0.18344 -0.0141,0.35277 0,0.16934 -0.0282,0.28223 h -5.71499 q 0.0423,0.43744 0.21166,0.77611 0.16934,0.33866 0.43745,0.57855 0.26811,0.23989 0.60678,0.36689 0.33866,0.127 0.70555,0.127 0.56444,0 1.05833,-0.26811 0.508,-0.28222 0.69145,-0.73378 l 1.62277,0.45156 q -0.40922,0.84666 -1.31233,1.397 -0.889,0.53622 -2.13077,0.53622 z m 1.9191,-4.45911 q -0.0705,-0.83255 -0.62088,-1.32644 -0.53623,-0.508 -1.31234,-0.508 -0.381,0 -0.71966,0.14111 -0.32456,0.127 -0.57856,0.36689 -0.254,0.23989 -0.42333,0.57855 -0.15522,0.33867 -0.18344,0.74789 z"
           style="font-style:normal;font-variant:normal;font-weight:bold;font-stretch:normal;font-size:14.1111px;font-family:Raleway;-inkscape-font-specification:'Raleway Bold';fill:#ffffff;stroke-width:0.264583"
           id="path4940" />
        <path
           d="m 306.27814,109.90974 h -1.89089 v -4.14867 q 0,-0.889 -0.31045,-1.29822 -0.31044,-0.40922 -0.86077,-0.40922 -0.28222,0 -0.57856,0.11289 -0.29633,0.11289 -0.56444,0.32455 -0.254,0.19756 -0.46567,0.47978 -0.21166,0.28222 -0.31044,0.62089 v 4.318 h -1.89089 v -7.39422 h 1.70744 v 1.36878 q 0.40923,-0.70556 1.18534,-1.10067 0.77611,-0.39511 1.74977,-0.39511 0.69145,0 1.12889,0.254 0.43744,0.254 0.67733,0.66322 0.23989,0.40922 0.32456,0.93133 0.0988,0.52212 0.0988,1.05834 z"
           style="font-style:normal;font-variant:normal;font-weight:bold;font-stretch:normal;font-size:14.1111px;font-family:Raleway;-inkscape-font-specification:'Raleway Bold';fill:#ffffff;stroke-width:0.264583"
           id="path4942" />
      </g>
    </g>
  </g>
</svg>
