<?xml version="1.0" encoding="UTF-8" standalone="no"?>
<svg
   xmlns:dc="http://purl.org/dc/elements/1.1/"
   xmlns:cc="http://creativecommons.org/ns#"
   xmlns:rdf="http://www.w3.org/1999/02/22-rdf-syntax-ns#"
   xmlns:svg="http://www.w3.org/2000/svg"
   xmlns="http://www.w3.org/2000/svg"
   xmlns:sodipodi="http://sodipodi.sourceforge.net/DTD/sodipodi-0.dtd"
   xmlns:inkscape="http://www.inkscape.org/namespaces/inkscape"
   width="57.860367mm"
   height="9.260417mm"
   viewBox="0 0 57.860368 9.260417"
   version="1.1"
   id="svg1331"
   inkscape:version="1.0.1 (3bc2e813f5, 2020-09-07)"
   sodipodi:docname="masleidos.svg">
  <defs
     id="defs1325" />
  <sodipodi:namedview
     id="base"
     pagecolor="#ffffff"
     bordercolor="#666666"
     borderopacity="1.0"
     inkscape:pageopacity="0.0"
     inkscape:pageshadow="2"
     inkscape:zoom="2.8702262"
     inkscape:cx="149.33245"
     inkscape:cy="40.086859"
     inkscape:document-units="mm"
     inkscape:current-layer="layer1"
     inkscape:document-rotation="0"
     showgrid="false"
     inkscape:window-width="1366"
     inkscape:window-height="704"
     inkscape:window-x="0"
     inkscape:window-y="27"
     inkscape:window-maximized="1" />
  <metadata
     id="metadata1328">
    <rdf:RDF>
      <cc:Work
         rdf:about="">
        <dc:format>image/svg+xml</dc:format>
        <dc:type
           rdf:resource="http://purl.org/dc/dcmitype/StillImage" />
        <dc:title />
      </cc:Work>
    </rdf:RDF>
  </metadata>
  <g
     inkscape:label="Layer 1"
     inkscape:groupmode="layer"
     id="layer1"
     transform="translate(-21.342834,-62.589507)">
    <g
       id="g1309"
       transform="matrix(0.52443655,0,0,0.52443655,-2.3889993,-18.158219)">
      <path
         id="path1041"
         style="color:#000000;font-style:normal;font-variant:normal;font-weight:bold;font-stretch:normal;font-size:14.1111px;line-height:1.25;font-family:Raleway;-inkscape-font-specification:'Raleway Bold';font-variant-ligatures:normal;font-variant-position:normal;font-variant-caps:normal;font-variant-numeric:normal;font-variant-alternates:normal;font-variant-east-asian:normal;font-feature-settings:normal;font-variation-settings:normal;text-indent:0;text-align:start;text-decoration:none;text-decoration-line:none;text-decoration-style:solid;text-decoration-color:#000000;letter-spacing:normal;word-spacing:normal;text-transform:none;writing-mode:lr-tb;direction:ltr;text-orientation:mixed;dominant-baseline:auto;baseline-shift:baseline;text-anchor:start;white-space:normal;shape-padding:0;shape-margin:0;inline-size:0;clip-rule:nonzero;display:inline;overflow:visible;visibility:visible;isolation:auto;mix-blend-mode:normal;color-interpolation:sRGB;color-interpolation-filters:linearRGB;solid-color:#000000;solid-opacity:1;vector-effect:none;fill:#000000;fill-opacity:1;fill-rule:nonzero;stroke:none;stroke-width:2.64999;stroke-linecap:butt;stroke-linejoin:miter;stroke-miterlimit:4;stroke-dasharray:none;stroke-dashoffset:0;stroke-opacity:1;color-rendering:auto;image-rendering:auto;shape-rendering:auto;text-rendering:auto;enable-background:accumulate;stop-color:#000000"
         d="m 63.197176,153.97044 -1.458826,3.21531 c -0.442071,0.15857 -0.878324,0.34088 -1.290878,0.58084 v -3.51452 h -4.199226 l -2.185913,4.16409 -2.163694,-4.16409 h -4.218863 l -2.427718,2.42928 v 12.66795 h 4.597654 l 0.455269,-1.69343 h 2.661854 l 0.455268,-0.87075 v 2.56418 h 1.326018 3.271634 v -0.78754 c 1.016459,0.71597 1.411384,0.92974 2.601395,0.92974 0.722183,0 1.436661,-0.15794 2.084109,-0.46871 0.06275,-0.0301 0.09901,-0.0983 0.160198,-0.13126 7.93e-4,5.3e-4 0.0013,0.001 0.0021,0.002 l 0.01551,0.0139 0.0155,0.0114 c 0.497288,0.39785 1.074114,0.51555 1.611271,0.52968 l 0.01757,0.002 h 0.01601 c 0.166958,0 0.332343,-0.0155 0.50178,-0.0351 0.224975,-0.0148 0.448299,-0.044 0.673859,-0.0915 l 1.05265,-0.22272 v -0.13798 c 0.214493,0.0788 0.432277,0.15181 0.656291,0.21291 0.300781,0.082 0.607727,0.13952 0.915707,0.1912 v 0.12351 h 1.324465 c 0.560112,0 1.09747,-0.0614 1.607137,-0.20154 l 0.0098,-0.004 0.01188,-0.002 c 0.507651,-0.14857 0.981459,-0.36686 1.396299,-0.678 l 0.01188,-0.01 0.01188,-0.008 2.476838,-1.6319 v 2.39413 h 9.70535 l 0.954478,-0.87437 c 0.325059,0.24083 0.677005,0.4484 1.054716,0.61134 l 0.0098,0.004 0.0098,0.006 c 0.657394,0.27069 1.373161,0.39481 2.113049,0.39481 1.018569,0 1.990059,-0.22816 2.816365,-0.72657 h 0.0021 l 0.0021,-0.002 c 0.317029,-0.19318 0.60942,-0.41917 0.872815,-0.67127 v 1.25832 h 1.326018 3.215306 l 0.998418,-0.55522 c 0.738853,0.448 1.562053,0.68405 2.431361,0.69667 0.71816,0 1.42836,-0.1697 2.06809,-0.49609 l 0.01,-0.006 0.01,-0.004 c 0.0243,-0.0129 0.0349,-0.0429 0.0589,-0.0563 l 0.0134,0.01 c 0.48537,0.36983 1.05385,0.49516 1.58595,0.50953 l 0.0176,0.002 h 0.0176 c 0.36353,0 0.73213,-0.0453 1.14257,-0.12092 l 1.08624,-0.19947 v -0.90951 c 0.40236,0.35009 0.86016,0.63795 1.35909,0.85318 0.66486,0.2868 1.39223,0.41806 2.14612,0.41806 0.7539,0 1.48384,-0.13126 2.14871,-0.41806 0.52095,-0.22473 0.99873,-0.52791 1.40973,-0.90279 l 0.13849,0.0961 c 0.29996,0.20866 0.62792,0.38488 0.97875,0.53692 0.3425,0.14841 0.69826,0.27264 1.06661,0.3731 0.30016,0.0818 0.6063,0.13958 0.91364,0.19121 v 0.1235 h 1.32653 c 0.56012,0 2.05195,-0.0614 2.56162,-0.20153 l 0.0103,-0.004 0.01,-0.002 c 1.55598,-0.74187 2.23251,-1.53631 3.89693,-2.32789 v 2.39413 h 4.59765 l 1.89446,-1.41176 v 1.41176 h 4.58215 l 3.98218,0.14107 c 0.75389,0 1.48384,-0.13126 2.14871,-0.41806 0.5558,-0.23977 1.06321,-0.5679 1.4919,-0.97823 v 3.03339 l 0.93948,0.2868 c 0.45342,0.13855 0.92047,0.21291 1.38854,0.21291 0.80942,0 1.61503,-0.24433 2.2717,-0.71262 l 2.42772,-1.47117 c 0.67007,-0.4682 1.16117,-1.1629 1.4335,-1.93942 l 0.002,-0.002 3.73827,-10.62519 h -4.62711 l -0.87901,2.84996 -0.99994,-2.84996 h -4.83795 l 0.12868,0.32453 c -0.0204,-0.009 -0.0394,-0.0206 -0.06,-0.0294 -0.65964,-0.2892 -1.38504,-0.4222 -2.13682,-0.4222 v 5.3e-4 c -0.7539,0 -1.48383,0.1328 -2.14871,0.41961 -0.63043,0.27195 -1.19827,0.65874 -1.66398,1.15032 v 0.002 c -0.0599,0.0634 -0.11359,0.13206 -0.17001,0.19844 v -4.26861 h -1.32602 -3.25768 l -1.89446,4.0504 v -4.0504 h -4.5961 l -2.92747,3.60237 c -0.54712,-0.34195 -1.14132,-0.60856 -1.76785,-0.80047 -0.64077,-0.20863 -1.30342,-0.31884 -1.96887,-0.31884 l 5.2e-4,10e-4 c -0.54112,0 -1.07078,0.0739 -1.57458,0.22892 h -0.006 l -0.004,0.002 c -0.49643,0.15676 -0.962,0.39762 -1.36736,0.71882 -0.32264,0.25415 -0.59999,0.56797 -0.81855,0.91674 -0.0793,-0.0954 -0.15858,-0.19069 -0.24495,-0.28009 -0.45688,-0.49175 -1.01925,-0.87983 -1.64486,-1.15031 -0.65964,-0.2892 -1.38504,-0.4222 -2.13683,-0.4222 v 5.3e-4 c -0.75389,0 -1.48383,0.1328 -2.1487,0.41961 -0.63043,0.27195 -1.19827,0.65874 -1.66398,1.15032 v 0.002 c -0.0713,0.0754 -0.13576,0.15655 -0.20205,0.23617 v -4.58745 l -4.54185,-5.2e-4 v 3.098 c -0.3882,-0.1149 -0.75139,-0.31833 -1.15858,-0.31833 -0.66164,0 -1.31777,0.14329 -1.9079,0.4315 -0.49968,0.24402 -0.94654,0.58486 -1.324496,0.9927 v -1.1684 l 1.947716,-3.03547 h -5.043135 l -1.318265,2.90628 h -0.1271 v 0.2775 l -0.295074,0.6506 0.295074,0.0894 v 0.31162 c -0.438854,-0.43499 -0.962544,-0.78347 -1.540992,-1.03353 -0.659638,-0.2892 -1.385036,-0.42168 -2.13682,-0.42168 v -5.3e-4 c -0.753901,0 -1.485556,0.13301 -2.154391,0.41599 l -0.0036,0.002 -0.0041,0.002 c -0.627385,0.27064 -1.191776,0.6559 -1.656228,1.14412 -0.463066,0.47736 -0.822349,1.04942 -1.060403,1.67587 -0.237831,0.61695 -0.355531,1.87176 -0.355531,2.54505 l -3.076465,0.0289 v -8.31224 h -4.597651 l -2.927469,3.60237 c -0.547129,-0.34195 -1.141315,-0.60856 -1.767851,-0.80047 -0.64077,-0.20863 -1.303414,-0.31833 -1.968873,-0.31833 v 5.3e-4 c -0.541115,0 -1.070263,0.0739 -1.574064,0.22893 h -0.0036 l -0.0062,0.002 c -0.49643,0.15676 -0.961999,0.39762 -1.367359,0.71882 -0.364733,0.28731 -0.668303,0.6516 -0.896585,1.05626 -0.192318,-0.32 -0.424495,-0.61391 -0.708483,-0.86351 -0.343826,-0.3084 -0.766046,-0.49723 -1.19166,-0.67386 l 2.074291,-3.23236 z m 41.869274,3.36155 0.0119,0.006 c -0.002,-0.001 -0.005,-5.3e-4 -0.008,-0.002 -0.002,-7.9e-4 -0.002,-0.003 -0.004,-0.004 z"
         sodipodi:nodetypes="cccccccccccccccccccsccccccsccccsccscccccccccccccsccccccccccccccccscccsssccscccsccccccccccscccscccccccccccccsccccccccccccccccccccccsccccccsscccccccccccccccccccccccccccccccccccccscc" />
      <g
         aria-label="Más Leídos Hoy"
         id="text91"
         style="font-style:normal;font-variant:normal;font-weight:bold;font-stretch:normal;font-size:14.1111px;line-height:1.25;font-family:Raleway;-inkscape-font-specification:'Raleway Bold';fill:#352929;fill-opacity:1;stroke-width:0.264583">
        <path
           d="m 56.646597,166.12556 v -6.63221 l -2.582331,4.93888 h -1.058333 l -2.582331,-4.93888 v 6.63221 H 48.47627 v -10.01888 h 2.088443 l 2.963331,5.70089 2.991553,-5.70089 h 2.074332 v 10.01888 z"
           style="font-style:normal;font-variant:normal;font-weight:bold;font-stretch:normal;font-size:14.1111px;font-family:Raleway;-inkscape-font-specification:'Raleway Bold';fill:#352929;fill-opacity:1;stroke-width:0.264583"
           id="path1349" />
        <path
           d="m 62.520122,166.26668 q -0.536222,0 -1.001888,-0.16934 -0.465666,-0.18344 -0.804333,-0.49389 -0.338666,-0.32455 -0.536222,-0.74788 -0.183444,-0.42334 -0.183444,-0.93134 0,-0.52211 0.225778,-0.95955 0.239888,-0.45156 0.64911,-0.762 0.423333,-0.31045 1.001888,-0.47978 0.578555,-0.18344 1.269999,-0.18344 0.493889,0 0.959555,0.0847 0.479778,0.0847 0.846666,0.23989 v -0.42333 q 0,-0.73378 -0.423333,-1.12889 -0.409222,-0.39511 -1.227665,-0.39511 -0.592667,0 -1.157111,0.21167 -0.564444,0.21166 -1.15711,0.62089 l -0.578555,-1.19945 q 1.425221,-0.94544 3.07622,-0.94544 1.594554,0 2.469442,0.79022 0.889,0.77611 0.889,2.25778 v 2.30011 q 0,0.29633 0.112888,0.42333 0.112889,0.127 0.395111,0.14111 v 1.60866 q -0.268111,0.0564 -0.507999,0.0706 -0.225778,0.0282 -0.395111,0.0282 -0.536222,-0.0141 -0.818444,-0.23989 -0.282222,-0.23989 -0.352777,-0.635 l -0.04233,-0.40922 q -0.493888,0.64911 -1.199443,0.98778 -0.705555,0.33867 -1.509888,0.33867 z m 0.536222,-1.38289 q 0.479777,0 0.90311,-0.16934 0.437444,-0.16933 0.677333,-0.45155 0.310444,-0.23989 0.310444,-0.53622 v -0.84667 q -0.338666,-0.127 -0.733777,-0.19755 -0.395111,-0.0847 -0.761999,-0.0847 -0.733778,0 -1.199444,0.33867 -0.465666,0.32455 -0.465666,0.83255 0,0.47978 0.366888,0.80433 0.366889,0.31045 0.903111,0.31045 z m 0.917221,-7.01322 -1.213554,-0.36689 0.761999,-1.67922 h 1.763888 z"
           style="font-style:normal;font-variant:normal;font-weight:bold;font-stretch:normal;font-size:14.1111px;font-family:Raleway;-inkscape-font-specification:'Raleway Bold';fill:#352929;fill-opacity:1;stroke-width:0.264583"
           id="path1351" />
        <path
           d="m 71.567102,166.26668 q -0.451555,0 -0.945443,-0.0706 -0.479778,-0.0706 -0.945444,-0.19756 -0.465667,-0.127 -0.889,-0.31044 -0.423333,-0.18344 -0.747888,-0.40922 l 0.762,-1.28411 q 1.41111,0.91722 2.723442,0.91722 0.592666,0 0.931333,-0.21167 0.338666,-0.21166 0.338666,-0.60677 0,-0.39511 -0.409222,-0.57856 -0.395111,-0.19755 -1.340554,-0.42333 -0.719667,-0.16934 -1.227666,-0.35278 -0.508,-0.18344 -0.818444,-0.42333 -0.310444,-0.23989 -0.451555,-0.55034 -0.141111,-0.31044 -0.141111,-0.73377 0,-0.56445 0.225777,-1.016 0.225778,-0.45156 0.620889,-0.762 0.409222,-0.32456 0.945444,-0.49389 0.550332,-0.16933 1.185332,-0.16933 0.790222,0 1.566332,0.254 0.790222,0.23989 1.467554,0.66322 l -0.77611,1.17122 q -0.620888,-0.39511 -1.171221,-0.56444 -0.550333,-0.18345 -1.100666,-0.18345 -0.508,0 -0.860777,0.19756 -0.338667,0.19755 -0.338667,0.635 0,0.381 0.324556,0.55033 0.338666,0.16933 1.185332,0.381 0.790222,0.19755 1.340555,0.39511 0.564444,0.19756 0.917221,0.45156 0.366889,0.25399 0.522111,0.59266 0.169333,0.32456 0.169333,0.79022 0,0.53622 -0.225778,0.97367 -0.211666,0.43744 -0.606777,0.74789 -0.395111,0.29633 -0.973666,0.46566 -0.564444,0.15523 -1.255888,0.15523 z"
           style="font-style:normal;font-variant:normal;font-weight:bold;font-stretch:normal;font-size:14.1111px;font-family:Raleway;-inkscape-font-specification:'Raleway Bold';fill:#352929;fill-opacity:1;stroke-width:0.264583"
           id="path1353" />
        <path
           d="m 79.371862,166.12556 v -10.01888 h 1.947332 v 8.31144 h 5.108218 v 1.70744 z"
           style="font-style:normal;font-variant:normal;font-weight:bold;font-stretch:normal;font-size:14.1111px;font-family:Raleway;-inkscape-font-specification:'Raleway Bold';fill:#352929;fill-opacity:1;stroke-width:0.264583"
           id="path1355" />
        <path
           d="m 90.94076,166.26668 q -0.888999,0 -1.608665,-0.29634 -0.719666,-0.31044 -1.227666,-0.83255 -0.508,-0.52211 -0.790222,-1.21356 -0.26811,-0.69144 -0.26811,-1.45344 0,-0.79022 0.26811,-1.48167 0.268111,-0.70555 0.776111,-1.22766 0.508,-0.53622 1.227666,-0.84667 0.733777,-0.31044 1.636887,-0.31044 0.903111,0 1.608666,0.31044 0.719666,0.31045 1.213554,0.83256 0.508,0.52211 0.762,1.21355 0.268111,0.69145 0.268111,1.43933 0,0.18345 -0.01411,0.35278 0,0.16933 -0.02822,0.28222 h -5.714995 q 0.04233,0.43745 0.211666,0.77611 0.169333,0.33867 0.437444,0.57856 0.268111,0.23989 0.606778,0.36689 0.338666,0.127 0.705555,0.127 0.564444,0 1.058332,-0.26811 0.508,-0.28223 0.691444,-0.73378 l 1.622777,0.45155 q -0.409222,0.84667 -1.312333,1.397 -0.888999,0.53623 -2.130776,0.53623 z m 1.91911,-4.45911 q -0.07056,-0.83256 -0.620889,-1.32645 -0.536221,-0.508 -1.312332,-0.508 -0.381,0 -0.719666,0.14112 -0.324555,0.127 -0.578555,0.36688 -0.254,0.23989 -0.423333,0.57856 -0.155222,0.33867 -0.183444,0.74789 z"
           style="font-style:normal;font-variant:normal;font-weight:bold;font-stretch:normal;font-size:14.1111px;font-family:Raleway;-inkscape-font-specification:'Raleway Bold';fill:#352929;fill-opacity:1;stroke-width:0.264583"
           id="path1357" />
        <path
           d="m 97.38402,157.87057 -1.213554,-0.36689 0.761999,-1.67922 h 1.763887 z m -1.425221,8.25499 v -7.39421 h 1.890887 v 7.39421 z"
           style="font-style:normal;font-variant:normal;font-weight:bold;font-stretch:normal;font-size:14.1111px;font-family:Raleway;-inkscape-font-specification:'Raleway Bold';fill:#352929;fill-opacity:1;stroke-width:0.264583"
           id="path1359" />
        <path
           d="m 102.6038,166.26668 q -0.76199,0 -1.41111,-0.29634 -0.63499,-0.29633 -1.10066,-0.81844 -0.465667,-0.52211 -0.733778,-1.21356 -0.254,-0.70555 -0.254,-1.50988 0,-0.80434 0.239889,-1.49578 0.254,-0.69144 0.691439,-1.21355 0.43745,-0.52212 1.04423,-0.81845 0.60677,-0.29633 1.32644,-0.29633 0.80433,0 1.45344,0.39511 0.66322,0.39511 1.03011,1.03011 v -4.20511 h 1.89089 v 8.128 q 0,0.29633 0.11289,0.42333 0.11289,0.127 0.39511,0.14111 v 1.60866 q -0.53622,0.0988 -0.90311,0.0988 -0.52211,-0.0141 -0.81844,-0.23989 -0.28223,-0.22577 -0.35278,-0.635 l -0.0423,-0.508 q -0.40923,0.70556 -1.10067,1.07245 -0.69144,0.35278 -1.46756,0.35278 z m 0.49389,-1.60867 q 0.26811,0 0.55034,-0.0847 0.28222,-0.0988 0.52211,-0.26811 0.23989,-0.16933 0.43744,-0.39511 0.19756,-0.22578 0.29633,-0.49389 v -1.76388 q -0.23988,-0.62089 -0.79022,-1.03011 -0.53622,-0.40923 -1.12889,-0.40923 -0.42333,0 -0.79022,0.18345 -0.35277,0.18344 -0.60677,0.508 -0.254,0.31044 -0.39512,0.71966 -0.14111,0.40923 -0.14111,0.84667 0,0.46567 0.15523,0.86078 0.15522,0.39511 0.42333,0.69144 0.28222,0.29633 0.64911,0.46567 0.381,0.16933 0.81844,0.16933 z"
           style="font-style:normal;font-variant:normal;font-weight:bold;font-stretch:normal;font-size:14.1111px;font-family:Raleway;-inkscape-font-specification:'Raleway Bold';fill:#352929;fill-opacity:1;stroke-width:0.264583"
           id="path1361" />
        <path
           d="m 112.12086,166.26668 q -0.90311,0 -1.62278,-0.31045 -0.71966,-0.31044 -1.22766,-0.83255 -0.49389,-0.53623 -0.762,-1.22767 -0.26811,-0.69144 -0.26811,-1.45344 0,-0.77611 0.26811,-1.46756 0.26811,-0.69144 0.762,-1.21355 0.508,-0.53622 1.22766,-0.84667 0.71967,-0.31044 1.62278,-0.31044 0.90311,0 1.60866,0.31044 0.71967,0.31045 1.21356,0.84667 0.508,0.52211 0.77611,1.21355 0.26811,0.69145 0.26811,1.46756 0,0.762 -0.26811,1.45344 -0.26811,0.69144 -0.762,1.22767 -0.49389,0.52211 -1.21355,0.83255 -0.71967,0.31045 -1.62278,0.31045 z m -1.93322,-3.82411 q 0,0.49389 0.14111,0.90311 0.15522,0.39511 0.40922,0.69144 0.26811,0.29633 0.62089,0.46567 0.35278,0.15522 0.762,0.15522 0.40922,0 0.762,-0.15522 0.35278,-0.16934 0.60678,-0.46567 0.26811,-0.29633 0.40922,-0.70555 0.15522,-0.40923 0.15522,-0.90311 0,-0.47978 -0.15522,-0.889 -0.14111,-0.40922 -0.40922,-0.70556 -0.254,-0.29633 -0.60678,-0.45155 -0.35278,-0.16934 -0.762,-0.16934 -0.40922,0 -0.762,0.16934 -0.35278,0.16933 -0.62089,0.46566 -0.254,0.29634 -0.40922,0.70556 -0.14111,0.40922 -0.14111,0.889 z"
           style="font-style:normal;font-variant:normal;font-weight:bold;font-stretch:normal;font-size:14.1111px;font-family:Raleway;-inkscape-font-specification:'Raleway Bold';fill:#352929;fill-opacity:1;stroke-width:0.264583"
           id="path1363" />
        <path
           d="m 120.10157,166.26668 q -0.45156,0 -0.94545,-0.0706 -0.47977,-0.0706 -0.94544,-0.19756 -0.46567,-0.127 -0.889,-0.31044 -0.42333,-0.18344 -0.74789,-0.40922 l 0.762,-1.28411 q 1.41111,0.91722 2.72344,0.91722 0.59267,0 0.93134,-0.21167 0.33866,-0.21166 0.33866,-0.60677 0,-0.39511 -0.40922,-0.57856 -0.39511,-0.19755 -1.34055,-0.42333 -0.71967,-0.16934 -1.22767,-0.35278 -0.508,-0.18344 -0.81844,-0.42333 -0.31045,-0.23989 -0.45156,-0.55034 -0.14111,-0.31044 -0.14111,-0.73377 0,-0.56445 0.22578,-1.016 0.22578,-0.45156 0.62089,-0.762 0.40922,-0.32456 0.94544,-0.49389 0.55033,-0.16933 1.18533,-0.16933 0.79023,0 1.56634,0.254 0.79022,0.23989 1.46755,0.66322 l -0.77611,1.17122 q -0.62089,-0.39511 -1.17122,-0.56444 -0.55033,-0.18345 -1.10067,-0.18345 -0.508,0 -0.86077,0.19756 -0.33867,0.19755 -0.33867,0.635 0,0.381 0.32455,0.55033 0.33867,0.16933 1.18534,0.381 0.79022,0.19755 1.34055,0.39511 0.56445,0.19756 0.91722,0.45156 0.36689,0.25399 0.52211,0.59266 0.16934,0.32456 0.16934,0.79022 0,0.53622 -0.22578,0.97367 -0.21167,0.43744 -0.60678,0.74789 -0.39511,0.29633 -0.97366,0.46566 -0.56445,0.15523 -1.25589,0.15523 z"
           style="font-style:normal;font-variant:normal;font-weight:bold;font-stretch:normal;font-size:14.1111px;font-family:Raleway;-inkscape-font-specification:'Raleway Bold';fill:#352929;fill-opacity:1;stroke-width:0.264583"
           id="path1365" />
        <path
           d="m 136.33066,156.10668 v 10.01888 h -1.93322 v -4.27566 h -4.54378 v 4.27566 h -1.94733 v -10.01888 h 1.94733 v 4.04989 h 4.54378 v -4.04989 z"
           style="font-style:normal;font-variant:normal;font-weight:bold;font-stretch:normal;font-size:14.1111px;font-family:Raleway;-inkscape-font-specification:'Raleway Bold';fill:#352929;fill-opacity:1;stroke-width:0.264583"
           id="path1367" />
        <path
           d="m 141.63841,166.26668 q -0.90311,0 -1.62277,-0.31045 -0.71967,-0.31044 -1.22767,-0.83255 -0.49389,-0.53623 -0.762,-1.22767 -0.26811,-0.69144 -0.26811,-1.45344 0,-0.77611 0.26811,-1.46756 0.26811,-0.69144 0.762,-1.21355 0.508,-0.53622 1.22767,-0.84667 0.71966,-0.31044 1.62277,-0.31044 0.90311,0 1.60867,0.31044 0.71967,0.31045 1.21355,0.84667 0.508,0.52211 0.77611,1.21355 0.26812,0.69145 0.26812,1.46756 0,0.762 -0.26812,1.45344 -0.26811,0.69144 -0.76199,1.22767 -0.49389,0.52211 -1.21356,0.83255 -0.71967,0.31045 -1.62278,0.31045 z m -1.93322,-3.82411 q 0,0.49389 0.14111,0.90311 0.15523,0.39511 0.40923,0.69144 0.26811,0.29633 0.62088,0.46567 0.35278,0.15522 0.762,0.15522 0.40923,0 0.762,-0.15522 0.35278,-0.16934 0.60678,-0.46567 0.26811,-0.29633 0.40922,-0.70555 0.15523,-0.40923 0.15523,-0.90311 0,-0.47978 -0.15523,-0.889 -0.14111,-0.40922 -0.40922,-0.70556 -0.254,-0.29633 -0.60678,-0.45155 -0.35277,-0.16934 -0.762,-0.16934 -0.40922,0 -0.762,0.16934 -0.35277,0.16933 -0.62088,0.46566 -0.254,0.29634 -0.40923,0.70556 -0.14111,0.40922 -0.14111,0.889 z"
           style="font-style:normal;font-variant:normal;font-weight:bold;font-stretch:normal;font-size:14.1111px;font-family:Raleway;-inkscape-font-specification:'Raleway Bold';fill:#352929;fill-opacity:1;stroke-width:0.264583"
           id="path1369" />
        <path
           d="m 146.60398,167.5649 q 0.254,0.0705 0.46567,0.0988 0.21166,0.0282 0.36688,0.0282 0.18345,0 0.32456,-0.0706 0.14111,-0.0564 0.26811,-0.22578 0.14111,-0.16933 0.26811,-0.47977 0.14111,-0.29634 0.29633,-0.79023 l -2.9351,-7.39421 h 1.94733 l 2.01788,5.75733 1.778,-5.75733 h 1.778 l -3.11855,8.86177 q -0.29633,0.84667 -0.94545,1.29822 -0.64911,0.46567 -1.50988,0.46567 -0.49389,0 -1.00189,-0.15523 z"
           style="font-style:normal;font-variant:normal;font-weight:bold;font-stretch:normal;font-size:14.1111px;font-family:Raleway;-inkscape-font-specification:'Raleway Bold';fill:#352929;fill-opacity:1;stroke-width:0.264583"
           id="path1371" />
      </g>
      <g
         aria-label="Más Leídos Hoy"
         id="text87"
         style="font-style:normal;font-variant:normal;font-weight:bold;font-stretch:normal;font-size:14.1111px;line-height:1.25;font-family:Raleway;-inkscape-font-specification:'Raleway Bold';fill:#ffffff;stroke-width:0.264583">
        <path
           d="m 57.175764,165.59641 v -6.63222 l -2.582331,4.93888 h -1.058332 l -2.582332,-4.93888 v 6.63222 h -1.947332 v -10.01889 h 2.088443 l 2.963331,5.70089 2.991553,-5.70089 h 2.074332 v 10.01889 z"
           style="font-style:normal;font-variant:normal;font-weight:bold;font-stretch:normal;font-size:14.1111px;font-family:Raleway;-inkscape-font-specification:'Raleway Bold';fill:#ffffff;stroke-width:0.264583"
           id="path1374" />
        <path
           d="m 63.049289,165.73752 q -0.536222,0 -1.001888,-0.16934 -0.465666,-0.18344 -0.804333,-0.49389 -0.338666,-0.32455 -0.536221,-0.74788 -0.183445,-0.42334 -0.183445,-0.93134 0,-0.52211 0.225778,-0.95955 0.239889,-0.45156 0.64911,-0.762 0.423333,-0.31045 1.001889,-0.47978 0.578555,-0.18344 1.269999,-0.18344 0.493888,0 0.959554,0.0847 0.479778,0.0847 0.846666,0.23989 v -0.42333 q 0,-0.73378 -0.423333,-1.12889 -0.409222,-0.39511 -1.227665,-0.39511 -0.592667,0 -1.157111,0.21167 -0.564444,0.21166 -1.15711,0.62089 l -0.578555,-1.19945 q 1.425221,-0.94544 3.07622,-0.94544 1.594554,0 2.469443,0.79022 0.888999,0.77611 0.888999,2.25778 v 2.30011 q 0,0.29633 0.112889,0.42333 0.112888,0.127 0.39511,0.14111 v 1.60867 q -0.26811,0.0564 -0.507999,0.0705 -0.225778,0.0282 -0.395111,0.0282 -0.536222,-0.0141 -0.818444,-0.23989 -0.282222,-0.23988 -0.352777,-0.635 l -0.04233,-0.40922 q -0.493888,0.64911 -1.199443,0.98778 -0.705555,0.33867 -1.509888,0.33867 z m 0.536222,-1.38289 q 0.479777,0 0.90311,-0.16933 0.437444,-0.16934 0.677333,-0.45156 0.310444,-0.23989 0.310444,-0.53622 v -0.84667 q -0.338666,-0.127 -0.733777,-0.19755 -0.395111,-0.0847 -0.761999,-0.0847 -0.733777,0 -1.199444,0.33867 -0.465666,0.32455 -0.465666,0.83255 0,0.47978 0.366889,0.80433 0.366888,0.31045 0.90311,0.31045 z m 0.917221,-7.01322 -1.213554,-0.36689 0.761999,-1.67922 h 1.763888 z"
           style="font-style:normal;font-variant:normal;font-weight:bold;font-stretch:normal;font-size:14.1111px;font-family:Raleway;-inkscape-font-specification:'Raleway Bold';fill:#ffffff;stroke-width:0.264583"
           id="path1376" />
        <path
           d="m 72.096269,165.73752 q -0.451555,0 -0.945443,-0.0706 -0.479778,-0.0705 -0.945444,-0.19755 -0.465666,-0.127 -0.888999,-0.31045 -0.423333,-0.18344 -0.747889,-0.40922 l 0.762,-1.28411 q 1.41111,0.91722 2.723442,0.91722 0.592666,0 0.931333,-0.21167 0.338666,-0.21166 0.338666,-0.60677 0,-0.39511 -0.409222,-0.57856 -0.395111,-0.19755 -1.340554,-0.42333 -0.719666,-0.16933 -1.227666,-0.35278 -0.508,-0.18344 -0.818444,-0.42333 -0.310444,-0.23989 -0.451555,-0.55033 -0.141111,-0.31045 -0.141111,-0.73378 0,-0.56445 0.225778,-1.016 0.225777,-0.45156 0.620888,-0.762 0.409222,-0.32456 0.945444,-0.49389 0.550333,-0.16933 1.185332,-0.16933 0.790222,0 1.566332,0.254 0.790222,0.23989 1.467555,0.66322 l -0.776111,1.17122 q -0.620888,-0.39511 -1.171221,-0.56444 -0.550333,-0.18345 -1.100666,-0.18345 -0.508,0 -0.860777,0.19756 -0.338667,0.19755 -0.338667,0.635 0,0.381 0.324556,0.55033 0.338666,0.16933 1.185332,0.381 0.790222,0.19755 1.340555,0.39511 0.564444,0.19756 0.917221,0.45156 0.366889,0.254 0.522111,0.59266 0.169333,0.32456 0.169333,0.79022 0,0.53623 -0.225777,0.97367 -0.211667,0.43744 -0.606778,0.74789 -0.395111,0.29633 -0.973666,0.46566 -0.564444,0.15523 -1.255888,0.15523 z"
           style="font-style:normal;font-variant:normal;font-weight:bold;font-stretch:normal;font-size:14.1111px;font-family:Raleway;-inkscape-font-specification:'Raleway Bold';fill:#ffffff;stroke-width:0.264583"
           id="path1378" />
        <path
           d="m 79.901029,165.59641 v -10.01889 h 1.947332 v 8.31144 h 5.108218 v 1.70745 z"
           style="font-style:normal;font-variant:normal;font-weight:bold;font-stretch:normal;font-size:14.1111px;font-family:Raleway;-inkscape-font-specification:'Raleway Bold';fill:#ffffff;stroke-width:0.264583"
           id="path1380" />
        <path
           d="m 91.469927,165.73752 q -0.888999,0 -1.608665,-0.29634 -0.719666,-0.31044 -1.227666,-0.83255 -0.507999,-0.52211 -0.790221,-1.21356 -0.268111,-0.69144 -0.268111,-1.45344 0,-0.79022 0.268111,-1.48167 0.268111,-0.70555 0.77611,-1.22766 0.508,-0.53622 1.227666,-0.84667 0.733777,-0.31044 1.636887,-0.31044 0.903111,0 1.608666,0.31044 0.719666,0.31045 1.213554,0.83256 0.508,0.52211 0.762,1.21355 0.268111,0.69145 0.268111,1.43933 0,0.18345 -0.01411,0.35278 0,0.16934 -0.02822,0.28222 H 89.57904 q 0.04233,0.43745 0.211666,0.77611 0.169334,0.33867 0.437445,0.57856 0.26811,0.23989 0.606777,0.36689 0.338666,0.127 0.705555,0.127 0.564444,0 1.058332,-0.26811 0.508,-0.28222 0.691444,-0.73378 l 1.622777,0.45156 q -0.409222,0.84666 -1.312333,1.39699 -0.888999,0.53623 -2.130776,0.53623 z m 1.91911,-4.45911 q -0.07056,-0.83256 -0.620888,-1.32645 -0.536222,-0.50799 -1.312333,-0.50799 -0.380999,0 -0.719666,0.14111 -0.324555,0.127 -0.578555,0.36688 -0.254,0.23989 -0.423333,0.57856 -0.155222,0.33867 -0.183444,0.74789 z"
           style="font-style:normal;font-variant:normal;font-weight:bold;font-stretch:normal;font-size:14.1111px;font-family:Raleway;-inkscape-font-specification:'Raleway Bold';fill:#ffffff;stroke-width:0.264583"
           id="path1382" />
        <path
           d="m 97.913187,157.34141 -1.213554,-0.36689 0.761999,-1.67922 h 1.763888 z m -1.425221,8.255 v -7.39422 h 1.890888 v 7.39422 z"
           style="font-style:normal;font-variant:normal;font-weight:bold;font-stretch:normal;font-size:14.1111px;font-family:Raleway;-inkscape-font-specification:'Raleway Bold';fill:#ffffff;stroke-width:0.264583"
           id="path1384" />
        <path
           d="m 103.13297,165.73752 q -0.762,0 -1.41111,-0.29634 -0.635,-0.29633 -1.10066,-0.81844 -0.46567,-0.52211 -0.733781,-1.21356 -0.254,-0.70555 -0.254,-1.50988 0,-0.80434 0.239889,-1.49578 0.254002,-0.69144 0.691442,-1.21355 0.43745,-0.52212 1.04422,-0.81845 0.60678,-0.29633 1.32645,-0.29633 0.80433,0 1.45344,0.39511 0.66322,0.39511 1.03011,1.03011 v -4.20511 h 1.89089 v 8.128 q 0,0.29633 0.11289,0.42333 0.11289,0.127 0.39511,0.14111 v 1.60867 q -0.53622,0.0988 -0.90311,0.0988 -0.52211,-0.0141 -0.81845,-0.23989 -0.28222,-0.22577 -0.35277,-0.635 l -0.0423,-0.508 q -0.40922,0.70556 -1.10066,1.07245 -0.69145,0.35278 -1.46756,0.35278 z m 0.49389,-1.60867 q 0.26811,0 0.55033,-0.0847 0.28223,-0.0988 0.52211,-0.26811 0.23989,-0.16933 0.43745,-0.39511 0.19755,-0.22578 0.29633,-0.49389 v -1.76388 q -0.23989,-0.62089 -0.79022,-1.03011 -0.53622,-0.40923 -1.12889,-0.40923 -0.42333,0 -0.79022,0.18345 -0.35278,0.18344 -0.60678,0.508 -0.254,0.31044 -0.39511,0.71966 -0.14111,0.40923 -0.14111,0.84667 0,0.46567 0.15522,0.86078 0.15523,0.39511 0.42334,0.69144 0.28222,0.29633 0.64911,0.46567 0.381,0.16933 0.81844,0.16933 z"
           style="font-style:normal;font-variant:normal;font-weight:bold;font-stretch:normal;font-size:14.1111px;font-family:Raleway;-inkscape-font-specification:'Raleway Bold';fill:#ffffff;stroke-width:0.264583"
           id="path1386" />
        <path
           d="m 112.65003,165.73752 q -0.90311,0 -1.62278,-0.31045 -0.71967,-0.31044 -1.22767,-0.83255 -0.49388,-0.53622 -0.762,-1.22767 -0.26811,-0.69144 -0.26811,-1.45344 0,-0.77611 0.26811,-1.46756 0.26812,-0.69144 0.762,-1.21355 0.508,-0.53622 1.22767,-0.84667 0.71967,-0.31044 1.62278,-0.31044 0.90311,0 1.60866,0.31044 0.71967,0.31045 1.21356,0.84667 0.508,0.52211 0.77611,1.21355 0.26811,0.69145 0.26811,1.46756 0,0.762 -0.26811,1.45344 -0.26811,0.69145 -0.762,1.22767 -0.49389,0.52211 -1.21356,0.83255 -0.71966,0.31045 -1.62277,0.31045 z m -1.93322,-3.82411 q 0,0.49389 0.14111,0.90311 0.15522,0.39511 0.40922,0.69144 0.26811,0.29634 0.62089,0.46567 0.35277,0.15522 0.762,0.15522 0.40922,0 0.762,-0.15522 0.35277,-0.16933 0.60677,-0.46567 0.26811,-0.29633 0.40922,-0.70555 0.15523,-0.40922 0.15523,-0.90311 0,-0.47978 -0.15523,-0.889 -0.14111,-0.40922 -0.40922,-0.70556 -0.254,-0.29633 -0.60677,-0.45155 -0.35278,-0.16934 -0.762,-0.16934 -0.40923,0 -0.762,0.16934 -0.35278,0.16933 -0.62089,0.46566 -0.254,0.29634 -0.40922,0.70556 -0.14111,0.40922 -0.14111,0.889 z"
           style="font-style:normal;font-variant:normal;font-weight:bold;font-stretch:normal;font-size:14.1111px;font-family:Raleway;-inkscape-font-specification:'Raleway Bold';fill:#ffffff;stroke-width:0.264583"
           id="path1388" />
        <path
           d="m 120.63074,165.73752 q -0.45156,0 -0.94545,-0.0706 -0.47978,-0.0705 -0.94544,-0.19755 -0.46567,-0.127 -0.889,-0.31045 -0.42333,-0.18344 -0.74789,-0.40922 l 0.762,-1.28411 q 1.41111,0.91722 2.72344,0.91722 0.59267,0 0.93133,-0.21167 0.33867,-0.21166 0.33867,-0.60677 0,-0.39511 -0.40922,-0.57856 -0.39511,-0.19755 -1.34056,-0.42333 -0.71966,-0.16933 -1.22766,-0.35278 -0.508,-0.18344 -0.81845,-0.42333 -0.31044,-0.23989 -0.45155,-0.55033 -0.14111,-0.31045 -0.14111,-0.73378 0,-0.56445 0.22578,-1.016 0.22577,-0.45156 0.62088,-0.762 0.40923,-0.32456 0.94545,-0.49389 0.55033,-0.16933 1.18533,-0.16933 0.79022,0 1.56633,0.254 0.79022,0.23989 1.46756,0.66322 l -0.77611,1.17122 q -0.62089,-0.39511 -1.17122,-0.56444 -0.55034,-0.18345 -1.10067,-0.18345 -0.508,0 -0.86078,0.19756 -0.33866,0.19755 -0.33866,0.635 0,0.381 0.32455,0.55033 0.33867,0.16933 1.18533,0.381 0.79023,0.19755 1.34056,0.39511 0.56444,0.19756 0.91722,0.45156 0.36689,0.254 0.52211,0.59266 0.16933,0.32456 0.16933,0.79022 0,0.53623 -0.22577,0.97367 -0.21167,0.43744 -0.60678,0.74789 -0.39511,0.29633 -0.97367,0.46566 -0.56444,0.15523 -1.25588,0.15523 z"
           style="font-style:normal;font-variant:normal;font-weight:bold;font-stretch:normal;font-size:14.1111px;font-family:Raleway;-inkscape-font-specification:'Raleway Bold';fill:#ffffff;stroke-width:0.264583"
           id="path1390" />
        <path
           d="m 136.85983,155.57752 v 10.01889 h -1.93323 v -4.27567 h -4.54377 v 4.27567 h -1.94733 v -10.01889 h 1.94733 v 4.04989 h 4.54377 v -4.04989 z"
           style="font-style:normal;font-variant:normal;font-weight:bold;font-stretch:normal;font-size:14.1111px;font-family:Raleway;-inkscape-font-specification:'Raleway Bold';fill:#ffffff;stroke-width:0.264583"
           id="path1392" />
        <path
           d="m 142.16758,165.73752 q -0.90311,0 -1.62277,-0.31045 -0.71967,-0.31044 -1.22767,-0.83255 -0.49389,-0.53622 -0.762,-1.22767 -0.26811,-0.69144 -0.26811,-1.45344 0,-0.77611 0.26811,-1.46756 0.26811,-0.69144 0.762,-1.21355 0.508,-0.53622 1.22767,-0.84667 0.71966,-0.31044 1.62277,-0.31044 0.90311,0 1.60867,0.31044 0.71966,0.31045 1.21355,0.84667 0.508,0.52211 0.77611,1.21355 0.26811,0.69145 0.26811,1.46756 0,0.762 -0.26811,1.45344 -0.26811,0.69145 -0.762,1.22767 -0.49389,0.52211 -1.21355,0.83255 -0.71967,0.31045 -1.62278,0.31045 z m -1.93322,-3.82411 q 0,0.49389 0.14111,0.90311 0.15522,0.39511 0.40922,0.69144 0.26811,0.29634 0.62089,0.46567 0.35278,0.15522 0.762,0.15522 0.40922,0 0.762,-0.15522 0.35278,-0.16933 0.60678,-0.46567 0.26811,-0.29633 0.40922,-0.70555 0.15522,-0.40922 0.15522,-0.90311 0,-0.47978 -0.15522,-0.889 -0.14111,-0.40922 -0.40922,-0.70556 -0.254,-0.29633 -0.60678,-0.45155 -0.35278,-0.16934 -0.762,-0.16934 -0.40922,0 -0.762,0.16934 -0.35278,0.16933 -0.62089,0.46566 -0.254,0.29634 -0.40922,0.70556 -0.14111,0.40922 -0.14111,0.889 z"
           style="font-style:normal;font-variant:normal;font-weight:bold;font-stretch:normal;font-size:14.1111px;font-family:Raleway;-inkscape-font-specification:'Raleway Bold';fill:#ffffff;stroke-width:0.264583"
           id="path1394" />
        <path
           d="m 147.13315,167.03574 q 0.254,0.0705 0.46566,0.0988 0.21167,0.0282 0.36689,0.0282 0.18345,0 0.32456,-0.0706 0.14111,-0.0564 0.26811,-0.22578 0.14111,-0.16933 0.26811,-0.47977 0.14111,-0.29634 0.29633,-0.79022 l -2.93511,-7.39422 h 1.94733 l 2.01789,5.75733 1.778,-5.75733 h 1.778 l -3.11855,8.86177 q -0.29634,0.84667 -0.94545,1.29822 -0.64911,0.46567 -1.50989,0.46567 -0.49388,0 -1.00188,-0.15523 z"
           style="font-style:normal;font-variant:normal;font-weight:bold;font-stretch:normal;font-size:14.1111px;font-family:Raleway;-inkscape-font-specification:'Raleway Bold';fill:#ffffff;stroke-width:0.264583"
           id="path1396" />
      </g>
    </g>
  </g>
</svg>
