<?xml version="1.0" encoding="UTF-8" standalone="no"?>
<svg
   xmlns:dc="http://purl.org/dc/elements/1.1/"
   xmlns:cc="http://creativecommons.org/ns#"
   xmlns:rdf="http://www.w3.org/1999/02/22-rdf-syntax-ns#"
   xmlns:svg="http://www.w3.org/2000/svg"
   xmlns="http://www.w3.org/2000/svg"
   xmlns:sodipodi="http://sodipodi.sourceforge.net/DTD/sodipodi-0.dtd"
   xmlns:inkscape="http://www.inkscape.org/namespaces/inkscape"
   width="199.9335"
   height="35"
   viewBox="0 0 52.899071 9.2604167"
   version="1.1"
   id="svg1352"
   inkscape:version="1.0.1 (3bc2e813f5, 2020-09-07)"
   sodipodi:docname="misarticulos.svg">
  <defs
     id="defs1346" />
  <sodipodi:namedview
     id="base"
     pagecolor="#ffffff"
     bordercolor="#666666"
     borderopacity="1.0"
     inkscape:pageopacity="0.0"
     inkscape:pageshadow="2"
     inkscape:zoom="2.7923323"
     inkscape:cx="87.039596"
     inkscape:cy="50.401247"
     inkscape:document-units="px"
     inkscape:current-layer="layer1"
     inkscape:document-rotation="0"
     showgrid="false"
     units="px"
     inkscape:window-width="1366"
     inkscape:window-height="704"
     inkscape:window-x="0"
     inkscape:window-y="27"
     inkscape:window-maximized="1" />
  <metadata
     id="metadata1349">
    <rdf:RDF>
      <cc:Work
         rdf:about="">
        <dc:format>image/svg+xml</dc:format>
        <dc:type
           rdf:resource="http://purl.org/dc/dcmitype/StillImage" />
        <dc:title />
      </cc:Work>
    </rdf:RDF>
  </metadata>
  <g
     inkscape:label="Layer 1"
     inkscape:groupmode="layer"
     id="layer1"
     transform="translate(-44.024306,-121.58131)">
    <g
       id="g2013"
       transform="matrix(0.58080918,0,0,0.58080918,17.95194,50.965769)">
      <path
         id="path1057"
         style="color:#000000;font-style:normal;font-variant:normal;font-weight:bold;font-stretch:normal;font-size:14.1111px;line-height:1.25;font-family:Raleway;-inkscape-font-specification:'Raleway Bold';font-variant-ligatures:normal;font-variant-position:normal;font-variant-caps:normal;font-variant-numeric:normal;font-variant-alternates:normal;font-variant-east-asian:normal;font-feature-settings:normal;font-variation-settings:normal;text-indent:0;text-align:start;text-decoration:none;text-decoration-line:none;text-decoration-style:solid;text-decoration-color:#000000;letter-spacing:normal;word-spacing:normal;text-transform:none;writing-mode:lr-tb;direction:ltr;text-orientation:mixed;dominant-baseline:auto;baseline-shift:baseline;text-anchor:start;white-space:normal;shape-padding:0;shape-margin:0;inline-size:0;clip-rule:nonzero;display:inline;overflow:visible;visibility:visible;isolation:auto;mix-blend-mode:normal;color-interpolation:sRGB;color-interpolation-filters:linearRGB;solid-color:#000000;solid-opacity:1;vector-effect:none;fill:#000000;fill-opacity:1;fill-rule:nonzero;stroke:none;stroke-width:2.64999;stroke-linecap:butt;stroke-linejoin:miter;stroke-miterlimit:4;stroke-dasharray:none;stroke-dashoffset:0;stroke-opacity:1;color-rendering:auto;image-rendering:auto;shape-rendering:auto;text-rendering:auto;enable-background:accumulate;stop-color:#000000"
         d="m 76.96648,121.86467 -4.689622,4.32175 -1.154454,-0.72089 c -0.548857,-0.34303 -1.144802,-0.60842 -1.773534,-0.80046 -0.639037,-0.20744 -1.299144,-0.31678 -1.962671,-0.31678 v 10e-4 c -0.541107,0 -1.070269,0.0714 -1.574065,0.22635 l -0.0062,0.002 -0.0036,0.002 c -0.494729,0.15624 -0.960901,0.39514 -1.36529,0.71469 -7.25e-4,5.7e-4 -0.0013,0.001 -0.0021,0.002 -0.05377,0.0423 -0.102711,0.0905 -0.153995,0.13591 v -0.94258 -2.90835 h -4.541325 v 0.28319 h -3.4432 l -2.185397,4.16409 -2.16421,-4.16409 h -4.218863 l -2.838227,2.83823 v 12.67003 h 4.597651 l 3.117123,-1.69344 0.455268,-0.87125 v 2.56469 h 1.326018 c 2.213987,0.36723 6.899676,-0.47415 8.105449,-0.17415 0.843607,0.2736 1.258244,0.31472 2.238621,0.31472 0.560113,0 1.097468,-0.063 1.607138,-0.2031 l 0.01188,-0.002 0.0098,-0.004 c 2.986963,-1.4911 0.798939,0.0374 4.72066,0.0687 h 2.984315 c 3.312681,-3.36587 3.081947,0 8.427908,0 h 2.158007 l 2.347643,-0.61664 0.02946,0.0253 0.02946,0.0238 c 0.313,0.24706 0.676551,0.43182 1.056264,0.5426 l 0.0078,0.002 0.0062,0.002 c 0.358889,0.10052 0.73151,0.14833 1.105358,0.14833 5.064265,-1.06373 8.453018,-0.0172 10.099738,0.0136 4.052002,-2.49403 5.234042,1.34576 9.064562,-0.52142 h 0.002 c 0.071,-0.0351 0.1068,-0.11779 0.1757,-0.15658 0.0269,0.0254 0.0246,0.0701 0.0527,0.094 l 0.0269,0.0233 0.0274,0.0217 c 0.48788,0.37171 1.07269,0.49609 1.60765,0.49609 0.17084,0 0.33999,-0.0132 0.51366,-0.0336 0.21304,-0.015 0.42587,-0.0447 0.65216,-0.0878 1.2071,-0.63047 1.78933,0.12535 2.99827,0.1369 0.37944,0 0.76583,-0.0443 1.16995,-0.12298 0.42859,-0.0833 0.83313,-0.20888 1.21078,-0.39068 l 0.65371,-0.3147 c 0.25566,0.16706 0.52549,0.3153 0.80925,0.4377 0.66486,0.28681 1.39274,0.41807 2.14664,0.41807 0.75389,0 1.48332,-0.13126 2.14819,-0.41807 0.52141,-0.22492 0.99842,-0.52848 1.40922,-0.90382 l 0.13952,0.0972 c 0.29996,0.20865 0.62585,0.38539 0.97669,0.53742 1.20682,0.49689 2.03257,0.68731 3.30625,0.68731 0.56011,0 1.09799,-0.063 1.60766,-0.2031 l 0.01,-0.002 0.0119,-0.004 c 0.50765,-0.14857 0.98146,-0.36632 1.3963,-0.67747 l 0.0119,-0.008 0.0119,-0.01 3.80875,-4.03951 c 0.24548,-0.48324 0.36896,-1.0259 0.36896,-1.56269 0,-0.45926 -0.092,-0.9294 -0.31212,-1.36684 -0.21416,-0.45027 -0.55219,-0.82061 -0.93586,-1.08986 l 0.004,-0.004 c -0.003,-0.002 -0.008,-0.002 -0.0119,-0.004 -0.003,-0.002 -0.003,-0.006 -0.006,-0.008 l 0.0176,0.0114 1.56218,-2.35903 -1.15238,-0.72089 c -0.54885,-0.34303 -1.14428,-0.60842 -1.77302,-0.80046 -0.63903,-0.20744 -1.29966,-0.31678 -1.96319,-0.31678 v 10e-4 c -0.5411,0 -1.07233,0.0714 -1.57613,0.22635 l -0.004,0.002 -0.006,0.002 c -0.49473,0.15624 -0.95883,0.39514 -1.36323,0.71469 -7.2e-4,5.7e-4 -0.001,0.001 -0.002,0.002 -0.32383,0.25487 -0.60189,0.56896 -0.82062,0.91881 -0.0787,-0.0948 -0.15764,-0.18972 -0.2434,-0.27854 -0.45622,-0.49163 -1.01588,-0.8816 -1.64072,-1.15238 -0.001,-5.1e-4 -0.003,5.1e-4 -0.004,0 -0.6602,-0.28983 -1.3858,-0.42168 -2.13837,-0.42168 -0.7539,0 -1.48177,0.13125 -2.14664,0.41806 -0.63043,0.27195 -1.19827,0.6608 -1.66398,1.15239 h -0.002 c -0.32994,0.34878 -0.60638,0.74618 -0.82424,1.17564 v -5.52732 h -4.5408 v 1.32602 1.58233 h -8.82065 v 0.84646 c -0.12113,-0.0896 -0.24475,-0.17551 -0.37414,-0.25425 -0.8045,-0.49514 -1.75456,-0.71881 -2.75229,-0.71881 l -5.2e-4,-5.2e-4 c -0.7539,0 -1.48177,0.13125 -2.14663,0.41806 -0.623743,0.26906 -1.186883,0.64686 -1.652103,1.125 -0.004,0.004 -0.006,0.008 -0.01,0.0114 v -1.30225 l 1.945103,-3.03341 h -5.040523 l -1.320326,2.90835 h -0.125058 v 5.2e-4 h -0.437701 v -2.3983 l -4.540808,-5.2e-4 v 2.32906 c -0.016,-0.001 -0.03246,-0.003 -0.04909,-0.005 l -0.01757,-0.002 c -0.213717,-0.0408 -0.330308,-0.0372 -0.468704,-0.0372 v 5.2e-4 c -0.346972,0 -0.632531,0.2281 -0.960665,0.3359 v -0.22273 h -4.385262 l -0.86411,1.78054 -1.731598,-4.4057 c -2.475034,-0.56751 -0.992925,-5.4e-4 -3.384115,-5.4e-4 z"
         sodipodi:nodetypes="cccccccccsccccccccccccccccccccccccccccccccccccccccsccccscssscccccccccccsccccccccccccccscccccssccccccccccccsccccccccccccccccccccccc" />
      <g
         aria-label="Mis Artículos"
         id="text1323"
         style="font-style:normal;font-variant:normal;font-weight:bold;font-stretch:normal;font-size:14.1111px;line-height:1.25;font-family:Raleway;-inkscape-font-specification:'Raleway Bold';fill:#362a2a;fill-opacity:1;stroke-width:0.264583">
        <path
           d="m 56.694842,133.7377 v -6.63222 l -2.582332,4.93889 h -1.058332 l -2.582331,-4.93889 v 6.63222 h -1.947332 v -10.01888 h 2.088443 l 2.963331,5.70088 2.991553,-5.70088 h 2.074332 v 10.01888 z"
           style="font-style:normal;font-variant:normal;font-weight:bold;font-stretch:normal;font-size:14.1111px;font-family:Raleway;-inkscape-font-specification:'Raleway Bold';fill:#362a2a;fill-opacity:1;stroke-width:0.264583"
           id="path1936" />
        <path
           d="m 60.536368,133.7377 v -7.39422 h 1.890887 v 7.39422 z m 0,-8.42433 v -1.87677 h 1.890887 v 1.87677 z"
           style="font-style:normal;font-variant:normal;font-weight:bold;font-stretch:normal;font-size:14.1111px;font-family:Raleway;-inkscape-font-specification:'Raleway Bold';fill:#362a2a;fill-opacity:1;stroke-width:0.264583"
           id="path1938" />
        <path
           d="m 67.040262,133.87881 q -0.451555,0 -0.945444,-0.0705 -0.479777,-0.0706 -0.945443,-0.19756 -0.465667,-0.127 -0.889,-0.31044 -0.423333,-0.18345 -0.747888,-0.40922 l 0.761999,-1.28411 q 1.41111,0.91722 2.723443,0.91722 0.592666,0 0.931332,-0.21167 0.338667,-0.21167 0.338667,-0.60678 0,-0.39511 -0.409222,-0.57855 -0.395111,-0.19756 -1.340555,-0.42334 -0.719666,-0.16933 -1.227665,-0.35277 -0.508,-0.18345 -0.818444,-0.42334 -0.310444,-0.23988 -0.451555,-0.55033 -0.141111,-0.31044 -0.141111,-0.73378 0,-0.56444 0.225777,-1.01599 0.225778,-0.45156 0.620889,-0.762 0.409221,-0.32456 0.945443,-0.49389 0.550333,-0.16934 1.185333,-0.16934 0.790221,0 1.566332,0.254 0.790221,0.23989 1.467554,0.66323 l -0.77611,1.17122 q -0.620889,-0.39511 -1.171222,-0.56445 -0.550332,-0.18344 -1.100665,-0.18344 -0.508,0 -0.860777,0.19755 -0.338667,0.19756 -0.338667,0.635 0,0.381 0.324555,0.55034 0.338667,0.16933 1.185333,0.381 0.790221,0.19755 1.340554,0.39511 0.564444,0.19755 0.917222,0.45155 0.366888,0.254 0.522111,0.59267 0.169333,0.32455 0.169333,0.79022 0,0.53622 -0.225778,0.97367 -0.211666,0.43744 -0.606777,0.74788 -0.395111,0.29634 -0.973666,0.46567 -0.564444,0.15522 -1.255888,0.15522 z"
           style="font-style:normal;font-variant:normal;font-weight:bold;font-stretch:normal;font-size:14.1111px;font-family:Raleway;-inkscape-font-specification:'Raleway Bold';fill:#362a2a;fill-opacity:1;stroke-width:0.264583"
           id="path1940" />
        <path
           d="m 73.388053,133.7377 3.951108,-10.01888 h 1.580443 l 3.936997,10.01888 h -2.06022 l -0.917222,-2.49766 h -3.513664 l -0.917221,2.49766 z m 4.74133,-7.91633 -1.439332,4.04989 h 2.836331 z"
           style="font-style:normal;font-variant:normal;font-weight:bold;font-stretch:normal;font-size:14.1111px;font-family:Raleway;-inkscape-font-specification:'Raleway Bold';fill:#362a2a;fill-opacity:1;stroke-width:0.264583"
           id="path1942" />
        <path
           d="m 88.145177,127.98037 q -0.860778,0.0141 -1.53811,0.33867 -0.677333,0.31044 -0.973666,0.94544 v 4.47322 h -1.890888 v -7.39422 h 1.735666 v 1.58045 q 0.380999,-0.762 0.987777,-1.22767 0.620888,-0.46566 1.298221,-0.46566 0.155222,0 0.225777,0.0141 0.08467,0 0.155223,0.0141 z"
           style="font-style:normal;font-variant:normal;font-weight:bold;font-stretch:normal;font-size:14.1111px;font-family:Raleway;-inkscape-font-specification:'Raleway Bold';fill:#362a2a;fill-opacity:1;stroke-width:0.264583"
           id="path1944" />
        <path
           d="m 93.644537,133.3567 q -0.380999,0.16933 -0.945443,0.33867 -0.550333,0.16933 -1.157111,0.16933 -0.39511,0 -0.747888,-0.0988 -0.338666,-0.0988 -0.606777,-0.31044 -0.254,-0.22578 -0.409222,-0.56444 -0.155222,-0.35278 -0.155222,-0.84667 v -4.24744 h -0.959555 v -1.45345 h 0.959555 v -2.39888 h 1.890887 v 2.39888 h 1.566332 v 1.45345 h -1.566332 v 3.61244 q 0,0.39511 0.211667,0.56444 0.211666,0.15523 0.507999,0.15523 0.296333,0 0.578555,-0.0988 0.282222,-0.0988 0.451556,-0.16933 z"
           style="font-style:normal;font-variant:normal;font-weight:bold;font-stretch:normal;font-size:14.1111px;font-family:Raleway;-inkscape-font-specification:'Raleway Bold';fill:#362a2a;fill-opacity:1;stroke-width:0.264583"
           id="path1946" />
        <path
           d="m 96.026667,125.48271 -1.213555,-0.36689 0.762,-1.67922 h 1.763887 z m -1.425221,8.25499 v -7.39422 h 1.890887 v 7.39422 z"
           style="font-style:normal;font-variant:normal;font-weight:bold;font-stretch:normal;font-size:14.1111px;font-family:Raleway;-inkscape-font-specification:'Raleway Bold';fill:#362a2a;fill-opacity:1;stroke-width:0.264583"
           id="path1948" />
        <path
           d="m 97.732788,130.04059 q 0,-0.77611 0.268111,-1.46755 0.268111,-0.69145 0.77611,-1.21356 0.508,-0.52211 1.227661,-0.83255 0.71967,-0.31044 1.62278,-0.31044 1.21356,0 2.06022,0.52211 0.86078,0.52211 1.28411,1.36877 l -1.84855,0.56445 q -0.23989,-0.40923 -0.635,-0.62089 -0.39511,-0.22578 -0.87489,-0.22578 -0.40922,0 -0.762,0.16933 -0.35278,0.15523 -0.62089,0.45156 -0.253997,0.28222 -0.409219,0.69144 -0.141111,0.40922 -0.141111,0.90311 0,0.49389 0.155222,0.90311 0.155222,0.40923 0.409218,0.70556 0.26811,0.29633 0.62089,0.46566 0.35278,0.15523 0.74789,0.15523 0.508,0 0.93133,-0.254 0.43745,-0.254 0.60678,-0.62089 L 105,131.9597 q -0.381,0.84667 -1.25588,1.38289 -0.87489,0.53622 -2.10256,0.53622 -0.90311,0 -1.62277,-0.31044 -0.71967,-0.31045 -1.22767,-0.83256 -0.507999,-0.53622 -0.790221,-1.22766 -0.268111,-0.70556 -0.268111,-1.46756 z"
           style="font-style:normal;font-variant:normal;font-weight:bold;font-stretch:normal;font-size:14.1111px;font-family:Raleway;-inkscape-font-specification:'Raleway Bold';fill:#362a2a;fill-opacity:1;stroke-width:0.264583"
           id="path1950" />
        <path
           d="m 108.40717,133.87881 q -1.143,0 -1.73566,-0.73377 -0.59267,-0.73378 -0.59267,-2.17311 v -4.62845 h 1.89089 v 4.21922 q 0,1.70745 1.22766,1.70745 0.56445,0 1.07245,-0.32456 0.52211,-0.33866 0.84666,-1.016 v -4.58611 h 1.89089 v 5.22111 q 0,0.29634 0.11289,0.42333 0.11289,0.127 0.39511,0.14112 v 1.60866 q -0.29633,0.0565 -0.52211,0.0706 -0.22578,0.0282 -0.39511,0.0282 -0.508,0 -0.80433,-0.22578 -0.28223,-0.23989 -0.35278,-0.64911 l -0.0423,-0.60678 q -0.508,0.762 -1.28411,1.143 -0.762,0.381 -1.70745,0.381 z"
           style="font-style:normal;font-variant:normal;font-weight:bold;font-stretch:normal;font-size:14.1111px;font-family:Raleway;-inkscape-font-specification:'Raleway Bold';fill:#362a2a;fill-opacity:1;stroke-width:0.264583"
           id="path1952" />
        <path
           d="m 114.8996,123.4366 h 1.89089 v 7.84577 q 0,0.86078 0.77611,0.86078 0.15522,0 0.35278,-0.0564 0.21166,-0.0564 0.39511,-0.127 l 0.254,1.50989 q -0.381,0.18344 -0.889,0.28222 -0.508,0.0988 -0.91722,0.0988 -0.889,0 -1.38289,-0.46567 -0.47978,-0.47977 -0.47978,-1.35466 z"
           style="font-style:normal;font-variant:normal;font-weight:bold;font-stretch:normal;font-size:14.1111px;font-family:Raleway;-inkscape-font-specification:'Raleway Bold';fill:#362a2a;fill-opacity:1;stroke-width:0.264583"
           id="path1954" />
        <path
           d="m 122.75243,133.87881 q -0.90311,0 -1.62277,-0.31044 -0.71967,-0.31045 -1.22767,-0.83256 -0.49389,-0.53622 -0.762,-1.22766 -0.26811,-0.69145 -0.26811,-1.45345 0,-0.77611 0.26811,-1.46755 0.26811,-0.69144 0.762,-1.21355 0.508,-0.53623 1.22767,-0.84667 0.71966,-0.31044 1.62277,-0.31044 0.90311,0 1.60867,0.31044 0.71966,0.31044 1.21355,0.84667 0.508,0.52211 0.77611,1.21355 0.26811,0.69144 0.26811,1.46755 0,0.762 -0.26811,1.45345 -0.26811,0.69144 -0.762,1.22766 -0.49389,0.52211 -1.21355,0.83256 -0.71967,0.31044 -1.62278,0.31044 z m -1.93322,-3.82411 q 0,0.49389 0.14111,0.90311 0.15522,0.39512 0.40922,0.69145 0.26811,0.29633 0.62089,0.46566 0.35278,0.15523 0.762,0.15523 0.40922,0 0.762,-0.15523 0.35278,-0.16933 0.60678,-0.46566 0.26811,-0.29633 0.40922,-0.70556 0.15522,-0.40922 0.15522,-0.90311 0,-0.47977 -0.15522,-0.889 -0.14111,-0.40922 -0.40922,-0.70555 -0.254,-0.29633 -0.60678,-0.45156 -0.35278,-0.16933 -0.762,-0.16933 -0.40922,0 -0.762,0.16933 -0.35278,0.16934 -0.62089,0.46567 -0.254,0.29633 -0.40922,0.70555 -0.14111,0.40923 -0.14111,0.889 z"
           style="font-style:normal;font-variant:normal;font-weight:bold;font-stretch:normal;font-size:14.1111px;font-family:Raleway;-inkscape-font-specification:'Raleway Bold';fill:#362a2a;fill-opacity:1;stroke-width:0.264583"
           id="path1956" />
        <path
           d="m 130.73314,133.87881 q -0.45155,0 -0.94544,-0.0705 -0.47978,-0.0706 -0.94545,-0.19756 -0.46566,-0.127 -0.889,-0.31044 -0.42333,-0.18345 -0.74788,-0.40922 l 0.762,-1.28411 q 1.41111,0.91722 2.72344,0.91722 0.59266,0 0.93133,-0.21167 0.33867,-0.21167 0.33867,-0.60678 0,-0.39511 -0.40923,-0.57855 -0.39511,-0.19756 -1.34055,-0.42334 -0.71967,-0.16933 -1.22767,-0.35277 -0.508,-0.18345 -0.81844,-0.42334 -0.31044,-0.23988 -0.45155,-0.55033 -0.14112,-0.31044 -0.14112,-0.73378 0,-0.56444 0.22578,-1.01599 0.22578,-0.45156 0.62089,-0.762 0.40922,-0.32456 0.94544,-0.49389 0.55034,-0.16934 1.18534,-0.16934 0.79022,0 1.56633,0.254 0.79022,0.23989 1.46755,0.66323 l -0.77611,1.17122 q -0.62089,-0.39511 -1.17122,-0.56445 -0.55033,-0.18344 -1.10066,-0.18344 -0.508,0 -0.86078,0.19755 -0.33867,0.19756 -0.33867,0.635 0,0.381 0.32456,0.55034 0.33866,0.16933 1.18533,0.381 0.79022,0.19755 1.34055,0.39511 0.56445,0.19755 0.91723,0.45155 0.36688,0.254 0.52211,0.59267 0.16933,0.32455 0.16933,0.79022 0,0.53622 -0.22578,0.97367 -0.21166,0.43744 -0.60678,0.74788 -0.39511,0.29634 -0.97366,0.46567 -0.56445,0.15522 -1.25589,0.15522 z"
           style="font-style:normal;font-variant:normal;font-weight:bold;font-stretch:normal;font-size:14.1111px;font-family:Raleway;-inkscape-font-specification:'Raleway Bold';fill:#362a2a;fill-opacity:1;stroke-width:0.264583"
           id="path1958" />
      </g>
      <g
         aria-label="Mis Artículos"
         id="text1003"
         style="font-style:normal;font-variant:normal;font-weight:bold;font-stretch:normal;font-size:14.1111px;line-height:1.25;font-family:Raleway;-inkscape-font-specification:'Raleway Bold';fill:#ffffff;fill-opacity:1;stroke-width:0.264583">
        <path
           d="m 57.224009,133.20854 v -6.63222 l -2.582331,4.93889 h -1.058333 l -2.582331,-4.93889 v 6.63222 h -1.947332 v -10.01888 h 2.088443 l 2.963331,5.70089 2.991553,-5.70089 h 2.074332 v 10.01888 z"
           style="font-style:normal;font-variant:normal;font-weight:bold;font-stretch:normal;font-size:14.1111px;font-family:Raleway;-inkscape-font-specification:'Raleway Bold';fill:#ffffff;fill-opacity:1;stroke-width:0.264583"
           id="path1961" />
        <path
           d="m 61.065535,133.20854 v -7.39421 h 1.890888 v 7.39421 z m 0,-8.42432 v -1.87678 h 1.890888 v 1.87678 z"
           style="font-style:normal;font-variant:normal;font-weight:bold;font-stretch:normal;font-size:14.1111px;font-family:Raleway;-inkscape-font-specification:'Raleway Bold';fill:#ffffff;fill-opacity:1;stroke-width:0.264583"
           id="path1963" />
        <path
           d="m 67.569429,133.34965 q -0.451555,0 -0.945444,-0.0705 -0.479777,-0.0706 -0.945443,-0.19756 -0.465667,-0.127 -0.889,-0.31044 -0.423333,-0.18345 -0.747888,-0.40922 l 0.762,-1.28411 q 1.41111,0.91722 2.723442,0.91722 0.592666,0 0.931333,-0.21167 0.338666,-0.21167 0.338666,-0.60678 0,-0.39511 -0.409222,-0.57855 -0.395111,-0.19756 -1.340555,-0.42333 -0.719666,-0.16934 -1.227665,-0.35278 -0.508,-0.18345 -0.818444,-0.42334 -0.310444,-0.23988 -0.451555,-0.55033 -0.141111,-0.31044 -0.141111,-0.73378 0,-0.56444 0.225777,-1.01599 0.225778,-0.45156 0.620889,-0.762 0.409222,-0.32456 0.945443,-0.49389 0.550333,-0.16934 1.185333,-0.16934 0.790222,0 1.566332,0.254 0.790222,0.23989 1.467554,0.66323 l -0.77611,1.17122 q -0.620888,-0.39511 -1.171221,-0.56445 -0.550333,-0.18344 -1.100666,-0.18344 -0.508,0 -0.860777,0.19755 -0.338667,0.19756 -0.338667,0.635 0,0.381 0.324556,0.55034 0.338666,0.16933 1.185332,0.381 0.790222,0.19755 1.340555,0.39511 0.564444,0.19755 0.917221,0.45155 0.366889,0.254 0.522111,0.59267 0.169333,0.32455 0.169333,0.79022 0,0.53622 -0.225778,0.97367 -0.211666,0.43744 -0.606777,0.74788 -0.395111,0.29634 -0.973666,0.46567 -0.564444,0.15522 -1.255888,0.15522 z"
           style="font-style:normal;font-variant:normal;font-weight:bold;font-stretch:normal;font-size:14.1111px;font-family:Raleway;-inkscape-font-specification:'Raleway Bold';fill:#ffffff;fill-opacity:1;stroke-width:0.264583"
           id="path1965" />
        <path
           d="m 73.91722,133.20854 3.951108,-10.01888 h 1.580444 l 3.936996,10.01888 h -2.06022 l -0.917222,-2.49766 h -3.513664 l -0.917221,2.49766 z m 4.74133,-7.91633 -1.439332,4.04989 h 2.836331 z"
           style="font-style:normal;font-variant:normal;font-weight:bold;font-stretch:normal;font-size:14.1111px;font-family:Raleway;-inkscape-font-specification:'Raleway Bold';fill:#ffffff;fill-opacity:1;stroke-width:0.264583"
           id="path1967" />
        <path
           d="m 88.674344,127.45121 q -0.860777,0.0141 -1.53811,0.33867 -0.677333,0.31044 -0.973666,0.94544 v 4.47322 h -1.890887 v -7.39421 h 1.735665 v 1.58044 q 0.381,-0.762 0.987777,-1.22767 0.620888,-0.46566 1.298221,-0.46566 0.155222,0 0.225778,0.0141 0.08467,0 0.155222,0.0141 z"
           style="font-style:normal;font-variant:normal;font-weight:bold;font-stretch:normal;font-size:14.1111px;font-family:Raleway;-inkscape-font-specification:'Raleway Bold';fill:#ffffff;fill-opacity:1;stroke-width:0.264583"
           id="path1969" />
        <path
           d="m 94.173705,132.82754 q -0.381,0.16934 -0.945444,0.33867 -0.550333,0.16933 -1.15711,0.16933 -0.395111,0 -0.747889,-0.0988 -0.338666,-0.0988 -0.606777,-0.31044 -0.254,-0.22578 -0.409222,-0.56444 -0.155222,-0.35278 -0.155222,-0.84667 v -4.24744 h -0.959555 v -1.45344 h 0.959555 v -2.39889 h 1.890887 v 2.39889 h 1.566332 v 1.45344 h -1.566332 v 3.61244 q 0,0.39511 0.211667,0.56444 0.211666,0.15523 0.507999,0.15523 0.296334,0 0.578556,-0.0988 0.282222,-0.0988 0.451555,-0.16933 z"
           style="font-style:normal;font-variant:normal;font-weight:bold;font-stretch:normal;font-size:14.1111px;font-family:Raleway;-inkscape-font-specification:'Raleway Bold';fill:#ffffff;fill-opacity:1;stroke-width:0.264583"
           id="path1971" />
        <path
           d="m 96.555834,124.95355 -1.213554,-0.36689 0.761999,-1.67922 h 1.763887 z m -1.425221,8.25499 v -7.39421 H 97.0215 v 7.39421 z"
           style="font-style:normal;font-variant:normal;font-weight:bold;font-stretch:normal;font-size:14.1111px;font-family:Raleway;-inkscape-font-specification:'Raleway Bold';fill:#ffffff;fill-opacity:1;stroke-width:0.264583"
           id="path1973" />
        <path
           d="m 98.261955,129.51143 q 0,-0.77611 0.268111,-1.46755 0.268111,-0.69144 0.77611,-1.21356 0.508,-0.52211 1.227664,-0.83255 0.71967,-0.31044 1.62278,-0.31044 1.21355,0 2.06022,0.52211 0.86078,0.52211 1.28411,1.36877 l -1.84855,0.56445 q -0.23989,-0.40923 -0.635,-0.62089 -0.39512,-0.22578 -0.87489,-0.22578 -0.40922,0 -0.762,0.16933 -0.35278,0.15523 -0.62089,0.45156 -0.254,0.28222 -0.40922,0.69144 -0.14111,0.40923 -0.14111,0.90311 0,0.49389 0.15522,0.90311 0.15522,0.40923 0.40922,0.70556 0.26811,0.29633 0.62089,0.46567 0.35278,0.15522 0.74789,0.15522 0.508,0 0.93133,-0.254 0.43744,-0.254 0.60678,-0.62089 l 1.84855,0.56444 q -0.381,0.84667 -1.25589,1.38289 -0.87488,0.53622 -2.10255,0.53622 -0.90311,0 -1.62278,-0.31044 -0.719663,-0.31045 -1.227663,-0.83256 -0.507999,-0.53622 -0.790221,-1.22766 -0.268111,-0.70556 -0.268111,-1.46756 z"
           style="font-style:normal;font-variant:normal;font-weight:bold;font-stretch:normal;font-size:14.1111px;font-family:Raleway;-inkscape-font-specification:'Raleway Bold';fill:#ffffff;fill-opacity:1;stroke-width:0.264583"
           id="path1975" />
        <path
           d="m 108.93634,133.34965 q -1.143,0 -1.73567,-0.73377 -0.59266,-0.73378 -0.59266,-2.17311 v -4.62844 h 1.89089 v 4.21921 q 0,1.70745 1.22766,1.70745 0.56445,0 1.07245,-0.32456 0.52211,-0.33866 0.84666,-1.016 v -4.5861 h 1.89089 v 5.2211 q 0,0.29634 0.11289,0.42334 0.11289,0.127 0.39511,0.14111 v 1.60866 q -0.29634,0.0565 -0.52211,0.0706 -0.22578,0.0282 -0.39511,0.0282 -0.508,0 -0.80434,-0.22578 -0.28222,-0.23989 -0.35277,-0.64911 l -0.0423,-0.60678 q -0.508,0.762 -1.28411,1.143 -0.762,0.381 -1.70744,0.381 z"
           style="font-style:normal;font-variant:normal;font-weight:bold;font-stretch:normal;font-size:14.1111px;font-family:Raleway;-inkscape-font-specification:'Raleway Bold';fill:#ffffff;fill-opacity:1;stroke-width:0.264583"
           id="path1977" />
        <path
           d="m 115.42877,122.90744 h 1.89089 v 7.84577 q 0,0.86078 0.77611,0.86078 0.15522,0 0.35277,-0.0565 0.21167,-0.0564 0.39512,-0.127 l 0.254,1.50989 q -0.381,0.18345 -0.889,0.28222 -0.508,0.0988 -0.91723,0.0988 -0.88899,0 -1.38288,-0.46567 -0.47978,-0.47977 -0.47978,-1.35466 z"
           style="font-style:normal;font-variant:normal;font-weight:bold;font-stretch:normal;font-size:14.1111px;font-family:Raleway;-inkscape-font-specification:'Raleway Bold';fill:#ffffff;fill-opacity:1;stroke-width:0.264583"
           id="path1979" />
        <path
           d="m 123.2816,133.34965 q -0.90311,0 -1.62278,-0.31044 -0.71966,-0.31045 -1.22766,-0.83256 -0.49389,-0.53622 -0.762,-1.22766 -0.26811,-0.69145 -0.26811,-1.45345 0,-0.77611 0.26811,-1.46755 0.26811,-0.69144 0.762,-1.21355 0.508,-0.53623 1.22766,-0.84667 0.71967,-0.31044 1.62278,-0.31044 0.90311,0 1.60866,0.31044 0.71967,0.31044 1.21356,0.84667 0.508,0.52211 0.77611,1.21355 0.26811,0.69144 0.26811,1.46755 0,0.762 -0.26811,1.45345 -0.26811,0.69144 -0.762,1.22766 -0.49389,0.52211 -1.21355,0.83256 -0.71967,0.31044 -1.62278,0.31044 z m -1.93322,-3.82411 q 0,0.49389 0.14111,0.90312 0.15522,0.39511 0.40922,0.69144 0.26811,0.29633 0.62089,0.46567 0.35278,0.15522 0.762,0.15522 0.40922,0 0.762,-0.15522 0.35278,-0.16934 0.60678,-0.46567 0.26811,-0.29633 0.40922,-0.70556 0.15522,-0.40922 0.15522,-0.90311 0,-0.47977 -0.15522,-0.889 -0.14111,-0.40922 -0.40922,-0.70555 -0.254,-0.29633 -0.60678,-0.45156 -0.35278,-0.16933 -0.762,-0.16933 -0.40922,0 -0.762,0.16933 -0.35278,0.16934 -0.62089,0.46567 -0.254,0.29633 -0.40922,0.70556 -0.14111,0.40922 -0.14111,0.88899 z"
           style="font-style:normal;font-variant:normal;font-weight:bold;font-stretch:normal;font-size:14.1111px;font-family:Raleway;-inkscape-font-specification:'Raleway Bold';fill:#ffffff;fill-opacity:1;stroke-width:0.264583"
           id="path1981" />
        <path
           d="m 131.26231,133.34965 q -0.45156,0 -0.94545,-0.0705 -0.47977,-0.0706 -0.94544,-0.19756 -0.46567,-0.127 -0.889,-0.31044 -0.42333,-0.18345 -0.74789,-0.40922 l 0.762,-1.28411 q 1.41111,0.91722 2.72344,0.91722 0.59267,0 0.93134,-0.21167 0.33866,-0.21167 0.33866,-0.60678 0,-0.39511 -0.40922,-0.57855 -0.39511,-0.19756 -1.34055,-0.42333 -0.71967,-0.16934 -1.22767,-0.35278 -0.508,-0.18345 -0.81844,-0.42334 -0.31045,-0.23988 -0.45156,-0.55033 -0.14111,-0.31044 -0.14111,-0.73378 0,-0.56444 0.22578,-1.01599 0.22578,-0.45156 0.62089,-0.762 0.40922,-0.32456 0.94544,-0.49389 0.55033,-0.16934 1.18533,-0.16934 0.79023,0 1.56634,0.254 0.79022,0.23989 1.46755,0.66323 l -0.77611,1.17122 q -0.62089,-0.39511 -1.17122,-0.56445 -0.55033,-0.18344 -1.10067,-0.18344 -0.508,0 -0.86077,0.19755 -0.33867,0.19756 -0.33867,0.635 0,0.381 0.32455,0.55034 0.33867,0.16933 1.18534,0.381 0.79022,0.19755 1.34055,0.39511 0.56445,0.19755 0.91722,0.45155 0.36689,0.254 0.52211,0.59267 0.16934,0.32455 0.16934,0.79022 0,0.53622 -0.22578,0.97367 -0.21167,0.43744 -0.60678,0.74788 -0.39511,0.29634 -0.97366,0.46567 -0.56445,0.15522 -1.25589,0.15522 z"
           style="font-style:normal;font-variant:normal;font-weight:bold;font-stretch:normal;font-size:14.1111px;font-family:Raleway;-inkscape-font-specification:'Raleway Bold';fill:#ffffff;fill-opacity:1;stroke-width:0.264583"
           id="path1983" />
      </g>
    </g>
  </g>
</svg>
