<?xml version="1.0" encoding="UTF-8" standalone="no"?>
<svg
   xmlns:dc="http://purl.org/dc/elements/1.1/"
   xmlns:cc="http://creativecommons.org/ns#"
   xmlns:rdf="http://www.w3.org/1999/02/22-rdf-syntax-ns#"
   xmlns:svg="http://www.w3.org/2000/svg"
   xmlns="http://www.w3.org/2000/svg"
   xmlns:sodipodi="http://sodipodi.sourceforge.net/DTD/sodipodi-0.dtd"
   xmlns:inkscape="http://www.inkscape.org/namespaces/inkscape"
   width="217.61983"
   height="35"
   viewBox="0 0 57.578578 9.2604167"
   version="1.1"
   id="svg1248"
   inkscape:version="1.0.1 (3bc2e813f5, 2020-09-07)"
   sodipodi:docname="otroscomics.svg">
  <defs
     id="defs1242" />
  <sodipodi:namedview
     id="base"
     pagecolor="#ffffff"
     bordercolor="#666666"
     borderopacity="1.0"
     inkscape:pageopacity="0.0"
     inkscape:pageshadow="2"
     inkscape:zoom="2.4126252"
     inkscape:cx="127.62272"
     inkscape:cy="68.013861"
     inkscape:document-units="px"
     inkscape:current-layer="layer1"
     inkscape:document-rotation="0"
     showgrid="false"
     units="px"
     inkscape:window-width="1366"
     inkscape:window-height="704"
     inkscape:window-x="0"
     inkscape:window-y="27"
     inkscape:window-maximized="1" />
  <metadata
     id="metadata1245">
    <rdf:RDF>
      <cc:Work
         rdf:about="">
        <dc:format>image/svg+xml</dc:format>
        <dc:type
           rdf:resource="http://purl.org/dc/dcmitype/StillImage" />
        <dc:title />
      </cc:Work>
    </rdf:RDF>
  </metadata>
  <g
     inkscape:label="Layer 1"
     inkscape:groupmode="layer"
     id="layer1"
     transform="translate(-18.502773,-47.504639)">
    <g
       id="g880"
       transform="matrix(0.94593853,0,0,0.94593853,1.0002873,2.5681711)">
      <path
         id="path1054"
         style="color:#000000;font-style:normal;font-variant:normal;font-weight:bold;font-stretch:normal;font-size:14.1111px;line-height:1.25;font-family:Raleway;-inkscape-font-specification:'Raleway Bold';font-variant-ligatures:normal;font-variant-position:normal;font-variant-caps:normal;font-variant-numeric:normal;font-variant-alternates:normal;font-variant-east-asian:normal;font-feature-settings:normal;font-variation-settings:normal;text-indent:0;text-align:start;text-decoration:none;text-decoration-line:none;text-decoration-style:solid;text-decoration-color:#000000;letter-spacing:normal;word-spacing:normal;text-transform:none;writing-mode:lr-tb;direction:ltr;text-orientation:mixed;dominant-baseline:auto;baseline-shift:baseline;text-anchor:start;white-space:normal;shape-padding:0;shape-margin:0;inline-size:0;clip-rule:nonzero;display:inline;overflow:visible;visibility:visible;isolation:auto;mix-blend-mode:normal;color-interpolation:sRGB;color-interpolation-filters:linearRGB;solid-color:#000000;solid-opacity:1;vector-effect:none;fill:#000000;fill-opacity:1;fill-rule:nonzero;stroke:none;stroke-width:1.71629;stroke-linecap:butt;stroke-linejoin:miter;stroke-miterlimit:4;stroke-dasharray:none;stroke-dashoffset:0;stroke-opacity:1;color-rendering:auto;image-rendering:auto;shape-rendering:auto;text-rendering:auto;enable-background:accumulate;stop-color:#000000"
         d="m 66.148212,47.505065 v 1.882274 0.581687 C 66.006903,49.818374 65.844058,49.688603 65.667603,49.586144 65.312401,49.379897 64.915,49.305008 64.515278,49.305008 c -0.51332,0 -1.018876,0.126986 -1.454882,0.383549 -0.06323,0.03633 -0.09306,0.112952 -0.15295,0.154292 -0.0069,-0.0065 -0.0071,-0.01788 -0.01405,-0.02409 -0.410871,-0.372377 -0.956693,-0.513741 -1.495039,-0.513741 -0.325766,0 -0.620376,0.131805 -0.924739,0.226583 V 49.387345 H 57.65154 v 0.94181 c -0.0017,-0.0019 -0.0032,-0.0039 -0.0051,-0.0058 -0.295903,-0.318485 -0.660123,-0.570159 -1.065309,-0.745343 -0.42722,-0.187297 -0.896694,-0.273105 -1.383593,-0.273105 -0.488269,0 -0.961017,0.08633 -1.391626,0.2721 -0.230132,0.09927 -0.445468,0.224783 -0.645275,0.370162 l -0.18709,-0.39125 c -0.272627,-0.570035 -0.716539,-1.04368 -1.265113,-1.381252 -0.569991,-0.354605 -1.241779,-0.522439 -1.949213,-0.522439 v -3.43e-4 c -0.602991,0 -1.180282,0.117291 -1.69485,0.370492 -0.476829,0.234627 -0.89953,0.552717 -1.243695,0.943818 l -0.0037,0.0039 -0.0023,0.0039 -1.786235,1.512993 -0.746351,-0.466554 c -0.354327,-0.221523 -0.73882,-0.394532 -1.1446,-0.518823 -0.415002,-0.135121 -0.844168,-0.206169 -1.275155,-0.206169 v 6.48e-4 c -0.350454,0 -0.694506,0.04754 -1.020793,0.147931 h -0.0027 l -0.0023,0.0013 c -0.320601,0.101245 -0.622226,0.257065 -0.884241,0.464205 -0.21002,0.165017 -0.390304,0.368686 -0.53215,0.595405 -0.05131,-0.06192 -0.102646,-0.123774 -0.158641,-0.181733 -0.295264,-0.317799 -0.658489,-0.568876 -1.06263,-0.744009 -8.42e-4,-3.43e-4 -0.0016,3.42e-4 -0.0023,0 -0.427581,-0.187711 -0.896518,-0.274439 -1.383927,-0.274439 -0.48827,0 -0.961018,0.08634 -1.391627,0.272101 -0.18638,0.08039 -0.362743,0.178378 -0.529807,0.289166 V 49.48682 l -0.689452,-0.137893 c -0.03572,-0.0071 -0.06696,-0.0052 -0.101077,-0.0087 -0.149052,-0.02979 -0.22093,-0.02675 -0.313936,-0.02675 v 3.43e-4 c -0.224465,0 -0.409877,0.147886 -0.622182,0.217542 V 49.387106 H 30.32341 v 3.43e-4 h -0.283478 v -1.553612 h -2.940888 l -0.45919,1.147972 c -0.340748,-0.394954 -0.758503,-0.716037 -1.229636,-0.952516 -0.501892,-0.258046 -1.063412,-0.387234 -1.640633,-0.387234 v -6.48e-4 c -0.560546,0 -1.107103,0.120685 -1.602477,0.359456 -0.473077,0.222192 -0.897133,0.530755 -1.250053,0.914362 l -0.0023,0.0039 -0.004,0.0026 -1.303493,1.303489 -0.004,0.0039 -0.0023,0.0039 c -0.342891,0.380991 -0.61463,0.821521 -0.808266,1.305613 l -0.0027,0.0065 -0.0014,0.0052 c -0.189901,0.493741 -0.285823,1.017294 -0.285823,1.550601 0,0.515263 0.0922,1.025863 0.2721,1.513115 0.629422,1.555079 1.971296,2.621728 3.656689,2.634971 1.15156,-0.06234 2.066088,-0.429466 2.843986,-1.263961 l 0.0023,-0.0039 0.004,-0.0039 c 0.194826,-0.216474 0.362479,-0.453755 0.508054,-0.705183 0.0303,0.895952 0.496705,1.652372 1.375201,1.915625 l 0.004,0.0013 0.0051,0.0013 c 0.232435,0.0651 0.473767,0.09505 0.715893,0.09505 1.355598,-0.272124 2.513549,-0.08269 4.064489,-0.08269 l 0.676587,-1.446939 c 0.342653,0.566089 0.90734,1.015343 1.480132,1.267181 0.430606,0.185748 0.901686,0.270759 1.389952,0.270759 0.488266,0 0.96102,-0.08501 1.391625,-0.270759 0.337772,-0.14571 0.646598,-0.342209 0.912689,-0.585372 0.87246,0.579187 1.85723,0.853183 2.864601,0.856144 0.71284,0.009 1.347302,-0.121539 1.959197,-0.572838 l 0.0077,-0.0065 0.0074,-0.0052 2.110198,-2.135968 0.0023,0.0077 0.0027,0.0065 c 0.18535,0.481909 0.446269,0.925411 0.776472,1.315651 l 0.0051,0.0074 0.0063,0.0067 c 0.342539,0.388212 0.753709,0.709411 1.214576,0.951175 l 0.0023,0.0013 0.0027,0.0013 c 0.501401,0.258791 1.061047,0.388232 1.635611,0.388232 1.124712,-0.06987 2.095561,-0.442072 2.834119,-1.188467 0.315779,0.418576 0.83821,0.767432 1.259089,0.952483 0.430606,0.185749 0.903359,0.27076 1.391625,0.27076 0.488264,0 0.959346,-0.08501 1.389952,-0.27076 0.403018,-0.173857 0.767197,-0.419151 1.063967,-0.730959 v 0.910684 H 67.77938 v -0.925742 c 0.0026,0.0026 0.0047,0.0058 0.0074,0.0087 l 0.004,0.0052 0.0037,0.0039 c 0.301301,0.309672 0.66637,0.554357 1.070326,0.728615 0.430607,0.185748 0.903026,0.27076 1.391292,0.27076 0.655011,0 1.280091,-0.148268 1.810318,-0.473244 0.111261,-0.06819 0.216774,-0.143902 0.317952,-0.224575 0.153202,0.09454 0.316067,0.178009 0.487638,0.252354 0.221816,0.09612 0.451897,0.176577 0.690455,0.241641 h 0.0013 c 0.234277,0.06386 0.471326,0.113819 0.712216,0.149271 h 0.0026 0.0013 c 0.995679,0.09314 1.844103,0.107502 2.693027,-0.518635 l 0.0077,-0.0065 0.0077,-0.0052 1.294972,-1.29869 0.0077,-0.0065 0.0074,-0.0067 c 0.262968,-0.206622 0.479661,-0.475122 0.627534,-0.776477 0.159382,-0.313252 0.240307,-0.665364 0.240307,-1.013428 0,-0.297443 -0.05991,-0.601933 -0.202483,-0.885244 -0.138437,-0.291064 -0.357876,-0.52922 -0.605787,-0.703512 l 0.0026,-0.0039 c -0.0026,-0.0019 -0.0075,-0.0019 -0.01036,-0.0039 -0.0013,-6.48e-4 -0.0013,-0.0032 -0.0026,-0.0039 l 0.01269,0.0077 1.011757,-1.52818 -0.747351,-0.466553 C 78.270592,49.79903 77.88736,49.627039 77.482186,49.502779 77.066377,49.367107 76.636242,49.29527 76.204351,49.29527 v 6.48e-4 c -0.350454,0 -0.693168,0.04754 -1.019458,0.147931 h -0.0026 l -0.0039,0.0013 c -0.32096,0.101359 -0.622017,0.256719 -0.884241,0.464208 -0.127892,0.100491 -0.244115,0.215709 -0.34807,0.341044 -0.181124,-0.183177 -0.384819,-0.345655 -0.608124,-0.481274 -0.520756,-0.32012 -1.135551,-0.464218 -1.781194,-0.464218 v -3.42e-4 c -0.488269,0 -0.960684,0.08634 -1.391291,0.2721 -0.403961,0.174252 -0.769026,0.418937 -1.070328,0.728615 -0.0023,0.0026 -0.0041,0.0052 -0.0063,0.0074 v -0.925763 -1.88228 z"
         sodipodi:nodetypes="cccsscccsccccccsscscccsccccccccccccccscsscccccccccccccccccccccccccccscccccccccccccsscccccccccccccccccsscccccccssscsccccccccccccscccccccccccccccccccsscccc" />
      <g
         aria-label="Otros Comics"
         id="text107"
         style="font-style:normal;font-variant:normal;font-weight:bold;font-stretch:normal;font-size:14.1111px;line-height:1.25;font-family:Raleway;-inkscape-font-specification:'Raleway Bold';fill:#362a2a;fill-opacity:1;stroke-width:0.264583"
         transform="matrix(0.6476574,0,0,0.6476574,5.7735134,16.7379)">
        <path
           d="m 27.214883,59.731055 q -1.058333,0 -1.933221,-0.423333 -0.874888,-0.437444 -1.509888,-1.142999 -0.620888,-0.719666 -0.959554,-1.636888 -0.338667,-0.917221 -0.338667,-1.876776 0,-1.001888 0.352778,-1.91911 0.366888,-0.917221 1.001888,-1.622776 0.64911,-0.705555 1.523999,-1.114777 0.874888,-0.423333 1.904998,-0.423333 1.058333,0 1.933221,0.451555 0.874888,0.437444 1.495777,1.15711 0.620888,0.719666 0.959554,1.636888 0.338667,0.917221 0.338667,1.862665 0,1.001888 -0.366889,1.91911 -0.352777,0.90311 -0.987777,1.608665 -0.634999,0.691444 -1.509888,1.114777 -0.874888,0.409222 -1.904998,0.409222 z m -2.779887,-5.079996 q 0,0.649111 0.183444,1.255888 0.197556,0.606777 0.550333,1.072444 0.366889,0.465666 0.889,0.747888 0.52211,0.282222 1.185332,0.282222 0.677333,0 1.185332,-0.282222 0.522111,-0.296333 0.874889,-0.776111 0.352777,-0.479777 0.536221,-1.072443 0.183445,-0.606778 0.183445,-1.227666 0,-0.649111 -0.197556,-1.255888 -0.197555,-0.606777 -0.564444,-1.072444 -0.352777,-0.465666 -0.874888,-0.733777 -0.507999,-0.282222 -1.15711,-0.282222 -0.677333,0 -1.199444,0.296333 -0.507999,0.282222 -0.874888,0.762 -0.352777,0.465666 -0.536222,1.072443 -0.183444,0.592667 -0.183444,1.213555 z"
           style="font-style:normal;font-variant:normal;font-weight:bold;font-stretch:normal;font-size:14.1111px;font-family:Raleway;-inkscape-font-specification:'Raleway Bold';fill:#362a2a;fill-opacity:1;stroke-width:0.264583"
           id="path1287" />
        <path
           d="m 37.745071,59.2795 q -0.381,0.169333 -0.945444,0.338666 -0.550333,0.169333 -1.15711,0.169333 -0.395111,0 -0.747888,-0.09878 -0.338667,-0.09878 -0.606778,-0.310444 -0.254,-0.225778 -0.409222,-0.564444 -0.155222,-0.352778 -0.155222,-0.846666 V 53.719723 H 32.763852 V 52.26628 h 0.959555 v -2.398887 h 1.890888 v 2.398887 h 1.566332 v 1.453443 h -1.566332 v 3.612442 q 0,0.395111 0.211666,0.564444 0.211667,0.155222 0.508,0.155222 0.296333,0 0.578555,-0.09878 0.282222,-0.09878 0.451555,-0.169333 z"
           style="font-style:normal;font-variant:normal;font-weight:bold;font-stretch:normal;font-size:14.1111px;font-family:Raleway;-inkscape-font-specification:'Raleway Bold';fill:#362a2a;fill-opacity:1;stroke-width:0.264583"
           id="path1289" />
        <path
           d="m 43.104644,53.903171 q -0.860778,0.01411 -1.53811,0.338666 -0.677333,0.310444 -0.973666,0.945444 V 59.6605 H 38.70198 v -7.394217 h 1.735666 v 1.580443 q 0.380999,-0.761999 0.987777,-1.227665 0.620888,-0.465667 1.298221,-0.465667 0.155222,0 0.225777,0.01411 0.08467,0 0.155223,0.01411 z"
           style="font-style:normal;font-variant:normal;font-weight:bold;font-stretch:normal;font-size:14.1111px;font-family:Raleway;-inkscape-font-specification:'Raleway Bold';fill:#362a2a;fill-opacity:1;stroke-width:0.264583"
           id="path1291" />
        <path
           d="m 47.395079,59.801611 q -0.903111,0 -1.622777,-0.310445 -0.719666,-0.310444 -1.227666,-0.832555 -0.493888,-0.536221 -0.761999,-1.227665 -0.268111,-0.691444 -0.268111,-1.453444 0,-0.77611 0.268111,-1.467554 0.268111,-0.691444 0.761999,-1.213555 0.508,-0.536221 1.227666,-0.846666 0.719666,-0.310444 1.622777,-0.310444 0.90311,0 1.608665,0.310444 0.719666,0.310445 1.213555,0.846666 0.507999,0.522111 0.77611,1.213555 0.268111,0.691444 0.268111,1.467554 0,0.762 -0.268111,1.453444 -0.268111,0.691444 -0.761999,1.227665 -0.493889,0.522111 -1.213555,0.832555 -0.719666,0.310445 -1.622776,0.310445 z m -1.933221,-3.824109 q 0,0.493889 0.141111,0.903111 0.155222,0.395111 0.409222,0.691444 0.268111,0.296333 0.620888,0.465666 0.352778,0.155222 0.762,0.155222 0.409222,0 0.761999,-0.155222 0.352778,-0.169333 0.606777,-0.465666 0.268111,-0.296333 0.409222,-0.705555 0.155222,-0.409222 0.155222,-0.903111 0,-0.479777 -0.155222,-0.888999 -0.141111,-0.409222 -0.409222,-0.705555 -0.253999,-0.296333 -0.606777,-0.451555 -0.352777,-0.169333 -0.761999,-0.169333 -0.409222,0 -0.762,0.169333 -0.352777,0.169333 -0.620888,0.465666 -0.254,0.296333 -0.409222,0.705555 -0.141111,0.409222 -0.141111,0.888999 z"
           style="font-style:normal;font-variant:normal;font-weight:bold;font-stretch:normal;font-size:14.1111px;font-family:Raleway;-inkscape-font-specification:'Raleway Bold';fill:#362a2a;fill-opacity:1;stroke-width:0.264583"
           id="path1293" />
        <path
           d="m 55.375788,59.801611 q -0.451556,0 -0.945444,-0.07056 Q 53.950566,59.6605 53.4849,59.5335 53.019234,59.4065 52.595901,59.223055 52.172568,59.039611 51.848012,58.813834 l 0.762,-1.284111 q 1.41111,0.917222 2.723442,0.917222 0.592666,0 0.931333,-0.211667 0.338666,-0.211666 0.338666,-0.606777 0,-0.395111 -0.409222,-0.578555 -0.39511,-0.197555 -1.340554,-0.423333 -0.719666,-0.169333 -1.227666,-0.352777 -0.507999,-0.183445 -0.818444,-0.423333 -0.310444,-0.239889 -0.451555,-0.550333 -0.141111,-0.310445 -0.141111,-0.733778 0,-0.564444 0.225778,-1.015999 0.225777,-0.451555 0.620888,-0.761999 0.409222,-0.324556 0.945444,-0.493889 0.550333,-0.169333 1.185332,-0.169333 0.790222,0 1.566332,0.254 0.790222,0.239889 1.467555,0.663222 l -0.776111,1.171221 q -0.620888,-0.395111 -1.171221,-0.564444 -0.550333,-0.183444 -1.100666,-0.183444 -0.507999,0 -0.860777,0.197555 -0.338666,0.197555 -0.338666,0.634999 0,0.381 0.324555,0.550333 0.338666,0.169334 1.185332,0.381 0.790222,0.197556 1.340555,0.395111 0.564444,0.197555 0.917221,0.451555 0.366889,0.254 0.522111,0.592666 0.169333,0.324556 0.169333,0.790222 0,0.536222 -0.225777,0.973666 -0.211667,0.437444 -0.606778,0.747888 -0.39511,0.296333 -0.973666,0.465666 -0.564444,0.155223 -1.255887,0.155223 z"
           style="font-style:normal;font-variant:normal;font-weight:bold;font-stretch:normal;font-size:14.1111px;font-family:Raleway;-inkscape-font-specification:'Raleway Bold';fill:#362a2a;fill-opacity:1;stroke-width:0.264583"
           id="path1295" />
        <path
           d="m 62.587883,54.580504 q 0,-0.917222 0.324555,-1.806221 0.324556,-0.903111 0.931333,-1.608666 0.620888,-0.705555 1.509888,-1.142999 0.888999,-0.437444 2.031998,-0.437444 1.340555,0 2.31422,0.606777 0.987777,0.606778 1.453444,1.580444 l -1.495777,1.03011 Q 69.488211,52.379172 69.2201,52.09695 68.951989,51.800617 68.627434,51.631284 68.31699,51.46195 67.978323,51.391395 q -0.338666,-0.08467 -0.64911,-0.08467 -0.691444,0 -1.213555,0.296333 -0.522111,0.296333 -0.874888,0.776111 -0.338667,0.465666 -0.522111,1.072443 -0.169333,0.592667 -0.169333,1.185333 0,0.663222 0.197555,1.28411 0.211667,0.606777 0.578555,1.072444 0.381,0.465666 0.903111,0.747888 0.522111,0.282222 1.142999,0.282222 0.324555,0 0.663222,-0.08467 0.338666,-0.08467 0.64911,-0.268111 0.324556,-0.183444 0.592666,-0.465666 0.268111,-0.296333 0.437445,-0.705555 l 1.594554,0.917222 q -0.225778,0.564444 -0.663222,1.001888 -0.423333,0.423333 -0.973666,0.719666 -0.550333,0.296333 -1.15711,0.451555 -0.606777,0.155222 -1.199443,0.155222 -1.044222,0 -1.91911,-0.451555 -0.860777,-0.451555 -1.495777,-1.171221 -0.620888,-0.733778 -0.973666,-1.650999 -0.338666,-0.931333 -0.338666,-1.890887 z"
           style="font-style:normal;font-variant:normal;font-weight:bold;font-stretch:normal;font-size:14.1111px;font-family:Raleway;-inkscape-font-specification:'Raleway Bold';fill:#362a2a;fill-opacity:1;stroke-width:0.264583"
           id="path1297" />
        <path
           d="m 75.782642,59.801611 q -0.90311,0 -1.622776,-0.310445 Q 73.4402,59.180722 72.9322,58.658611 72.438312,58.12239 72.170201,57.430946 71.90209,56.739502 71.90209,55.977502 q 0,-0.77611 0.268111,-1.467554 0.268111,-0.691444 0.761999,-1.213555 0.508,-0.536221 1.227666,-0.846666 0.719666,-0.310444 1.622776,-0.310444 0.903111,0 1.608666,0.310444 0.719666,0.310445 1.213554,0.846666 0.508,0.522111 0.776111,1.213555 0.268111,0.691444 0.268111,1.467554 0,0.762 -0.268111,1.453444 -0.268111,0.691444 -0.762,1.227665 -0.493888,0.522111 -1.213554,0.832555 -0.719666,0.310445 -1.622777,0.310445 z m -1.93322,-3.824109 q 0,0.493889 0.141111,0.903111 0.155222,0.395111 0.409222,0.691444 0.26811,0.296333 0.620888,0.465666 0.352777,0.155222 0.761999,0.155222 0.409222,0 0.762,-0.155222 0.352777,-0.169333 0.606777,-0.465666 0.268111,-0.296333 0.409222,-0.705555 0.155222,-0.409222 0.155222,-0.903111 0,-0.479777 -0.155222,-0.888999 -0.141111,-0.409222 -0.409222,-0.705555 -0.254,-0.296333 -0.606777,-0.451555 -0.352778,-0.169333 -0.762,-0.169333 -0.409222,0 -0.761999,0.169333 -0.352778,0.169333 -0.620888,0.465666 -0.254,0.296333 -0.409222,0.705555 -0.141111,0.409222 -0.141111,0.888999 z"
           style="font-style:normal;font-variant:normal;font-weight:bold;font-stretch:normal;font-size:14.1111px;font-family:Raleway;-inkscape-font-specification:'Raleway Bold';fill:#362a2a;fill-opacity:1;stroke-width:0.264583"
           id="path1299" />
        <path
           d="m 92.383911,59.6605 h -1.890887 v -4.148664 q 0,-0.888999 -0.310444,-1.298221 -0.310444,-0.409222 -0.846666,-0.409222 -0.550333,0 -1.044222,0.437444 -0.493888,0.423333 -0.705555,1.114777 V 59.6605 H 85.69525 v -4.148664 q 0,-0.888999 -0.310444,-1.298221 -0.296333,-0.409222 -0.832555,-0.409222 -0.550333,0 -1.058333,0.423333 -0.493888,0.423333 -0.705555,1.114777 V 59.6605 h -1.890887 v -7.394217 h 1.707443 v 1.368777 q 0.409222,-0.719666 1.114777,-1.100666 0.719666,-0.395111 1.636888,-0.395111 0.931332,0 1.425221,0.451555 0.507999,0.451556 0.663221,1.114777 0.451556,-0.761999 1.142999,-1.15711 0.691444,-0.409222 1.580444,-0.409222 0.677333,0 1.114777,0.254 0.437444,0.254 0.677332,0.663222 0.239889,0.409222 0.324556,0.931332 0.09878,0.522111 0.09878,1.058333 z"
           style="font-style:normal;font-variant:normal;font-weight:bold;font-stretch:normal;font-size:14.1111px;font-family:Raleway;-inkscape-font-specification:'Raleway Bold';fill:#362a2a;fill-opacity:1;stroke-width:0.264583"
           id="path1301" />
        <path
           d="m 94.016388,59.6605 v -7.394217 h 1.890887 V 59.6605 Z m 0,-8.424327 v -1.876777 h 1.890887 v 1.876777 z"
           style="font-style:normal;font-variant:normal;font-weight:bold;font-stretch:normal;font-size:14.1111px;font-family:Raleway;-inkscape-font-specification:'Raleway Bold';fill:#362a2a;fill-opacity:1;stroke-width:0.264583"
           id="path1303" />
        <path
           d="m 97.147733,55.963391 q 0,-0.77611 0.268111,-1.467554 0.268111,-0.691444 0.776111,-1.213555 0.507999,-0.52211 1.227666,-0.832555 0.719669,-0.310444 1.622779,-0.310444 1.21355,0 2.06022,0.522111 0.86077,0.522111 1.28411,1.368777 l -1.84856,0.564444 q -0.23989,-0.409222 -0.635,-0.620889 -0.39511,-0.225777 -0.87488,-0.225777 -0.40923,0 -0.762,0.169333 -0.352781,0.155222 -0.620892,0.451555 -0.254,0.282222 -0.409222,0.691444 -0.141111,0.409222 -0.141111,0.90311 0,0.493889 0.155222,0.903111 0.155222,0.409222 0.409222,0.705555 0.268111,0.296333 0.620891,0.465666 0.35278,0.155222 0.74789,0.155222 0.508,0 0.93133,-0.254 0.43744,-0.253999 0.60678,-0.620888 l 1.84855,0.564444 q -0.381,0.846666 -1.25589,1.382888 -0.87489,0.536222 -2.10255,0.536222 -0.90311,0 -1.622778,-0.310445 -0.719666,-0.310444 -1.227666,-0.832555 -0.508,-0.536221 -0.790222,-1.227665 -0.268111,-0.705555 -0.268111,-1.467555 z"
           style="font-style:normal;font-variant:normal;font-weight:bold;font-stretch:normal;font-size:14.1111px;font-family:Raleway;-inkscape-font-specification:'Raleway Bold';fill:#362a2a;fill-opacity:1;stroke-width:0.264583"
           id="path1305" />
        <path
           d="m 108.40266,59.801611 q -0.45156,0 -0.94545,-0.07056 -0.47977,-0.07055 -0.94544,-0.197555 -0.46567,-0.127 -0.889,-0.310445 -0.42333,-0.183444 -0.74789,-0.409221 l 0.762,-1.284111 q 1.41111,0.917222 2.72344,0.917222 0.59267,0 0.93134,-0.211667 0.33866,-0.211666 0.33866,-0.606777 0,-0.395111 -0.40922,-0.578555 -0.39511,-0.197555 -1.34055,-0.423333 -0.71967,-0.169333 -1.22767,-0.352777 -0.508,-0.183445 -0.81844,-0.423333 -0.31045,-0.239889 -0.45156,-0.550333 -0.14111,-0.310445 -0.14111,-0.733778 0,-0.564444 0.22578,-1.015999 0.22578,-0.451555 0.62089,-0.761999 0.40922,-0.324556 0.94544,-0.493889 0.55033,-0.169333 1.18533,-0.169333 0.79022,0 1.56633,0.254 0.79023,0.239889 1.46756,0.663222 l -0.77611,1.171221 q -0.62089,-0.395111 -1.17122,-0.564444 -0.55034,-0.183444 -1.10067,-0.183444 -0.508,0 -0.86078,0.197555 -0.33866,0.197555 -0.33866,0.634999 0,0.381 0.32455,0.550333 0.33867,0.169334 1.18534,0.381 0.79022,0.197556 1.34055,0.395111 0.56444,0.197555 0.91722,0.451555 0.36689,0.254 0.52211,0.592666 0.16934,0.324556 0.16934,0.790222 0,0.536222 -0.22578,0.973666 -0.21167,0.437444 -0.60678,0.747888 -0.39511,0.296333 -0.97367,0.465666 -0.56444,0.155223 -1.25588,0.155223 z"
           style="font-style:normal;font-variant:normal;font-weight:bold;font-stretch:normal;font-size:14.1111px;font-family:Raleway;-inkscape-font-specification:'Raleway Bold';fill:#362a2a;fill-opacity:1;stroke-width:0.264583"
           id="path1307" />
      </g>
      <g
         aria-label="Otros Comics"
         id="text99"
         style="font-style:normal;font-variant:normal;font-weight:bold;font-stretch:normal;font-size:14.1111px;line-height:1.25;font-family:Raleway;-inkscape-font-specification:'Raleway Bold';fill:#ffffff;stroke-width:0.264583"
         transform="matrix(0.6476574,0,0,0.6476574,5.7735134,16.7379)">
        <path
           d="m 27.744048,59.201896 q -1.058332,0 -1.933221,-0.423333 -0.874888,-0.437445 -1.509887,-1.143 -0.620889,-0.719666 -0.959555,-1.636887 -0.338667,-0.917222 -0.338667,-1.876777 0,-1.001888 0.352778,-1.919109 0.366889,-0.917222 1.001888,-1.622777 0.649111,-0.705555 1.523999,-1.114777 0.874888,-0.423333 1.904998,-0.423333 1.058333,0 1.933221,0.451556 0.874888,0.437444 1.495777,1.15711 0.620888,0.719666 0.959555,1.636887 0.338666,0.917222 0.338666,1.862666 0,1.001888 -0.366889,1.919109 -0.352777,0.903111 -0.987777,1.608666 -0.634999,0.691444 -1.509887,1.114777 -0.874889,0.409222 -1.904999,0.409222 z m -2.779887,-5.079997 q 0,0.649111 0.183445,1.255888 0.197555,0.606778 0.550333,1.072444 0.366888,0.465666 0.888999,0.747888 0.522111,0.282222 1.185332,0.282222 0.677333,0 1.185333,-0.282222 0.52211,-0.296333 0.874888,-0.77611 0.352777,-0.479778 0.536222,-1.072444 0.183444,-0.606777 0.183444,-1.227666 0,-0.64911 -0.197555,-1.255887 -0.197556,-0.606778 -0.564444,-1.072444 -0.352778,-0.465666 -0.874889,-0.733777 -0.507999,-0.282222 -1.15711,-0.282222 -0.677333,0 -1.199443,0.296333 -0.508,0.282222 -0.874889,0.761999 -0.352777,0.465667 -0.536221,1.072444 -0.183445,0.592666 -0.183445,1.213554 z"
           style="font-style:normal;font-variant:normal;font-weight:bold;font-stretch:normal;font-size:14.1111px;font-family:Raleway;-inkscape-font-specification:'Raleway Bold';fill:#ffffff;stroke-width:0.264583"
           id="path1264" />
        <path
           d="m 38.274236,58.75034 q -0.381,0.169334 -0.945444,0.338667 -0.550333,0.169333 -1.15711,0.169333 -0.395111,0 -0.747888,-0.09878 -0.338667,-0.09878 -0.606777,-0.310444 -0.254,-0.225778 -0.409222,-0.564444 -0.155222,-0.352777 -0.155222,-0.846666 v -4.247441 h -0.959555 v -1.453443 h 0.959555 v -2.398888 h 1.890887 v 2.398888 h 1.566332 v 1.453443 H 36.14346 v 3.612441 q 0,0.395111 0.211666,0.564445 0.211667,0.155222 0.508,0.155222 0.296333,0 0.578555,-0.09878 0.282222,-0.09878 0.451555,-0.169333 z"
           style="font-style:normal;font-variant:normal;font-weight:bold;font-stretch:normal;font-size:14.1111px;font-family:Raleway;-inkscape-font-specification:'Raleway Bold';fill:#ffffff;stroke-width:0.264583"
           id="path1266" />
        <path
           d="m 43.633809,53.374011 q -0.860777,0.01411 -1.53811,0.338667 -0.677333,0.310444 -0.973666,0.945443 v 4.473219 h -1.890887 v -7.394216 h 1.735665 v 1.580443 q 0.381,-0.762 0.987777,-1.227666 0.620888,-0.465666 1.298221,-0.465666 0.155222,0 0.225778,0.01411 0.08467,0 0.155222,0.01411 z"
           style="font-style:normal;font-variant:normal;font-weight:bold;font-stretch:normal;font-size:14.1111px;font-family:Raleway;-inkscape-font-specification:'Raleway Bold';fill:#ffffff;stroke-width:0.264583"
           id="path1268" />
        <path
           d="m 47.924244,59.272451 q -0.903111,0 -1.622777,-0.310444 -0.719666,-0.310444 -1.227665,-0.832555 -0.493889,-0.536222 -0.762,-1.227666 -0.268111,-0.691444 -0.268111,-1.453443 0,-0.776111 0.268111,-1.467555 0.268111,-0.691443 0.762,-1.213554 0.507999,-0.536222 1.227665,-0.846666 0.719666,-0.310444 1.622777,-0.310444 0.90311,0 1.608665,0.310444 0.719666,0.310444 1.213555,0.846666 0.508,0.522111 0.77611,1.213554 0.268111,0.691444 0.268111,1.467555 0,0.761999 -0.268111,1.453443 -0.26811,0.691444 -0.761999,1.227666 -0.493888,0.522111 -1.213555,0.832555 -0.719666,0.310444 -1.622776,0.310444 z m -1.933221,-3.824108 q 0,0.493888 0.141111,0.90311 0.155222,0.395111 0.409222,0.691444 0.268111,0.296333 0.620889,0.465667 0.352777,0.155222 0.761999,0.155222 0.409222,0 0.761999,-0.155222 0.352778,-0.169334 0.606778,-0.465667 0.268111,-0.296333 0.409222,-0.705555 0.155222,-0.409222 0.155222,-0.90311 0,-0.479778 -0.155222,-0.889 -0.141111,-0.409221 -0.409222,-0.705555 -0.254,-0.296333 -0.606778,-0.451555 -0.352777,-0.169333 -0.761999,-0.169333 -0.409222,0 -0.761999,0.169333 -0.352778,0.169333 -0.620889,0.465667 -0.254,0.296333 -0.409222,0.705555 -0.141111,0.409221 -0.141111,0.888999 z"
           style="font-style:normal;font-variant:normal;font-weight:bold;font-stretch:normal;font-size:14.1111px;font-family:Raleway;-inkscape-font-specification:'Raleway Bold';fill:#ffffff;stroke-width:0.264583"
           id="path1270" />
        <path
           d="m 55.904953,59.272451 q -0.451555,0 -0.945444,-0.07055 -0.479777,-0.07056 -0.945444,-0.197556 -0.465666,-0.127 -0.888999,-0.310444 -0.423333,-0.183444 -0.747888,-0.409222 l 0.761999,-1.28411 q 1.41111,0.917221 2.723442,0.917221 0.592667,0 0.931333,-0.211666 0.338667,-0.211667 0.338667,-0.606777 0,-0.395111 -0.409222,-0.578556 -0.395111,-0.197555 -1.340555,-0.423333 -0.719666,-0.169333 -1.227666,-0.352777 -0.507999,-0.183444 -0.818443,-0.423333 -0.310445,-0.239889 -0.451556,-0.550333 -0.141111,-0.310444 -0.141111,-0.733777 0,-0.564444 0.225778,-1.015999 0.225778,-0.451556 0.620888,-0.762 0.409222,-0.324555 0.945444,-0.493888 0.550333,-0.169333 1.185332,-0.169333 0.790222,0 1.566333,0.253999 0.790221,0.239889 1.467554,0.663222 l -0.77611,1.171221 q -0.620889,-0.39511 -1.171222,-0.564444 -0.550333,-0.183444 -1.100666,-0.183444 -0.507999,0 -0.860777,0.197555 -0.338666,0.197556 -0.338666,0.635 0,0.381 0.324555,0.550333 0.338667,0.169333 1.185333,0.381 0.790221,0.197555 1.340554,0.39511 0.564444,0.197556 0.917222,0.451556 0.366888,0.253999 0.52211,0.592666 0.169334,0.324555 0.169334,0.790221 0,0.536222 -0.225778,0.973666 -0.211667,0.437444 -0.606777,0.747889 -0.395111,0.296333 -0.973666,0.465666 -0.564444,0.155222 -1.255888,0.155222 z"
           style="font-style:normal;font-variant:normal;font-weight:bold;font-stretch:normal;font-size:14.1111px;font-family:Raleway;-inkscape-font-specification:'Raleway Bold';fill:#ffffff;stroke-width:0.264583"
           id="path1272" />
        <path
           d="m 63.117048,54.051344 q 0,-0.917222 0.324556,-1.806221 0.324555,-0.90311 0.931332,-1.608665 0.620889,-0.705555 1.509888,-1.142999 0.888999,-0.437445 2.031998,-0.437445 1.340555,0 2.314221,0.606778 0.987777,0.606777 1.453443,1.580443 l -1.495777,1.03011 q -0.169333,-0.423333 -0.437444,-0.705555 -0.268111,-0.296333 -0.592666,-0.465666 -0.310444,-0.169333 -0.649111,-0.239889 -0.338666,-0.08467 -0.64911,-0.08467 -0.691444,0 -1.213555,0.296333 -0.52211,0.296333 -0.874888,0.77611 -0.338666,0.465667 -0.522111,1.072444 -0.169333,0.592666 -0.169333,1.185332 0,0.663222 0.197556,1.28411 0.211666,0.606778 0.578555,1.072444 0.380999,0.465666 0.90311,0.747888 0.522111,0.282222 1.142999,0.282222 0.324555,0 0.663222,-0.08467 0.338666,-0.08467 0.649111,-0.268111 0.324555,-0.183444 0.592666,-0.465666 0.268111,-0.296334 0.437444,-0.705555 l 1.594554,0.917221 q -0.225777,0.564444 -0.663222,1.001888 -0.423333,0.423333 -0.973665,0.719666 -0.550333,0.296333 -1.157111,0.451556 -0.606777,0.155222 -1.199443,0.155222 -1.044222,0 -1.91911,-0.451556 -0.860777,-0.451555 -1.495776,-1.171221 -0.620889,-0.733777 -0.973666,-1.650999 -0.338667,-0.931332 -0.338667,-1.890887 z"
           style="font-style:normal;font-variant:normal;font-weight:bold;font-stretch:normal;font-size:14.1111px;font-family:Raleway;-inkscape-font-specification:'Raleway Bold';fill:#ffffff;stroke-width:0.264583"
           id="path1274" />
        <path
           d="m 76.311808,59.272451 q -0.903111,0 -1.622777,-0.310444 -0.719666,-0.310444 -1.227666,-0.832555 -0.493888,-0.536222 -0.761999,-1.227666 -0.268111,-0.691444 -0.268111,-1.453443 0,-0.776111 0.268111,-1.467555 0.268111,-0.691443 0.761999,-1.213554 0.508,-0.536222 1.227666,-0.846666 0.719666,-0.310444 1.622777,-0.310444 0.90311,0 1.608665,0.310444 0.719666,0.310444 1.213555,0.846666 0.507999,0.522111 0.77611,1.213554 0.268111,0.691444 0.268111,1.467555 0,0.761999 -0.268111,1.453443 -0.268111,0.691444 -0.761999,1.227666 -0.493889,0.522111 -1.213555,0.832555 -0.719666,0.310444 -1.622776,0.310444 z m -1.933221,-3.824108 q 0,0.493888 0.141111,0.90311 0.155222,0.395111 0.409222,0.691444 0.268111,0.296333 0.620888,0.465667 0.352778,0.155222 0.762,0.155222 0.409222,0 0.761999,-0.155222 0.352778,-0.169334 0.606777,-0.465667 0.268111,-0.296333 0.409222,-0.705555 0.155222,-0.409222 0.155222,-0.90311 0,-0.479778 -0.155222,-0.889 -0.141111,-0.409221 -0.409222,-0.705555 -0.253999,-0.296333 -0.606777,-0.451555 -0.352777,-0.169333 -0.761999,-0.169333 -0.409222,0 -0.762,0.169333 -0.352777,0.169333 -0.620888,0.465667 -0.254,0.296333 -0.409222,0.705555 -0.141111,0.409221 -0.141111,0.888999 z"
           style="font-style:normal;font-variant:normal;font-weight:bold;font-stretch:normal;font-size:14.1111px;font-family:Raleway;-inkscape-font-specification:'Raleway Bold';fill:#ffffff;stroke-width:0.264583"
           id="path1276" />
        <path
           d="m 92.913077,59.13134 h -1.890888 v -4.148663 q 0,-0.889 -0.310444,-1.298222 -0.310444,-0.409222 -0.846666,-0.409222 -0.550333,0 -1.044221,0.437445 -0.493889,0.423333 -0.705555,1.114776 v 4.303886 h -1.890888 v -4.148663 q 0,-0.889 -0.310444,-1.298222 -0.296333,-0.409222 -0.832555,-0.409222 -0.550333,0 -1.058332,0.423333 -0.493889,0.423333 -0.705555,1.114777 v 4.317997 h -1.890888 v -7.394216 h 1.707443 V 53.1059 q 0.409222,-0.719666 1.114777,-1.100666 0.719666,-0.39511 1.636888,-0.39511 0.931332,0 1.425221,0.451555 0.508,0.451555 0.663222,1.114777 0.451555,-0.762 1.142999,-1.15711 0.691444,-0.409222 1.580443,-0.409222 0.677333,0 1.114777,0.253999 0.437444,0.254 0.677333,0.663222 0.239888,0.409222 0.324555,0.931333 0.09878,0.52211 0.09878,1.058332 z"
           style="font-style:normal;font-variant:normal;font-weight:bold;font-stretch:normal;font-size:14.1111px;font-family:Raleway;-inkscape-font-specification:'Raleway Bold';fill:#ffffff;stroke-width:0.264583"
           id="path1278" />
        <path
           d="m 94.545553,59.13134 v -7.394216 h 1.890887 v 7.394216 z m 0,-8.424327 v -1.876776 h 1.890887 v 1.876776 z"
           style="font-style:normal;font-variant:normal;font-weight:bold;font-stretch:normal;font-size:14.1111px;font-family:Raleway;-inkscape-font-specification:'Raleway Bold';fill:#ffffff;stroke-width:0.264583"
           id="path1280" />
        <path
           d="m 97.676899,55.434232 q 0,-0.776111 0.268111,-1.467555 0.26811,-0.691444 0.77611,-1.213554 0.508,-0.522111 1.227666,-0.832555 0.719664,-0.310444 1.622774,-0.310444 1.21356,0 2.06022,0.52211 0.86078,0.522111 1.28411,1.368777 l -1.84855,0.564444 q -0.23989,-0.409222 -0.635,-0.620888 -0.39511,-0.225778 -0.87489,-0.225778 -0.40922,0 -0.762,0.169333 -0.35278,0.155222 -0.62089,0.451555 -0.253996,0.282222 -0.409218,0.691444 -0.141111,0.409222 -0.141111,0.903111 0,0.493888 0.155222,0.90311 0.155222,0.409222 0.409217,0.705555 0.26812,0.296333 0.62089,0.465667 0.35278,0.155222 0.74789,0.155222 0.508,0 0.93133,-0.254 0.43745,-0.254 0.60678,-0.620889 l 1.84856,0.564444 q -0.381,0.846666 -1.25589,1.382888 -0.87489,0.536222 -2.10256,0.536222 -0.90311,0 -1.622773,-0.310444 -0.719666,-0.310444 -1.227666,-0.832555 -0.507999,-0.536222 -0.790221,-1.227666 -0.268111,-0.705555 -0.268111,-1.467554 z"
           style="font-style:normal;font-variant:normal;font-weight:bold;font-stretch:normal;font-size:14.1111px;font-family:Raleway;-inkscape-font-specification:'Raleway Bold';fill:#ffffff;stroke-width:0.264583"
           id="path1282" />
        <path
           d="m 108.93182,59.272451 q -0.45155,0 -0.94544,-0.07055 -0.47978,-0.07056 -0.94545,-0.197556 -0.46566,-0.127 -0.889,-0.310444 -0.42333,-0.183444 -0.74788,-0.409222 l 0.762,-1.28411 q 1.41111,0.917221 2.72344,0.917221 0.59266,0 0.93133,-0.211666 0.33867,-0.211667 0.33867,-0.606777 0,-0.395111 -0.40922,-0.578556 -0.39512,-0.197555 -1.34056,-0.423333 -0.71967,-0.169333 -1.22766,-0.352777 -0.508,-0.183444 -0.81845,-0.423333 -0.31044,-0.239889 -0.45155,-0.550333 -0.14111,-0.310444 -0.14111,-0.733777 0,-0.564444 0.22577,-1.015999 0.22578,-0.451556 0.62089,-0.762 0.40922,-0.324555 0.94544,-0.493888 0.55034,-0.169333 1.18534,-0.169333 0.79022,0 1.56633,0.253999 0.79022,0.239889 1.46755,0.663222 l -0.77611,1.171221 q -0.62089,-0.39511 -1.17122,-0.564444 -0.55033,-0.183444 -1.10066,-0.183444 -0.508,0 -0.86078,0.197555 -0.33867,0.197556 -0.33867,0.635 0,0.381 0.32456,0.550333 0.33866,0.169333 1.18533,0.381 0.79022,0.197555 1.34055,0.39511 0.56445,0.197556 0.91723,0.451556 0.36689,0.253999 0.52211,0.592666 0.16933,0.324555 0.16933,0.790221 0,0.536222 -0.22578,0.973666 -0.21166,0.437444 -0.60677,0.747889 -0.39512,0.296333 -0.97367,0.465666 -0.56444,0.155222 -1.25589,0.155222 z"
           style="font-style:normal;font-variant:normal;font-weight:bold;font-stretch:normal;font-size:14.1111px;font-family:Raleway;-inkscape-font-specification:'Raleway Bold';fill:#ffffff;stroke-width:0.264583"
           id="path1284" />
      </g>
    </g>
  </g>
</svg>
