<?xml version="1.0" encoding="UTF-8" standalone="no"?>
<svg
   xmlns:dc="http://purl.org/dc/elements/1.1/"
   xmlns:cc="http://creativecommons.org/ns#"
   xmlns:rdf="http://www.w3.org/1999/02/22-rdf-syntax-ns#"
   xmlns:svg="http://www.w3.org/2000/svg"
   xmlns="http://www.w3.org/2000/svg"
   xmlns:sodipodi="http://sodipodi.sourceforge.net/DTD/sodipodi-0.dtd"
   xmlns:inkscape="http://www.inkscape.org/namespaces/inkscape"
   width="165.62115"
   height="35"
   viewBox="0 0 43.820596 9.2604169"
   version="1.1"
   id="svg1252"
   sodipodi:docname="preventas.svg"
   inkscape:version="1.0.1 (3bc2e813f5, 2020-09-07)">
  <sodipodi:namedview
     pagecolor="#ffffff"
     bordercolor="#666666"
     borderopacity="1"
     objecttolerance="10"
     gridtolerance="10"
     guidetolerance="10"
     inkscape:pageopacity="0"
     inkscape:pageshadow="2"
     inkscape:window-width="1366"
     inkscape:window-height="704"
     id="namedview18"
     showgrid="false"
     inkscape:zoom="3.3516042"
     inkscape:cx="133.52504"
     inkscape:cy="40.853343"
     inkscape:window-x="0"
     inkscape:window-y="27"
     inkscape:window-maximized="1"
     inkscape:current-layer="svg1252" />
  <defs
     id="defs1246" />
  <metadata
     id="metadata1249">
    <rdf:RDF>
      <cc:Work
         rdf:about="">
        <dc:format>image/svg+xml</dc:format>
        <dc:type
           rdf:resource="http://purl.org/dc/dcmitype/StillImage" />
        <dc:title />
      </cc:Work>
    </rdf:RDF>
  </metadata>
  <g
     id="g1116"
     transform="matrix(1.1573983,0,0,1.1573983,-1.7303095,0.27273458)">
    <path
       id="path908"
       style="color:#000000;font-style:normal;font-variant:normal;font-weight:bold;font-stretch:normal;font-size:14.1111px;line-height:1.25;font-family:Raleway;-inkscape-font-specification:'Raleway Bold';font-variant-ligatures:normal;font-variant-position:normal;font-variant-caps:normal;font-variant-numeric:normal;font-variant-alternates:normal;font-variant-east-asian:normal;font-feature-settings:normal;font-variation-settings:normal;text-indent:0;text-align:start;text-decoration:none;text-decoration-line:none;text-decoration-style:solid;text-decoration-color:#000000;letter-spacing:normal;word-spacing:normal;text-transform:none;writing-mode:lr-tb;direction:ltr;text-orientation:mixed;dominant-baseline:auto;baseline-shift:baseline;text-anchor:start;white-space:normal;shape-padding:0;shape-margin:0;inline-size:0;clip-rule:nonzero;display:inline;overflow:visible;visibility:visible;isolation:auto;mix-blend-mode:normal;color-interpolation:sRGB;color-interpolation-filters:linearRGB;solid-color:#000000;solid-opacity:1;vector-effect:none;fill:#000000;fill-opacity:1;fill-rule:nonzero;stroke:none;stroke-width:6;stroke-linecap:butt;stroke-linejoin:miter;stroke-miterlimit:4;stroke-dasharray:none;stroke-dashoffset:0;stroke-opacity:1;paint-order:markers stroke fill;color-rendering:auto;image-rendering:auto;shape-rendering:auto;text-rendering:auto;enable-background:accumulate;stop-color:#000000"
       d="m 9.6503906,-0.890625 -4,4 v 25.958984 h 3 6.8789064 l 4,-4 v -2.992187 c 0.538323,-0.139955 1.067581,-0.320173 1.568359,-0.564453 0.571084,-0.278577 1.11052,-0.61558 1.613282,-1.001953 v 8.558593 h 9.767578 l 2.236328,-4 c 0.287649,0.394151 0.592992,0.774938 0.933594,1.125 0.961196,0.987897 2.126513,1.765473 3.408203,2.31836 l 0.02344,0.01172 0.02344,0.0078 c 1.357931,0.559148 2.831707,0.818359 4.345703,0.818359 2.081004,0 4.085264,-0.466823 5.794922,-1.498047 l 0.0078,-0.0039 0.0039,-0.0039 c 1.529777,-0.932269 2.803206,-2.230146 3.621094,-3.791016 0.04352,-0.02369 0.08768,-0.04593 0.130859,-0.07031 l 1.873047,5.085937 h 8.259766 l 4.246094,-2.875 c 0.961194,0.987899 2.126512,1.765473 3.408203,2.31836 l 0.02344,0.01172 0.02344,0.0078 c 1.357927,0.559148 2.831704,0.818359 4.345703,0.818359 2.081,0 4.083307,-0.466821 5.792969,-1.498047 l 0.0098,-0.0039 0.0039,-0.0039 c 0.421939,-0.257119 0.821656,-0.545294 1.201171,-0.855469 v 2.080078 h 19.691408 v -1.466797 c 0.0507,0.04843 0.0959,0.101777 0.14844,0.148438 l 0.0664,0.05859 0.0703,0.05078 c 0.6601,0.521134 1.43007,0.909695 2.22851,1.142578 l 0.0117,0.0078 0.0156,0.0039 c 0.74856,0.209601 1.52409,0.308594 2.29883,0.308594 1.08363,0 2.16152,-0.155432 3.1875,-0.470704 h 0.004 c 0.82464,-0.248171 1.55637,-0.508343 2.21875,-0.802734 l 0.0898,-0.03906 c 0.48248,0.315085 0.99372,0.584707 1.52735,0.794922 l 0.0352,0.01172 0.0391,0.01563 c 0.96601,0.351277 1.9916,0.517578 3.01954,0.517578 1.48925,0 2.96864,-0.328465 4.30664,-0.970703 0.0855,-0.04106 0.13461,-0.134088 0.21875,-0.177734 1.0251,0.735717 2.16375,1.034893 3.21289,1.0625 h 0.0391 0.0391 c 0.35343,0 0.69595,-0.02949 1.04688,-0.07031 0.45822,-0.03145 0.91428,-0.09564 1.36914,-0.191406 L 129.46094,28.5 v -0.05273 c 0.28011,0.09334 0.55981,0.185168 0.84765,0.263672 0.7347,0.200367 1.483,0.355716 2.23829,0.466796 h 0.008 0.004 c 0.78263,0.111799 1.5507,0.171875 2.30664,0.171875 1.14277,0 2.24915,-0.128761 3.30079,-0.417968 l 0.0234,-0.0078 0.0234,-0.0039 c 1.04446,-0.305696 2.03084,-0.757504 2.89844,-1.408203 l 0.0234,-0.01953 0.0273,-0.02344 6.0293,-6.509766 c 0.51651,-1.016004 0.77539,-2.155385 0.77539,-3.27539 0,-0.953732 -0.19314,-1.949618 -0.65821,-2.878906 -0.40191,-0.844266 -1.05267,-1.489399 -1.74218,-2.03125 l 3.18164,-4.8007818 -2.61328,-1.6308593 C 145.01635,5.642788 143.8019,5.0982328 142.52344,4.7070312 141.21596,4.2825072 139.86044,4.0585938 138.5,4.0585938 c -1.11,0 -2.19936,0.1465344 -3.24023,0.4667968 l -0.0117,0.00391 -0.0117,0.00391 c -1.02355,0.3232252 -1.99225,0.8210859 -2.83399,1.4863281 -0.001,0.00113 -0.002,0.00273 -0.004,0.00391 -0.60717,0.477808 -1.13486,1.0584825 -1.56836,1.7011719 -0.33618,-0.4764723 -0.72172,-0.9185536 -1.16602,-1.3085938 -1.83235,-1.6417564 -4.30031,-2.3300804 -6.90234,-2.3300781 -2.07193,0 -4.0989,0.4683194 -5.96875,1.3554687 V 4.3378906 h -3.12109 v -4.77734372 h -9.76563 V 3.5605469 h -4 v 0.6503906 c -0.484473,-0.078488 -0.973893,-0.1250007 -1.462891,-0.125 -0.998067,0 -1.90302,0.3971368 -2.847656,0.6523437 V 4.3378906 H 86.195312 V 6.5351562 C 85.42334,5.8891649 84.552015,5.3580899 83.615234,4.953125 82.249313,4.3542305 80.753811,4.0859375 79.214844,4.0859375 c -1.543155,0 -3.046468,0.2710865 -4.427735,0.8554687 l -0.01172,0.00391 -0.0078,0.00391 c -0.09087,0.039197 -0.176008,0.089245 -0.265625,0.1308593 L 74.775391,4.3378906 H 64.748047 l -1.292969,4 h -0.560547 l -1.28125,-4 H 51.244141 L 51.40625,4.7792969 C 50.169129,4.3133867 48.841493,4.0859375 47.476562,4.0859375 c -1.543154,0 -3.046468,0.2710865 -4.427734,0.8554687 l -0.01172,0.00391 -0.0078,0.00391 c -0.542049,0.2338601 -1.056454,0.520346 -1.548839,0.8378832 V 4.7109375 L 39.072266,4.2285156 c -0.110816,-0.022148 -0.204796,-0.018248 -0.310547,-0.03125 -0.0038,-7.57e-4 -0.004,7.431e-4 -0.0078,0 -0.500693,-0.099228 -0.73641,-0.085937 -1.03125,-0.085937 -0.561816,0 -1.01124,0.4033002 -1.552734,0.5410157 V 4.3378906 H 29.353516 C 28.958944,3.5731436 28.470415,2.8576509 27.894531,2.2207031 27.079633,1.3018394 26.076459,0.55814979 24.96875,0.0234375 23.777718,-0.57904092 22.442909,-0.890625 21.109375,-0.890625 Z m 131.9003894,8.1152344 0.0664,0.023437 c -0.009,-0.00299 -0.0186,-9.295e-4 -0.0273,-0.00391 -0.0136,-0.0042 -0.0255,-0.015336 -0.0391,-0.019531 z m -96.656249,0.074219 c -0.0098,0.00378 -0.01752,0.011846 -0.02734,0.015625 -0.0098,0.0042 -0.02142,0.00361 -0.03125,0.00781 z m 31.736328,0 c -0.0098,0.00378 -0.01752,0.011846 -0.02734,0.015625 -0.0098,0.0042 -0.02142,0.00361 -0.03125,0.00781 z m 68.666021,5.1640626 0.0469,0.03125 c -0.0102,-0.0074 -0.0246,-0.0083 -0.0352,-0.01563 -0.005,-0.0036 -0.006,-0.01204 -0.0117,-0.01563 z"
       transform="scale(0.26458333)"
       sodipodi:nodetypes="cccccccsccccscccscccccccccccscccccccccccccscccccccsscccsccccscccscccccccscccccscccscccsccccccccscccccscccccccccccsccccccccscccccsccccccccccccccccc" />
    <g
       aria-label="Preventas"
       id="text995"
       style="font-style:normal;font-variant:normal;font-weight:bold;font-stretch:normal;font-size:14.1111px;line-height:1.25;font-family:Raleway;-inkscape-font-specification:'Raleway Bold';fill:#ffffff;fill-opacity:1;stroke-width:0.264583"
       transform="matrix(0.52708312,0,0,0.52708312,13.934954,-18.878326)">
      <path
         d="M -20.088343,46.89418 V 36.875299 h 4.247441 q 0.691444,0 1.269999,0.296333 0.592666,0.282222 1.015999,0.762 0.423333,0.465666 0.663222,1.072443 0.239889,0.592666 0.239889,1.199444 0,0.634999 -0.225778,1.241777 -0.225778,0.592666 -0.634999,1.058332 -0.409222,0.465666 -0.987777,0.747888 -0.578556,0.282222 -1.269999,0.282222 h -2.370665 v 3.358442 z m 1.947332,-5.065885 h 2.257776 q 0.536222,0 0.888999,-0.437444 0.366889,-0.437444 0.366889,-1.185332 0,-0.381 -0.112889,-0.677333 -0.112889,-0.310444 -0.296333,-0.522111 -0.183445,-0.211666 -0.437444,-0.310444 -0.239889,-0.112889 -0.493889,-0.112889 h -2.173109 z"
         style="font-style:normal;font-variant:normal;font-weight:bold;font-stretch:normal;font-size:14.1111px;font-family:Raleway;-inkscape-font-specification:'Raleway Bold';fill:#ffffff;fill-opacity:1;stroke-width:0.264583"
         id="path1316" />
      <path
         d="m -7.1202653,41.136851 q -0.8607771,0.01411 -1.5381099,0.338667 -0.6773328,0.310444 -0.9736659,0.945444 v 4.473218 h -1.8908879 v -7.394216 h 1.7356658 v 1.580443 q 0.3809997,-0.761999 0.987777,-1.227666 0.6208884,-0.465666 1.2982212,-0.465666 0.1552221,0 0.2257776,0.01411 0.084667,0 0.1552221,0.01411 z"
         style="font-style:normal;font-variant:normal;font-weight:bold;font-stretch:normal;font-size:14.1111px;font-family:Raleway;-inkscape-font-specification:'Raleway Bold';fill:#ffffff;fill-opacity:1;stroke-width:0.264583"
         id="path1318" />
      <path
         d="m -2.6188368,47.035291 q -0.8889994,0 -1.6086655,-0.296333 -0.7196661,-0.310444 -1.2276657,-0.832555 -0.5079996,-0.52211 -0.7902216,-1.213554 -0.2681109,-0.691444 -0.2681109,-1.453444 0,-0.790221 0.2681109,-1.481665 0.2681109,-0.705555 0.7761105,-1.227666 0.5079996,-0.536222 1.2276657,-0.846666 0.7337772,-0.310444 1.6368877,-0.310444 0.9031104,0 1.60866538,0.310444 0.71966611,0.310444 1.21355462,0.832555 0.50799961,0.522111 0.76199941,1.213555 0.26811089,0.691444 0.26811089,1.439332 0,0.183444 -0.014111,0.352777 0,0.169334 -0.028222,0.282222 H -4.509724 q 0.042333,0.437444 0.2116665,0.776111 0.1693332,0.338666 0.4374441,0.578555 0.2681109,0.239889 0.6067774,0.366889 0.3386664,0.126999 0.705555,0.126999 0.564444,0 1.0583325,-0.26811 0.50799959,-0.282222 0.69144389,-0.733778 l 1.62277652,0.451556 Q 0.4150497,45.948737 -0.48806071,46.499069 -1.37706,47.035291 -2.6188368,47.035291 Z m 1.91910959,-4.459107 q -0.0705555,-0.832555 -0.62088839,-1.326444 -0.5362218,-0.507999 -1.3123323,-0.507999 -0.3809997,0 -0.7196661,0.141111 -0.3245554,0.127 -0.5785552,0.366888 -0.2539998,0.239889 -0.423333,0.578555 -0.1552221,0.338667 -0.1834443,0.747889 z"
         style="font-style:normal;font-variant:normal;font-weight:bold;font-stretch:normal;font-size:14.1111px;font-family:Raleway;-inkscape-font-specification:'Raleway Bold';fill:#ffffff;fill-opacity:1;stroke-width:0.264583"
         id="path1320" />
      <path
         d="M 4.1685559,46.89418 1.4451135,39.499964 H 3.3924454 L 5.2692217,45.35607 7.1601091,39.499964 H 8.9381077 L 6.2146654,46.89418 Z"
         style="font-style:normal;font-variant:normal;font-weight:bold;font-stretch:normal;font-size:14.1111px;font-family:Raleway;-inkscape-font-specification:'Raleway Bold';fill:#ffffff;fill-opacity:1;stroke-width:0.264583"
         id="path1322" />
      <path
         d="m 13.312537,47.035291 q -0.889,0 -1.608666,-0.296333 -0.719666,-0.310444 -1.227665,-0.832555 -0.508,-0.52211 -0.790222,-1.213554 -0.2681109,-0.691444 -0.2681109,-1.453444 0,-0.790221 0.2681109,-1.481665 0.2681109,-0.705555 0.776111,-1.227666 0.507999,-0.536222 1.227665,-0.846666 0.733777,-0.310444 1.636888,-0.310444 0.90311,0 1.608665,0.310444 0.719666,0.310444 1.213555,0.832555 0.508,0.522111 0.761999,1.213555 0.268111,0.691444 0.268111,1.439332 0,0.183444 -0.01411,0.352777 0,0.169334 -0.02822,0.282222 h -5.714996 q 0.04233,0.437444 0.211667,0.776111 0.169333,0.338666 0.437444,0.578555 0.268111,0.239889 0.606777,0.366889 0.338667,0.126999 0.705555,0.126999 0.564444,0 1.058333,-0.26811 0.507999,-0.282222 0.691444,-0.733778 l 1.622776,0.451556 q -0.409222,0.846666 -1.312332,1.396998 -0.888999,0.536222 -2.130776,0.536222 z m 1.919109,-4.459107 q -0.07055,-0.832555 -0.620888,-1.326444 -0.536222,-0.507999 -1.312332,-0.507999 -0.381,0 -0.719666,0.141111 -0.324556,0.127 -0.578556,0.366888 -0.253999,0.239889 -0.423333,0.578555 -0.155222,0.338667 -0.183444,0.747889 z"
         style="font-style:normal;font-variant:normal;font-weight:bold;font-stretch:normal;font-size:14.1111px;font-family:Raleway;-inkscape-font-specification:'Raleway Bold';fill:#ffffff;fill-opacity:1;stroke-width:0.264583"
         id="path1324" />
      <path
         d="m 25.208175,46.89418 h -1.890888 v -4.148663 q 0,-0.888999 -0.310444,-1.298221 -0.310444,-0.409222 -0.860777,-0.409222 -0.282222,0 -0.578555,0.112889 -0.296333,0.112888 -0.564444,0.324555 -0.254,0.197555 -0.465667,0.479777 -0.211666,0.282222 -0.310444,0.620889 v 4.317996 h -1.890887 v -7.394216 h 1.707443 v 1.368777 q 0.409222,-0.705555 1.185332,-1.100666 0.776111,-0.395111 1.749777,-0.395111 0.691444,0 1.128888,0.254 0.437444,0.254 0.677333,0.663221 0.239888,0.409222 0.324555,0.931333 0.09878,0.522111 0.09878,1.058333 z"
         style="font-style:normal;font-variant:normal;font-weight:bold;font-stretch:normal;font-size:14.1111px;font-family:Raleway;-inkscape-font-specification:'Raleway Bold';fill:#ffffff;fill-opacity:1;stroke-width:0.264583"
         id="path1326" />
      <path
         d="m 31.247702,46.513181 q -0.381,0.169333 -0.945444,0.338666 -0.550333,0.169333 -1.15711,0.169333 -0.395111,0 -0.747888,-0.09878 -0.338667,-0.09878 -0.606778,-0.310444 -0.253999,-0.225777 -0.409221,-0.564444 -0.155223,-0.352777 -0.155223,-0.846666 v -4.247441 h -0.959554 v -1.453443 h 0.959554 v -2.398887 h 1.890888 v 2.398887 h 1.566332 v 1.453443 h -1.566332 v 3.612442 q 0,0.395111 0.211666,0.564444 0.211667,0.155222 0.508,0.155222 0.296333,0 0.578555,-0.09878 0.282222,-0.09878 0.451555,-0.169333 z"
         style="font-style:normal;font-variant:normal;font-weight:bold;font-stretch:normal;font-size:14.1111px;font-family:Raleway;-inkscape-font-specification:'Raleway Bold';fill:#ffffff;fill-opacity:1;stroke-width:0.264583"
         id="path1328" />
      <path
         d="m 34.225146,47.035291 q -0.536222,0 -1.001888,-0.169333 -0.465667,-0.183444 -0.804333,-0.493888 -0.338666,-0.324556 -0.536222,-0.747889 -0.183444,-0.423333 -0.183444,-0.931332 0,-0.522111 0.225777,-0.959555 0.239889,-0.451555 0.649111,-0.762 0.423333,-0.310444 1.001888,-0.479777 0.578555,-0.183444 1.269999,-0.183444 0.493889,0 0.959555,0.08467 0.479777,0.08467 0.846666,0.239889 v -0.423333 q 0,-0.733777 -0.423333,-1.128888 Q 35.8197,40.6853 35.001256,40.6853 q -0.592666,0 -1.15711,0.211667 -0.564444,0.211666 -1.15711,0.620888 l -0.578555,-1.199443 q 1.425221,-0.945444 3.07622,-0.945444 1.594554,0 2.469442,0.790222 0.888999,0.77611 0.888999,2.257776 v 2.300109 q 0,0.296333 0.112889,0.423333 0.112889,0.127 0.395111,0.141111 v 1.608665 q -0.268111,0.05645 -0.508,0.07056 -0.225777,0.02822 -0.39511,0.02822 -0.536222,-0.01411 -0.818444,-0.239889 -0.282222,-0.239888 -0.352778,-0.634999 l -0.04233,-0.409222 q -0.493889,0.64911 -1.199444,0.987777 -0.705555,0.338666 -1.509887,0.338666 z m 0.536222,-1.382888 q 0.479777,0 0.90311,-0.169333 0.437444,-0.169333 0.677333,-0.451555 0.310444,-0.239889 0.310444,-0.536222 v -0.846666 q -0.338666,-0.127 -0.733777,-0.197555 -0.395111,-0.08467 -0.762,-0.08467 -0.733777,0 -1.199443,0.338667 -0.465666,0.324555 -0.465666,0.832555 0,0.479777 0.366888,0.804332 0.366889,0.310444 0.903111,0.310444 z"
         style="font-style:normal;font-variant:normal;font-weight:bold;font-stretch:normal;font-size:14.1111px;font-family:Raleway;-inkscape-font-specification:'Raleway Bold';fill:#ffffff;fill-opacity:1;stroke-width:0.264583"
         id="path1330" />
      <path
         d="m 43.270345,47.035291 q -0.451555,0 -0.945443,-0.07055 -0.479778,-0.07056 -0.945444,-0.197556 -0.465666,-0.127 -0.888999,-0.310444 -0.423333,-0.183444 -0.747889,-0.409222 l 0.762,-1.28411 q 1.41111,0.917222 2.723442,0.917222 0.592666,0 0.931333,-0.211667 0.338666,-0.211666 0.338666,-0.606777 0,-0.395111 -0.409222,-0.578555 -0.395111,-0.197556 -1.340554,-0.423333 -0.719666,-0.169333 -1.227666,-0.352778 -0.508,-0.183444 -0.818444,-0.423333 -0.310444,-0.239888 -0.451555,-0.550333 -0.141111,-0.310444 -0.141111,-0.733777 0,-0.564444 0.225778,-1.015999 0.225777,-0.451555 0.620888,-0.761999 0.409222,-0.324556 0.945444,-0.493889 0.550333,-0.169333 1.185332,-0.169333 0.790222,0 1.566332,0.254 0.790222,0.239888 1.467555,0.663221 l -0.776111,1.171222 q -0.620888,-0.395111 -1.171221,-0.564444 -0.550333,-0.183445 -1.100666,-0.183445 -0.508,0 -0.860777,0.197556 -0.338666,0.197555 -0.338666,0.634999 0,0.381 0.324555,0.550333 0.338666,0.169333 1.185332,0.381 0.790222,0.197555 1.340555,0.395111 0.564444,0.197555 0.917221,0.451555 0.366889,0.254 0.522111,0.592666 0.169333,0.324555 0.169333,0.790222 0,0.536221 -0.225777,0.973666 -0.211667,0.437444 -0.606778,0.747888 -0.39511,0.296333 -0.973666,0.465666 -0.564444,0.155222 -1.255888,0.155222 z"
         style="font-style:normal;font-variant:normal;font-weight:bold;font-stretch:normal;font-size:14.1111px;font-family:Raleway;-inkscape-font-specification:'Raleway Bold';fill:#ffffff;fill-opacity:1;stroke-width:0.264583"
         id="path1332" />
    </g>
  </g>
</svg>
