<?xml version="1.0" encoding="UTF-8" standalone="no"?>
<svg
   xmlns:dc="http://purl.org/dc/elements/1.1/"
   xmlns:cc="http://creativecommons.org/ns#"
   xmlns:rdf="http://www.w3.org/1999/02/22-rdf-syntax-ns#"
   xmlns:svg="http://www.w3.org/2000/svg"
   xmlns="http://www.w3.org/2000/svg"
   xmlns:sodipodi="http://sodipodi.sourceforge.net/DTD/sodipodi-0.dtd"
   xmlns:inkscape="http://www.inkscape.org/namespaces/inkscape"
   width="233.9362"
   height="35"
   viewBox="0 0 61.895622 9.2604167"
   version="1.1"
   id="svg6212"
   inkscape:version="1.0.1 (3bc2e813f5, 2020-09-07)"
   sodipodi:docname="ultimosvisitados.svg">
  <defs
     id="defs6206" />
  <sodipodi:namedview
     id="base"
     pagecolor="#ffffff"
     bordercolor="#666666"
     borderopacity="1.0"
     inkscape:pageopacity="0.0"
     inkscape:pageshadow="2"
     inkscape:zoom="3.6687859"
     inkscape:cx="102.16233"
     inkscape:cy="27.06901"
     inkscape:document-units="px"
     inkscape:current-layer="layer1"
     inkscape:document-rotation="0"
     showgrid="false"
     units="px"
     inkscape:window-width="1366"
     inkscape:window-height="704"
     inkscape:window-x="0"
     inkscape:window-y="27"
     inkscape:window-maximized="1" />
  <metadata
     id="metadata6209">
    <rdf:RDF>
      <cc:Work
         rdf:about="">
        <dc:format>image/svg+xml</dc:format>
        <dc:type
           rdf:resource="http://purl.org/dc/dcmitype/StillImage" />
        <dc:title />
      </cc:Work>
    </rdf:RDF>
  </metadata>
  <g
     inkscape:label="Layer 1"
     inkscape:groupmode="layer"
     id="layer1"
     transform="translate(30.411492,-114.72914)">
    <g
       id="g3227"
       transform="matrix(0.46532844,0,0,0.46532844,10.809119,71.161639)">
      <g
         id="g891"
         transform="matrix(0.56584179,0,0,0.56584179,-39.788677,40.649113)">
        <g
           id="g5625"
           transform="matrix(1.9286069,0,0,1.9286069,-413.96818,-90.88738)">
          <g
             id="g5623"
             transform="translate(158.75004,-116.41668)">
            <path
               id="path5703"
               style="color:#000000;font-style:normal;font-variant:normal;font-weight:bold;font-stretch:normal;font-size:14.1111px;line-height:1.25;font-family:Raleway;-inkscape-font-specification:'Raleway Bold';font-variant-ligatures:normal;font-variant-position:normal;font-variant-caps:normal;font-variant-numeric:normal;font-variant-alternates:normal;font-variant-east-asian:normal;font-feature-settings:normal;font-variation-settings:normal;text-indent:0;text-align:start;text-decoration:none;text-decoration-line:none;text-decoration-style:solid;text-decoration-color:#000000;letter-spacing:normal;word-spacing:normal;text-transform:none;writing-mode:lr-tb;direction:ltr;text-orientation:mixed;dominant-baseline:auto;baseline-shift:baseline;text-anchor:start;white-space:normal;shape-padding:0;shape-margin:0;inline-size:0;clip-rule:nonzero;display:inline;overflow:visible;visibility:visible;isolation:auto;mix-blend-mode:normal;color-interpolation:sRGB;color-interpolation-filters:linearRGB;solid-color:#000000;solid-opacity:1;vector-effect:none;fill:#000000;fill-opacity:1;fill-rule:nonzero;stroke:none;stroke-width:2.64999;stroke-linecap:butt;stroke-linejoin:miter;stroke-miterlimit:4;stroke-dasharray:none;stroke-dashoffset:0;stroke-opacity:1;color-rendering:auto;image-rendering:auto;shape-rendering:auto;text-rendering:auto;enable-background:accumulate;stop-color:#000000"
               d="m 18.570304,212.08926 -1.312582,2.89233 H 13.66776 l -2.485077,2.48767 v 6.43371 c 0,0.75153 0.08792,1.48651 0.265615,2.19728 l 0.0015,0.01 0.0021,0.01 c 0.19962,0.7515 0.530064,1.44863 0.986504,2.0531 l 0.0036,0.004 0.0041,0.006 c 0.474489,0.61556 1.093203,1.11188 1.802991,1.47278 l 0.01137,0.006 0.01395,0.006 c 0.785164,0.3795 1.670714,0.54105 2.621029,0.54105 0.922221,0 1.78866,-0.15607 2.558502,-0.52142 0.720897,-0.34211 1.350463,-0.83729 1.829861,-1.45727 0.159705,-0.20257 0.303427,-0.41712 0.432533,-0.64079 0.08469,0.66716 0.346522,1.32062 0.833541,1.80764 l 0.01344,0.014 0.01344,0.0134 c 0.617976,0.58266 1.469387,0.82631 2.2934,0.82631 0.379447,0 0.765839,-0.0444 1.169953,-0.12299 0.428604,-0.0833 0.833139,-0.20679 1.210781,-0.38861 l 0.265099,-0.12764 c 0.300382,0.22587 0.642618,0.39688 1.000456,0.50126 l 0.0057,0.004 0.0078,0.002 c 0.358888,0.10051 0.732025,0.14676 1.105876,0.14676 0.524415,0 1.042014,-0.0736 1.536856,-0.2248 6.48e-4,-2e-4 0.0014,1.9e-4 0.0021,0 0.06911,-0.0207 0.129001,-0.0426 0.19534,-0.0636 v 0.16072 h 1.323948 16.394864 v -1.32447 -0.0202 c 0.45334,0.44956 0.992423,0.80953 1.589569,1.06711 0.664869,0.28681 1.39274,0.41807 2.146639,0.41807 0.753898,0 1.483317,-0.13126 2.148189,-0.41807 0.521573,-0.22498 0.998857,-0.52832 1.409731,-0.90382 l 0.139528,0.0972 c 0.299972,0.20868 0.625325,0.3854 0.976167,0.53743 0.342496,0.14841 0.700323,0.27264 1.068668,0.3731 0.361728,0.0986 0.729282,0.17574 1.101225,0.23048 h 0.0021 0.0021 c 0.385257,0.0551 0.762656,0.0837 1.132747,0.0837 0.560118,0 1.097979,-0.0609 1.607653,-0.20102 l 0.01137,-0.004 0.0098,-0.002 c 0.507643,-0.14858 0.981977,-0.36634 1.396815,-0.67747 l 0.01137,-0.0103 0.01189,-0.008 4.111857,-4.67756 2.137855,5.43946 h 1.66243 l 0.06615,0.18758 0.06666,-0.18758 c 5.041643,-2.20028 2.985207,0 8.7421,0 l 22.972885,0.0651 c 0.22501,-0.0148 0.45034,-0.044 0.67593,-0.0915 2.26709,-1.27044 1.4103,0.16679 4.08933,0.16679 0.71816,0 1.43095,-0.16971 2.07068,-0.4961 l 0.008,-0.006 0.0103,-0.004 c 0.0243,-0.0129 0.0344,-0.0434 0.0584,-0.0568 h 0.002 l 0.0119,0.0103 c 0.48536,0.36983 1.05333,0.49723 1.58544,0.5116 h 0.0181 0.0176 c 3.69868,-1.12344 3.79437,-0.009 5.73505,0.0408 0.7539,0 1.48177,-0.13126 2.14664,-0.41807 0.52112,-0.22479 0.99917,-0.52774 1.41025,-0.90278 l 0.13849,0.0961 c 0.29998,0.20869 0.62739,0.3854 0.97824,0.53743 0.3425,0.14841 0.69825,0.27264 1.0666,0.3731 0.36173,0.0986 0.7298,0.17574 1.10174,0.23048 h 0.002 0.004 c 0.38526,0.0551 0.76265,0.0837 1.13274,0.0837 0,0 0.89563,0.10489 1.32447,0 0.62042,-0.15176 1.16882,-0.52946 1.69979,-0.88445 0.004,-0.003 0.0119,-0.01 0.0119,-0.01 l 0.0114,-0.008 2.4639,-2.46783 0.0114,-0.01 0.0119,-0.0103 c 0.40601,-0.31902 0.74062,-0.7336 0.96894,-1.19889 0.24608,-0.48367 0.36897,-1.02734 0.36897,-1.56476 0,-0.45925 -0.0904,-0.92942 -0.31058,-1.36684 -0.21374,-0.4494 -0.55258,-0.81713 -0.93534,-1.08624 l 0.002,-0.004 h -5.1e-4 l 1.56476,-2.36161 -1.15445,-0.72037 c -0.54714,-0.34196 -1.1408,-0.60907 -1.76734,-0.80098 -0.64077,-0.20863 -1.30342,-0.31833 -1.96887,-0.31833 v 0.001 c -0.54111,0 -1.07026,0.0734 -1.57406,0.22841 h -0.006 l -0.004,0.002 c -0.49558,0.1565 -0.95989,0.39636 -1.36477,0.71675 -0.32444,0.25491 -0.60157,0.56959 -0.82011,0.91984 -0.0796,-0.0959 -0.15925,-0.19187 -0.24598,-0.28163 -0.45687,-0.49175 -1.01925,-0.87983 -1.64486,-1.15032 -0.65964,-0.28918 -1.38452,-0.42168 -2.1363,-0.42168 h -5.2e-4 c -0.75389,0 -1.48333,0.13332 -2.14819,0.42013 -0.63043,0.27195 -1.19827,0.65873 -1.66398,1.15031 v 0.002 c -0.0715,0.0756 -0.13613,0.15686 -0.20257,0.23668 V 214.701 l -4.54184,-5.2e-4 -1.15807,2.77916 c -0.66164,0 -1.31829,0.14382 -1.90841,0.43201 -0.56742,0.27712 -1.0724,0.67342 -1.47846,1.15807 -0.16763,0.20007 -0.31584,0.4156 -0.45166,0.63976 -0.21151,-0.41499 -0.49053,-0.79011 -0.84336,-1.10071 -0.87977,-0.79095 -2.07042,-1.12913 -3.34914,-1.12913 h -5.2e-4 c -1.11555,0 -2.19852,0.27941 -3.187404,0.80202 v -0.67438 h -1.566312 v -2.39882 h -4.006948 v -0.50807 H 89.33601 c -1.481196,3.91058 -0.241574,2.78264 -3.103687,2.76469 v 0.001 c -0.54111,0 -1.070268,0.0734 -1.574064,0.22841 h -0.0062 l -0.0036,0.002 c -0.495588,0.1565 -0.960413,0.39636 -1.365292,0.71675 -0.05371,0.0422 -0.102775,0.0901 -0.153995,0.13539 v -0.94206 -2.90628 h -4.541325 v 0.28112 h -2.531112 l -1.75028,4.9475 -1.769401,-4.9475 h -0.933278 -3.990454 l -2.535245,2.80293 c -0.640771,-0.20863 -1.303414,-0.31833 -1.96887,-0.31833 -0.54111,0 -1.072338,0.0734 -1.576134,0.22841 h -0.0036 l -0.0041,0.002 c -0.495036,0.15632 -0.960729,0.3969 -1.365293,0.71675 -0.324186,0.25472 -0.602157,0.56887 -0.821137,0.91881 -0.07928,-0.0955 -0.158557,-0.19119 -0.244948,-0.2806 -0.455893,-0.4907 -1.016728,-0.87783 -1.640727,-1.14825 -0.0012,-5.1e-4 -0.0029,5e-4 -0.0041,0 -0.660194,-0.28983 -1.383734,-0.42375 -2.136304,-0.42375 h -5.19e-4 c -0.753893,0 -1.48332,0.13332 -2.148189,0.42013 -0.63042,0.27195 -1.198272,0.65873 -1.663981,1.15031 v 0.002 h -0.0021 c -0.117877,0.12461 -0.22788,0.25576 -0.331764,0.39171 -0.05812,-0.13388 -0.121271,-0.26537 -0.195336,-0.39171 -0.277141,-0.47277 -0.688629,-0.86727 -1.156518,-1.13895 -0.548441,-0.31845 -1.162039,-0.43356 -1.779219,-0.43356 -0.792581,0 -1.573171,0.19607 -2.246376,0.59221 -0.09688,0.0557 -0.142283,0.17287 -0.234093,0.23616 -0.01026,-0.009 -0.01134,-0.0258 -0.0217,-0.0351 -0.634405,-0.57496 -1.479232,-0.79323 -2.310453,-0.79323 -0.50275,0 -0.956008,0.20365 -1.425755,0.34985 v -0.22273 h -3.400308 v -2.90628 h -4.540808 v 2.90628 5.2e-4 h -0.437701 v -2.39882 h -4.540805 v 2.3983 h -0.16795 v -2.90628 h -4.541324 v 0.28215 h -2.41019 l 1.8557,-2.89233 z m 26.724467,7.81244 c -0.0029,0.003 -0.0027,0.007 -0.0057,0.01 -0.0026,0.002 -0.0072,0.002 -0.0098,0.004 z m 86.193189,1.75122 0.0165,0.0134 c -0.004,-0.002 -0.007,-0.003 -0.0103,-0.005 -0.003,-0.002 -0.003,-0.006 -0.006,-0.008 z"
               sodipodi:nodetypes="ccccscccccccccsscccccscsccccsscccccccsssccsccccscccccccccccccccccccccccccsccsccccsaaccccccsccccccccccccccccsssccccccssccssccccccccccccccccccccccccsccccccscsssccccssscccsccccccccccccccccccccccccccc" />
            <g
               aria-label="Últimos Visitados"
               id="text6056"
               style="font-style:normal;font-variant:normal;font-weight:bold;font-stretch:normal;font-size:14.1111px;line-height:1.25;font-family:Raleway;-inkscape-font-specification:'Raleway Bold';fill:#362a2a;fill-opacity:1;stroke-width:0.264583">
              <path
                 d="m 19.347019,215.99006 -1.213555,-0.36689 0.761999,-1.67922 h 1.763888 z m -0.508,9.21455 q 0.691444,0 1.15711,-0.28222 0.479778,-0.28223 0.762,-0.73378 0.296333,-0.45156 0.409222,-1.03011 0.126999,-0.59267 0.126999,-1.21356 v -5.10822 h 1.933221 v 5.10822 q 0,1.03011 -0.254,1.93322 -0.239888,0.90311 -0.77611,1.58045 -0.522111,0.67733 -1.354666,1.07244 -0.832555,0.39511 -1.989665,0.39511 -1.199443,0 -2.046109,-0.40922 -0.832555,-0.42333 -1.354666,-1.10067 -0.522111,-0.69144 -0.761999,-1.59455 -0.225778,-0.90311 -0.225778,-1.87678 v -5.10822 h 1.947332 v 5.10822 q 0,0.635 0.112889,1.22767 0.127,0.57855 0.409222,1.03011 0.296333,0.45155 0.761999,0.73378 0.465666,0.26811 1.142999,0.26811 z"
                 style="font-style:normal;font-variant:normal;font-weight:bold;font-stretch:normal;font-size:14.1111px;font-family:Raleway;-inkscape-font-specification:'Raleway Bold';fill:#362a2a;fill-opacity:1;stroke-width:0.264583"
                 id="path926" />
              <path
                 d="m 24.963898,216.5545 h 1.890887 v 7.84577 q 0,0.86078 0.776111,0.86078 0.155222,0 0.352777,-0.0564 0.211667,-0.0565 0.395111,-0.127 l 0.254,1.50989 q -0.381,0.18344 -0.888999,0.28222 -0.508,0.0988 -0.917222,0.0988 -0.888999,0 -1.382888,-0.46566 -0.479777,-0.47978 -0.479777,-1.35467 z"
                 style="font-style:normal;font-variant:normal;font-weight:bold;font-stretch:normal;font-size:14.1111px;font-family:Raleway;-inkscape-font-specification:'Raleway Bold';fill:#362a2a;fill-opacity:1;stroke-width:0.264583"
                 id="path928" />
              <path
                 d="m 33.69492,226.47461 q -0.381,0.16933 -0.945444,0.33866 -0.550333,0.16934 -1.15711,0.16934 -0.395111,0 -0.747888,-0.0988 -0.338667,-0.0988 -0.606778,-0.31045 -0.253999,-0.22577 -0.409222,-0.56444 -0.155222,-0.35278 -0.155222,-0.84667 v -4.24744 h -0.959554 v -1.45344 h 0.959554 v -2.39889 h 1.890888 v 2.39889 h 1.566332 v 1.45344 h -1.566332 v 3.61244 q 0,0.39512 0.211666,0.56445 0.211667,0.15522 0.508,0.15522 0.296333,0 0.578555,-0.0988 0.282222,-0.0988 0.451555,-0.16933 z"
                 style="font-style:normal;font-variant:normal;font-weight:bold;font-stretch:normal;font-size:14.1111px;font-family:Raleway;-inkscape-font-specification:'Raleway Bold';fill:#362a2a;fill-opacity:1;stroke-width:0.264583"
                 id="path930" />
              <path
                 d="m 34.651828,226.85561 v -7.39422 h 1.890888 v 7.39422 z m 0,-8.42433 v -1.87678 h 1.890888 v 1.87678 z"
                 style="font-style:normal;font-variant:normal;font-weight:bold;font-stretch:normal;font-size:14.1111px;font-family:Raleway;-inkscape-font-specification:'Raleway Bold';fill:#362a2a;fill-opacity:1;stroke-width:0.264583"
                 id="path932" />
              <path
                 d="m 49.721161,226.85561 h -1.890887 v -4.14867 q 0,-0.889 -0.310444,-1.29822 -0.310445,-0.40922 -0.846666,-0.40922 -0.550333,0 -1.044222,0.43744 -0.493888,0.42334 -0.705555,1.11478 v 4.30389 H 43.0325 v -4.14867 q 0,-0.889 -0.310445,-1.29822 -0.296333,-0.40922 -0.832554,-0.40922 -0.550333,0 -1.058333,0.42333 -0.493888,0.42334 -0.705555,1.11478 v 4.318 h -1.890887 v -7.39422 h 1.707443 v 1.36878 q 0.409222,-0.71967 1.114777,-1.10067 0.719666,-0.39511 1.636887,-0.39511 0.931333,0 1.425221,0.45155 0.508,0.45156 0.663222,1.11478 0.451555,-0.762 1.142999,-1.15711 0.691444,-0.40922 1.580443,-0.40922 0.677333,0 1.114777,0.254 0.437444,0.254 0.677333,0.66322 0.239889,0.40922 0.324555,0.93133 0.09878,0.52211 0.09878,1.05834 z"
                 style="font-style:normal;font-variant:normal;font-weight:bold;font-stretch:normal;font-size:14.1111px;font-family:Raleway;-inkscape-font-specification:'Raleway Bold';fill:#362a2a;fill-opacity:1;stroke-width:0.264583"
                 id="path934" />
              <path
                 d="m 54.782639,226.99672 q -0.903111,0 -1.622777,-0.31045 -0.719666,-0.31044 -1.227666,-0.83255 -0.493888,-0.53622 -0.761999,-1.22767 -0.268111,-0.69144 -0.268111,-1.45344 0,-0.77611 0.268111,-1.46756 0.268111,-0.69144 0.761999,-1.21355 0.508,-0.53622 1.227666,-0.84667 0.719666,-0.31044 1.622777,-0.31044 0.90311,0 1.608665,0.31044 0.719666,0.31045 1.213555,0.84667 0.507999,0.52211 0.77611,1.21355 0.268111,0.69145 0.268111,1.46756 0,0.762 -0.268111,1.45344 -0.268111,0.69145 -0.761999,1.22767 -0.493889,0.52211 -1.213555,0.83255 -0.719666,0.31045 -1.622776,0.31045 z m -1.933221,-3.82411 q 0,0.49389 0.141111,0.90311 0.155222,0.39511 0.409222,0.69144 0.268111,0.29634 0.620888,0.46567 0.352778,0.15522 0.762,0.15522 0.409221,0 0.761999,-0.15522 0.352777,-0.16933 0.606777,-0.46567 0.268111,-0.29633 0.409222,-0.70555 0.155222,-0.40922 0.155222,-0.90311 0,-0.47978 -0.155222,-0.889 -0.141111,-0.40922 -0.409222,-0.70556 -0.254,-0.29633 -0.606777,-0.45155 -0.352778,-0.16933 -0.761999,-0.16933 -0.409222,0 -0.762,0.16933 -0.352777,0.16933 -0.620888,0.46566 -0.254,0.29634 -0.409222,0.70556 -0.141111,0.40922 -0.141111,0.889 z"
                 style="font-style:normal;font-variant:normal;font-weight:bold;font-stretch:normal;font-size:14.1111px;font-family:Raleway;-inkscape-font-specification:'Raleway Bold';fill:#362a2a;fill-opacity:1;stroke-width:0.264583"
                 id="path936" />
              <path
                 d="m 62.763347,226.99672 q -0.451555,0 -0.945443,-0.0706 -0.479778,-0.0705 -0.945444,-0.19755 -0.465666,-0.127 -0.888999,-0.31045 -0.423333,-0.18344 -0.747889,-0.40922 l 0.762,-1.28411 q 1.41111,0.91722 2.723442,0.91722 0.592666,0 0.931333,-0.21167 0.338666,-0.21166 0.338666,-0.60677 0,-0.39511 -0.409222,-0.57856 -0.395111,-0.19755 -1.340554,-0.42333 -0.719666,-0.16933 -1.227666,-0.35278 -0.508,-0.18344 -0.818444,-0.42333 -0.310444,-0.23989 -0.451555,-0.55033 -0.141111,-0.31045 -0.141111,-0.73378 0,-0.56445 0.225778,-1.016 0.225777,-0.45156 0.620888,-0.762 0.409222,-0.32456 0.945444,-0.49389 0.550333,-0.16933 1.185332,-0.16933 0.790222,0 1.566332,0.254 0.790222,0.23989 1.467555,0.66322 l -0.776111,1.17122 q -0.620888,-0.39511 -1.171221,-0.56444 -0.550333,-0.18345 -1.100666,-0.18345 -0.508,0 -0.860777,0.19756 -0.338666,0.19755 -0.338666,0.635 0,0.381 0.324555,0.55033 0.338666,0.16933 1.185332,0.381 0.790222,0.19756 1.340555,0.39511 0.564444,0.19756 0.917221,0.45156 0.366889,0.254 0.522111,0.59266 0.169333,0.32456 0.169333,0.79022 0,0.53623 -0.225777,0.97367 -0.211667,0.43744 -0.606778,0.74789 -0.395111,0.29633 -0.973666,0.46566 -0.564444,0.15523 -1.255888,0.15523 z"
                 style="font-style:normal;font-variant:normal;font-weight:bold;font-stretch:normal;font-size:14.1111px;font-family:Raleway;-inkscape-font-specification:'Raleway Bold';fill:#362a2a;fill-opacity:1;stroke-width:0.264583"
                 id="path938" />
              <path
                 d="m 71.073902,216.83672 2.709331,7.57767 2.681109,-7.57767 h 2.046109 l -3.908774,10.01889 h -1.636888 l -3.936997,-10.01889 z"
                 style="font-style:normal;font-variant:normal;font-weight:bold;font-stretch:normal;font-size:14.1111px;font-family:Raleway;-inkscape-font-specification:'Raleway Bold';fill:#362a2a;fill-opacity:1;stroke-width:0.264583"
                 id="path940" />
              <path
                 d="m 79.382915,226.85561 v -7.39422 h 1.890888 v 7.39422 z m 0,-8.42433 v -1.87678 h 1.890888 v 1.87678 z"
                 style="font-style:normal;font-variant:normal;font-weight:bold;font-stretch:normal;font-size:14.1111px;font-family:Raleway;-inkscape-font-specification:'Raleway Bold';fill:#362a2a;fill-opacity:1;stroke-width:0.264583"
                 id="path942" />
              <path
                 d="m 85.886806,226.99672 q -0.451555,0 -0.945443,-0.0706 -0.479778,-0.0705 -0.945444,-0.19755 -0.465666,-0.127 -0.888999,-0.31045 -0.423333,-0.18344 -0.747889,-0.40922 l 0.762,-1.28411 q 1.41111,0.91722 2.723442,0.91722 0.592666,0 0.931333,-0.21167 0.338666,-0.21166 0.338666,-0.60677 0,-0.39511 -0.409222,-0.57856 -0.395111,-0.19755 -1.340554,-0.42333 -0.719667,-0.16933 -1.227666,-0.35278 -0.508,-0.18344 -0.818444,-0.42333 -0.310444,-0.23989 -0.451555,-0.55033 -0.141111,-0.31045 -0.141111,-0.73378 0,-0.56445 0.225777,-1.016 0.225778,-0.45156 0.620889,-0.762 0.409222,-0.32456 0.945444,-0.49389 0.550332,-0.16933 1.185332,-0.16933 0.790222,0 1.566332,0.254 0.790222,0.23989 1.467555,0.66322 l -0.776111,1.17122 q -0.620888,-0.39511 -1.171221,-0.56444 -0.550333,-0.18345 -1.100666,-0.18345 -0.508,0 -0.860777,0.19756 -0.338667,0.19755 -0.338667,0.635 0,0.381 0.324556,0.55033 0.338666,0.16933 1.185332,0.381 0.790222,0.19756 1.340555,0.39511 0.564444,0.19756 0.917221,0.45156 0.366889,0.254 0.522111,0.59266 0.169333,0.32456 0.169333,0.79022 0,0.53623 -0.225778,0.97367 -0.211666,0.43744 -0.606777,0.74789 -0.395111,0.29633 -0.973666,0.46566 -0.564444,0.15523 -1.255888,0.15523 z"
                 style="font-style:normal;font-variant:normal;font-weight:bold;font-stretch:normal;font-size:14.1111px;font-family:Raleway;-inkscape-font-specification:'Raleway Bold';fill:#362a2a;fill-opacity:1;stroke-width:0.264583"
                 id="path944" />
              <path
                 d="m 90.131603,226.85561 v -7.39422 h 1.890887 v 7.39422 z m 0,-8.42433 v -1.87678 h 1.890887 v 1.87678 z"
                 style="font-style:normal;font-variant:normal;font-weight:bold;font-stretch:normal;font-size:14.1111px;font-family:Raleway;-inkscape-font-specification:'Raleway Bold';fill:#362a2a;fill-opacity:1;stroke-width:0.264583"
                 id="path946" />
              <path
                 d="m 98.1595,226.47461 q -0.380999,0.16933 -0.945443,0.33866 -0.550333,0.16934 -1.15711,0.16934 -0.395111,0 -0.747889,-0.0988 -0.338666,-0.0988 -0.606777,-0.31045 -0.254,-0.22577 -0.409222,-0.56444 -0.155222,-0.35278 -0.155222,-0.84667 v -4.24744 h -0.959555 v -1.45344 h 0.959555 v -2.39889 h 1.890887 v 2.39889 h 1.566332 v 1.45344 h -1.566332 v 3.61244 q 0,0.39512 0.211667,0.56445 0.211666,0.15522 0.507999,0.15522 0.296334,0 0.578556,-0.0988 0.282222,-0.0988 0.451555,-0.16933 z"
                 style="font-style:normal;font-variant:normal;font-weight:bold;font-stretch:normal;font-size:14.1111px;font-family:Raleway;-inkscape-font-specification:'Raleway Bold';fill:#362a2a;fill-opacity:1;stroke-width:0.264583"
                 id="path948" />
              <path
                 d="m 101.1484,226.99672 q -0.53622,0 -1.00188,-0.16934 -0.465671,-0.18344 -0.804337,-0.49388 -0.338667,-0.32456 -0.536222,-0.74789 -0.183444,-0.42334 -0.183444,-0.93134 0,-0.52211 0.225777,-0.95955 0.239889,-0.45156 0.649111,-0.762 0.423333,-0.31044 1.001885,-0.47978 0.57856,-0.18344 1.27,-0.18344 0.49389,0 0.95956,0.0847 0.47977,0.0847 0.84666,0.23988 v -0.42333 q 0,-0.73378 -0.42333,-1.12889 -0.40922,-0.39511 -1.22767,-0.39511 -0.59266,0 -1.15711,0.21167 -0.56444,0.21166 -1.157106,0.62089 l -0.578555,-1.19945 q 1.425221,-0.94544 3.076221,-0.94544 1.59455,0 2.46944,0.79022 0.889,0.77611 0.889,2.25778 v 2.30011 q 0,0.29633 0.11289,0.42333 0.11289,0.127 0.39511,0.14111 v 1.60867 q -0.26811,0.0564 -0.508,0.0705 -0.22578,0.0282 -0.39511,0.0282 -0.53622,-0.0141 -0.81844,-0.23988 -0.28223,-0.23989 -0.35278,-0.635 l -0.0423,-0.40923 q -0.49388,0.64911 -1.19944,0.98778 -0.70555,0.33867 -1.50989,0.33867 z m 0.53623,-1.38289 q 0.47977,0 0.90311,-0.16933 0.43744,-0.16934 0.67733,-0.45156 0.31044,-0.23989 0.31044,-0.53622 v -0.84667 q -0.33866,-0.127 -0.73377,-0.19755 -0.39512,-0.0847 -0.762,-0.0847 -0.73378,0 -1.19945,0.33867 -0.46566,0.32455 -0.46566,0.83255 0,0.47978 0.36688,0.80434 0.36689,0.31044 0.90312,0.31044 z"
                 style="font-style:normal;font-variant:normal;font-weight:bold;font-stretch:normal;font-size:14.1111px;font-family:Raleway;-inkscape-font-specification:'Raleway Bold';fill:#362a2a;fill-opacity:1;stroke-width:0.264583"
                 id="path950" />
              <path
                 d="m 110.3365,226.99672 q -0.762,0 -1.41111,-0.29634 -0.635,-0.29633 -1.10067,-0.81844 -0.46567,-0.52211 -0.73378,-1.21355 -0.254,-0.70556 -0.254,-1.50989 0,-0.80433 0.23989,-1.49578 0.254,-0.69144 0.69145,-1.21355 0.43744,-0.52211 1.04422,-0.81845 0.60677,-0.29633 1.32644,-0.29633 0.80433,0 1.45344,0.39511 0.66323,0.39511 1.03011,1.03011 v -4.20511 h 1.89089 v 8.128 q 0,0.29633 0.11289,0.42333 0.11289,0.127 0.39511,0.14111 v 1.60867 q -0.53622,0.0988 -0.90311,0.0988 -0.52211,-0.0141 -0.81844,-0.23988 -0.28223,-0.22578 -0.35278,-0.635 l -0.0423,-0.508 q -0.40923,0.70555 -1.10067,1.07244 -0.69144,0.35278 -1.46755,0.35278 z m 0.49388,-1.60867 q 0.26812,0 0.55034,-0.0847 0.28222,-0.0988 0.52211,-0.26812 0.23989,-0.16933 0.43744,-0.39511 0.19756,-0.22577 0.29634,-0.49389 v -1.76388 q -0.23989,-0.62089 -0.79023,-1.03011 -0.53622,-0.40922 -1.12888,-0.40922 -0.42334,0 -0.79023,0.18344 -0.35277,0.18344 -0.60677,0.508 -0.254,0.31044 -0.39511,0.71967 -0.14112,0.40922 -0.14112,0.84666 0,0.46567 0.15523,0.86078 0.15522,0.39511 0.42333,0.69144 0.28222,0.29634 0.64911,0.46567 0.381,0.16933 0.81844,0.16933 z"
                 style="font-style:normal;font-variant:normal;font-weight:bold;font-stretch:normal;font-size:14.1111px;font-family:Raleway;-inkscape-font-specification:'Raleway Bold';fill:#362a2a;fill-opacity:1;stroke-width:0.264583"
                 id="path952" />
              <path
                 d="m 119.85355,226.99672 q -0.90311,0 -1.62278,-0.31045 -0.71967,-0.31044 -1.22767,-0.83255 -0.49388,-0.53622 -0.762,-1.22767 -0.26811,-0.69144 -0.26811,-1.45344 0,-0.77611 0.26811,-1.46756 0.26812,-0.69144 0.762,-1.21355 0.508,-0.53622 1.22767,-0.84667 0.71967,-0.31044 1.62278,-0.31044 0.90311,0 1.60866,0.31044 0.71967,0.31045 1.21356,0.84667 0.508,0.52211 0.77611,1.21355 0.26811,0.69145 0.26811,1.46756 0,0.762 -0.26811,1.45344 -0.26811,0.69145 -0.762,1.22767 -0.49389,0.52211 -1.21356,0.83255 -0.71966,0.31045 -1.62277,0.31045 z m -1.93322,-3.82411 q 0,0.49389 0.14111,0.90311 0.15522,0.39511 0.40922,0.69144 0.26811,0.29634 0.62089,0.46567 0.35277,0.15522 0.762,0.15522 0.40922,0 0.762,-0.15522 0.35277,-0.16933 0.60677,-0.46567 0.26811,-0.29633 0.40922,-0.70555 0.15523,-0.40922 0.15523,-0.90311 0,-0.47978 -0.15523,-0.889 -0.14111,-0.40922 -0.40922,-0.70556 -0.254,-0.29633 -0.60677,-0.45155 -0.35278,-0.16933 -0.762,-0.16933 -0.40923,0 -0.762,0.16933 -0.35278,0.16933 -0.62089,0.46566 -0.254,0.29634 -0.40922,0.70556 -0.14111,0.40922 -0.14111,0.889 z"
                 style="font-style:normal;font-variant:normal;font-weight:bold;font-stretch:normal;font-size:14.1111px;font-family:Raleway;-inkscape-font-specification:'Raleway Bold';fill:#362a2a;fill-opacity:1;stroke-width:0.264583"
                 id="path954" />
              <path
                 d="m 127.83426,226.99672 q -0.45156,0 -0.94545,-0.0706 -0.47978,-0.0705 -0.94544,-0.19755 -0.46567,-0.127 -0.889,-0.31045 -0.42333,-0.18344 -0.74789,-0.40922 l 0.762,-1.28411 q 1.41111,0.91722 2.72344,0.91722 0.59267,0 0.93133,-0.21167 0.33867,-0.21166 0.33867,-0.60677 0,-0.39511 -0.40922,-0.57856 -0.39511,-0.19755 -1.34056,-0.42333 -0.71966,-0.16933 -1.22766,-0.35278 -0.508,-0.18344 -0.81845,-0.42333 -0.31044,-0.23989 -0.45155,-0.55033 -0.14111,-0.31045 -0.14111,-0.73378 0,-0.56445 0.22578,-1.016 0.22577,-0.45156 0.62088,-0.762 0.40923,-0.32456 0.94545,-0.49389 0.55033,-0.16933 1.18533,-0.16933 0.79022,0 1.56633,0.254 0.79022,0.23989 1.46756,0.66322 l -0.77611,1.17122 q -0.62089,-0.39511 -1.17122,-0.56444 -0.55034,-0.18345 -1.10067,-0.18345 -0.508,0 -0.86078,0.19756 -0.33866,0.19755 -0.33866,0.635 0,0.381 0.32455,0.55033 0.33867,0.16933 1.18533,0.381 0.79023,0.19756 1.34056,0.39511 0.56444,0.19756 0.91722,0.45156 0.36689,0.254 0.52211,0.59266 0.16933,0.32456 0.16933,0.79022 0,0.53623 -0.22577,0.97367 -0.21167,0.43744 -0.60678,0.74789 -0.39511,0.29633 -0.97367,0.46566 -0.56444,0.15523 -1.25588,0.15523 z"
                 style="font-style:normal;font-variant:normal;font-weight:bold;font-stretch:normal;font-size:14.1111px;font-family:Raleway;-inkscape-font-specification:'Raleway Bold';fill:#362a2a;fill-opacity:1;stroke-width:0.264583"
                 id="path956" />
            </g>
            <g
               aria-label="Últimos Visitados"
               id="text5621"
               style="font-style:normal;font-variant:normal;font-weight:bold;font-stretch:normal;font-size:14.1111px;line-height:1.25;font-family:Raleway;-inkscape-font-specification:'Raleway Bold';fill:#ffffff;stroke-width:0.264583">
              <path
                 d="m 19.876185,215.4609 -1.213555,-0.36689 0.762,-1.67922 h 1.763887 z m -0.508,9.21455 q 0.691444,0 1.157111,-0.28222 0.479777,-0.28223 0.761999,-0.73378 0.296333,-0.45156 0.409222,-1.03011 0.127,-0.59267 0.127,-1.21356 v -5.10821 h 1.93322 v 5.10821 q 0,1.03011 -0.253999,1.93322 -0.239889,0.90311 -0.776111,1.58045 -0.522111,0.67733 -1.354665,1.07244 -0.832555,0.39511 -1.989666,0.39511 -1.199443,0 -2.046109,-0.40922 -0.832555,-0.42333 -1.354666,-1.10067 -0.52211,-0.69144 -0.761999,-1.59455 -0.225778,-0.90311 -0.225778,-1.87678 v -5.10821 h 1.947332 v 5.10821 q 0,0.635 0.112889,1.22767 0.127,0.57855 0.409222,1.03011 0.296333,0.45155 0.761999,0.73378 0.465666,0.26811 1.142999,0.26811 z"
                 style="font-style:normal;font-variant:normal;font-weight:bold;font-stretch:normal;font-size:14.1111px;font-family:Raleway;-inkscape-font-specification:'Raleway Bold';fill:#ffffff;stroke-width:0.264583"
                 id="path893" />
              <path
                 d="m 25.493064,216.02534 h 1.890887 v 7.84578 q 0,0.86077 0.776111,0.86077 0.155222,0 0.352777,-0.0564 0.211667,-0.0565 0.395111,-0.127 l 0.254,1.50989 q -0.381,0.18344 -0.888999,0.28222 -0.508,0.0988 -0.917222,0.0988 -0.888999,0 -1.382888,-0.46567 -0.479777,-0.47978 -0.479777,-1.35467 z"
                 style="font-style:normal;font-variant:normal;font-weight:bold;font-stretch:normal;font-size:14.1111px;font-family:Raleway;-inkscape-font-specification:'Raleway Bold';fill:#ffffff;stroke-width:0.264583"
                 id="path895" />
              <path
                 d="m 34.224086,225.94545 q -0.381,0.16933 -0.945444,0.33866 -0.550332,0.16934 -1.15711,0.16934 -0.395111,0 -0.747888,-0.0988 -0.338666,-0.0988 -0.606777,-0.31045 -0.254,-0.22577 -0.409222,-0.56444 -0.155222,-0.35278 -0.155222,-0.84667 v -4.24744 h -0.959555 v -1.45344 h 0.959555 v -2.39889 h 1.890887 v 2.39889 h 1.566332 v 1.45344 H 32.09331 v 3.61245 q 0,0.39511 0.211667,0.56444 0.211666,0.15522 0.507999,0.15522 0.296333,0 0.578555,-0.0988 0.282222,-0.0988 0.451555,-0.16933 z"
                 style="font-style:normal;font-variant:normal;font-weight:bold;font-stretch:normal;font-size:14.1111px;font-family:Raleway;-inkscape-font-specification:'Raleway Bold';fill:#ffffff;stroke-width:0.264583"
                 id="path897" />
              <path
                 d="m 35.180995,226.32645 v -7.39422 h 1.890887 v 7.39422 z m 0,-8.42433 v -1.87678 h 1.890887 v 1.87678 z"
                 style="font-style:normal;font-variant:normal;font-weight:bold;font-stretch:normal;font-size:14.1111px;font-family:Raleway;-inkscape-font-specification:'Raleway Bold';fill:#ffffff;stroke-width:0.264583"
                 id="path899" />
              <path
                 d="M 50.250327,226.32645 H 48.35944 v -4.14867 q 0,-0.889 -0.310444,-1.29822 -0.310444,-0.40922 -0.846666,-0.40922 -0.550333,0 -1.044222,0.43744 -0.493888,0.42334 -0.705555,1.11478 v 4.30389 h -1.890887 v -4.14867 q 0,-0.889 -0.310444,-1.29822 -0.296333,-0.40922 -0.832555,-0.40922 -0.550333,0 -1.058333,0.42333 -0.493888,0.42334 -0.705555,1.11478 v 4.318 h -1.890887 v -7.39422 h 1.707443 v 1.36878 q 0.409222,-0.71967 1.114777,-1.10067 0.719666,-0.39511 1.636888,-0.39511 0.931332,0 1.425221,0.45156 0.507999,0.45155 0.663221,1.11477 0.451556,-0.762 1.142999,-1.15711 0.691444,-0.40922 1.580444,-0.40922 0.677332,0 1.114777,0.254 0.437444,0.254 0.677332,0.66322 0.239889,0.40922 0.324556,0.93133 0.09878,0.52211 0.09878,1.05834 z"
                 style="font-style:normal;font-variant:normal;font-weight:bold;font-stretch:normal;font-size:14.1111px;font-family:Raleway;-inkscape-font-specification:'Raleway Bold';fill:#ffffff;stroke-width:0.264583"
                 id="path901" />
              <path
                 d="m 55.311805,226.46756 q -0.903111,0 -1.622777,-0.31045 -0.719666,-0.31044 -1.227665,-0.83255 -0.493889,-0.53622 -0.762,-1.22767 -0.268111,-0.69144 -0.268111,-1.45344 0,-0.77611 0.268111,-1.46756 0.268111,-0.69144 0.762,-1.21355 0.507999,-0.53622 1.227665,-0.84667 0.719666,-0.31044 1.622777,-0.31044 0.90311,0 1.608665,0.31044 0.719666,0.31045 1.213555,0.84667 0.507999,0.52211 0.77611,1.21355 0.268111,0.69145 0.268111,1.46756 0,0.762 -0.268111,1.45344 -0.268111,0.69145 -0.761999,1.22767 -0.493889,0.52211 -1.213555,0.83255 -0.719666,0.31045 -1.622776,0.31045 z m -1.933221,-3.82411 q 0,0.49389 0.141111,0.90311 0.155222,0.39511 0.409222,0.69144 0.268111,0.29634 0.620888,0.46567 0.352778,0.15522 0.762,0.15522 0.409222,0 0.761999,-0.15522 0.352778,-0.16933 0.606777,-0.46567 0.268111,-0.29633 0.409222,-0.70555 0.155222,-0.40922 0.155222,-0.90311 0,-0.47978 -0.155222,-0.889 -0.141111,-0.40922 -0.409222,-0.70556 -0.253999,-0.29633 -0.606777,-0.45155 -0.352777,-0.16933 -0.761999,-0.16933 -0.409222,0 -0.762,0.16933 -0.352777,0.16933 -0.620888,0.46567 -0.254,0.29633 -0.409222,0.70555 -0.141111,0.40922 -0.141111,0.889 z"
                 style="font-style:normal;font-variant:normal;font-weight:bold;font-stretch:normal;font-size:14.1111px;font-family:Raleway;-inkscape-font-specification:'Raleway Bold';fill:#ffffff;stroke-width:0.264583"
                 id="path903" />
              <path
                 d="m 63.292514,226.46756 q -0.451556,0 -0.945444,-0.0706 -0.479777,-0.0705 -0.945444,-0.19755 -0.465666,-0.127 -0.888999,-0.31045 -0.423333,-0.18344 -0.747888,-0.40922 l 0.761999,-1.28411 q 1.41111,0.91722 2.723442,0.91722 0.592667,0 0.931333,-0.21166 0.338666,-0.21167 0.338666,-0.60678 0,-0.39511 -0.409222,-0.57856 -0.39511,-0.19755 -1.340554,-0.42333 -0.719666,-0.16933 -1.227666,-0.35278 -0.507999,-0.18344 -0.818444,-0.42333 -0.310444,-0.23989 -0.451555,-0.55033 -0.141111,-0.31045 -0.141111,-0.73378 0,-0.56444 0.225778,-1.016 0.225777,-0.45156 0.620888,-0.762 0.409222,-0.32455 0.945444,-0.49389 0.550333,-0.16933 1.185332,-0.16933 0.790222,0 1.566332,0.254 0.790222,0.23989 1.467555,0.66322 l -0.776111,1.17122 q -0.620888,-0.39511 -1.171221,-0.56444 -0.550333,-0.18345 -1.100666,-0.18345 -0.507999,0 -0.860777,0.19756 -0.338666,0.19755 -0.338666,0.635 0,0.381 0.324555,0.55033 0.338666,0.16933 1.185332,0.381 0.790222,0.19756 1.340555,0.39511 0.564444,0.19756 0.917221,0.45156 0.366889,0.254 0.522111,0.59266 0.169333,0.32456 0.169333,0.79022 0,0.53623 -0.225777,0.97367 -0.211667,0.43744 -0.606778,0.74789 -0.39511,0.29633 -0.973665,0.46567 -0.564444,0.15522 -1.255888,0.15522 z"
                 style="font-style:normal;font-variant:normal;font-weight:bold;font-stretch:normal;font-size:14.1111px;font-family:Raleway;-inkscape-font-specification:'Raleway Bold';fill:#ffffff;stroke-width:0.264583"
                 id="path905" />
              <path
                 d="m 71.603068,216.30757 2.709331,7.57766 2.681109,-7.57766 h 2.04611 l -3.908775,10.01888 h -1.636888 l -3.936997,-10.01888 z"
                 style="font-style:normal;font-variant:normal;font-weight:bold;font-stretch:normal;font-size:14.1111px;font-family:Raleway;-inkscape-font-specification:'Raleway Bold';fill:#ffffff;stroke-width:0.264583"
                 id="path907" />
              <path
                 d="m 79.912081,226.32645 v -7.39422 h 1.890888 v 7.39422 z m 0,-8.42433 v -1.87678 h 1.890888 v 1.87678 z"
                 style="font-style:normal;font-variant:normal;font-weight:bold;font-stretch:normal;font-size:14.1111px;font-family:Raleway;-inkscape-font-specification:'Raleway Bold';fill:#ffffff;stroke-width:0.264583"
                 id="path909" />
              <path
                 d="m 86.415973,226.46756 q -0.451556,0 -0.945444,-0.0706 -0.479778,-0.0705 -0.945444,-0.19755 -0.465666,-0.127 -0.888999,-0.31045 -0.423333,-0.18344 -0.747889,-0.40922 l 0.762,-1.28411 q 1.41111,0.91722 2.723442,0.91722 0.592666,0 0.931333,-0.21166 0.338666,-0.21167 0.338666,-0.60678 0,-0.39511 -0.409222,-0.57856 -0.39511,-0.19755 -1.340554,-0.42333 -0.719666,-0.16933 -1.227666,-0.35278 -0.508,-0.18344 -0.818444,-0.42333 -0.310444,-0.23989 -0.451555,-0.55033 -0.141111,-0.31045 -0.141111,-0.73378 0,-0.56444 0.225778,-1.016 0.225777,-0.45156 0.620888,-0.762 0.409222,-0.32455 0.945444,-0.49389 0.550333,-0.16933 1.185332,-0.16933 0.790222,0 1.566332,0.254 0.790222,0.23989 1.467555,0.66322 l -0.776111,1.17122 q -0.620888,-0.39511 -1.171221,-0.56444 -0.550333,-0.18345 -1.100666,-0.18345 -0.508,0 -0.860777,0.19756 -0.338666,0.19755 -0.338666,0.635 0,0.381 0.324555,0.55033 0.338666,0.16933 1.185332,0.381 0.790222,0.19756 1.340555,0.39511 0.564444,0.19756 0.917221,0.45156 0.366889,0.254 0.522111,0.59266 0.169333,0.32456 0.169333,0.79022 0,0.53623 -0.225777,0.97367 -0.211667,0.43744 -0.606778,0.74789 -0.39511,0.29633 -0.973666,0.46567 -0.564444,0.15522 -1.255887,0.15522 z"
                 style="font-style:normal;font-variant:normal;font-weight:bold;font-stretch:normal;font-size:14.1111px;font-family:Raleway;-inkscape-font-specification:'Raleway Bold';fill:#ffffff;stroke-width:0.264583"
                 id="path911" />
              <path
                 d="m 90.660769,226.32645 v -7.39422 h 1.890888 v 7.39422 z m 0,-8.42433 v -1.87678 h 1.890888 v 1.87678 z"
                 style="font-style:normal;font-variant:normal;font-weight:bold;font-stretch:normal;font-size:14.1111px;font-family:Raleway;-inkscape-font-specification:'Raleway Bold';fill:#ffffff;stroke-width:0.264583"
                 id="path913" />
              <path
                 d="m 98.688667,225.94545 q -0.381,0.16933 -0.945444,0.33866 -0.550333,0.16934 -1.15711,0.16934 -0.395111,0 -0.747889,-0.0988 -0.338666,-0.0988 -0.606777,-0.31045 -0.254,-0.22577 -0.409222,-0.56444 -0.155222,-0.35278 -0.155222,-0.84667 v -4.24744 h -0.959555 v -1.45344 h 0.959555 v -2.39889 h 1.890888 v 2.39889 h 1.566332 v 1.45344 h -1.566332 v 3.61245 q 0,0.39511 0.211666,0.56444 0.211667,0.15522 0.508,0.15522 0.296333,0 0.578555,-0.0988 0.282222,-0.0988 0.451555,-0.16933 z"
                 style="font-style:normal;font-variant:normal;font-weight:bold;font-stretch:normal;font-size:14.1111px;font-family:Raleway;-inkscape-font-specification:'Raleway Bold';fill:#ffffff;stroke-width:0.264583"
                 id="path915" />
              <path
                 d="m 101.67757,226.46756 q -0.53622,0 -1.00189,-0.16934 -0.46566,-0.18344 -0.804331,-0.49388 -0.338666,-0.32456 -0.536222,-0.74789 -0.183444,-0.42334 -0.183444,-0.93134 0,-0.52211 0.225777,-0.95955 0.239889,-0.45156 0.64911,-0.762 0.42333,-0.31044 1.00189,-0.47978 0.57855,-0.18344 1.27,-0.18344 0.49389,0 0.95955,0.0847 0.47978,0.0847 0.84667,0.23988 v -0.42333 q 0,-0.73378 -0.42333,-1.12889 -0.40923,-0.39511 -1.22767,-0.39511 -0.59267,0 -1.15711,0.21167 -0.56444,0.21167 -1.15711,0.62089 l -0.578555,-1.19945 q 1.425225,-0.94544 3.076215,-0.94544 1.59456,0 2.46945,0.79022 0.889,0.77611 0.889,2.25778 v 2.30011 q 0,0.29633 0.11289,0.42333 0.11288,0.127 0.39511,0.14111 v 1.60867 q -0.26811,0.0564 -0.508,0.0705 -0.22578,0.0282 -0.39511,0.0282 -0.53623,-0.0141 -0.81845,-0.23988 -0.28222,-0.23989 -0.35278,-0.635 l -0.0423,-0.40923 q -0.49389,0.64911 -1.19944,0.98778 -0.70556,0.33867 -1.50989,0.33867 z m 0.53622,-1.38289 q 0.47978,0 0.90311,-0.16933 0.43745,-0.16934 0.67733,-0.45156 0.31045,-0.23989 0.31045,-0.53622 v -0.84667 q -0.33867,-0.127 -0.73378,-0.19755 -0.39511,-0.0847 -0.762,-0.0847 -0.73377,0 -1.19944,0.33867 -0.46567,0.32455 -0.46567,0.83255 0,0.47978 0.36689,0.80434 0.36689,0.31044 0.90311,0.31044 z"
                 style="font-style:normal;font-variant:normal;font-weight:bold;font-stretch:normal;font-size:14.1111px;font-family:Raleway;-inkscape-font-specification:'Raleway Bold';fill:#ffffff;stroke-width:0.264583"
                 id="path917" />
              <path
                 d="m 110.86566,226.46756 q -0.762,0 -1.41111,-0.29634 -0.635,-0.29633 -1.10066,-0.81844 -0.46567,-0.52211 -0.73378,-1.21355 -0.254,-0.70556 -0.254,-1.50989 0,-0.80433 0.23989,-1.49578 0.254,-0.69144 0.69144,-1.21355 0.43745,-0.52211 1.04422,-0.81845 0.60678,-0.29633 1.32645,-0.29633 0.80433,0 1.45344,0.39511 0.66322,0.39511 1.03011,1.03011 v -4.20511 h 1.89089 v 8.128 q 0,0.29633 0.11289,0.42333 0.11289,0.127 0.39511,0.14111 v 1.60867 q -0.53622,0.0988 -0.90311,0.0988 -0.52211,-0.0141 -0.81845,-0.23988 -0.28222,-0.22578 -0.35277,-0.635 l -0.0423,-0.508 q -0.40922,0.70555 -1.10066,1.07244 -0.69145,0.35278 -1.46756,0.35278 z m 0.49389,-1.60867 q 0.26811,0 0.55033,-0.0847 0.28223,-0.0988 0.52211,-0.26812 0.23989,-0.16933 0.43745,-0.39511 0.19755,-0.22577 0.29633,-0.49388 v -1.76389 q -0.23989,-0.62089 -0.79022,-1.03011 -0.53622,-0.40922 -1.12889,-0.40922 -0.42333,0 -0.79022,0.18344 -0.35278,0.18344 -0.60678,0.508 -0.254,0.31044 -0.39511,0.71967 -0.14111,0.40922 -0.14111,0.84666 0,0.46567 0.15522,0.86078 0.15523,0.39511 0.42334,0.69144 0.28222,0.29634 0.64911,0.46567 0.381,0.16933 0.81844,0.16933 z"
                 style="font-style:normal;font-variant:normal;font-weight:bold;font-stretch:normal;font-size:14.1111px;font-family:Raleway;-inkscape-font-specification:'Raleway Bold';fill:#ffffff;stroke-width:0.264583"
                 id="path919" />
              <path
                 d="m 120.38271,226.46756 q -0.90311,0 -1.62277,-0.31045 -0.71967,-0.31044 -1.22767,-0.83255 -0.49389,-0.53622 -0.762,-1.22767 -0.26811,-0.69144 -0.26811,-1.45344 0,-0.77611 0.26811,-1.46756 0.26811,-0.69144 0.762,-1.21355 0.508,-0.53622 1.22767,-0.84667 0.71966,-0.31044 1.62277,-0.31044 0.90311,0 1.60867,0.31044 0.71966,0.31045 1.21355,0.84667 0.508,0.52211 0.77611,1.21355 0.26811,0.69145 0.26811,1.46756 0,0.762 -0.26811,1.45344 -0.26811,0.69145 -0.762,1.22767 -0.49389,0.52211 -1.21355,0.83255 -0.71967,0.31045 -1.62278,0.31045 z m -1.93322,-3.82411 q 0,0.49389 0.14111,0.90311 0.15522,0.39511 0.40922,0.69144 0.26812,0.29634 0.62089,0.46567 0.35278,0.15522 0.762,0.15522 0.40922,0 0.762,-0.15522 0.35278,-0.16933 0.60678,-0.46567 0.26811,-0.29633 0.40922,-0.70555 0.15522,-0.40922 0.15522,-0.90311 0,-0.47978 -0.15522,-0.889 -0.14111,-0.40922 -0.40922,-0.70556 -0.254,-0.29633 -0.60678,-0.45155 -0.35278,-0.16933 -0.762,-0.16933 -0.40922,0 -0.762,0.16933 -0.35277,0.16933 -0.62089,0.46567 -0.254,0.29633 -0.40922,0.70555 -0.14111,0.40922 -0.14111,0.889 z"
                 style="font-style:normal;font-variant:normal;font-weight:bold;font-stretch:normal;font-size:14.1111px;font-family:Raleway;-inkscape-font-specification:'Raleway Bold';fill:#ffffff;stroke-width:0.264583"
                 id="path921" />
              <path
                 d="m 128.36342,226.46756 q -0.45155,0 -0.94544,-0.0706 -0.47978,-0.0705 -0.94545,-0.19755 -0.46566,-0.127 -0.889,-0.31045 -0.42333,-0.18344 -0.74788,-0.40922 l 0.762,-1.28411 q 1.41111,0.91722 2.72344,0.91722 0.59266,0 0.93133,-0.21166 0.33867,-0.21167 0.33867,-0.60678 0,-0.39511 -0.40922,-0.57856 -0.39512,-0.19755 -1.34056,-0.42333 -0.71967,-0.16933 -1.22767,-0.35278 -0.50799,-0.18344 -0.81844,-0.42333 -0.31044,-0.23989 -0.45155,-0.55033 -0.14112,-0.31045 -0.14112,-0.73378 0,-0.56444 0.22578,-1.016 0.22578,-0.45156 0.62089,-0.762 0.40922,-0.32455 0.94544,-0.49389 0.55034,-0.16933 1.18534,-0.16933 0.79022,0 1.56633,0.254 0.79022,0.23989 1.46755,0.66322 l -0.77611,1.17122 q -0.62089,-0.39511 -1.17122,-0.56444 -0.55033,-0.18345 -1.10066,-0.18345 -0.508,0 -0.86078,0.19756 -0.33867,0.19755 -0.33867,0.635 0,0.381 0.32456,0.55033 0.33866,0.16933 1.18533,0.381 0.79022,0.19756 1.34055,0.39511 0.56445,0.19756 0.91723,0.45156 0.36688,0.254 0.52211,0.59266 0.16933,0.32456 0.16933,0.79022 0,0.53623 -0.22578,0.97367 -0.21166,0.43744 -0.60677,0.74789 -0.39512,0.29633 -0.97367,0.46567 -0.56444,0.15522 -1.25589,0.15522 z"
                 style="font-style:normal;font-variant:normal;font-weight:bold;font-stretch:normal;font-size:14.1111px;font-family:Raleway;-inkscape-font-specification:'Raleway Bold';fill:#ffffff;stroke-width:0.264583"
                 id="path923" />
            </g>
          </g>
        </g>
      </g>
    </g>
  </g>
</svg>
