<?xml version="1.0" encoding="UTF-8" standalone="no"?>
<svg
   xmlns:dc="http://purl.org/dc/elements/1.1/"
   xmlns:cc="http://creativecommons.org/ns#"
   xmlns:rdf="http://www.w3.org/1999/02/22-rdf-syntax-ns#"
   xmlns:svg="http://www.w3.org/2000/svg"
   xmlns="http://www.w3.org/2000/svg"
   xmlns:sodipodi="http://sodipodi.sourceforge.net/DTD/sodipodi-0.dtd"
   xmlns:inkscape="http://www.inkscape.org/namespaces/inkscape"
   width="115.20328"
   height="35"
   viewBox="0 0 30.480867 9.2604167"
   version="1.1"
   id="svg1195"
   inkscape:version="1.0.1 (3bc2e813f5, 2020-09-07)"
   sodipodi:docname="videos.svg">
  <defs
     id="defs1189" />
  <sodipodi:namedview
     id="base"
     pagecolor="#ffffff"
     bordercolor="#666666"
     borderopacity="1.0"
     inkscape:pageopacity="0.0"
     inkscape:pageshadow="2"
     inkscape:zoom="1.9957966"
     inkscape:cx="90.901723"
     inkscape:cy="25.06467"
     inkscape:document-units="px"
     inkscape:current-layer="layer1"
     inkscape:document-rotation="0"
     showgrid="false"
     inkscape:window-width="1366"
     inkscape:window-height="704"
     inkscape:window-x="0"
     inkscape:window-y="27"
     inkscape:window-maximized="1"
     showguides="true"
     inkscape:guide-bbox="true"
     units="px">
    <sodipodi:guide
       position="84.714853,75.579848"
       orientation="1,0"
       id="guide4628" />
  </sodipodi:namedview>
  <metadata
     id="metadata1192">
    <rdf:RDF>
      <cc:Work
         rdf:about="">
        <dc:format>image/svg+xml</dc:format>
        <dc:type
           rdf:resource="http://purl.org/dc/dcmitype/StillImage" />
        <dc:title />
      </cc:Work>
    </rdf:RDF>
  </metadata>
  <g
     inkscape:label="Layer 1"
     inkscape:groupmode="layer"
     id="layer1"
     transform="translate(-160.77261,-191.92459)">
    <g
       id="g103"
       transform="matrix(0.89743578,0,0,0.89743578,10.715434,94.224435)">
      <g
         id="g101"
         transform="matrix(0.64757011,0,0,0.64757011,161.1709,-37.020366)">
        <g
           aria-label="Videos"
           id="text1095"
           style="font-style:normal;font-variant:normal;font-weight:bold;font-stretch:normal;font-size:14.1111px;line-height:1.25;font-family:Raleway;-inkscape-font-specification:'Raleway Bold';fill:#362a2a;fill-opacity:1;stroke-width:0.264583">
          <path
             d="m 15.621686,227.42007 2.709332,7.57766 2.681109,-7.57766 h 2.046109 l -3.908775,10.01888 h -1.636887 l -3.936997,-10.01888 z"
             style="font-style:normal;font-variant:normal;font-weight:bold;font-stretch:normal;font-size:14.1111px;font-family:Raleway;-inkscape-font-specification:'Raleway Bold';fill:#362a2a;fill-opacity:1;stroke-width:0.264583"
             id="path926" />
          <path
             d="m 23.930699,237.43895 v -7.39422 h 1.890887 v 7.39422 z m 0,-8.42433 v -1.87677 h 1.890887 v 1.87677 z"
             style="font-style:normal;font-variant:normal;font-weight:bold;font-stretch:normal;font-size:14.1111px;font-family:Raleway;-inkscape-font-specification:'Raleway Bold';fill:#362a2a;fill-opacity:1;stroke-width:0.264583"
             id="path928" />
          <path
             d="m 30.575704,237.58006 q -0.761999,0 -1.41111,-0.29633 -0.635,-0.29634 -1.100666,-0.81845 -0.465666,-0.52211 -0.733777,-1.21355 -0.254,-0.70556 -0.254,-1.50989 0,-0.80433 0.239889,-1.49578 0.254,-0.69144 0.691444,-1.21355 0.437444,-0.52211 1.044221,-0.81844 0.606777,-0.29634 1.326444,-0.29634 0.804332,0 1.453443,0.39511 0.663222,0.39511 1.03011,1.03011 v -4.2051 h 1.890888 v 8.12799 q 0,0.29633 0.112888,0.42333 0.112889,0.127 0.395111,0.14111 v 1.60867 q -0.536222,0.0988 -0.90311,0.0988 -0.522111,-0.0141 -0.818444,-0.23989 -0.282222,-0.22578 -0.352777,-0.635 l -0.04233,-0.508 q -0.409222,0.70555 -1.100666,1.07244 -0.691443,0.35278 -1.467554,0.35278 z m 0.493889,-1.60866 q 0.26811,0 0.550332,-0.0847 0.282222,-0.0988 0.522111,-0.26811 0.239889,-0.16934 0.437444,-0.39511 0.197556,-0.22578 0.296333,-0.49389 v -1.76389 q -0.239888,-0.62089 -0.790221,-1.03011 -0.536222,-0.40922 -1.128888,-0.40922 -0.423333,0 -0.790222,0.18344 -0.352777,0.18345 -0.606777,0.508 -0.254,0.31045 -0.395111,0.71967 -0.141111,0.40922 -0.141111,0.84666 0,0.46567 0.155222,0.86078 0.155222,0.39511 0.423333,0.69145 0.282222,0.29633 0.649111,0.46566 0.380999,0.16934 0.818444,0.16934 z"
             style="font-style:normal;font-variant:normal;font-weight:bold;font-stretch:normal;font-size:14.1111px;font-family:Raleway;-inkscape-font-specification:'Raleway Bold';fill:#362a2a;fill-opacity:1;stroke-width:0.264583"
             id="path930" />
          <path
             d="m 40.106871,237.58006 q -0.888999,0 -1.608665,-0.29633 -0.719666,-0.31045 -1.227666,-0.83256 -0.508,-0.52211 -0.790222,-1.21355 -0.26811,-0.69145 -0.26811,-1.45345 0,-0.79022 0.26811,-1.48166 0.268111,-0.70556 0.776111,-1.22767 0.508,-0.53622 1.227666,-0.84666 0.733777,-0.31045 1.636887,-0.31045 0.903111,0 1.608666,0.31045 0.719666,0.31044 1.213554,0.83255 0.508,0.52211 0.762,1.21356 0.268111,0.69144 0.268111,1.43933 0,0.18344 -0.01411,0.35278 0,0.16933 -0.02822,0.28222 h -5.714995 q 0.04233,0.43744 0.211666,0.77611 0.169333,0.33867 0.437444,0.57855 0.268111,0.23989 0.606778,0.36689 0.338666,0.127 0.705555,0.127 0.564444,0 1.058332,-0.26811 0.508,-0.28222 0.691444,-0.73378 l 1.622777,0.45156 q -0.409222,0.84667 -1.312333,1.397 -0.888999,0.53622 -2.130776,0.53622 z m 1.91911,-4.45911 q -0.07056,-0.83255 -0.620889,-1.32644 -0.536221,-0.508 -1.312332,-0.508 -0.381,0 -0.719666,0.14111 -0.324555,0.127 -0.578555,0.36689 -0.254,0.23989 -0.423333,0.57855 -0.155222,0.33867 -0.183444,0.74789 z"
             style="font-style:normal;font-variant:normal;font-weight:bold;font-stretch:normal;font-size:14.1111px;font-family:Raleway;-inkscape-font-specification:'Raleway Bold';fill:#362a2a;fill-opacity:1;stroke-width:0.264583"
             id="path932" />
          <path
             d="m 48.553907,237.58006 q -0.90311,0 -1.622776,-0.31044 -0.719666,-0.31045 -1.227666,-0.83256 -0.493888,-0.53622 -0.761999,-1.22766 -0.268111,-0.69145 -0.268111,-1.45345 0,-0.77611 0.268111,-1.46755 0.268111,-0.69145 0.761999,-1.21356 0.508,-0.53622 1.227666,-0.84666 0.719666,-0.31045 1.622776,-0.31045 0.903111,0 1.608666,0.31045 0.719666,0.31044 1.213554,0.84666 0.508,0.52211 0.776111,1.21356 0.268111,0.69144 0.268111,1.46755 0,0.762 -0.268111,1.45345 -0.268111,0.69144 -0.761999,1.22766 -0.493889,0.52211 -1.213555,0.83256 -0.719666,0.31044 -1.622777,0.31044 z m -1.93322,-3.82411 q 0,0.49389 0.141111,0.90311 0.155222,0.39511 0.409222,0.69145 0.26811,0.29633 0.620888,0.46566 0.352777,0.15523 0.761999,0.15523 0.409222,0 0.762,-0.15523 0.352777,-0.16933 0.606777,-0.46566 0.268111,-0.29634 0.409222,-0.70556 0.155222,-0.40922 0.155222,-0.90311 0,-0.47978 -0.155222,-0.889 -0.141111,-0.40922 -0.409222,-0.70555 -0.254,-0.29634 -0.606777,-0.45156 -0.352778,-0.16933 -0.762,-0.16933 -0.409222,0 -0.761999,0.16933 -0.352778,0.16934 -0.620888,0.46567 -0.254,0.29633 -0.409222,0.70555 -0.141111,0.40923 -0.141111,0.889 z"
             style="font-style:normal;font-variant:normal;font-weight:bold;font-stretch:normal;font-size:14.1111px;font-family:Raleway;-inkscape-font-specification:'Raleway Bold';fill:#362a2a;fill-opacity:1;stroke-width:0.264583"
             id="path934" />
          <path
             d="m 56.534616,237.58006 q -0.451555,0 -0.945443,-0.0705 -0.479778,-0.0706 -0.945444,-0.19756 -0.465666,-0.127 -0.888999,-0.31044 -0.423333,-0.18345 -0.747889,-0.40923 l 0.762,-1.28411 q 1.41111,0.91722 2.723442,0.91722 0.592666,0 0.931333,-0.21166 0.338666,-0.21167 0.338666,-0.60678 0,-0.39511 -0.409222,-0.57855 -0.395111,-0.19756 -1.340554,-0.42334 -0.719667,-0.16933 -1.227666,-0.35277 -0.508,-0.18345 -0.818444,-0.42334 -0.310444,-0.23989 -0.451555,-0.55033 -0.141111,-0.31044 -0.141111,-0.73378 0,-0.56444 0.225777,-1.016 0.225778,-0.45155 0.620889,-0.762 0.409222,-0.32455 0.945444,-0.49388 0.550332,-0.16934 1.185332,-0.16934 0.790222,0 1.566332,0.254 0.790222,0.23989 1.467555,0.66322 l -0.776111,1.17122 q -0.620888,-0.39511 -1.171221,-0.56444 -0.550333,-0.18344 -1.100666,-0.18344 -0.508,0 -0.860777,0.19755 -0.338667,0.19756 -0.338667,0.635 0,0.381 0.324556,0.55033 0.338666,0.16934 1.185332,0.381 0.790222,0.19756 1.340555,0.39511 0.564444,0.19756 0.917221,0.45156 0.366889,0.254 0.522111,0.59267 0.169333,0.32455 0.169333,0.79022 0,0.53622 -0.225778,0.97366 -0.211666,0.43745 -0.606777,0.74789 -0.395111,0.29634 -0.973666,0.46567 -0.564444,0.15522 -1.255888,0.15522 z"
             style="font-style:normal;font-variant:normal;font-weight:bold;font-stretch:normal;font-size:14.1111px;font-family:Raleway;-inkscape-font-specification:'Raleway Bold';fill:#362a2a;fill-opacity:1;stroke-width:0.264583"
             id="path936" />
        </g>
        <path
           id="path961"
           style="color:#000000;font-style:normal;font-variant:normal;font-weight:bold;font-stretch:normal;font-size:14.1111px;line-height:1.25;font-family:Raleway;-inkscape-font-specification:'Raleway Bold';font-variant-ligatures:normal;font-variant-position:normal;font-variant-caps:normal;font-variant-numeric:normal;font-variant-alternates:normal;font-variant-east-asian:normal;font-feature-settings:normal;font-variation-settings:normal;text-indent:0;text-align:start;text-decoration:none;text-decoration-line:none;text-decoration-style:solid;text-decoration-color:#000000;letter-spacing:normal;word-spacing:normal;text-transform:none;writing-mode:lr-tb;direction:ltr;text-orientation:mixed;dominant-baseline:auto;baseline-shift:baseline;text-anchor:start;white-space:normal;shape-padding:0;shape-margin:0;inline-size:0;clip-rule:nonzero;display:inline;overflow:visible;visibility:visible;isolation:auto;mix-blend-mode:normal;color-interpolation:sRGB;color-interpolation-filters:linearRGB;solid-color:#000000;solid-opacity:1;vector-effect:none;fill:#000000;fill-opacity:1;fill-rule:nonzero;stroke:none;stroke-width:2.64999;stroke-linecap:butt;stroke-linejoin:miter;stroke-miterlimit:4;stroke-dasharray:none;stroke-dashoffset:0;stroke-opacity:1;color-rendering:auto;image-rendering:auto;shape-rendering:auto;text-rendering:auto;enable-background:accumulate;stop-color:#000000"
           d="m 23.134726,225.28322 v 0.28319 h -2.529043 l -1.752349,4.94905 -1.769401,-4.94905 h -0.933791 -3.989938 l -2.8396788,2.83968 4.9785088,12.67003 h 3.445268 l 2.064475,-1.58905 h 0.486275 v 1.58905 c 4.745667,-1.14073 4.222621,-0.0257 7.969,0.14036 0.718161,0 1.430427,-0.17178 2.070158,-0.49817 l 0.0098,-0.004 0.0098,-0.006 c 0.0239,-0.0127 0.03323,-0.0437 0.05685,-0.0568 l 0.0021,0.002 0.01137,0.01 c 0.48537,0.36983 1.053846,0.49568 1.585949,0.51004 h 0.01757 0.01964 c 3.363781,-1.33933 2.762551,0.0241 5.74793,0.0436 1.018571,0 1.99006,-0.22817 2.816367,-0.72657 l 0.0021,-0.002 0.0021,-0.002 c 0.563044,-0.3431 1.051349,-0.78489 1.427303,-1.30483 0.116996,0.16103 0.24003,0.31784 0.375171,0.46457 l 0.01188,0.0139 0.01344,0.0114 c 0.465217,0.47813 1.028896,0.85594 1.652614,1.125 0.664866,0.28679 1.392227,0.42013 2.146122,0.42013 0.753894,0 1.483839,-0.13334 2.148705,-0.42013 0.520915,-0.22472 0.997138,-0.52796 1.407666,-0.90279 l 0.141078,0.0982 c 0.299896,0.20875 0.625856,0.38489 0.976683,0.53692 0.342495,0.14841 0.699805,0.27265 1.068152,0.3731 0.300657,0.082 0.606309,0.13799 0.914157,0.18966 v 0.12506 h 1.323951 c 0.56011,0 1.097984,-0.063 1.607653,-0.20309 l 0.01188,-0.002 0.0098,-0.004 c 0.507648,-0.14857 0.981456,-0.36634 1.396296,-0.67748 l 0.01188,-0.008 0.01137,-0.01 2.816388,-2.82192 0.01189,-0.01 0.01137,-0.008 c 0.40563,-0.31871 0.742688,-0.7326 0.971,-1.19734 0.247263,-0.48452 0.368969,-1.02761 0.368969,-1.56631 0,-0.45927 -0.09247,-0.93145 -0.312642,-1.36891 -0.214151,-0.45025 -0.551691,-0.81906 -0.935342,-1.08831 l 0.0036,-0.004 c -0.0033,-0.002 -0.008,-0.002 -0.01137,-0.004 -0.0026,-0.002 -0.0035,-0.006 -0.0062,-0.008 l 0.01757,0.0114 1.562695,-2.35955 -1.152384,-0.72037 c -0.54886,-0.34304 -1.144802,-0.60895 -1.773537,-0.80098 -0.639037,-0.20745 -1.299141,-0.31833 -1.962669,-0.31833 v 10e-4 c -0.541115,0 -1.072332,0.0734 -1.576133,0.22841 l -0.0041,0.002 h -0.0036 c -0.494736,0.15623 -0.960897,0.3972 -1.365292,0.71675 -7.25e-4,5.7e-4 -0.0013,10e-4 -0.0021,0.002 -0.323729,0.25478 -0.601409,0.56858 -0.820105,0.91829 -0.07849,-0.0946 -0.156838,-0.18934 -0.242364,-0.27802 -0.456229,-0.49164 -1.017937,-0.88161 -1.642793,-1.15238 -0.0012,-5.1e-4 -0.0024,5.1e-4 -0.0036,0 -0.660193,-0.28983 -1.384247,-0.4222 -2.13682,-0.4222 v 5.2e-4 c -0.753901,0 -1.483836,0.13125 -2.148707,0.41806 -0.630428,0.27195 -1.198269,0.66079 -1.663981,1.15238 h -0.0021 c -0.149685,0.15824 -0.284028,0.32915 -0.411345,0.5054 -0.132755,-0.18377 -0.273854,-0.36136 -0.432014,-0.52452 -0.457536,-0.48126 -1.01721,-0.86202 -1.63866,-1.13068 -0.659641,-0.2892 -1.385038,-0.42013 -2.13682,-0.42013 v -5.1e-4 c -0.753901,0 -1.485556,0.13095 -2.154391,0.41392 l -0.0036,0.002 -0.0041,0.002 c -0.628235,0.271 -1.193491,0.65909 -1.658298,1.14825 -0.07849,0.0811 -0.149696,0.16852 -0.222207,0.25476 v -4.6023 h -4.541324 v 3.09955 c -0.388499,-0.11509 -0.750531,-0.31832 -1.158071,-0.31832 -0.661644,0 -1.318281,0.14122 -1.90841,0.42943 -0.49973,0.24405 -0.94651,0.58532 -1.324468,0.99322 v -1.29553 -2.90835 z"
           sodipodi:nodetypes="cccccccccccccccccccccccccccccccssscsssccsccccccccccsccccccccccccccscccscccscccccccccccccccsscccc" />
        <g
           aria-label="Videos"
           id="text931"
           style="font-style:normal;font-variant:normal;font-weight:bold;font-stretch:normal;font-size:14.1111px;line-height:1.25;font-family:Raleway;-inkscape-font-specification:'Raleway Bold';fill:#ffffff;fill-opacity:1;stroke-width:0.264583">
          <path
             d="m 16.150853,226.89091 2.709331,7.57766 2.681109,-7.57766 h 2.046109 l -3.908774,10.01888 H 18.04174 l -3.936997,-10.01888 z"
             style="font-style:normal;font-variant:normal;font-weight:bold;font-stretch:normal;font-size:14.1111px;font-family:Raleway;-inkscape-font-specification:'Raleway Bold';fill:#ffffff;fill-opacity:1;stroke-width:0.264583"
             id="path939" />
          <path
             d="m 24.459865,236.90979 v -7.39422 h 1.890888 v 7.39422 z m 0,-8.42433 v -1.87677 h 1.890888 v 1.87677 z"
             style="font-style:normal;font-variant:normal;font-weight:bold;font-stretch:normal;font-size:14.1111px;font-family:Raleway;-inkscape-font-specification:'Raleway Bold';fill:#ffffff;fill-opacity:1;stroke-width:0.264583"
             id="path941" />
          <path
             d="m 31.10487,237.0509 q -0.761999,0 -1.41111,-0.29633 -0.634999,-0.29634 -1.100666,-0.81845 -0.465666,-0.52211 -0.733777,-1.21355 -0.254,-0.70556 -0.254,-1.50989 0,-0.80433 0.239889,-1.49577 0.254,-0.69145 0.691444,-1.21356 0.437444,-0.52211 1.044221,-0.81844 0.606778,-0.29634 1.326444,-0.29634 0.804333,0 1.453443,0.39511 0.663222,0.39512 1.03011,1.03011 v -4.2051 h 1.890888 v 8.12799 q 0,0.29633 0.112889,0.42333 0.112888,0.127 0.39511,0.14111 v 1.60867 q -0.536221,0.0988 -0.90311,0.0988 -0.522111,-0.0141 -0.818444,-0.23989 -0.282222,-0.22578 -0.352777,-0.635 l -0.04233,-0.508 q -0.409221,0.70555 -1.100665,1.07244 -0.691444,0.35278 -1.467555,0.35278 z m 0.493889,-1.60866 q 0.268111,0 0.550333,-0.0847 0.282222,-0.0988 0.52211,-0.26811 0.239889,-0.16934 0.437444,-0.39511 0.197556,-0.22578 0.296334,-0.49389 v -1.76389 q -0.239889,-0.62089 -0.790222,-1.03011 -0.536222,-0.40922 -1.128888,-0.40922 -0.423333,0 -0.790222,0.18344 -0.352777,0.18345 -0.606777,0.508 -0.254,0.31045 -0.395111,0.71967 -0.141111,0.40922 -0.141111,0.84667 0,0.46566 0.155222,0.86077 0.155222,0.39511 0.423333,0.69145 0.282222,0.29633 0.649111,0.46566 0.381,0.16934 0.818444,0.16934 z"
             style="font-style:normal;font-variant:normal;font-weight:bold;font-stretch:normal;font-size:14.1111px;font-family:Raleway;-inkscape-font-specification:'Raleway Bold';fill:#ffffff;fill-opacity:1;stroke-width:0.264583"
             id="path943" />
          <path
             d="m 40.636037,237.0509 q -0.888999,0 -1.608665,-0.29633 -0.719666,-0.31045 -1.227666,-0.83256 -0.507999,-0.52211 -0.790221,-1.21355 -0.268111,-0.69145 -0.268111,-1.45344 0,-0.79023 0.268111,-1.48167 0.268111,-0.70556 0.77611,-1.22767 0.508,-0.53622 1.227666,-0.84666 0.733777,-0.31045 1.636887,-0.31045 0.903111,0 1.608666,0.31045 0.719666,0.31044 1.213555,0.83255 0.507999,0.52211 0.761999,1.21356 0.268111,0.69144 0.268111,1.43933 0,0.18344 -0.01411,0.35278 0,0.16933 -0.02822,0.28222 H 38.74515 q 0.04233,0.43744 0.211666,0.77611 0.169334,0.33867 0.437445,0.57855 0.26811,0.23989 0.606777,0.36689 0.338666,0.127 0.705555,0.127 0.564444,0 1.058332,-0.26811 0.508,-0.28222 0.691444,-0.73377 l 1.622777,0.45155 q -0.409222,0.84667 -1.312332,1.397 -0.889,0.53622 -2.130777,0.53622 z m 1.91911,-4.45911 q -0.07055,-0.83255 -0.620888,-1.32644 -0.536222,-0.508 -1.312333,-0.508 -0.380999,0 -0.719666,0.14111 -0.324555,0.127 -0.578555,0.36689 -0.254,0.23989 -0.423333,0.57856 -0.155222,0.33866 -0.183444,0.74788 z"
             style="font-style:normal;font-variant:normal;font-weight:bold;font-stretch:normal;font-size:14.1111px;font-family:Raleway;-inkscape-font-specification:'Raleway Bold';fill:#ffffff;fill-opacity:1;stroke-width:0.264583"
             id="path945" />
          <path
             d="m 49.083074,237.0509 q -0.903111,0 -1.622777,-0.31044 -0.719666,-0.31045 -1.227666,-0.83256 -0.493888,-0.53622 -0.761999,-1.22766 -0.268111,-0.69145 -0.268111,-1.45345 0,-0.77611 0.268111,-1.46755 0.268111,-0.69145 0.761999,-1.21356 0.508,-0.53622 1.227666,-0.84666 0.719666,-0.31045 1.622777,-0.31045 0.90311,0 1.608665,0.31045 0.719666,0.31044 1.213555,0.84666 0.507999,0.52211 0.77611,1.21356 0.268111,0.69144 0.268111,1.46755 0,0.762 -0.268111,1.45345 -0.268111,0.69144 -0.761999,1.22766 -0.493889,0.52211 -1.213555,0.83256 -0.719666,0.31044 -1.622776,0.31044 z m -1.933221,-3.82411 q 0,0.49389 0.141111,0.90311 0.155222,0.39511 0.409222,0.69145 0.268111,0.29633 0.620888,0.46566 0.352778,0.15523 0.762,0.15523 0.409222,0 0.761999,-0.15523 0.352778,-0.16933 0.606777,-0.46566 0.268111,-0.29634 0.409222,-0.70556 0.155222,-0.40922 0.155222,-0.90311 0,-0.47978 -0.155222,-0.889 -0.141111,-0.40922 -0.409222,-0.70555 -0.253999,-0.29634 -0.606777,-0.45156 -0.352777,-0.16933 -0.761999,-0.16933 -0.409222,0 -0.762,0.16933 -0.352777,0.16934 -0.620888,0.46567 -0.254,0.29633 -0.409222,0.70555 -0.141111,0.40923 -0.141111,0.889 z"
             style="font-style:normal;font-variant:normal;font-weight:bold;font-stretch:normal;font-size:14.1111px;font-family:Raleway;-inkscape-font-specification:'Raleway Bold';fill:#ffffff;fill-opacity:1;stroke-width:0.264583"
             id="path947" />
          <path
             d="m 57.063782,237.0509 q -0.451555,0 -0.945443,-0.0706 -0.479778,-0.0706 -0.945444,-0.19756 -0.465666,-0.127 -0.888999,-0.31044 -0.423333,-0.18345 -0.747889,-0.40923 l 0.762,-1.28411 q 1.41111,0.91723 2.723442,0.91723 0.592666,0 0.931333,-0.21167 0.338666,-0.21167 0.338666,-0.60678 0,-0.39511 -0.409222,-0.57855 -0.395111,-0.19756 -1.340554,-0.42334 -0.719666,-0.16933 -1.227666,-0.35277 -0.508,-0.18345 -0.818444,-0.42334 -0.310444,-0.23989 -0.451555,-0.55033 -0.141111,-0.31044 -0.141111,-0.73378 0,-0.56444 0.225778,-1.016 0.225777,-0.45155 0.620888,-0.762 0.409222,-0.32455 0.945444,-0.49388 0.550333,-0.16934 1.185332,-0.16934 0.790222,0 1.566332,0.254 0.790222,0.23989 1.467555,0.66322 l -0.776111,1.17123 q -0.620888,-0.39512 -1.171221,-0.56445 -0.550333,-0.18344 -1.100666,-0.18344 -0.508,0 -0.860777,0.19755 -0.338666,0.19756 -0.338666,0.635 0,0.381 0.324555,0.55033 0.338666,0.16934 1.185332,0.381 0.790222,0.19756 1.340555,0.39512 0.564444,0.19755 0.917221,0.45155 0.366889,0.254 0.522111,0.59267 0.169333,0.32455 0.169333,0.79022 0,0.53622 -0.225777,0.97366 -0.211667,0.43745 -0.606778,0.74789 -0.39511,0.29634 -0.973666,0.46567 -0.564444,0.15522 -1.255888,0.15522 z"
             style="font-style:normal;font-variant:normal;font-weight:bold;font-stretch:normal;font-size:14.1111px;font-family:Raleway;-inkscape-font-specification:'Raleway Bold';fill:#ffffff;fill-opacity:1;stroke-width:0.264583"
             id="path949" />
        </g>
      </g>
    </g>
  </g>
</svg>
